<?xml version="1.0" standalone="no"?>
<!DOCTYPE svg PUBLIC "-//W3C//DTD SVG 1.1//EN" "http://www.w3.org/Graphics/SVG/1.1/DTD/svg11.dtd" >
<svg xmlns="http://www.w3.org/2000/svg" xmlns:xlink="http://www.w3.org/1999/xlink" version="1.1">
<metadata></metadata>
<defs>
<font id="geometria_extraboldXBdIt" horiz-adv-x="1339" >
<font-face units-per-em="2048" ascent="1589" descent="-459" />
<missing-glyph horiz-adv-x="516" />
<glyph unicode="&#xfb01;" horiz-adv-x="1501" d="M150 750l47 290h174l8 56q26 162 138 264t302 102q160 0 277 -49l-45 -280q-82 36 -172 36q-126 0 -144 -110l-2 -19h793l-164 -1040h-363l117 750h-430l-117 -750h-362l117 750h-174zM1182 1343q0 88 60.5 148.5t146.5 60.5q88 0 148 -60.5t60 -148.5t-60 -148t-148 -60 q-87 0 -147 60.5t-60 147.5z" />
<glyph unicode="&#xfb02;" horiz-adv-x="1558" d="M150 750l47 290h174l8 56q26 162 138 264t302 102q160 0 277 -49l-45 -280q-82 36 -172 36q-126 0 -144 -110l-2 -19h430l62 394h362l-164 -1045q-6 -36 -6 -53q0 -53 62 -53q35 0 63 14l-45 -285q-89 -39 -194 -39q-119 0 -190 63.5t-71 192.5q0 43 15 131l59 390h-430 l-117 -750h-362l117 750h-174z" />
<glyph unicode="&#xfb03;" horiz-adv-x="2273" d="M150 750h174l-119 -750h362l119 750h432l-119 -750h363l119 750h428l-117 -750h362l164 1040h-792q10 69 45.5 99t103.5 30q80 0 168 -36l45 280q-117 49 -276 49q-194 0 -305.5 -105t-137.5 -288l-4 -29h-434q10 68 46 98.5t104 30.5q80 0 168 -36l45 280 q-117 49 -277 49q-194 0 -305 -105t-137 -288l-4 -29h-174zM1974 1343q0 88 60.5 148.5t146.5 60.5q88 0 148.5 -60.5t60.5 -148.5t-60.5 -148t-148.5 -60q-87 0 -147 60.5t-60 147.5z" />
<glyph unicode="&#xfb04;" horiz-adv-x="2351" d="M150 750l47 290h174l4 29q26 183 137 288t305 105q160 0 277 -49l-45 -280q-88 36 -168 36q-68 0 -104 -30.5t-46 -98.5h434l4 29q26 183 137.5 288t305.5 105q159 0 276 -49l-45 -280q-88 36 -168 36q-68 0 -103.5 -30t-45.5 -99h430l61 394h363l-164 -1045 q-6 -36 -6 -53q0 -53 61 -53q36 0 64 14l-45 -285q-89 -39 -195 -39q-119 0 -189.5 63.5t-70.5 192.5q0 49 14 131l60 390h-428l-119 -750h-363l119 750h-432l-119 -750h-362l119 750h-174z" />
<glyph horiz-adv-x="0" />
<glyph horiz-adv-x="682" />
<glyph unicode=" "  horiz-adv-x="516" />
<glyph unicode="&#x09;" horiz-adv-x="516" />
<glyph unicode="&#xa0;" horiz-adv-x="516" />
<glyph unicode="!" horiz-adv-x="739" d="M184 188q0 -89 63 -152t152 -63t152 63t63 152q0 91 -63 154.5t-152 63.5t-152 -63.5t-63 -154.5zM283 496l63 938h498l-232 -938h-329z" />
<glyph unicode="&#x22;" horiz-adv-x="843" d="M174 778l102 656h312l-103 -656h-311zM604 778l103 656h311l-103 -656h-311z" />
<glyph unicode="#" horiz-adv-x="1581" d="M147 317l46 277h276l39 246h-277l43 276h279l49 318h281l-49 -318h256l49 318h280l-49 -318h277l-45 -276h-277l-39 -246h279l-45 -277h-277l-51 -317h-281l52 317h-256l-52 -317h-280l51 317h-279zM750 594h256l38 246h-256z" />
<glyph unicode="$" horiz-adv-x="1294" d="M106 125l60 377q77 -80 232 -138.5t294 -58.5q25 0 50 2t59 9.5t59 20.5t42.5 37t17.5 56q0 17 -5.5 31t-20 26t-28.5 20t-41.5 18t-47 16.5t-58 17.5t-62.5 19q-46 15 -71.5 24t-68 25t-67 29t-59.5 33.5t-55.5 40.5t-44 47.5t-35.5 57.5t-20.5 68.5t-8.5 81.5 q0 206 133.5 324.5t354.5 144.5l30 199h316l-33 -207q181 -29 309 -100l-57 -355q-82 56 -215.5 96.5t-257.5 40.5q-199 0 -199 -98q0 -20 15 -35t47.5 -27.5t65.5 -22.5t89.5 -26t98.5 -30q84 -29 147 -62t119 -81t85.5 -115.5t29.5 -151.5q0 -206 -141.5 -337t-366.5 -162 l-31 -199h-315l30 205q-238 30 -375 139z" />
<glyph unicode="%" horiz-adv-x="1677" d="M176 1077q0 151 107.5 261t269.5 110q158 0 260 -95.5t102 -246.5t-107 -261t-269 -110q-158 0 -260.5 95.5t-102.5 246.5zM285 0l1091 1434h244l-1092 -1434h-243zM414 1075q0 -57 35 -90t88 -33q59 0 100 44.5t41 111.5q0 57 -35 90t-88 33q-59 0 -100 -44.5 t-41 -111.5zM987 328q0 151 107.5 260.5t269.5 109.5q158 0 260 -95.5t102 -246.5t-107 -260.5t-269 -109.5q-158 0 -260.5 95.5t-102.5 246.5zM1225 326q0 -57 35 -90t88 -33q59 0 100 44t41 111q0 57 -35 90t-88 33q-59 0 -100 -44t-41 -111z" />
<glyph unicode="&#x26;" horiz-adv-x="1515" d="M111 451q0 85 30 162t77 130.5t97 89.5t99 52q-43 79 -43 192q0 171 124 278t341 107q114 0 227.5 -38t189.5 -97l-53 -330q-68 68 -156.5 112t-175.5 44q-66 0 -102.5 -27t-36.5 -79q0 -49 30 -98.5t95 -129.5l221 -274q57 92 90 248h342q-49 -293 -225 -506l231 -287 h-409l-66 80q-174 -109 -379 -109q-242 0 -395 129t-153 351zM471 469q0 -77 57 -132.5t152 -55.5q88 0 160 41l-258 325q-42 -16 -76.5 -63t-34.5 -115z" />
<glyph unicode="'" horiz-adv-x="413" d="M174 778l102 656h312l-103 -656h-311z" />
<glyph unicode="(" horiz-adv-x="806" d="M250 408q0 598 375 1026h366q-190 -216 -298.5 -478.5t-108.5 -537.5q0 -400 225 -729h-367q-95 140 -143.5 328.5t-48.5 390.5z" />
<glyph unicode=")" horiz-adv-x="806" d="M12 -311q191 216 299.5 478.5t108.5 537.5q0 400 -225 729h366q95 -141 144 -329t49 -390q0 -598 -375 -1026h-367z" />
<glyph unicode="*" horiz-adv-x="858" d="M197 946l225 113l-186 102l120 168l172 -127l25 232h203l-43 -228l209 123l73 -174l-225 -113l186 -102l-125 -168l-167 123l-29 -227h-203l47 225l-209 -121z" />
<glyph unicode="+" horiz-adv-x="1257" d="M174 514l51 320h377l60 378h319l-59 -378h376l-51 -320h-377l-59 -377h-319l59 377h-377z" />
<glyph unicode="," horiz-adv-x="669" d="M-25 -311l287 671h375l-369 -671h-293z" />
<glyph unicode="-" horiz-adv-x="1009" d="M238 414l51 323h661l-51 -323h-661z" />
<glyph unicode="." horiz-adv-x="573" d="M104 190q0 89 63 152.5t152 63.5t152.5 -63.5t63.5 -152.5q0 -90 -63.5 -153.5t-152.5 -63.5t-152 63t-63 154z" />
<glyph unicode="/" horiz-adv-x="1118" d="M-113 -287l1164 1909h362l-1165 -1909h-361z" />
<glyph unicode="0" horiz-adv-x="1454" d="M197 621q0 116 29 234.5t88.5 227.5t141.5 193.5t197 135t246 50.5q268 0 425 -179t157 -470q0 -96 -21 -195t-60.5 -193.5t-100.5 -176.5t-137 -144t-175 -97.5t-209 -35.5q-268 0 -424.5 179.5t-156.5 470.5zM565 627q0 -63 12.5 -118t39 -101t72 -72.5t106.5 -26.5 q75 0 137 48.5t99.5 124t58 160.5t20.5 165q0 63 -12 117.5t-38 100.5t-71 72.5t-106 26.5q-75 0 -138 -48.5t-101 -124t-58.5 -160t-20.5 -164.5z" />
<glyph unicode="1" horiz-adv-x="845" d="M184 909l56 355l362 170h320l-226 -1434h-362l164 1044z" />
<glyph unicode="2" horiz-adv-x="1191" d="M72 0l43 264l428 352q153 125 212.5 197.5t59.5 147.5q0 77 -51.5 121t-145.5 44q-108 0 -200.5 -35t-188.5 -104l60 367q171 108 405 108q99 0 188 -29.5t158 -84t109.5 -140t40.5 -190.5q0 -150 -86.5 -279t-274.5 -276l-190 -150h526l-49 -313h-1044z" />
<glyph unicode="3" horiz-adv-x="1193" d="M86 106l55 340q39 -29 73.5 -50.5t88.5 -47t119.5 -39.5t136.5 -14q68 0 126 21.5t98 71t40 118.5q0 72 -58 119t-169 47q-107 0 -207 -41l37 235l348 258h-487l51 310h942l-45 -273l-328 -262q34 -13 68.5 -31.5t74 -52.5t69 -74.5t49.5 -100.5t20 -128q0 -161 -80 -285 t-220.5 -190t-318.5 -66q-296 0 -483 135z" />
<glyph unicode="4" horiz-adv-x="1325" d="M90 340l41 258l815 836h365l-127 -807h198l-45 -287h-198l-54 -340h-358l53 340h-690zM524 627h301l58 360z" />
<glyph unicode="5" horiz-adv-x="1198" d="M100 86l52 340q186 -135 393 -135q52 0 100 11.5t90 35.5t67 66.5t25 99.5q0 78 -68.5 124t-203.5 46q-148 0 -326 -51l211 811h807l-49 -314h-534l-41 -164q50 5 82 5q223 0 359 -126t136 -317q0 -173 -86.5 -299t-232.5 -188t-334 -62q-278 0 -447 117z" />
<glyph unicode="6" horiz-adv-x="1308" d="M193 541q0 140 31.5 273.5t96 251t154 206t214 139.5t267.5 51q111 0 206 -28.5t157 -77.5l-51 -324q-127 105 -303 105q-137 0 -235 -80t-126 -207q118 108 291 108q187 -6 298.5 -127t111.5 -303q0 -159 -72 -285.5t-205 -199t-305 -72.5q-104 0 -191 29t-149 80.5 t-105 123t-64 156.5t-21 181zM541 483q0 -98 51 -152.5t129 -54.5q88 0 153.5 64.5t65.5 159.5q0 77 -46.5 127.5t-129.5 50.5q-60 0 -116 -31.5t-99 -89.5q-8 -33 -8 -74z" />
<glyph unicode="7" horiz-adv-x="1181" d="M143 0l729 1112h-632l49 322h1046l-45 -287l-755 -1147h-392z" />
<glyph unicode="8" horiz-adv-x="1329" d="M139 399q0 132 86 238t224 147q-71 37 -113.5 108.5t-42.5 154.5q0 123 74.5 219t194.5 146t261 50q91 0 180 -24t166.5 -70t125.5 -124.5t48 -176.5q0 -109 -65 -197.5t-172 -130.5q91 -39 151 -127t60 -190q0 -136 -83.5 -241t-213.5 -157.5t-281 -52.5 q-111 0 -214.5 25.5t-191.5 75t-141 134.5t-53 193zM520 444q0 -67 59.5 -113t147.5 -46q85 0 152 46t67 126q0 67 -58.5 114t-150.5 47q-86 0 -151.5 -47t-65.5 -127zM637 1008q0 -58 49.5 -98t120.5 -40t125.5 40t54.5 108q0 61 -49 99t-123 38q-71 0 -124.5 -39.5 t-53.5 -107.5z" />
<glyph unicode="9" horiz-adv-x="1308" d="M215 78l51 323q125 -104 303 -104q137 0 235 80t126 207q-119 -109 -291 -109q-187 6 -298.5 127t-111.5 303q0 159 72 285.5t205 199t305 72.5q129 0 231.5 -44t167 -122t98 -180.5t33.5 -222.5q0 -140 -31.5 -273.5t-96 -251t-154 -206t-214 -140t-267.5 -51.5 q-111 0 -206 29t-157 78zM594 934q0 -77 46.5 -127.5t129.5 -50.5q60 0 116 31.5t99 89.5q8 33 8 73q0 98 -51 152.5t-129 54.5q-88 0 -153.5 -64t-65.5 -159z" />
<glyph unicode=":" horiz-adv-x="573" d="M104 190q0 89 63 152.5t152 63.5t152.5 -63.5t63.5 -152.5q0 -90 -63.5 -153.5t-152.5 -63.5t-152 63t-63 154zM203 821q0 89 63 152t152 63t152 -63t63 -152q0 -91 -63 -154t-152 -63t-152 63t-63 154z" />
<glyph unicode=";" horiz-adv-x="663" d="M-25 -311l287 671h375l-369 -671h-293zM293 821q0 89 63 152t152 63t152 -63t63 -152q0 -91 -63 -154t-152 -63t-152 63t-63 154z" />
<glyph unicode="&#x3c;" horiz-adv-x="1257" d="M172 512l55 342l1139 426l-59 -367l-746 -245l668 -246l-51 -336z" />
<glyph unicode="=" horiz-adv-x="1257" d="M137 291l51 323h1074l-52 -323h-1073zM211 756l51 323h1073l-51 -323h-1073z" />
<glyph unicode="&#x3e;" horiz-adv-x="1257" d="M104 86l60 369l745 245l-667 246l51 334l1007 -426l-55 -342z" />
<glyph unicode="?" horiz-adv-x="1030" d="M209 1055l51 311q184 96 408 96q96 0 181.5 -22t156.5 -66t113 -119.5t42 -173.5q0 -90 -36 -166.5t-98.5 -130.5t-138.5 -92t-165 -59l-23 -137h-344l50 321q50 7 103.5 20t120.5 37.5t109.5 65.5t42.5 92q0 56 -58 83.5t-159 27.5q-153 0 -356 -88zM270 188 q0 -89 63 -152t152 -63t152 63t63 152q0 91 -63 154.5t-152 63.5t-152 -63.5t-63 -154.5z" />
<glyph unicode="@" horiz-adv-x="1894" d="M133 494q0 191 74 368t200 309t306 211.5t381 79.5q178 0 334 -61t265 -166t171.5 -250t62.5 -307q0 -155 -55.5 -285t-163 -210.5t-246.5 -80.5q-202 0 -264 140q-139 -150 -324 -150q-169 0 -269.5 118.5t-100.5 295.5q0 97 31 189.5t87.5 167.5t147 121t199.5 46 q94 0 164.5 -37.5t107.5 -83.5l16 99h293l-92 -592q-6 -38 -6 -68q0 -67 28 -101t79 -34q71 0 136 61t105.5 169t40.5 233q0 143 -51.5 271t-145 225.5t-237.5 154.5t-317 57q-172 0 -332 -69.5t-278 -187.5t-188.5 -283t-70.5 -346q0 -215 92 -385.5t264 -268.5t394 -98 q236 0 461 127l-15 -92q-205 -113 -450 -113q-140 0 -268 39t-230.5 112t-178 173.5t-116.5 229t-41 272.5zM821 537q0 -84 51 -132.5t127 -48.5q104 0 170 95l35 221q-25 43 -69.5 70.5t-100.5 27.5q-92 0 -152.5 -67t-60.5 -166z" />
<glyph unicode="A" horiz-adv-x="1599" d="M20 0l830 1442h354l375 -1442h-387l-74 303h-532l-168 -303h-398zM750 598h299l-91 383z" />
<glyph unicode="B" horiz-adv-x="1458" d="M137 0l225 1434h660q184 0 299 -81.5t115 -236.5q0 -103 -53 -189.5t-148 -133.5q41 -11 80.5 -36.5t74.5 -65t56.5 -98.5t21.5 -128q0 -141 -74 -248t-200 -162t-283 -55h-774zM553 307h317q84 0 141.5 44.5t57.5 125.5q0 62 -45 98.5t-121 36.5h-301zM645 885h264 q72 0 117 37t45 104q0 51 -36.5 80t-98.5 29h-252z" />
<glyph unicode="C" horiz-adv-x="1378" d="M197 649q0 239 106 424t297.5 287t437.5 102q117 0 235.5 -25t199.5 -63l-62 -346q-157 94 -375 94q-210 0 -335.5 -123.5t-125.5 -326.5q0 -158 106 -259.5t286 -101.5q231 0 395 115l-57 -367q-187 -88 -375 -88q-162 0 -299.5 50.5t-232.5 140t-148 215t-53 272.5z " />
<glyph unicode="D" horiz-adv-x="1601" d="M137 0l225 1434h527q327 0 526 -185t199 -481q0 -162 -62.5 -304t-171.5 -244t-266 -161t-338 -59h-639zM557 324h238q208 0 324 123.5t116 320.5q0 144 -97.5 243t-258.5 99h-199z" />
<glyph unicode="E" d="M137 0l225 1434h1090l-51 -324h-721l-31 -195h574l-49 -311h-574l-43 -280h737l-51 -324h-1106z" />
<glyph unicode="F" horiz-adv-x="1298" d="M137 0l225 1434h1090l-51 -324h-721l-33 -209h539l-49 -311h-539l-92 -590h-369z" />
<glyph unicode="G" horiz-adv-x="1558" d="M197 653q0 176 62 326.5t171.5 256.5t266.5 166t341 60q119 0 238.5 -25.5t200.5 -62.5l-62 -346q-157 94 -379 94q-211 0 -336 -123.5t-125 -332.5q0 -168 102 -267.5t257 -99.5q129 0 217 59l74 478h370l-104 -662q-220 -203 -592 -203q-201 0 -361 85t-250.5 241 t-90.5 356z" />
<glyph unicode="H" horiz-adv-x="1552" d="M137 0l228 1434h368l-82 -510h541l82 510h368l-227 -1434h-368l94 596h-541l-94 -596h-369z" />
<glyph unicode="I" horiz-adv-x="659" d="M145 0l226 1434h368l-225 -1434h-369z" />
<glyph unicode="J" horiz-adv-x="1052" d="M59 63l58 357q48 -46 127.5 -77.5t150.5 -31.5q110 0 173 61.5t87 211.5l136 850h368l-153 -959q-19 -118 -60 -208t-94 -145.5t-123.5 -90t-142.5 -47.5t-158 -13q-98 0 -205 25t-164 67z" />
<glyph unicode="K" horiz-adv-x="1505" d="M137 0l225 1434h369l-86 -547l522 547h459l-649 -686l530 -748h-440l-461 637l-100 -637h-369z" />
<glyph unicode="L" horiz-adv-x="1247" d="M137 0l225 1434h369l-174 -1110h688l-51 -324h-1057z" />
<glyph unicode="M" horiz-adv-x="1730" d="M137 0l225 1434h355l278 -551l449 551h377l-226 -1434h-366l137 874l-313 -385h-203l-207 385l-137 -874h-369z" />
<glyph unicode="N" horiz-adv-x="1574" d="M137 0l225 1434h314l500 -824l129 824h360l-225 -1434h-303l-508 827l-129 -827h-363z" />
<glyph unicode="O" horiz-adv-x="1695" d="M197 666q0 167 62 315t168 253.5t252.5 166.5t309.5 61t298 -51t227 -142.5t143 -220t51 -280.5q0 -166 -61.5 -313.5t-167 -253.5t-252.5 -168t-312 -62q-215 0 -378.5 89t-251.5 246.5t-88 359.5zM575 666q0 -149 95.5 -252t255.5 -103q179 0 291 130.5t112 326.5 q0 149 -95 251.5t-255 102.5q-177 0 -290.5 -130.5t-113.5 -325.5z" />
<glyph unicode="P" horiz-adv-x="1345" d="M137 0l225 1434h615q222 0 349.5 -109.5t127.5 -286.5q0 -222 -160.5 -362.5t-410.5 -140.5h-293l-84 -535h-369zM637 838h242q82 0 141 40t59 121q0 59 -38.5 91t-114.5 32h-244z" />
<glyph unicode="Q" horiz-adv-x="1695" d="M197 666q0 167 62 315t168 253.5t252.5 166.5t309.5 61t298 -51t227 -142.5t143 -220t51 -280.5q0 -256 -139.5 -457.5t-366.5 -287.5q54 -72 176 -72q96 0 178 43l-47 -305q-113 -47 -237 -47q-125 0 -241 76t-226 259q-278 32 -443 220.5t-165 468.5zM575 666 q0 -149 95.5 -252t255.5 -103q179 0 291 130.5t112 326.5q0 149 -95 251.5t-255 102.5q-177 0 -290.5 -130.5t-113.5 -325.5z" />
<glyph unicode="R" horiz-adv-x="1492" d="M137 0l225 1434h635q219 0 346 -113.5t127 -290.5q0 -149 -86.5 -263t-236.5 -179l360 -588h-415l-336 547h-164l-86 -547h-369zM639 848h276q79 0 130 37.5t51 107.5q0 59 -40.5 94t-111.5 35h-262z" />
<glyph unicode="S" horiz-adv-x="1294" d="M106 125l60 377q77 -80 232 -138.5t294 -58.5q25 0 50 2t59 9.5t59 20.5t42.5 37t17.5 56q0 17 -5.5 31t-20 26t-28.5 20t-41.5 18t-47 16.5t-58 17.5t-62.5 19q-46 15 -71.5 24t-68 25t-67 29t-59.5 33.5t-55.5 40.5t-44 47.5t-35.5 57.5t-20.5 68.5t-8.5 81.5 q0 120 48 212.5t132 149.5t193 86t238 29q145 0 277.5 -33t221.5 -83l-57 -355q-82 56 -215.5 96.5t-257.5 40.5q-199 0 -199 -98q0 -20 15 -35t47.5 -27.5t65.5 -22.5t89.5 -26t98.5 -30q84 -29 147 -62t119 -81t85.5 -115.5t29.5 -151.5q0 -158 -87 -275t-229 -175 t-317 -58q-163 0 -314.5 38t-251.5 116z" />
<glyph unicode="T" horiz-adv-x="1345" d="M231 1110l52 324h1230l-51 -324h-432l-174 -1110h-369l175 1110h-431z" />
<glyph unicode="U" horiz-adv-x="1495" d="M203 502q0 54 10 129l127 803h373l-129 -811q-11 -61 -11 -95q0 -107 67 -162t179 -55q106 0 183 62.5t98 191.5l137 869h371l-138 -871q-23 -144 -86.5 -258t-155.5 -186t-204.5 -110t-237.5 -38q-115 0 -218.5 34t-185.5 98.5t-130.5 167.5t-48.5 231z" />
<glyph unicode="V" horiz-adv-x="1568" d="M248 1434h397l209 -934l506 934h412l-816 -1442h-350z" />
<glyph unicode="W" horiz-adv-x="2228" d="M250 1434h403l107 -854l436 858h287l162 -858l376 854h412l-707 -1442h-323l-154 839l-424 -839h-327z" />
<glyph unicode="X" horiz-adv-x="1507" d="M-10 0l669 770l-362 664h420l196 -369l314 369h434l-571 -662l428 -772h-418l-262 477l-408 -477h-440z" />
<glyph unicode="Y" horiz-adv-x="1490" d="M236 1434h411l246 -473l395 473h418l-676 -791l-100 -643h-369l101 635z" />
<glyph unicode="Z" horiz-adv-x="1314" d="M51 0l41 262l817 848h-657l51 324h1153l-41 -260l-815 -850h715l-51 -324h-1213z" />
<glyph unicode="[" horiz-adv-x="925" d="M78 -422l295 1868h708l-43 -279h-381l-208 -1310h380l-43 -279h-708z" />
<glyph unicode="\" horiz-adv-x="1118" d="M227 1622h342l559 -1909h-342z" />
<glyph unicode="]" horiz-adv-x="925" d="M6 -422l41 279h381l209 1310h-381l43 279h709l-295 -1868h-707z" />
<glyph unicode="^" horiz-adv-x="1165" d="M160 686l493 850h342l228 -850h-334l-107 541l-274 -541h-348z" />
<glyph unicode="_" horiz-adv-x="1351" d="M-45 -328l39 238h1337l-39 -238h-1337z" />
<glyph unicode="`" horiz-adv-x="1069" d="M479 1491h428l146 -311h-301z" />
<glyph unicode="a" horiz-adv-x="1239" d="M92 293q0 166 123.5 263t300.5 97q175 0 293 -63q4 27 4 57q0 43 -20.5 72t-58 42t-74.5 18t-85 5q-67 0 -148 -17t-146 -46l45 285q157 61 358 61q78 0 148 -12t134 -41t110 -72t73 -109t27 -149q0 -24 -17 -135l-26 -156q-9 -52 -9 -71q0 -27 17 -41.5t45 -14.5 q26 0 53 10l-41 -251q-34 -22 -84 -35t-98 -13q-94 0 -160 31t-86 88q-123 -123 -311 -123q-173 0 -270 90t-97 230zM451 324q0 -51 38.5 -81t100.5 -30q105 0 172 82l18 111q-57 51 -157 51q-70 0 -121 -34.5t-51 -98.5z" />
<glyph unicode="b" d="M125 0l225 1434h363l-80 -506q130 139 315 139q124 0 220 -65t147 -174t51 -242q0 -113 -36 -221t-102 -196.5t-171 -142t-232 -53.5q-110 0 -192 43.5t-127 98.5l-19 -115h-362zM549 391q28 -48 86.5 -81.5t124.5 -33.5q99 0 167 79t68 194q0 98 -54 154.5t-142 56.5 q-62 0 -117 -29.5t-92 -81.5z" />
<glyph unicode="c" horiz-adv-x="1048" d="M133 485q0 122 48.5 230t132.5 185t201 122t249 45q188 0 336 -80l-49 -301q-69 34 -125.5 50t-132.5 16q-131 0 -215 -68t-84 -182q0 -59 26.5 -104t69.5 -70t90.5 -37t97.5 -12q122 0 234 49l-49 -301q-127 -54 -273 -54q-152 0 -277 58t-202.5 176.5t-77.5 277.5z" />
<glyph unicode="d" horiz-adv-x="1341" d="M133 455q0 113 36 221t102 196t171 141.5t232 53.5q110 0 192 -43t127 -98l80 508h363l-224 -1434h-362l16 113q-131 -140 -315 -140q-186 0 -302 139t-116 343zM504 492q0 -98 54 -154.5t142 -56.5q62 0 117 29t92 81l41 258q-28 48 -86.5 81.5t-124.5 33.5 q-99 0 -167 -78.5t-68 -193.5z" />
<glyph unicode="e" horiz-adv-x="1167" d="M133 473q0 256 168 425t420 169q212 0 344.5 -123t132.5 -321q0 -79 -22 -191h-697q10 -82 91 -122t200 -40q167 0 332 84l-43 -282q-135 -99 -391 -99q-150 0 -271 60t-192.5 175t-71.5 265zM506 625h346q1 9 1 17q1 66 -35 110q-40 48 -113 49q-70 0 -124.5 -47 t-74.5 -129z" />
<glyph unicode="f" horiz-adv-x="929" d="M150 750l47 290h174l4 29q26 183 137 288t305 105q160 0 277 -49l-45 -280q-88 36 -168 36q-68 0 -104 -30.5t-46 -98.5h303l-47 -290h-301l-119 -750h-362l119 750h-174z" />
<glyph unicode="g" horiz-adv-x="1306" d="M111 -334l49 316q151 -101 356 -101q41 0 79.5 5.5t82 21.5t77.5 41.5t61 69.5t36 102l8 59q-133 -133 -317 -133q-186 0 -298 129t-112 320q0 84 21 165t65.5 154.5t106.5 129t150 88t190 32.5q195 0 313 -133l16 108h363l-146 -931q-18 -115 -67 -206.5t-117 -151.5 t-155 -99.5t-177 -56.5t-186 -17q-121 0 -229 24t-170 64zM504 526q0 -84 52 -133t138 -49q122 0 207 98l35 220q-31 44 -84.5 72t-120.5 28q-98 0 -162.5 -68t-64.5 -168z" />
<glyph unicode="h" horiz-adv-x="1269" d="M125 0l227 1434h363l-82 -512q153 145 328 145q148 0 231.5 -94.5t83.5 -251.5q0 -72 -12 -146l-90 -575h-363l82 522q8 54 8 86q0 69 -36.5 102t-92.5 33q-99 0 -180 -88l-105 -655h-362z" />
<glyph unicode="i" horiz-adv-x="634" d="M135 0l164 1040h363l-164 -1040h-363zM317 1343q0 88 60.5 148.5t146.5 60.5q88 0 148.5 -60.5t60.5 -148.5t-60.5 -148t-148.5 -60q-86 0 -146.5 60.5t-60.5 147.5z" />
<glyph unicode="j" horiz-adv-x="634" d="M-225 -377l47 301q76 -39 149 -39q77 0 117.5 36.5t56.5 141.5l154 977h363l-170 -1073q-30 -192 -153 -290.5t-321 -98.5q-66 0 -136.5 12t-106.5 33zM317 1343q0 88 60.5 148.5t146.5 60.5q88 0 148.5 -60.5t60.5 -148.5t-60.5 -148t-148.5 -60q-86 0 -146.5 60.5 t-60.5 147.5z" />
<glyph unicode="k" horiz-adv-x="1294" d="M125 0l225 1434h363l-119 -742l344 348h457l-490 -491l391 -549h-417l-324 440l-68 -440h-362z" />
<glyph unicode="l" horiz-adv-x="684" d="M168 229q0 49 14 131l168 1074h363l-164 -1045q-6 -36 -6 -53q0 -53 61 -53q36 0 64 14l-45 -285q-89 -39 -195 -39q-119 0 -189.5 63.5t-70.5 192.5z" />
<glyph unicode="m" horiz-adv-x="1908" d="M125 0l164 1040h362l-18 -118q141 145 319 145q107 0 182.5 -51.5t100.5 -116.5q68 74 165.5 121t201.5 47q139 0 226 -83t87 -239q0 -46 -21 -170l-90 -575h-362l86 549q8 58 8 80q0 61 -33 88.5t-82 27.5q-102 0 -172 -90l-102 -655h-363l84 539q11 63 11 90 q0 61 -32.5 88.5t-78.5 27.5q-50 0 -97.5 -24.5t-80.5 -65.5l-103 -655h-362z" />
<glyph unicode="n" horiz-adv-x="1269" d="M125 0l164 1040h362l-18 -116q151 143 328 143q148 0 231.5 -94.5t83.5 -251.5q0 -72 -12 -146l-90 -575h-363l82 522q8 54 8 86q0 69 -36.5 102t-92.5 33q-99 0 -180 -88l-105 -655h-362z" />
<glyph unicode="o" horiz-adv-x="1241" d="M133 500q0 148 73.5 277.5t208 209.5t298.5 80q240 0 397.5 -146.5t157.5 -377.5q0 -111 -43.5 -215t-119.5 -182.5t-185.5 -125.5t-233.5 -47q-156 0 -282 66t-198.5 186.5t-72.5 274.5zM479 492q0 -97 59 -155t146 -58q99 0 168.5 78.5t69.5 193.5q0 97 -59 154 t-148 57q-99 0 -167.5 -78t-68.5 -192z" />
<glyph unicode="p" d="M59 -410l230 1450h362l-18 -112q130 139 315 139q124 0 220 -65t147 -174t51 -242q0 -90 -22.5 -178t-68 -166.5t-109 -138.5t-152.5 -95t-191 -35q-110 0 -192 43.5t-127 98.5l-82 -525h-363zM549 391q28 -48 86.5 -81.5t124.5 -33.5q99 0 167 79t68 194q0 98 -54 154.5 t-142 56.5q-62 0 -117 -29.5t-92 -81.5z" />
<glyph unicode="q" d="M133 455q0 113 36 221t102 196t171 141.5t232 53.5q110 0 192 -43t127 -98l19 114h362l-227 -1450h-363l82 523q-131 -140 -315 -140q-186 0 -302 139t-116 343zM504 492q0 -98 54 -154.5t142 -56.5q62 0 117 29t92 81l41 258q-28 48 -86.5 81.5t-124.5 33.5 q-99 0 -167 -78.5t-68 -193.5z" />
<glyph unicode="r" horiz-adv-x="931" d="M125 0l164 1040h362l-26 -170q48 71 154 134t218 63q29 0 45 -4l-55 -350q-66 16 -121 16q-93 0 -169 -34.5t-115 -90.5l-95 -604h-362z" />
<glyph unicode="s" horiz-adv-x="1060" d="M92 92l45 293q66 -48 180.5 -87.5t243.5 -39.5q62 0 91.5 12t29.5 41q0 10 -5 18.5t-17 16.5t-24.5 14t-34.5 14t-40 13.5t-48 15.5t-52 17q-147 53 -213 113t-66 161q0 93 39.5 166t108 117t154.5 67t184 23q260 0 428 -119l-47 -286q-72 51 -171 87.5t-196 36.5 q-121 0 -121 -51q0 -25 28.5 -39.5t115.5 -40.5q15 -4 23.5 -6.5t22.5 -7t27 -8.5q141 -44 208 -112.5t67 -182.5q0 -74 -28 -136t-75 -103.5t-110 -70.5t-131.5 -42t-141.5 -13q-130 0 -261 32t-214 87z" />
<glyph unicode="t" horiz-adv-x="919" d="M147 750l48 290h182l43 267h362l-43 -267h265l-48 -290h-264l-45 -289q-10 -72 -10 -92q0 -82 100 -82q78 0 154 43l-45 -289q-111 -68 -268 -68q-136 0 -226 78.5t-90 222.5q0 43 8 93l60 383h-183z" />
<glyph unicode="u" horiz-adv-x="1273" d="M158 319q0 72 12 146l90 575h363l-82 -522q-9 -61 -9 -86q0 -69 37 -102t93 -33q99 0 180 88l104 655h363l-164 -1040h-363l19 119q-154 -146 -328 -146q-148 0 -231.5 94.5t-83.5 251.5z" />
<glyph unicode="v" horiz-adv-x="1216" d="M160 1040h377l131 -598l319 598h381l-606 -1048h-328z" />
<glyph unicode="w" horiz-adv-x="1705" d="M184 1040h351l81 -530l250 534h287l86 -534l246 530h364l-512 -1048h-311l-98 534l-260 -534h-310z" />
<glyph unicode="x" horiz-adv-x="1255" d="M20 0l490 537l-297 503h385l141 -247l211 247h418l-455 -501l320 -539h-385l-160 279l-248 -279h-420z" />
<glyph unicode="y" horiz-adv-x="1247" d="M43 -375l49 312q69 -50 160 -50q147 0 229 148l-297 1005h377l146 -626l301 626h383l-629 -1144q-88 -158 -215 -238t-281 -80q-64 0 -126 14t-97 33z" />
<glyph unicode="z" horiz-adv-x="1105" d="M61 0l37 240l543 508h-436l47 292h919l-38 -247l-551 -500h503l-45 -293h-979z" />
<glyph unicode="{" horiz-adv-x="847" d="M145 422l43 278q97 10 136.5 62.5t58.5 165.5l20 133q28 171 145 272t288 101h186l-45 -279h-109q-56 0 -94 -35t-47 -92l-35 -211q-31 -204 -215 -256q141 -40 141 -188q0 -26 -8 -76l-28 -174q-7 -49 -7 -51q0 -47 28.5 -76t78.5 -29h109l-46 -278h-186 q-151 0 -235 78.5t-84 216.5q0 36 6 77q30 187 30 226q0 62 -30 95t-101 40z" />
<glyph unicode="|" horiz-adv-x="739" d="M178 -227l281 1783h311l-281 -1783h-311z" />
<glyph unicode="}" horiz-adv-x="847" d="M2 -311l45 278h109q56 0 94 35t47 92l35 211q31 204 215 256q-141 40 -141 189q0 25 8 75l28 174q7 49 7 52q0 47 -28.5 75.5t-78.5 28.5h-109l46 279h186q151 0 235 -78.5t84 -216.5q0 -37 -6 -78q-30 -187 -30 -225q0 -62 30 -95.5t101 -40.5l-43 -278 q-97 -10 -136.5 -62.5t-58.5 -164.5l-20 -134q-28 -171 -145 -271.5t-288 -100.5h-186z" />
<glyph unicode="~" horiz-adv-x="1257" d="M143 330l52 321q37 39 112 64.5t156 25.5q72 0 146 -18t126.5 -39t126.5 -39t146 -18q160 0 272 98l-51 -324q-39 -39 -114 -63.5t-157 -24.5q-71 0 -145 17.5t-127.5 39t-127.5 39t-146 17.5q-159 0 -269 -96z" />
<glyph unicode="&#xa1;" horiz-adv-x="739" d="M72 -410l231 955h330l-64 -955h-497zM301 852q0 89 63 152t152 63t152 -63t63 -152q0 -91 -63 -154t-152 -63t-152 63t-63 154z" />
<glyph unicode="&#xa2;" horiz-adv-x="1048" d="M133 485q0 215 140.5 373.5t361.5 196.5l35 223h303l-37 -231q79 -17 164 -60l-49 -301q-69 34 -125.5 50t-132.5 16q-131 0 -215 -68t-84 -182q0 -59 26.5 -104t69.5 -70t90.5 -37t97.5 -12q122 0 234 49l-49 -301q-97 -41 -195 -50l-35 -217h-303l39 250 q-153 53 -244.5 175.5t-91.5 299.5z" />
<glyph unicode="&#xa3;" horiz-adv-x="1200" d="M61 0l52 324h61q117 0 137 131l17 110h-178l43 269h178l28 153q42 232 199 353.5t408 121.5q194 0 323 -63l-57 -355q-69 32 -123.5 47t-124.5 15q-117 0 -187 -53.5t-87 -159.5l-11 -59h410l-43 -269h-410l-16 -112q-4 -27 -14.5 -50.5t-22 -37.5t-22.5 -23.5t-18 -13.5 l-7 -4h604l-51 -324h-1088z" />
<glyph unicode="&#xa4;" horiz-adv-x="1198" d="M186 344l136 135q-68 111 -68 240q0 128 68 239l-136 136l152 153l135 -135q114 68 240 68q128 0 239 -68l138 135l151 -153l-135 -136q68 -111 68 -239q0 -129 -68 -240l135 -135l-151 -154l-138 136q-111 -68 -239 -68q-126 0 -240 68l-135 -136zM528 719 q0 -77 54.5 -132t130.5 -55q78 0 132 55t54 132t-54 131.5t-132 54.5q-76 0 -130.5 -54.5t-54.5 -131.5z" />
<glyph unicode="&#xa5;" horiz-adv-x="1429" d="M182 252l35 225h387l21 123h-387l34 225h297l-333 609h380l244 -484l397 484h388l-531 -609h301l-35 -225h-387l-20 -123h387l-35 -225h-387l-39 -252h-369l39 252h-387z" />
<glyph unicode="&#xa6;" horiz-adv-x="739" d="M178 -227l113 723h311l-113 -723h-311zM346 834l113 722h311l-113 -722h-311z" />
<glyph unicode="&#xa7;" horiz-adv-x="1345" d="M137 -215l51 317q97 -62 219 -105.5t248 -43.5q170 0 170 78q0 14 -7 26.5t-22 23.5t-32 19.5t-46 19.5t-53.5 19.5t-64.5 22t-70 24.5q-86 32 -147.5 63t-119.5 75.5t-88 103.5t-30 131q0 104 63.5 183t170.5 122q-68 77 -68 183q0 85 30.5 155t83 118t124 80.5 t151.5 47t168 14.5q298 0 512 -131l-51 -317q-239 149 -469 149q-168 0 -168 -80q0 -14 7 -26t22 -22.5t32.5 -19.5t46 -19.5t53.5 -19t64.5 -22t69.5 -24.5q86 -32 147.5 -63.5t119.5 -76t88 -103t30 -130.5q0 -105 -63 -183.5t-170 -121.5q67 -76 67 -182 q0 -85 -30.5 -155.5t-83 -118.5t-124 -81t-151.5 -48t-168 -15q-300 0 -512 133zM492 616q0 -21 13.5 -38.5t44 -33t58.5 -26.5t80 -29.5t84 -31.5l146 -60q46 6 77 33.5t31 69.5q0 21 -13.5 38.5t-44.5 33t-59 26.5t-79.5 29.5t-84.5 31.5l-145 58q-47 -6 -77.5 -32.5 t-30.5 -68.5z" />
<glyph unicode="&#xa8;" horiz-adv-x="1069" d="M322 1337q0 73 52.5 124.5t125.5 51.5q75 0 126.5 -51t51.5 -125t-51.5 -126t-126.5 -52q-72 0 -125 52.5t-53 125.5zM786 1337q0 73 52.5 124.5t126.5 51.5t126 -51.5t52 -124.5t-52.5 -125.5t-125.5 -52.5q-74 0 -126.5 52.5t-52.5 125.5z" />
<glyph unicode="&#xa9;" horiz-adv-x="1687" d="M217 717q0 149 58.5 286t157 238t237 161t291.5 60t290.5 -59.5t235.5 -159.5t155.5 -237.5t57.5 -288.5q0 -149 -58.5 -286.5t-157 -238t-237 -161t-291.5 -60.5t-290.5 59.5t-235.5 160t-155.5 238t-57.5 288.5zM297 713q0 -136 50.5 -258.5t137.5 -212t210 -142.5 t261 -53q139 0 263 53.5t211.5 144t138.5 215t51 261.5q0 182 -85.5 334t-237 241.5t-336.5 89.5t-338 -90.5t-239.5 -245t-86.5 -337.5zM575 717q0 172 127 291.5t316 119.5q119 0 205 -45v-202q-93 59 -205 59q-98 0 -165 -63t-67 -160t69 -160t173 -63q125 0 209 63v-203 q-94 -51 -219 -51q-187 0 -315 121.5t-128 292.5z" />
<glyph unicode="&#xaa;" horiz-adv-x="901" d="M160 881q0 126 92.5 199t224.5 73q138 0 246 -59q0 3 3 22t3 35q0 123 -194 123q-124 0 -232 -53l27 182q111 47 270 47q71 0 130.5 -14.5t109.5 -45t78 -84t28 -126.5q0 -34 -10 -97l-25 -147q-8 -58 -8 -59q0 -50 53 -50q14 0 41 9l-26 -158q-53 -29 -115 -29 q-143 0 -166 94q-108 -100 -254 -100q-127 0 -201.5 66.5t-74.5 171.5zM379 899q0 -44 36 -67t97 -23q52 0 99.5 21.5t76.5 54.5l14 82q-65 45 -167 45q-68 0 -112 -28t-44 -85z" />
<glyph unicode="&#xab;" horiz-adv-x="1282" d="M137 430l27 178l325 367h361l-399 -471l254 -438h-361zM666 430l26 178l326 367h360l-399 -471l254 -438h-361z" />
<glyph unicode="&#xac;" horiz-adv-x="1171" d="M184 586l52 323h987l-103 -641h-323l51 318h-664z" />
<glyph unicode="&#xad;" horiz-adv-x="1009" d="M238 414l51 323h661l-51 -323h-661z" />
<glyph unicode="&#xae;" horiz-adv-x="1667" d="M197 717q0 149 58 286t157 238t237 161t291 60t290.5 -59.5t235.5 -159.5t155.5 -237.5t57.5 -288.5q0 -149 -58 -286.5t-157 -238t-237 -161t-291 -60.5t-290.5 59.5t-235.5 160t-155.5 238t-57.5 288.5zM276 713q0 -136 50.5 -258.5t137.5 -212t210 -142.5t262 -53 t263 53.5t211 144t138 215t51 261.5q0 182 -85.5 334t-237 241.5t-336.5 89.5q-139 0 -263 -53.5t-211.5 -144t-138.5 -214.5t-51 -261zM614 344v793h373q130 0 207.5 -68t77.5 -176q0 -77 -41 -136t-113 -87l238 -326h-226l-221 303h-92v-303h-203zM817 811h160 q41 0 64.5 20.5t23.5 55.5q0 37 -23.5 58.5t-64.5 21.5h-160v-156z" />
<glyph unicode="&#xaf;" horiz-adv-x="1032" d="M276 1212l39 238h848l-39 -238h-848z" />
<glyph unicode="&#xb0;" horiz-adv-x="763" d="M225 1133q0 134 100 231.5t236 97.5q134 0 234 -97.5t100 -231.5q0 -133 -100 -230.5t-234 -97.5q-135 0 -235.5 97.5t-100.5 230.5zM424 1133q0 -59 39.5 -99.5t97.5 -40.5q57 0 96 40.5t39 99.5q0 60 -39 100.5t-96 40.5q-58 0 -97.5 -40.5t-39.5 -100.5z" />
<glyph unicode="&#xb1;" horiz-adv-x="1257" d="M92 0l51 324h1074l-52 -324h-1073zM213 772l51 324h375l53 338h324l-53 -338h374l-51 -324h-375l-51 -326h-323l51 326h-375z" />
<glyph unicode="&#xb2;" horiz-adv-x="708" d="M178 659l25 156l239 184q82 62 113 99.5t31 75.5q0 35 -26 56t-77 21q-107 0 -213 -73l35 217q96 55 225 55q116 0 197.5 -65t81.5 -181q0 -82 -47 -150t-152 -143l-96 -69h281l-29 -183h-588z" />
<glyph unicode="&#xb3;" horiz-adv-x="677" d="M154 715l34 198q35 -31 95 -54t131 -23q60 0 102.5 24t42.5 72q0 32 -31 56t-86 24q-77 0 -125 -23l21 133l180 127h-256l33 185h528l-26 -160l-168 -127q58 -25 100.5 -76.5t42.5 -130.5q0 -134 -96 -215.5t-248 -81.5q-86 0 -159.5 21.5t-114.5 50.5z" />
<glyph unicode="&#xb4;" horiz-adv-x="901" d="M436 1180l244 311h428l-371 -311h-301z" />
<glyph unicode="&#xb5;" horiz-adv-x="1302" d="M59 -410l230 1450h362l-82 -522q-8 -54 -8 -86q0 -69 36.5 -102t92.5 -33q99 0 180 88l105 655h362l-163 -1040h-363l18 119q-154 -146 -327 -146h-21l-59 -383h-363z" />
<glyph unicode="&#xb6;" horiz-adv-x="1224" d="M205 938q0 110 48 204.5t128.5 157.5t186 98.5t220.5 35.5h525l-226 -1434h-368l88 561h-156q-208 0 -327 105.5t-119 271.5z" />
<glyph unicode="&#xb7;" horiz-adv-x="573" d="M199 803q0 89 63 152t152 63t152 -63t63 -152q0 -91 -63 -154t-152 -63t-152 63t-63 154z" />
<glyph unicode="&#xb8;" horiz-adv-x="1056" d="M190 -311l263 338h286l-131 -338h-418z" />
<glyph unicode="&#xb9;" horiz-adv-x="546" d="M205 1112l35 211l229 111h211l-121 -775h-219l88 553z" />
<glyph unicode="&#xba;" horiz-adv-x="950" d="M211 1034q0 108 55 203t156.5 154t224.5 59q180 0 300 -108t120 -279q0 -82 -33 -158t-89.5 -134t-139.5 -93t-176 -35q-178 0 -298 109.5t-120 281.5zM444 1028q0 -79 52.5 -130.5t130.5 -51.5q88 0 147.5 63t59.5 158q0 79 -52 128.5t-131 49.5q-88 0 -147.5 -61.5 t-59.5 -155.5z" />
<glyph unicode="&#xbb;" horiz-adv-x="1288" d="M63 66l400 471l-254 438h360l207 -365l-26 -178l-326 -366h-361zM592 66l399 471l-254 438h361l207 -365l-27 -178l-326 -366h-360z" />
<glyph unicode="&#xbc;" horiz-adv-x="1589" d="M205 0l1098 1434h245l-1097 -1434h-246zM205 1112l35 211l229 111h211l-121 -775h-219l88 553zM889 178l26 154l445 442h221l-70 -428h107l-29 -168h-104l-29 -178h-211l29 178h-385zM1135 346h165l33 191z" />
<glyph unicode="&#xbd;" horiz-adv-x="1681" d="M205 0l1098 1434h245l-1097 -1434h-246zM205 1112l35 211l229 111h211l-121 -775h-219l88 553zM1049 0l24 156l240 184q82 62 112.5 99t30.5 75q0 35 -25.5 56.5t-76.5 21.5q-106 0 -213 -74l35 217q98 56 225 56q116 0 197 -65t81 -181q0 -82 -47 -150t-151 -143 l-97 -70h281l-29 -182h-587z" />
<glyph unicode="&#xbe;" horiz-adv-x="1667" d="M154 715l34 198q35 -31 95 -54t131 -23q60 0 102.5 24t42.5 72q0 32 -31 56t-86 24q-77 0 -125 -23l21 133l180 127h-256l33 185h528l-26 -160l-168 -127q58 -25 100.5 -76.5t42.5 -130.5q0 -134 -96 -215.5t-248 -81.5q-86 0 -159.5 21.5t-114.5 50.5zM285 0l1097 1434 h246l-1098 -1434h-245zM967 178l26 154l445 442h221l-70 -428h107l-29 -168h-104l-29 -178h-211l29 178h-385zM1212 346h166l33 191z" />
<glyph unicode="&#xbf;" horiz-adv-x="1026" d="M61 -39q0 90 36 166.5t99 131t139 92.5t165 59l22 135h344l-49 -320q-38 -5 -79 -13.5t-97 -26.5t-98.5 -40.5t-72.5 -58t-30 -76.5q0 -110 217 -110q154 0 357 88l-51 -314q-184 -96 -408 -96q-76 0 -146 13.5t-134 43.5t-111 73.5t-75 108.5t-28 144zM522 852 q0 89 63 152t152 63t152 -63t63 -152q0 -91 -63 -154t-152 -63t-152 63t-63 154z" />
<glyph unicode="&#xc0;" horiz-adv-x="1599" d="M20 0l830 1442h354l375 -1442h-387l-74 303h-532l-168 -303h-398zM633 1868h428l145 -312h-301zM750 598h299l-91 383z" />
<glyph unicode="&#xc1;" horiz-adv-x="1599" d="M20 0l830 1442h354l375 -1442h-387l-74 303h-532l-168 -303h-398zM750 598h299l-91 383zM901 1556l244 312h428l-371 -312h-301z" />
<glyph unicode="&#xc2;" horiz-adv-x="1599" d="M20 0l830 1442h354l375 -1442h-387l-74 303h-532l-168 -303h-398zM614 1556l310 312h342l204 -312h-292l-103 144l-145 -144h-316zM750 598h299l-91 383z" />
<glyph unicode="&#xc3;" horiz-adv-x="1599" d="M20 0l830 1442h354l375 -1442h-387l-74 303h-532l-168 -303h-398zM645 1559q21 132 107.5 224.5t201.5 92.5q52 0 95 -20t81 -40t76 -20q73 0 103 72h182q-20 -122 -108 -220t-199 -98q-43 0 -81 13t-60 28t-52.5 28t-60.5 13q-75 0 -103 -73h-182zM750 598h299l-91 383z " />
<glyph unicode="&#xc4;" horiz-adv-x="1599" d="M20 0l830 1442h354l375 -1442h-387l-74 303h-532l-168 -303h-398zM655 1714q0 73 53 124.5t126 51.5q75 0 126.5 -51t51.5 -125t-51.5 -126t-126.5 -52q-72 0 -125.5 52.5t-53.5 125.5zM750 598h299l-91 383zM1120 1714q0 73 52 124.5t126 51.5t126.5 -51.5t52.5 -124.5 t-52.5 -125.5t-126.5 -52.5t-126 52t-52 126z" />
<glyph unicode="&#xc5;" horiz-adv-x="1599" d="M20 0l830 1442h354l375 -1442h-387l-74 303h-532l-168 -303h-398zM750 598h299l-91 383zM819 1714q0 89 64 153t153 64t152 -64t63 -153q0 -88 -63 -151.5t-152 -63.5t-153 63.5t-64 151.5zM944 1714q0 -37 27.5 -63.5t64.5 -26.5t63.5 26.5t26.5 63.5q0 38 -26.5 65 t-63.5 27t-64.5 -27t-27.5 -65z" />
<glyph unicode="&#xc6;" horiz-adv-x="2215" d="M6 0l995 1434h1328l-52 -324h-700l-31 -195h553l-49 -311h-553l-45 -280h719l-51 -324h-1086l45 289h-473l-198 -289h-402zM819 598h309l82 520h-34z" />
<glyph unicode="&#xc7;" horiz-adv-x="1378" d="M197 649q0 239 106 424t297.5 287t437.5 102q117 0 235.5 -25t199.5 -63l-62 -346q-157 94 -375 94q-210 0 -335.5 -123.5t-125.5 -326.5q0 -158 106 -259.5t286 -101.5q231 0 395 115l-57 -367q-128 -61 -269 -79l-112 -291h-418l233 303q-249 51 -395.5 228t-146.5 429 z" />
<glyph unicode="&#xc8;" d="M137 0l225 1434h1090l-51 -324h-721l-31 -195h574l-49 -311h-574l-43 -280h737l-51 -324h-1106zM559 1868h428l146 -312h-302z" />
<glyph unicode="&#xc9;" d="M137 0l225 1434h1090l-51 -324h-721l-31 -195h574l-49 -311h-574l-43 -280h737l-51 -324h-1106zM713 1556l243 312h428l-370 -312h-301z" />
<glyph unicode="&#xca;" d="M137 0l225 1434h1090l-51 -324h-721l-31 -195h574l-49 -311h-574l-43 -280h737l-51 -324h-1106zM508 1556l309 312h342l205 -312h-293l-102 144l-146 -144h-315z" />
<glyph unicode="&#xcb;" d="M137 0l225 1434h1090l-51 -324h-721l-31 -195h574l-49 -311h-574l-43 -280h737l-51 -324h-1106zM543 1714q0 73 52.5 124.5t125.5 51.5q75 0 126.5 -51t51.5 -125t-51.5 -126t-126.5 -52q-72 0 -125 52.5t-53 125.5zM1008 1714q0 73 52 124.5t126 51.5t126 -51.5 t52 -124.5q0 -74 -52 -126t-126 -52t-126 52t-52 126z" />
<glyph unicode="&#xcc;" horiz-adv-x="659" d="M145 0l226 1434h368l-225 -1434h-369zM160 1868h428l145 -312h-301z" />
<glyph unicode="&#xcd;" horiz-adv-x="659" d="M145 0l226 1434h368l-225 -1434h-369zM428 1556l244 312h428l-371 -312h-301z" />
<glyph unicode="&#xce;" horiz-adv-x="659" d="M145 0l226 1434h368l-225 -1434h-369zM147 1556l310 312h342l205 -312h-293l-103 144l-145 -144h-316z" />
<glyph unicode="&#xcf;" horiz-adv-x="659" d="M145 0l226 1434h368l-225 -1434h-369zM188 1714q0 73 53 124.5t126 51.5q75 0 126.5 -51t51.5 -125t-51.5 -126t-126.5 -52q-72 0 -125.5 52.5t-53.5 125.5zM653 1714q0 73 52 124.5t126 51.5t126.5 -51.5t52.5 -124.5t-52.5 -125.5t-126.5 -52.5q-73 0 -125.5 52 t-52.5 126z" />
<glyph unicode="&#xd0;" horiz-adv-x="1720" d="M168 606l49 305h182l82 523h527q327 0 526 -185t199 -481q0 -162 -62.5 -304t-171.5 -244t-266 -161t-338 -59h-639l94 606h-182zM676 324h237q208 0 324.5 123.5t116.5 320.5q0 144 -98 243t-259 99h-198l-31 -199h258l-49 -305h-258z" />
<glyph unicode="&#xd1;" horiz-adv-x="1574" d="M137 0l225 1434h314l500 -824l129 824h360l-225 -1434h-303l-508 827l-129 -827h-363zM637 1559q21 132 107.5 224.5t201.5 92.5q52 0 95 -20t81 -40t76 -20q72 0 102 72h183q-20 -122 -108 -220t-199 -98q-43 0 -81 13t-60 28t-52.5 28t-60.5 13q-75 0 -103 -73h-182z " />
<glyph unicode="&#xd2;" horiz-adv-x="1695" d="M197 666q0 167 62 315t168 253.5t252.5 166.5t309.5 61t298 -51t227 -142.5t143 -220t51 -280.5q0 -166 -61.5 -313.5t-167 -253.5t-252.5 -168t-312 -62q-215 0 -378.5 89t-251.5 246.5t-88 359.5zM575 666q0 -149 95.5 -252t255.5 -103q179 0 291 130.5t112 326.5 q0 149 -95 251.5t-255 102.5q-177 0 -290.5 -130.5t-113.5 -325.5zM676 1868h428l145 -312h-301z" />
<glyph unicode="&#xd3;" horiz-adv-x="1695" d="M197 666q0 167 62 315t168 253.5t252.5 166.5t309.5 61t298 -51t227 -142.5t143 -220t51 -280.5q0 -166 -61.5 -313.5t-167 -253.5t-252.5 -168t-312 -62q-215 0 -378.5 89t-251.5 246.5t-88 359.5zM575 666q0 -149 95.5 -252t255.5 -103q179 0 291 130.5t112 326.5 q0 149 -95 251.5t-255 102.5q-177 0 -290.5 -130.5t-113.5 -325.5zM926 1556l243 312h428l-370 -312h-301z" />
<glyph unicode="&#xd4;" horiz-adv-x="1695" d="M197 666q0 167 62 315t168 253.5t252.5 166.5t309.5 61t298 -51t227 -142.5t143 -220t51 -280.5q0 -166 -61.5 -313.5t-167 -253.5t-252.5 -168t-312 -62q-215 0 -378.5 89t-251.5 246.5t-88 359.5zM575 666q0 -149 95.5 -252t255.5 -103q179 0 291 130.5t112 326.5 q0 149 -95 251.5t-255 102.5q-177 0 -290.5 -130.5t-113.5 -325.5zM666 1556l309 312h342l205 -312h-293l-103 144l-145 -144h-315z" />
<glyph unicode="&#xd5;" horiz-adv-x="1695" d="M197 666q0 167 62 315t168 253.5t252.5 166.5t309.5 61t298 -51t227 -142.5t143 -220t51 -280.5q0 -166 -61.5 -313.5t-167 -253.5t-252.5 -168t-312 -62q-215 0 -378.5 89t-251.5 246.5t-88 359.5zM575 666q0 -149 95.5 -252t255.5 -103q179 0 291 130.5t112 326.5 q0 149 -95 251.5t-255 102.5q-177 0 -290.5 -130.5t-113.5 -325.5zM696 1559q21 132 108 224.5t202 92.5q52 0 95 -20t80.5 -40t75.5 -20q73 0 103 72h182q-20 -122 -108 -220t-199 -98q-43 0 -81 13t-60 28t-52.5 28t-60.5 13q-74 0 -102 -73h-183z" />
<glyph unicode="&#xd6;" horiz-adv-x="1695" d="M197 666q0 167 62 315t168 253.5t252.5 166.5t309.5 61t298 -51t227 -142.5t143 -220t51 -280.5q0 -166 -61.5 -313.5t-167 -253.5t-252.5 -168t-312 -62q-215 0 -378.5 89t-251.5 246.5t-88 359.5zM575 666q0 -149 95.5 -252t255.5 -103q179 0 291 130.5t112 326.5 q0 149 -95 251.5t-255 102.5q-177 0 -290.5 -130.5t-113.5 -325.5zM688 1714q0 73 52.5 124.5t125.5 51.5q75 0 126.5 -51t51.5 -125t-51.5 -126t-126.5 -52q-72 0 -125 52.5t-53 125.5zM1153 1714q0 73 52 124.5t126 51.5t126 -51.5t52 -124.5q0 -74 -52.5 -126t-125.5 -52 t-125.5 52t-52.5 126z" />
<glyph unicode="&#xd7;" horiz-adv-x="1257" d="M178 406l332 284l-240 287l258 223l240 -287l332 287l198 -235l-331 -287l239 -285l-256 -223l-241 287l-330 -287z" />
<glyph unicode="&#xd8;" horiz-adv-x="1695" d="M117 0l221 225q-141 183 -141 441q0 167 62 315t168 253.5t252.5 166.5t309.5 61q258 0 441 -125l94 97h276l-229 -234q137 -179 137 -432q0 -166 -61.5 -313.5t-167 -253.5t-252.5 -168t-312 -62q-251 0 -432 121l-90 -92h-276zM575 666q0 -89 35 -164l559 569 q-82 51 -190 51q-177 0 -290.5 -130.5t-113.5 -325.5zM743 356q76 -45 183 -45q179 0 291 130.5t112 326.5q0 81 -31 154z" />
<glyph unicode="&#xd9;" horiz-adv-x="1495" d="M203 502q0 54 10 129l127 803h373l-129 -811q-11 -61 -11 -95q0 -107 67 -162t179 -55q106 0 183 62.5t98 191.5l137 869h371l-138 -871q-23 -144 -86.5 -258t-155.5 -186t-204.5 -110t-237.5 -38q-115 0 -218.5 34t-185.5 98.5t-130.5 167.5t-48.5 231zM580 1868h428 l145 -312h-301z" />
<glyph unicode="&#xda;" horiz-adv-x="1495" d="M203 502q0 54 10 129l127 803h373l-129 -811q-11 -61 -11 -95q0 -107 67 -162t179 -55q106 0 183 62.5t98 191.5l137 869h371l-138 -871q-23 -144 -86.5 -258t-155.5 -186t-204.5 -110t-237.5 -38q-115 0 -218.5 34t-185.5 98.5t-130.5 167.5t-48.5 231zM831 1556 l244 312h428l-370 -312h-302z" />
<glyph unicode="&#xdb;" horiz-adv-x="1495" d="M203 502q0 54 10 129l127 803h373l-129 -811q-11 -61 -11 -95q0 -107 67 -162t179 -55q106 0 183 62.5t98 191.5l137 869h371l-138 -871q-23 -144 -86.5 -258t-155.5 -186t-204.5 -110t-237.5 -38q-115 0 -218.5 34t-185.5 98.5t-130.5 167.5t-48.5 231zM565 1556 l309 312h343l204 -312h-293l-102 144l-145 -144h-316z" />
<glyph unicode="&#xdc;" horiz-adv-x="1495" d="M203 502q0 54 10 129l127 803h373l-129 -811q-11 -61 -11 -95q0 -107 67 -162t179 -55q106 0 183 62.5t98 191.5l137 869h371l-138 -871q-23 -144 -86.5 -258t-155.5 -186t-204.5 -110t-237.5 -38q-115 0 -218.5 34t-185.5 98.5t-130.5 167.5t-48.5 231zM608 1714 q0 73 52.5 124.5t125.5 51.5q75 0 127 -51t52 -125t-52 -126t-127 -52q-72 0 -125 52.5t-53 125.5zM1073 1714q0 73 52 124.5t126 51.5t126.5 -51.5t52.5 -124.5t-52.5 -125.5t-126.5 -52.5q-73 0 -125.5 52t-52.5 126z" />
<glyph unicode="&#xdd;" horiz-adv-x="1490" d="M236 1434h411l246 -473l395 473h418l-676 -791l-100 -643h-369l101 635zM825 1556l244 312h428l-371 -312h-301z" />
<glyph unicode="&#xde;" horiz-adv-x="1380" d="M137 0l225 1434h369l-41 -269h285q222 0 349.5 -109t127.5 -286q0 -222 -160.5 -363t-410.5 -141h-332l-43 -266h-369zM596 569h281q81 0 140.5 40.5t59.5 121.5q0 59 -38.5 91t-114.5 32h-283z" />
<glyph unicode="&#xdf;" horiz-adv-x="1298" d="M125 0l156 979q36 229 191 356t374 127q66 0 131 -13t128 -42.5t111 -71.5t77.5 -105.5t29.5 -139.5q0 -107 -57 -198.5t-160 -131.5q36 -14 70 -40t66 -64.5t51.5 -93.5t19.5 -118q0 -206 -135 -333t-349 -127q-149 0 -215 32l43 279q65 -25 123 -25q78 0 130.5 54 t52.5 139q0 72 -54 121t-143 55l-41 2l39 236h43q69 0 114.5 41.5t45.5 111.5q0 52 -36.5 84.5t-101.5 32.5q-70 0 -120.5 -49t-67.5 -146l-152 -952h-364z" />
<glyph unicode="&#xe0;" horiz-adv-x="1239" d="M92 293q0 166 123.5 263t300.5 97q175 0 293 -63q4 27 4 57q0 43 -20.5 72t-58 42t-74.5 18t-85 5q-67 0 -148 -17t-146 -46l45 285q157 61 358 61q78 0 148 -12t134 -41t110 -72t73 -109t27 -149q0 -24 -17 -135l-26 -156q-9 -52 -9 -71q0 -27 17 -41.5t45 -14.5 q26 0 53 10l-41 -251q-34 -22 -84 -35t-98 -13q-94 0 -160 31t-86 88q-123 -123 -311 -123q-173 0 -270 90t-97 230zM432 1491h428l146 -311h-301zM451 324q0 -51 38.5 -81t100.5 -30q105 0 172 82l18 111q-57 51 -157 51q-70 0 -121 -34.5t-51 -98.5z" />
<glyph unicode="&#xe1;" horiz-adv-x="1259" d="M92 293q0 166 123.5 263t300.5 97q175 0 293 -63q4 27 4 57q0 43 -20.5 72t-58 42t-74.5 18t-85 5q-67 0 -148 -17t-146 -46l45 285q157 61 358 61q78 0 148 -12t134 -41t110 -72t73 -109t27 -149q0 -24 -17 -135l-26 -156q-9 -52 -9 -71q0 -27 17 -41.5t45 -14.5 q26 0 53 10l-41 -251q-34 -22 -84 -35t-98 -13q-94 0 -160 31t-86 88q-123 -123 -311 -123q-173 0 -270 90t-97 230zM451 324q0 -51 38.5 -81t100.5 -30q105 0 172 82l18 111q-57 51 -157 51q-70 0 -121 -34.5t-51 -98.5zM588 1180l243 311h429l-371 -311h-301z" />
<glyph unicode="&#xe2;" horiz-adv-x="1239" d="M92 293q0 166 123.5 263t300.5 97q175 0 293 -63q4 27 4 57q0 43 -20.5 72t-58 42t-74.5 18t-85 5q-67 0 -148 -17t-146 -46l45 285q157 61 358 61q78 0 148 -12t134 -41t110 -72t73 -109t27 -149q0 -24 -17 -135l-26 -156q-9 -52 -9 -71q0 -27 17 -41.5t45 -14.5 q26 0 53 10l-41 -251q-34 -22 -84 -35t-98 -13q-94 0 -160 31t-86 88q-123 -123 -311 -123q-173 0 -270 90t-97 230zM346 1180l309 311h342l205 -311h-293l-102 143l-145 -143h-316zM451 324q0 -51 38.5 -81t100.5 -30q105 0 172 82l18 111q-57 51 -157 51q-70 0 -121 -34.5 t-51 -98.5z" />
<glyph unicode="&#xe3;" horiz-adv-x="1251" d="M92 293q0 166 123.5 263t300.5 97q175 0 293 -63q4 27 4 57q0 43 -20.5 72t-58 42t-74.5 18t-85 5q-67 0 -148 -17t-146 -46l45 285q157 61 358 61q78 0 148 -12t134 -41t110 -72t73 -109t27 -149q0 -24 -17 -135l-26 -156q-9 -52 -9 -71q0 -27 17 -41.5t45 -14.5 q26 0 53 10l-41 -251q-34 -22 -84 -35t-98 -13q-94 0 -160 31t-86 88q-123 -123 -311 -123q-173 0 -270 90t-97 230zM406 1180q21 132 106.5 225.5t200.5 93.5q52 0 95.5 -20t82 -40t76.5 -20q72 0 102 72h182q-20 -122 -108 -221t-199 -99q-43 0 -81 13t-60 28t-52.5 28 t-60.5 13q-74 0 -102 -73h-182zM451 324q0 -51 38.5 -81t100.5 -30q105 0 172 82l18 111q-57 51 -157 51q-70 0 -121 -34.5t-51 -98.5z" />
<glyph unicode="&#xe4;" horiz-adv-x="1239" d="M92 293q0 166 123.5 263t300.5 97q175 0 293 -63q4 27 4 57q0 43 -20.5 72t-58 42t-74.5 18t-85 5q-67 0 -148 -17t-146 -46l45 285q157 61 358 61q78 0 148 -12t134 -41t110 -72t73 -109t27 -149q0 -24 -17 -135l-26 -156q-9 -52 -9 -71q0 -27 17 -41.5t45 -14.5 q26 0 53 10l-41 -251q-34 -22 -84 -35t-98 -13q-94 0 -160 31t-86 88q-123 -123 -311 -123q-173 0 -270 90t-97 230zM373 1337q0 73 52.5 124.5t125.5 51.5q75 0 126.5 -51t51.5 -125t-51.5 -126t-126.5 -52q-72 0 -125 52.5t-53 125.5zM451 324q0 -51 38.5 -81t100.5 -30 q105 0 172 82l18 111q-57 51 -157 51q-70 0 -121 -34.5t-51 -98.5zM838 1337q0 73 52 124.5t126 51.5t126 -51.5t52 -124.5t-52 -125.5t-126 -52.5t-126 52.5t-52 125.5z" />
<glyph unicode="&#xe5;" horiz-adv-x="1239" d="M92 293q0 166 123.5 263t300.5 97q175 0 293 -63q4 27 4 57q0 43 -20.5 72t-58 42t-74.5 18t-85 5q-67 0 -148 -17t-146 -46l45 285q157 61 358 61q78 0 148 -12t134 -41t110 -72t73 -109t27 -149q0 -24 -17 -135l-26 -156q-9 -52 -9 -71q0 -27 17 -41.5t45 -14.5 q26 0 53 10l-41 -251q-34 -22 -84 -35t-98 -13q-94 0 -160 31t-86 88q-123 -123 -311 -123q-173 0 -270 90t-97 230zM451 324q0 -51 38.5 -81t100.5 -30q105 0 172 82l18 111q-57 51 -157 51q-70 0 -121 -34.5t-51 -98.5zM590 1335q0 89 64 153t153 64t152 -64t63 -153 q0 -88 -63 -151.5t-152 -63.5t-153 63.5t-64 151.5zM715 1335q0 -37 27.5 -63.5t64.5 -26.5t63.5 26.5t26.5 63.5q0 38 -26.5 65t-63.5 27t-64.5 -27t-27.5 -65z" />
<glyph unicode="&#xe6;" horiz-adv-x="1798" d="M92 289q0 112 59.5 196t155 126t209.5 42q175 0 293 -63q4 27 4 57q0 43 -20.5 72t-58 42t-74.5 18t-85 5q-67 0 -148 -17t-146 -46l45 285q157 61 358 61q94 0 184.5 -32t153.5 -87q149 119 330 119q212 0 344.5 -123t132.5 -321q0 -74 -23 -191h-696q10 -82 91 -122 t200 -40q167 0 332 84l-43 -282q-135 -99 -392 -99q-126 0 -234.5 44t-180.5 126q-166 -170 -420 -170q-176 0 -273.5 88t-97.5 228zM451 324q0 -51 38.5 -81t100.5 -30q67 0 121 26.5t80 67.5q-19 53 -25 105q-61 45 -145 45q-70 0 -120 -34.5t-50 -98.5zM1137 625h346 q5 79 -35 127.5t-113 48.5q-70 0 -124 -47t-74 -129z" />
<glyph unicode="&#xe7;" horiz-adv-x="1048" d="M133 485q0 122 48.5 230t132.5 185t201 122t249 45q188 0 336 -80l-49 -301q-69 34 -125.5 50t-132.5 16q-131 0 -215 -68t-84 -182q0 -59 26.5 -104t69.5 -70t90.5 -37t97.5 -12q122 0 234 49l-49 -301q-103 -42 -191 -50l-110 -288h-418l243 315q-160 49 -257 173.5 t-97 307.5z" />
<glyph unicode="&#xe8;" horiz-adv-x="1167" d="M133 473q0 256 168 425t420 169q212 0 344.5 -123t132.5 -321q0 -79 -22 -191h-697q10 -82 91 -122t200 -40q167 0 332 84l-43 -282q-135 -99 -391 -99q-150 0 -271 60t-192.5 175t-71.5 265zM449 1491h428l145 -311h-301zM506 625h346q5 79 -34.5 127.5t-112.5 48.5 q-70 0 -124.5 -47t-74.5 -129z" />
<glyph unicode="&#xe9;" horiz-adv-x="1167" d="M133 473q0 256 168 425t420 169q212 0 344.5 -123t132.5 -321q0 -79 -22 -191h-697q10 -82 91 -122t200 -40q167 0 332 84l-43 -282q-135 -99 -391 -99q-150 0 -271 60t-192.5 175t-71.5 265zM506 625h346q5 79 -34.5 127.5t-112.5 48.5q-70 0 -124.5 -47t-74.5 -129z M565 1180l244 311h428l-371 -311h-301z" />
<glyph unicode="&#xea;" horiz-adv-x="1167" d="M133 473q0 256 168 425t420 169q212 0 344.5 -123t132.5 -321q0 -79 -22 -191h-697q10 -82 91 -122t200 -40q167 0 332 84l-43 -282q-135 -99 -391 -99q-150 0 -271 60t-192.5 175t-71.5 265zM352 1180l310 311h342l204 -311h-293l-102 143l-145 -143h-316zM506 625h346 q5 79 -34.5 127.5t-112.5 48.5q-70 0 -124.5 -47t-74.5 -129z" />
<glyph unicode="&#xeb;" horiz-adv-x="1167" d="M133 473q0 256 168 425t420 169q212 0 344.5 -123t132.5 -321q0 -79 -22 -191h-697q10 -82 91 -122t200 -40q167 0 332 84l-43 -282q-135 -99 -391 -99q-150 0 -271 60t-192.5 175t-71.5 265zM373 1337q0 73 52.5 124.5t125.5 51.5q75 0 126.5 -51t51.5 -125t-51.5 -126 t-126.5 -52q-72 0 -125 52.5t-53 125.5zM506 625h346q5 79 -34.5 127.5t-112.5 48.5q-70 0 -124.5 -47t-74.5 -129zM838 1337q0 73 52 124.5t126 51.5t126 -51.5t52 -124.5t-52 -125.5t-126 -52.5t-126 52.5t-52 125.5z" />
<glyph unicode="&#xec;" horiz-adv-x="567" d="M51 1491h428l146 -311h-301zM102 0l164 1040h363l-164 -1040h-363z" />
<glyph unicode="&#xed;" horiz-adv-x="567" d="M102 0l164 1040h363l-164 -1040h-363zM315 1182l242 309h424l-367 -309h-299z" />
<glyph unicode="&#xee;" horiz-adv-x="567" d="M39 1180l309 311h342l205 -311h-293l-102 143l-146 -143h-315zM102 0l164 1040h363l-164 -1040h-363z" />
<glyph unicode="&#xef;" horiz-adv-x="567" d="M80 1337q0 73 52.5 124.5t125.5 51.5q75 0 126.5 -51t51.5 -125t-51.5 -126t-126.5 -52q-72 0 -125 52.5t-53 125.5zM102 0l164 1040h363l-164 -1040h-363zM545 1337q0 73 52 124.5t126 51.5t126 -51.5t52 -124.5t-52.5 -125.5t-125.5 -52.5t-125.5 52.5t-52.5 125.5z " />
<glyph unicode="&#xf0;" horiz-adv-x="1239" d="M133 455q0 133 59.5 242.5t171.5 175t254 65.5q102 0 183 -37l-129 180l-242 -77l-115 170l236 75l-133 185h377l61 -86l201 63l114 -170l-200 -63l102 -148q104 -149 148.5 -255.5t44.5 -223.5q0 -157 -71 -287.5t-209 -210.5t-318 -80q-106 0 -201.5 31.5t-170.5 90 t-119 152t-44 208.5zM492 469q0 -80 53 -134t141 -54q90 0 152.5 59t62.5 156q0 82 -52.5 136t-141.5 54t-152 -60t-63 -157z" />
<glyph unicode="&#xf1;" horiz-adv-x="1277" d="M125 0l164 1040h362l-18 -116q151 143 328 143q148 0 231.5 -94.5t83.5 -251.5q0 -72 -12 -146l-90 -575h-363l82 522q8 54 8 86q0 69 -36.5 102t-92.5 33q-99 0 -180 -88l-105 -655h-362zM438 1180q21 132 106.5 225.5t200.5 93.5q52 0 95.5 -20t82 -40t76.5 -20 q73 0 103 72h182q-20 -122 -108 -221t-199 -99q-43 0 -81 13t-60 28t-52.5 28t-60.5 13q-74 0 -102 -73h-183z" />
<glyph unicode="&#xf2;" horiz-adv-x="1241" d="M133 500q0 148 73.5 277.5t208 209.5t298.5 80q240 0 397.5 -146.5t157.5 -377.5q0 -111 -43.5 -215t-119.5 -182.5t-185.5 -125.5t-233.5 -47q-156 0 -282 66t-198.5 186.5t-72.5 274.5zM397 1491h428l146 -311h-301zM479 492q0 -97 59 -155t146 -58q99 0 168.5 78.5 t69.5 193.5q0 97 -59 154t-148 57q-99 0 -167.5 -78t-68.5 -192z" />
<glyph unicode="&#xf3;" horiz-adv-x="1280" d="M133 500q0 148 73.5 277.5t208 209.5t298.5 80q240 0 397.5 -146.5t157.5 -377.5q0 -111 -43.5 -215t-119.5 -182.5t-185.5 -125.5t-233.5 -47q-156 0 -282 66t-198.5 186.5t-72.5 274.5zM479 492q0 -97 59 -155t146 -58q99 0 168.5 78.5t69.5 193.5q0 97 -59 154 t-148 57q-99 0 -167.5 -78t-68.5 -192zM635 1180l244 311h428l-371 -311h-301z" />
<glyph unicode="&#xf4;" horiz-adv-x="1241" d="M133 500q0 148 73.5 277.5t208 209.5t298.5 80q240 0 397.5 -146.5t157.5 -377.5q0 -111 -43.5 -215t-119.5 -182.5t-185.5 -125.5t-233.5 -47q-156 0 -282 66t-198.5 186.5t-72.5 274.5zM375 1180l309 311h342l205 -311h-293l-102 143l-146 -143h-315zM479 492 q0 -97 59 -155t146 -58q99 0 168.5 78.5t69.5 193.5q0 97 -59 154t-148 57q-99 0 -167.5 -78t-68.5 -192z" />
<glyph unicode="&#xf5;" horiz-adv-x="1241" d="M133 500q0 148 73.5 277.5t208 209.5t298.5 80q240 0 397.5 -146.5t157.5 -377.5q0 -111 -43.5 -215t-119.5 -182.5t-185.5 -125.5t-233.5 -47q-156 0 -282 66t-198.5 186.5t-72.5 274.5zM408 1180q21 132 106.5 225.5t200.5 93.5q52 0 95.5 -20t82 -40t76.5 -20 q72 0 102 72h182q-20 -122 -108 -221t-199 -99q-43 0 -81 13t-60 28t-52.5 28t-60.5 13q-74 0 -102 -73h-182zM479 492q0 -97 59 -155t146 -58q99 0 168.5 78.5t69.5 193.5q0 97 -59 154t-148 57q-99 0 -167.5 -78t-68.5 -192z" />
<glyph unicode="&#xf6;" horiz-adv-x="1241" d="M133 500q0 148 73.5 277.5t208 209.5t298.5 80q240 0 397.5 -146.5t157.5 -377.5q0 -111 -43.5 -215t-119.5 -182.5t-185.5 -125.5t-233.5 -47q-156 0 -282 66t-198.5 186.5t-72.5 274.5zM412 1337q0 73 52.5 124.5t125.5 51.5q75 0 126.5 -51t51.5 -125t-51.5 -126 t-126.5 -52q-72 0 -125 52.5t-53 125.5zM479 492q0 -97 59 -155t146 -58q99 0 168.5 78.5t69.5 193.5q0 97 -59 154t-148 57q-99 0 -167.5 -78t-68.5 -192zM877 1337q0 73 52 124.5t126 51.5t126 -51.5t52 -124.5t-52.5 -125.5t-125.5 -52.5t-125.5 52.5t-52.5 125.5z" />
<glyph unicode="&#xf7;" horiz-adv-x="1257" d="M174 514l51 320h1073l-51 -320h-1073zM436 190q0 90 64 154t153 64t152 -63.5t63 -154.5q0 -89 -63 -152t-152 -63t-153 63t-64 152zM590 1155q0 90 63.5 153.5t153.5 63.5q89 0 152 -63t63 -154q0 -89 -63 -152t-152 -63t-153 63t-64 152z" />
<glyph unicode="&#xf8;" horiz-adv-x="1310" d="M70 0l188 184q-98 134 -98 316q0 148 73 277.5t207.5 209.5t298.5 80q183 0 330 -94l68 67h247l-190 -184q100 -137 100 -313q0 -111 -43.5 -215t-119 -182.5t-185 -125.5t-233.5 -47q-186 0 -328 93l-68 -66h-247zM506 492q0 -33 6 -60l319 311q-43 19 -90 19 q-98 0 -166.5 -78t-68.5 -192zM621 297q41 -18 90 -18q99 0 168 78.5t69 193.5q0 30 -6 57z" />
<glyph unicode="&#xf9;" horiz-adv-x="1273" d="M158 319q0 72 12 146l90 575h363l-82 -522q-9 -61 -9 -86q0 -69 37 -102t93 -33q99 0 180 88l104 655h363l-164 -1040h-363l19 119q-154 -146 -328 -146q-148 0 -231.5 94.5t-83.5 251.5zM438 1491h428l146 -311h-301z" />
<glyph unicode="&#xfa;" horiz-adv-x="1273" d="M158 319q0 72 12 146l90 575h363l-82 -522q-9 -61 -9 -86q0 -69 37 -102t93 -33q99 0 180 88l104 655h363l-164 -1040h-363l19 119q-154 -146 -328 -146q-148 0 -231.5 94.5t-83.5 251.5zM608 1180l244 311h428l-371 -311h-301z" />
<glyph unicode="&#xfb;" horiz-adv-x="1273" d="M158 319q0 72 12 146l90 575h363l-82 -522q-9 -61 -9 -86q0 -69 37 -102t93 -33q99 0 180 88l104 655h363l-164 -1040h-363l19 119q-154 -146 -328 -146q-148 0 -231.5 94.5t-83.5 251.5zM377 1180l309 311h342l205 -311h-293l-102 143l-146 -143h-315z" />
<glyph unicode="&#xfc;" horiz-adv-x="1273" d="M158 319q0 72 12 146l90 575h363l-82 -522q-9 -61 -9 -86q0 -69 37 -102t93 -33q99 0 180 88l104 655h363l-164 -1040h-363l19 119q-154 -146 -328 -146q-148 0 -231.5 94.5t-83.5 251.5zM395 1337q0 73 52.5 124.5t125.5 51.5q75 0 127 -51t52 -125t-52 -126t-127 -52 q-72 0 -125 52.5t-53 125.5zM860 1337q0 73 52 124.5t126 51.5t126.5 -51.5t52.5 -124.5t-52.5 -125.5t-126.5 -52.5t-126 52.5t-52 125.5z" />
<glyph unicode="&#xfd;" horiz-adv-x="1247" d="M43 -375l49 312q69 -50 160 -50q147 0 229 148l-297 1005h377l146 -626l301 626h383l-629 -1144q-88 -158 -215 -238t-281 -80q-64 0 -126 14t-97 33zM616 1180l244 311h428l-370 -311h-302z" />
<glyph unicode="&#xfe;" d="M59 -410l293 1844h363l-82 -506q130 139 315 139q124 0 220 -65t147 -174t51 -242q0 -90 -22.5 -178t-68 -166.5t-109 -138.5t-152.5 -95t-191 -35q-110 0 -192 43.5t-127 98.5l-82 -525h-363zM549 391q28 -48 86.5 -81.5t124.5 -33.5q99 0 167 79t68 194q0 98 -54 154.5 t-142 56.5q-62 0 -117 -29.5t-92 -81.5z" />
<glyph unicode="&#xff;" horiz-adv-x="1247" d="M43 -375l49 312q69 -50 160 -50q147 0 229 148l-297 1005h377l146 -626l301 626h383l-629 -1144q-88 -158 -215 -238t-281 -80q-64 0 -126 14t-97 33zM399 1337q0 73 53 124.5t126 51.5q75 0 126.5 -51t51.5 -125t-51.5 -126t-126.5 -52q-72 0 -125.5 52.5t-53.5 125.5z M864 1337q0 73 52 124.5t126 51.5t126.5 -51.5t52.5 -124.5t-52.5 -125.5t-126.5 -52.5t-126 52.5t-52 125.5z" />
<glyph unicode="&#x152;" horiz-adv-x="2260" d="M197 666q0 162 62 304t171.5 244t266 161t337.5 59h1340l-52 -324h-700l-31 -195h553l-49 -311h-553l-43 -280h717l-51 -324h-1243q-327 0 -526 185t-199 481zM575 666q0 -144 98 -243t259 -99h198l123 786h-237q-208 0 -324.5 -123.5t-116.5 -320.5z" />
<glyph unicode="&#x153;" horiz-adv-x="1908" d="M133 500q0 111 43.5 214t119 181t185.5 125t236 47q233 0 379 -143q69 66 173.5 104.5t217.5 38.5q199 0 325.5 -123t126.5 -321q0 -79 -22 -191h-696q10 -82 90.5 -122t199.5 -40q169 0 334 84l-43 -282q-67 -48 -168.5 -73.5t-210.5 -25.5q-115 0 -218 40t-163 104 q-155 -144 -370 -144q-145 0 -268 65.5t-197 187.5t-74 274zM479 492q0 -97 59 -155t146 -58q99 0 168.5 78.5t69.5 193.5q0 97 -59 154t-148 57q-99 0 -167.5 -78t-68.5 -192zM1247 625h346q5 79 -34.5 127.5t-112.5 48.5q-70 0 -124.5 -47t-74.5 -129z" />
<glyph unicode="&#x178;" horiz-adv-x="1490" d="M236 1434h411l246 -473l395 473h418l-676 -791l-100 -643h-369l101 635zM586 1714q0 73 52.5 124.5t125.5 51.5q75 0 126.5 -51t51.5 -125t-51.5 -126t-126.5 -52q-72 0 -125 52.5t-53 125.5zM1051 1714q0 73 52 124.5t126 51.5t126 -51.5t52 -124.5q0 -74 -52.5 -126 t-125.5 -52t-125.5 52t-52.5 126z" />
<glyph unicode="&#x2c6;" horiz-adv-x="1118" d="M319 1180l310 311h342l205 -311h-293l-103 143l-145 -143h-316z" />
<glyph unicode="&#x2dc;" horiz-adv-x="1036" d="M301 1180q21 132 106.5 225.5t200.5 93.5q52 0 95.5 -20t82 -40t76.5 -20q73 0 103 72h182q-20 -122 -108 -221t-199 -99q-43 0 -81 13t-60 28t-52.5 28t-60.5 13q-75 0 -103 -73h-182z" />
<glyph unicode="&#x2000;" horiz-adv-x="965" />
<glyph unicode="&#x2001;" horiz-adv-x="1931" />
<glyph unicode="&#x2002;" horiz-adv-x="965" />
<glyph unicode="&#x2003;" horiz-adv-x="1931" />
<glyph unicode="&#x2004;" horiz-adv-x="643" />
<glyph unicode="&#x2005;" horiz-adv-x="482" />
<glyph unicode="&#x2006;" horiz-adv-x="321" />
<glyph unicode="&#x2007;" horiz-adv-x="321" />
<glyph unicode="&#x2008;" horiz-adv-x="241" />
<glyph unicode="&#x2009;" horiz-adv-x="386" />
<glyph unicode="&#x200a;" horiz-adv-x="107" />
<glyph unicode="&#x2010;" horiz-adv-x="1009" d="M238 414l51 323h661l-51 -323h-661z" />
<glyph unicode="&#x2011;" horiz-adv-x="1009" d="M238 414l51 323h661l-51 -323h-661z" />
<glyph unicode="&#x2012;" horiz-adv-x="1009" d="M238 414l51 323h661l-51 -323h-661z" />
<glyph unicode="&#x2013;" horiz-adv-x="1589" d="M238 414l53 323h1239l-53 -323h-1239z" />
<glyph unicode="&#x2014;" horiz-adv-x="1855" d="M238 414l53 323h1505l-53 -323h-1505z" />
<glyph unicode="&#x2018;" horiz-adv-x="649" d="M164 762l368 672h293l-286 -672h-375z" />
<glyph unicode="&#x2019;" horiz-adv-x="649" d="M164 762l287 672h374l-368 -672h-293z" />
<glyph unicode="&#x201a;" horiz-adv-x="669" d="M-25 -311l287 671h375l-369 -671h-293z" />
<glyph unicode="&#x201c;" horiz-adv-x="1163" d="M164 762l368 672h293l-286 -672h-375zM678 762l369 672h292l-286 -672h-375z" />
<glyph unicode="&#x201d;" horiz-adv-x="1163" d="M164 762l287 672h374l-368 -672h-293zM678 762l287 672h374l-368 -672h-293z" />
<glyph unicode="&#x201e;" horiz-adv-x="1183" d="M-25 -311l287 671h375l-369 -671h-293zM489 -311l287 671h375l-369 -671h-293z" />
<glyph unicode="&#x2022;" horiz-adv-x="858" d="M205 803q0 139 99.5 238.5t238.5 99.5t237.5 -99t98.5 -239q0 -138 -98.5 -237t-237.5 -99t-238.5 99t-99.5 237z" />
<glyph unicode="&#x2026;" horiz-adv-x="1642" d="M104 190q0 89 63 152.5t152 63.5t152.5 -63.5t63.5 -152.5q0 -90 -63.5 -153.5t-152.5 -63.5t-152 63t-63 154zM639 190q0 89 63 152.5t152 63.5t152 -63.5t63 -152.5q0 -91 -63 -154t-152 -63t-152 63t-63 154zM1174 190q0 89 63 152.5t152 63.5t152 -63.5t63 -152.5 q0 -91 -63 -154t-152 -63t-152 63t-63 154z" />
<glyph unicode="&#x202f;" horiz-adv-x="386" />
<glyph unicode="&#x2039;" horiz-adv-x="753" d="M137 430l27 178l325 367h361l-399 -471l254 -438h-361z" />
<glyph unicode="&#x203a;" horiz-adv-x="759" d="M63 66l400 471l-254 438h360l207 -365l-26 -178l-326 -366h-361z" />
<glyph unicode="&#x205f;" horiz-adv-x="482" />
<glyph unicode="&#x20ac;" horiz-adv-x="1327" d="M127 481l31 199h127q4 68 8 102h-119l33 199h137q87 223 282.5 352t469.5 129q183 0 325 -69l-63 -338q-123 69 -277 69q-219 0 -329 -143h346l-33 -199h-395q-11 -45 -11 -102h390l-31 -199h-324q42 -87 127.5 -130.5t204.5 -43.5q193 0 313 92l-57 -366 q-129 -62 -324 -62q-248 0 -427 139t-230 371h-174z" />
<glyph unicode="&#x2122;" horiz-adv-x="1394" d="M233 1290l23 144h549l-23 -144h-192l-78 -495h-166l78 495h-191zM803 795l100 639h154l123 -236l194 236h164l-100 -639h-164l61 387l-135 -160h-86l-86 160l-61 -387h-164z" />
<glyph unicode="&#x25fc;" horiz-adv-x="1044" d="M0 0v1044h1044v-1044h-1044z" />
</font>
</defs>
</svg>
