<?xml version="1.0" standalone="no"?>
<!DOCTYPE svg PUBLIC "-//W3C//DTD SVG 1.1//EN" "http://www.w3.org/Graphics/SVG/1.1/DTD/svg11.dtd" >
<svg xmlns="http://www.w3.org/2000/svg">
<metadata></metadata>
<defs>
<font id="geometria_heavyheavy_italic" horiz-adv-x="1671" >
<font-face units-per-em="2048" ascent="1589" descent="-459" />
<missing-glyph horiz-adv-x="507" />
<glyph unicode="&#xfb01;" horiz-adv-x="1568" d="M131 719l53 338h166l6 39q26 167 147 266.5t333 99.5q170 0 294 -45l-45 -284q-82 26 -159 26q-62 0 -99 -27t-45 -75h844l-168 -1057h-430l113 719h-412l-115 -719h-432l115 719h-166zM1210 1350q0 101 71 171t171 70q101 0 171.5 -70t70.5 -171q0 -103 -70.5 -173.5 t-171.5 -70.5q-100 0 -171 71t-71 173z" />
<glyph unicode="&#xfb02;" horiz-adv-x="1622" d="M131 719l53 338h166l6 39q26 167 147 266.5t333 99.5q170 0 294 -45l-45 -284q-82 26 -159 26q-62 0 -99 -27t-45 -75h410l59 377h432l-155 -996q-8 -56 -8 -59q0 -41 49 -41q29 0 49 10l-53 -334q-95 -41 -207 -41q-125 0 -205 70.5t-80 198.5q0 36 17 149l51 328h-412 l-115 -719h-432l115 719h-166z" />
<glyph unicode="&#xfb03;" horiz-adv-x="2414" d="M131 719h166l-115 -719h432l115 719h412l-115 -719h432l115 719h412l-113 -719h430l168 1057h-844q8 48 44.5 75t98.5 27q78 0 160 -26l45 284q-124 45 -295 45q-211 0 -334.5 -103.5t-146.5 -271.5l-4 -30h-412q8 48 45 75t99 27q77 0 159 -26l45 284q-124 45 -294 45 q-211 0 -335 -103.5t-147 -271.5l-4 -30h-166zM2054 1350q0 101 71 171t171 70q101 0 171 -70t70 -171q0 -103 -70 -173.5t-171 -70.5q-100 0 -171 71t-71 173z" />
<glyph unicode="&#xfb04;" horiz-adv-x="2467" d="M131 719l53 338h166l4 30q23 168 147 271.5t335 103.5q170 0 294 -45l-45 -284q-82 26 -159 26q-62 0 -99 -27t-45 -75h412l4 30q23 168 146.5 271.5t334.5 103.5q171 0 295 -45l-45 -284q-82 26 -160 26q-62 0 -98.5 -27t-44.5 -75h412l59 377h432l-157 -1012 q-7 -42 -7 -43q0 -41 50 -41q29 0 49 10l-54 -334q-95 -41 -206 -41q-125 0 -205 70.5t-80 198.5q0 43 16 149l52 328h-414l-115 -719h-432l115 719h-412l-115 -719h-432l115 719h-166z" />
<glyph horiz-adv-x="0" />
<glyph horiz-adv-x="682" />
<glyph unicode=" "  horiz-adv-x="507" />
<glyph unicode="&#x09;" horiz-adv-x="507" />
<glyph unicode="&#xa0;" horiz-adv-x="507" />
<glyph unicode="!" horiz-adv-x="794" d="M195 221q0 105 73 178.5t176 73.5q105 0 178.5 -73.5t73.5 -178.5q0 -103 -74 -176.5t-178 -73.5q-103 0 -176 73.5t-73 176.5zM285 541l80 893h512l-201 -893h-391z" />
<glyph unicode="&#x22;" horiz-adv-x="964" d="M184 735l109 699h348l-109 -699h-348zM651 735l109 699h348l-109 -699h-348z" />
<glyph unicode="#" horiz-adv-x="1605" d="M137 293l51 307h271l37 234h-271l47 307h275l43 293h334l-45 -293h206l45 293h334l-45 -293h271l-52 -307h-268l-39 -234h273l-52 -307h-268l-47 -293h-334l47 293h-207l-47 -293h-334l50 293h-275zM791 600h206l39 234h-207z" />
<glyph unicode="$" horiz-adv-x="1337" d="M90 123l72 442q83 -86 247.5 -148.5t303.5 -62.5q180 0 180 80q0 12 -5.5 21.5t-19.5 18.5t-28.5 16t-41.5 16t-48.5 16t-60 18.5t-66.5 20.5q-54 18 -87.5 30t-83.5 33.5t-80.5 41.5t-66.5 51.5t-56.5 66t-34 81.5t-13.5 102q0 205 129.5 326t347.5 155l31 201h374 l-32 -203q193 -28 333 -98l-71 -404q-79 54 -229.5 96.5t-276.5 42.5q-62 0 -97.5 -8.5t-45 -19.5t-9.5 -27q0 -22 47 -42t176 -61q45 -14 70 -22q94 -31 162 -65t125 -83t86 -115.5t29 -150.5q0 -212 -147 -345.5t-384 -163.5l-28 -195h-375l30 205q-219 30 -356 133z" />
<glyph unicode="%" horiz-adv-x="1746" d="M184 1075q0 150 109 260.5t274 110.5q161 0 267 -95t106 -251q0 -98 -48 -184t-137 -138.5t-198 -52.5q-160 0 -266.5 96t-106.5 254zM295 0l1102 1434h284l-1099 -1434h-287zM453 1067q0 -48 30.5 -75t73.5 -27q48 0 81.5 40t33.5 99q0 49 -29.5 75.5t-71.5 26.5 q-51 0 -84.5 -39.5t-33.5 -99.5zM1034 340q0 150 109 260.5t274 110.5q161 0 267 -95t106 -251q0 -98 -48 -184t-137 -138.5t-198 -52.5q-160 0 -266.5 96t-106.5 254zM1303 332q0 -48 30.5 -75.5t73.5 -27.5q48 0 81.5 40.5t33.5 99.5q0 49 -29.5 75.5t-71.5 26.5 q-51 0 -84.5 -39.5t-33.5 -99.5z" />
<glyph unicode="&#x26;" horiz-adv-x="1566" d="M125 438q0 84 27.5 160t71.5 130t92.5 92t97.5 59q-24 48 -31.5 86.5t-7.5 101.5q0 174 134 283.5t339 109.5q119 0 235.5 -36.5t200.5 -98.5l-51 -344q-63 51 -148 84t-155 33q-55 0 -87 -21.5t-32 -64.5q0 -23 12 -51.5t37 -65t46 -64t59 -73.5t55 -68l76 -98 q22 31 42 89t29 118h383q-21 -142 -84 -279.5t-137 -222.5l238 -297h-477l-64 72q-146 -101 -358 -101q-155 0 -277 54t-194 161t-72 252zM535 473q0 -69 46.5 -113.5t123.5 -44.5q63 0 102 27l-205 260q-67 -41 -67 -129z" />
<glyph unicode="'" horiz-adv-x="497" d="M184 735l109 699h348l-109 -699h-348z" />
<glyph unicode="(" horiz-adv-x="786" d="M145 356q0 628 400 1090h436q-200 -230 -319 -509t-119 -568q0 -204 62 -407t188 -384h-435q-109 156 -161 360t-52 418z" />
<glyph unicode=")" horiz-adv-x="788" d="M-33 -422q201 230 320 509t119 568q0 204 -62 407t-188 384h434q109 -156 161 -360t52 -418q0 -628 -400 -1090h-436z" />
<glyph unicode="*" horiz-adv-x="839" d="M186 952l213 95l-182 96l143 194l156 -127l25 224h223l-45 -224l199 127l79 -194l-213 -96l183 -95l-142 -194l-157 125l-25 -221h-223l45 221l-197 -125z" />
<glyph unicode="+" horiz-adv-x="1249" d="M152 502l59 375h364l58 366h375l-58 -366h363l-60 -375h-362l-57 -365h-375l57 365h-364z" />
<glyph unicode="," horiz-adv-x="667" d="M-82 -311l299 719h447l-400 -719h-346z" />
<glyph unicode="-" horiz-adv-x="993" d="M213 395l59 375h691l-60 -375h-690z" />
<glyph unicode="." horiz-adv-x="600" d="M82 223q0 104 74.5 177t177.5 73t176.5 -73t73.5 -177t-73.5 -178t-176.5 -74t-177.5 74t-74.5 178z" />
<glyph unicode="/" horiz-adv-x="1126" d="M-147 -287l1163 1909h434l-1165 -1909h-432z" />
<glyph unicode="0" horiz-adv-x="1431" d="M160 627q0 114 29 230.5t89.5 225.5t144.5 193t203 135t255 51q185 0 324.5 -85.5t212.5 -233.5t73 -336q0 -114 -29 -231t-89.5 -225.5t-144.5 -193t-203 -135.5t-255 -51q-186 0 -325.5 85.5t-212 233.5t-72.5 337zM608 631q0 -51 9 -95t28.5 -82t55 -59.5t83.5 -21.5 q65 0 116.5 43t81 109.5t45 138.5t15.5 139q0 51 -9 95t-28.5 82t-55 59.5t-83.5 21.5q-65 0 -116.5 -43t-81 -109.5t-45 -138.5t-15.5 -139z" />
<glyph unicode="1" horiz-adv-x="845" d="M158 858l67 416l361 160h379l-228 -1434h-430l154 975z" />
<glyph unicode="2" horiz-adv-x="1181" d="M55 0l51 313l402 322q145 119 196.5 180t51.5 121q0 59 -42 95t-126 36q-177 0 -369 -129l70 430q161 94 401 94q100 0 190.5 -28.5t163 -83.5t115.5 -144t43 -200q0 -151 -85.5 -277.5t-276.5 -265.5l-131 -96h471l-58 -367h-1067z" />
<glyph unicode="3" horiz-adv-x="1187" d="M76 102l65 398q70 -61 172.5 -104.5t231.5 -43.5q95 0 160 39.5t65 118.5q0 50 -44.5 89.5t-135.5 39.5q-133 0 -232 -45l43 262l304 211h-437l62 367h964l-53 -324l-278 -209q43 -21 81 -51.5t76 -76t60 -110.5t22 -141q0 -248 -174.5 -399.5t-452.5 -151.5 q-156 0 -290.5 39t-208.5 92z" />
<glyph unicode="4" horiz-adv-x="1320" d="M70 324l49 305l782 805h434l-123 -779h187l-53 -331h-187l-51 -324h-416l51 324h-673zM543 655h254l47 299z" />
<glyph unicode="5" horiz-adv-x="1177" d="M80 90l61 402q84 -61 177.5 -100.5t216.5 -39.5q59 0 106.5 13t83 51.5t35.5 99.5q0 62 -58 97.5t-176 35.5q-136 0 -327 -53l215 838h835l-59 -367h-508l-23 -100l48 2q225 0 361 -122t136 -315q0 -135 -49.5 -242t-139 -176.5t-211 -106t-267.5 -36.5q-285 0 -457 119z " />
<glyph unicode="6" horiz-adv-x="1294" d="M170 547q0 136 31 267.5t96 248.5t156 206t219.5 141t277.5 52q232 0 373 -106l-61 -377q-124 106 -301 106q-117 0 -203.5 -56.5t-118.5 -158.5q43 49 121 75t153 26q176 0 288 -124.5t112 -307.5q0 -250 -165.5 -409t-436.5 -159q-134 0 -239.5 45.5t-170 125 t-98 182.5t-33.5 223zM573 485q0 -75 43 -115t103 -40q71 0 119.5 49t48.5 123q0 65 -34.5 104t-102.5 39q-103 0 -166 -84q-11 -29 -11 -76z" />
<glyph unicode="7" horiz-adv-x="1183" d="M113 0l696 1067h-594l57 367h1080l-56 -342l-718 -1092h-465z" />
<glyph unicode="8" horiz-adv-x="1331" d="M115 408q0 127 78.5 230t205.5 148q-61 37 -98 106t-37 146q0 94 45 174.5t120.5 134.5t174 84.5t205.5 30.5q93 0 185 -24.5t172 -71.5t130 -127.5t50 -181.5q0 -102 -59.5 -189t-158.5 -133q79 -38 134 -123t55 -182q0 -104 -49 -192t-131.5 -145.5t-188 -89.5 t-219.5 -32q-88 0 -173.5 15t-166 49.5t-141 84t-97 124t-36.5 164.5zM553 461q0 -52 44.5 -90.5t119.5 -38.5q67 0 120.5 38t53.5 101q0 54 -44.5 93.5t-119.5 39.5q-68 0 -121 -39t-53 -104zM662 991q0 -44 36.5 -76t94.5 -32t99.5 30.5t41.5 83.5q0 47 -37 79t-98 32 q-56 0 -96.5 -32t-40.5 -85z" />
<glyph unicode="9" horiz-adv-x="1294" d="M170 78l61 377q125 -107 301 -107q117 0 203.5 56.5t118.5 158.5q-43 -49 -121 -74.5t-153 -25.5q-176 0 -288 124.5t-112 307.5q0 250 165.5 408.5t436.5 158.5q108 0 197.5 -29.5t152.5 -82t106.5 -125t64 -157.5t20.5 -181q0 -136 -31 -267.5t-96 -249t-156 -206.5 t-219.5 -141t-277.5 -52q-230 0 -373 107zM606 932q0 -65 34.5 -104.5t102.5 -39.5q103 0 166 84q11 29 11 76q0 75 -43 115.5t-103 40.5q-71 0 -119.5 -49t-48.5 -123z" />
<glyph unicode=":" horiz-adv-x="600" d="M82 223q0 104 74.5 177t177.5 73t176.5 -73t73.5 -177t-73.5 -178t-176.5 -74t-177.5 74t-74.5 178zM180 834q0 104 74.5 176.5t177.5 72.5t176.5 -72.5t73.5 -176.5t-73.5 -178t-176.5 -74t-177.5 74t-74.5 178z" />
<glyph unicode=";" horiz-adv-x="677" d="M-45 -311l299 719h446l-399 -719h-346zM283 834q0 104 74.5 176.5t177.5 72.5t176 -72.5t73 -176.5t-73 -178t-176 -74t-177.5 74t-74.5 178z" />
<glyph unicode="&#x3c;" horiz-adv-x="1249" d="M150 485l65 406l1167 428l-69 -434l-705 -215l637 -215l-61 -400z" />
<glyph unicode="=" horiz-adv-x="1249" d="M115 266l57 369h1102l-57 -369h-1102zM190 748l58 368h1102l-58 -368h-1102z" />
<glyph unicode="&#x3e;" horiz-adv-x="1249" d="M82 55l70 439l704 215l-637 215l62 395l1036 -428l-66 -406z" />
<glyph unicode="?" horiz-adv-x="1028" d="M184 1008l58 354q179 100 424 100q71 0 141.5 -12t139.5 -40.5t121.5 -70t85 -106t32.5 -143.5q0 -91 -34 -165t-95.5 -126.5t-136 -88t-166.5 -57.5l-17 -112h-409l47 321q8 1 51.5 7t75.5 11t78.5 16.5t77 25.5t53 37t22.5 51q0 75 -180 75q-204 0 -369 -77zM233 223 q0 104 74.5 177t177.5 73t176.5 -73t73.5 -177t-73.5 -178t-176.5 -74t-177.5 74t-74.5 178z" />
<glyph unicode="@" horiz-adv-x="1878" d="M123 496q0 190 73 366.5t198.5 308.5t304.5 211.5t380 79.5q179 0 335.5 -61t267 -166t174 -250t63.5 -309q0 -163 -59.5 -295.5t-170.5 -210.5t-253 -78q-210 0 -277 133q-19 -20 -33 -33t-46 -36.5t-63 -38t-78.5 -26t-98.5 -11.5q-168 0 -269.5 120.5t-101.5 301.5 q0 98 30.5 192.5t87 173t148.5 126.5t205 48q91 0 158.5 -37.5t97.5 -80.5l16 100h347l-93 -602q-8 -58 -8 -90q0 -113 92 -113q100 0 186.5 131t86.5 324q0 143 -51 270.5t-145 223.5t-237.5 152t-316.5 56q-170 0 -328 -69t-274.5 -185t-186 -279.5t-69.5 -342.5 q0 -215 92 -384t264 -265.5t396 -96.5q244 0 471 135l-15 -102q-204 -119 -460 -119q-237 0 -428 102.5t-301.5 292.5t-110.5 433zM838 537q0 -74 42.5 -113t104.5 -39q85 0 137 78l33 194q-49 80 -139 80q-77 0 -127.5 -57.5t-50.5 -142.5z" />
<glyph unicode="A" horiz-adv-x="1603" d="M2 0l817 1442h420l365 -1442h-463l-54 268h-481l-139 -268h-465zM776 598h244l-68 340z" />
<glyph unicode="B" horiz-adv-x="1437" d="M111 0l225 1434h678q121 0 215 -32.5t153.5 -107t59.5 -182.5q0 -97 -50 -181.5t-139 -133.5q35 -11 71.5 -35.5t72 -63.5t58 -99t22.5 -130q0 -141 -75.5 -249t-203.5 -164t-287 -56h-800zM604 354h232q65 0 109 34.5t44 94.5q0 50 -37 79.5t-98 29.5h-211zM692 899h223 q57 0 89 29t32 80q0 38 -30 61t-76 23h-209z" />
<glyph unicode="C" horiz-adv-x="1353" d="M172 649q0 244 109 429.5t303.5 284.5t447.5 99q112 0 232 -23t202 -55l-71 -407q-70 37 -166 60.5t-199 23.5q-191 0 -300 -103t-109 -282q0 -134 92.5 -218.5t251.5 -84.5q231 0 389 108l-70 -432q-194 -78 -362 -78q-335 0 -542.5 189t-207.5 489z" />
<glyph unicode="D" horiz-adv-x="1589" d="M111 0l225 1434h561q327 0 526 -185t199 -481q0 -162 -62.5 -304t-171.5 -244t-266 -161t-338 -59h-673zM610 379h193q178 0 277.5 106.5t99.5 274.5q0 125 -83.5 210t-222.5 85h-155z" />
<glyph unicode="E" horiz-adv-x="1331" d="M111 0l227 1434h1124l-59 -379h-684l-21 -127h537l-55 -348h-537l-33 -201h697l-60 -379h-1136z" />
<glyph unicode="F" horiz-adv-x="1292" d="M111 0l225 1434h1126l-59 -379h-686l-23 -142h494l-55 -348h-494l-90 -565h-438z" />
<glyph unicode="G" horiz-adv-x="1531" d="M172 653q0 240 108.5 424.5t304 284.5t447.5 100q112 0 228 -20t198 -47l-72 -410q-152 76 -356 76q-193 0 -301 -103t-108 -290q0 -145 88 -229.5t215 -84.5q99 0 166 39l67 443h442l-108 -668q-101 -90 -256.5 -143.5t-351.5 -53.5q-150 0 -281 49.5t-226 137.5 t-149.5 216t-54.5 279z" />
<glyph unicode="H" horiz-adv-x="1536" d="M111 0l225 1434h440l-78 -486h441l78 486h438l-228 -1434h-438l90 565h-440l-90 -565h-438z" />
<glyph unicode="I" horiz-adv-x="671" d="M117 0l227 1434h438l-227 -1434h-438z" />
<glyph unicode="J" horiz-adv-x="1042" d="M45 61l68 416q47 -44 127 -75t147 -31q94 0 147.5 56.5t75.5 197.5l129 809h439l-152 -940q-20 -125 -64 -219t-100 -151t-130 -92.5t-146.5 -48t-157.5 -12.5q-99 0 -212.5 25t-170.5 65z" />
<glyph unicode="K" horiz-adv-x="1527" d="M111 0l223 1434h438l-82 -529l443 529h542l-590 -691l471 -743h-522l-389 612l-96 -612h-438z" />
<glyph unicode="L" horiz-adv-x="1241" d="M111 0l225 1434h440l-168 -1055h652l-60 -379h-1089z" />
<glyph unicode="M" horiz-adv-x="1718" d="M111 0l227 1434h432l231 -510l398 510h438l-227 -1434h-422l127 803l-256 -342h-238l-157 342l-127 -803h-426z" />
<glyph unicode="N" horiz-adv-x="1556" d="M111 0l225 1434h371l430 -709l110 709h428l-225 -1434h-358l-441 713l-110 -713h-430z" />
<glyph unicode="O" d="M172 668q0 169 63.5 317.5t171 252.5t255 164t311.5 60q221 0 387.5 -88t255 -245.5t88.5 -362.5q0 -168 -62.5 -316t-169.5 -253t-255 -165.5t-314 -60.5q-219 0 -385.5 88.5t-256 246.5t-89.5 362zM621 668q0 -122 79.5 -208.5t214.5 -86.5q155 0 247.5 111t92.5 282 q0 122 -79.5 208.5t-214.5 86.5q-152 0 -246 -111.5t-94 -281.5z" />
<glyph unicode="P" horiz-adv-x="1320" d="M111 0l225 1434h631q228 0 360.5 -113.5t132.5 -296.5q0 -230 -166 -377t-426 -147h-241l-78 -500h-438zM680 819h145q50 0 91 12.5t71.5 47.5t30.5 88q0 108 -139 108h-158z" />
<glyph unicode="Q" d="M172 668q0 169 63.5 317.5t171 252.5t255 164t311.5 60q221 0 387.5 -88t255 -245.5t88.5 -362.5q0 -251 -131.5 -446.5t-349.5 -286.5q46 -56 157 -56q92 0 179 41l-58 -360q-117 -47 -250 -47q-120 0 -217.5 59t-189.5 185l-94 129q-266 43 -422 228t-156 456zM621 668 q0 -122 79.5 -208.5t214.5 -86.5q155 0 247.5 111t92.5 282q0 122 -79.5 208.5t-214.5 86.5q-152 0 -246 -111.5t-94 -281.5z" />
<glyph unicode="R" horiz-adv-x="1474" d="M111 0l225 1434h647q225 0 358.5 -123t133.5 -307q0 -147 -85 -264t-227 -177l365 -563h-496l-325 512h-78l-80 -512h-438zM684 834h199q73 0 116 32t43 92q0 49 -35.5 78t-97.5 29h-190z" />
<glyph unicode="S" horiz-adv-x="1337" d="M90 123l72 442q83 -86 247.5 -148.5t303.5 -62.5q180 0 180 80q0 12 -5.5 21.5t-19.5 18.5t-28.5 16t-41.5 16t-48.5 16t-60 18.5t-66.5 20.5q-54 18 -87.5 30t-83.5 33.5t-80.5 41.5t-66.5 51.5t-56.5 66t-34 81.5t-13.5 102q0 125 50.5 221.5t140.5 155.5t207 88.5 t257 29.5q152 0 293 -33t235 -81l-71 -404q-79 54 -229.5 96.5t-276.5 42.5q-62 0 -97.5 -8.5t-45 -19.5t-9.5 -27q0 -22 47 -42t176 -61q45 -14 70 -22q94 -31 162 -65t125 -83t86 -115.5t29 -150.5q0 -123 -52.5 -222t-143.5 -163.5t-212 -98.5t-260 -34q-169 0 -326 36 t-266 116z" />
<glyph unicode="T" horiz-adv-x="1349" d="M213 1055l59 379h1260l-59 -379h-412l-168 -1055h-438l168 1055h-410z" />
<glyph unicode="U" horiz-adv-x="1501" d="M176 504q0 49 10 121l127 809h443l-133 -830q-5 -40 -5 -47q0 -91 56.5 -137.5t142.5 -46.5q87 0 153 49.5t85 159.5l137 852h442l-139 -877q-23 -143 -89.5 -256.5t-162.5 -184.5t-213 -108t-246 -37q-92 0 -179.5 20.5t-165.5 63.5t-136.5 104.5t-92.5 150.5t-34 194z " />
<glyph unicode="V" horiz-adv-x="1562" d="M225 1434h477l164 -854l437 854h485l-801 -1442h-418z" />
<glyph unicode="W" horiz-adv-x="2207" d="M225 1434h469l78 -764l391 768h332l150 -768l315 764h479l-698 -1442h-375l-137 753l-381 -753h-383z" />
<glyph unicode="X" horiz-adv-x="1511" d="M-39 0l664 768l-359 666h496l153 -342l267 342h518l-570 -664l420 -770h-497l-219 434l-353 -434h-520z" />
<glyph unicode="Y" horiz-adv-x="1470" d="M217 1434h485l187 -404l317 404h498l-651 -797l-101 -637h-438l100 627z" />
<glyph unicode="Z" horiz-adv-x="1300" d="M31 0l49 311l743 744h-608l59 379h1192l-49 -310l-743 -745h657l-59 -379h-1241z" />
<glyph unicode="[" horiz-adv-x="925" d="M55 -422l295 1868h770l-51 -326h-381l-192 -1216h381l-52 -326h-770z" />
<glyph unicode="\" horiz-adv-x="1128" d="M211 1622h389l559 -1909h-389z" />
<glyph unicode="]" horiz-adv-x="925" d="M-33 -422l49 326h381l193 1216h-381l51 326h770l-295 -1868h-768z" />
<glyph unicode="^" horiz-adv-x="1185" d="M133 678l506 881h408l221 -881h-396l-79 514l-246 -514h-414z" />
<glyph unicode="_" horiz-adv-x="1363" d="M-59 -348l41 278h1372l-43 -278h-1370z" />
<glyph unicode="`" horiz-adv-x="1054" d="M440 1503h508l144 -323h-357z" />
<glyph unicode="a" horiz-adv-x="1251" d="M72 297q0 172 120.5 265t303.5 93q148 0 262 -57q4 20 4 39q0 123 -223 123q-62 0 -142 -14t-139 -41l53 321q165 57 359 57q82 0 155.5 -12.5t141.5 -42.5t116.5 -75t77.5 -114.5t29 -156.5q0 -43 -19 -145l-18 -103q-8 -52 -8 -76q0 -43 51 -43q26 0 55 11l-49 -293 q-36 -26 -101 -43t-118 -17q-196 0 -256 125q-39 -50 -117 -87.5t-178 -37.5q-171 0 -265.5 91.5t-94.5 232.5zM483 334q0 -41 31 -68.5t82 -27.5q85 0 135 61l14 104q-19 19 -54.5 30t-69.5 11q-60 0 -99 -27.5t-39 -82.5z" />
<glyph unicode="b" horiz-adv-x="1349" d="M100 0l224 1434h432l-76 -496q29 53 111 99t186 46q180 0 293.5 -139.5t113.5 -345.5q0 -90 -21.5 -178.5t-66 -169t-107 -142.5t-151.5 -98.5t-192 -36.5q-108 0 -190.5 49t-106.5 97l-19 -119h-430zM588 408q24 -34 70 -55t102 -21q82 0 133 63.5t51 161.5 q0 82 -41.5 125t-107.5 43q-96 0 -168 -78z" />
<glyph unicode="c" horiz-adv-x="1042" d="M123 496q0 165 84.5 299.5t233 211t331.5 76.5q190 0 340 -77l-57 -347q-72 32 -125.5 46t-122.5 14q-112 0 -185 -55.5t-73 -147.5q0 -54 25.5 -92t67.5 -55.5t80.5 -24t80.5 -6.5q118 0 221 41l-57 -356q-127 -50 -269 -50q-113 0 -215 33t-183 96.5t-129 165 t-48 228.5z" />
<glyph unicode="d" horiz-adv-x="1347" d="M123 459q0 90 21.5 178.5t66 169t107.5 142t152 98t192 36.5q108 0 189 -48t105 -97l82 496h432l-227 -1434h-432l16 119q-30 -53 -111.5 -99.5t-185.5 -46.5q-180 0 -293.5 140t-113.5 346zM563 502q0 -81 42 -124.5t108 -43.5q98 0 168 86l34 219q-22 39 -67.5 63.5 t-99.5 24.5q-80 0 -132.5 -64t-52.5 -161z" />
<glyph unicode="e" horiz-adv-x="1185" d="M123 481q0 174 80 312.5t217 214t305 75.5q216 0 355 -121t139 -327q0 -64 -27 -199h-660q10 -62 82.5 -93.5t169.5 -31.5q174 0 346 82l-49 -317q-137 -103 -413 -103q-153 0 -276 61t-196 177.5t-73 269.5zM543 641h286v12q0 66 -31 104t-87 38q-57 0 -103 -39.5 t-65 -114.5z" />
<glyph unicode="f" horiz-adv-x="954" d="M131 719l53 338h166l6 39q26 167 147 266.5t333 99.5q170 0 294 -45l-45 -284q-82 26 -159 26q-62 0 -99 -27t-45 -75h291l-53 -338h-291l-115 -719h-432l115 719h-166z" />
<glyph unicode="g" horiz-adv-x="1320" d="M102 -334l58 367q151 -101 356 -101q32 0 63 4t70.5 17.5t71 35.5t57.5 62.5t35 93.5l10 58q-25 -32 -60.5 -60.5t-103 -54t-145.5 -25.5q-175 0 -283 127.5t-108 317.5q0 82 21 163.5t64.5 155.5t104 131t146.5 91t186 34q111 0 189.5 -48t105.5 -99l21 121h425 l-143 -928q-18 -120 -70.5 -216t-125 -157.5t-164 -102.5t-184.5 -58t-191 -17q-126 0 -235.5 23.5t-170.5 64.5zM563 551q0 -64 40 -100.5t106 -36.5q100 0 168 71l26 174q-57 70 -162 70q-78 0 -128 -51t-50 -127z" />
<glyph unicode="h" horiz-adv-x="1261" d="M100 0l228 1434h430l-82 -512q50 73 130 117t181 44q143 0 224 -96.5t81 -255.5q0 -81 -10 -143l-92 -588h-430l82 530q6 37 6 72q0 56 -27 80.5t-67 24.5q-68 0 -121 -56l-103 -651h-430z" />
<glyph unicode="i" horiz-adv-x="651" d="M109 0l165 1057h433l-168 -1057h-430zM291 1350q0 101 70.5 171t170.5 70q101 0 171.5 -70t70.5 -171q0 -103 -70.5 -173.5t-171.5 -70.5q-100 0 -170.5 71t-70.5 173z" />
<glyph unicode="j" horiz-adv-x="651" d="M-252 -381q75 -41 248 -41q231 0 372.5 121t174.5 330l164 1028h-433l-161 -1014q-10 -63 -56.5 -96t-117.5 -33q-81 0 -138 31zM293 1350q0 101 70 171t169 70q102 0 173 -70t71 -171q0 -102 -71 -173t-173 -71q-99 0 -169 71t-70 173z" />
<glyph unicode="k" horiz-adv-x="1329" d="M100 0l228 1434h432l-119 -742l299 365h528l-458 -502l356 -555h-496l-270 428l-68 -428h-432z" />
<glyph unicode="l" horiz-adv-x="673" d="M125 242q0 43 16 149l162 1043h432l-155 -996q-1 -5 -3.5 -18t-4 -24.5t-1.5 -16.5q0 -41 50 -41q29 0 49 10l-54 -334q-95 -41 -206 -41q-125 0 -205 70.5t-80 198.5z" />
<glyph unicode="m" horiz-adv-x="1900" d="M100 0l166 1057h430l-20 -137q42 67 130 115t189 48q56 0 104 -16t80 -42t52.5 -53t30.5 -54q63 74 157 119.5t199 45.5q138 0 225.5 -83t87.5 -242q0 -57 -20 -183l-90 -575h-432l86 551q6 41 6 74q0 47 -24 65.5t-56 18.5q-74 0 -123 -58l-102 -651h-431l84 532 q11 55 11 91q0 41 -21.5 63.5t-56.5 22.5q-79 0 -129 -62l-103 -647h-430z" />
<glyph unicode="n" horiz-adv-x="1261" d="M100 0l168 1057h430l-22 -135q50 73 130 117t181 44q143 0 224 -96.5t81 -255.5q0 -81 -10 -143l-92 -588h-430l82 530q6 37 6 72q0 56 -27 80.5t-67 24.5q-65 0 -121 -56l-103 -651h-430z" />
<glyph unicode="o" horiz-adv-x="1284" d="M123 512q0 111 46 214.5t125 182.5t193.5 126.5t243.5 47.5q164 0 297.5 -65t212 -188t78.5 -281q0 -112 -46 -217t-125 -184t-194 -127t-245 -48q-163 0 -296 65.5t-211.5 189.5t-78.5 284zM541 502q0 -79 48.5 -121.5t117.5 -42.5q82 0 138 62t56 157q0 79 -48.5 120.5 t-119.5 41.5q-82 0 -137 -62t-55 -155z" />
<glyph unicode="p" horiz-adv-x="1351" d="M39 -410l227 1467h434l-18 -119q29 53 111 99t186 46q180 0 293.5 -139.5t113.5 -345.5q0 -90 -21.5 -178.5t-66 -169t-107 -142.5t-151.5 -98.5t-192 -36.5q-108 0 -188.5 47.5t-104.5 96.5l-84 -527h-432zM590 420q22 -39 67.5 -63.5t100.5 -24.5q82 0 135 64t53 161 q0 81 -42.5 124.5t-108.5 43.5q-99 0 -172 -86z" />
<glyph unicode="q" horiz-adv-x="1343" d="M123 459q0 90 21.5 178.5t66 169t107.5 142t152 98t192 36.5q108 0 189 -48t105 -97l21 119h432l-231 -1467h-433l82 529q-30 -53 -111.5 -99.5t-185.5 -46.5q-180 0 -293.5 140t-113.5 346zM563 502q0 -81 42 -124.5t108 -43.5q98 0 168 86l34 219q-22 39 -67.5 63.5 t-99.5 24.5q-80 0 -132.5 -64t-52.5 -161z" />
<glyph unicode="r" horiz-adv-x="970" d="M100 0l166 1057h430l-26 -168q41 63 145 128.5t215 65.5q34 0 57 -6l-63 -405q-60 16 -127 16q-77 0 -150.5 -24t-121.5 -68l-95 -596h-430z" />
<glyph unicode="s" horiz-adv-x="1036" d="M63 90l54 318q177 -127 397 -127q55 0 77.5 9t22.5 29q0 21 -22 32t-90 31q-32 9 -51 15q-63 20 -111 43t-95.5 58t-73.5 84.5t-26 111.5q0 99 41.5 175t113.5 122t162.5 69t196.5 23q268 0 439 -120l-56 -310q-72 50 -174.5 88.5t-199.5 38.5q-72 0 -72 -37 q0 -15 27 -28t122 -41q170 -52 240 -125.5t70 -194.5q0 -97 -43.5 -172t-116 -119.5t-160.5 -67t-184 -22.5q-130 0 -264.5 30t-223.5 87z" />
<glyph unicode="t" horiz-adv-x="933" d="M127 719l53 338h168l41 254h426l-39 -254h240l-53 -338h-240l-37 -246q-6 -54 -6 -65q0 -36 25 -53t63 -17q74 0 147 41l-53 -334q-118 -72 -287 -72q-150 0 -246 84.5t-96 233.5q0 10 7 80l53 348h-166z" />
<glyph unicode="u" horiz-adv-x="1273" d="M147 326q0 75 11 143l92 588h430l-82 -531q-6 -38 -6 -75q0 -101 94 -101q74 0 121 56l102 651h430l-168 -1057h-430l23 135q-50 -73 -130 -117.5t-181 -44.5q-143 0 -224.5 97t-81.5 256z" />
<glyph unicode="v" horiz-adv-x="1239" d="M158 1057h442l94 -547l273 547h450l-606 -1065h-389z" />
<glyph unicode="w" horiz-adv-x="1701" d="M164 1057h401l60 -496l217 500h327l62 -498l213 494h430l-512 -1065h-365l-79 493l-230 -493h-360z" />
<glyph unicode="x" horiz-adv-x="1243" d="M0 0l453 541l-267 516h447l98 -248l174 248h479l-428 -514l279 -543h-453l-108 264l-195 -264h-479z" />
<glyph unicode="y" horiz-adv-x="1241" d="M20 -373l60 371q68 -55 170 -55q65 0 105 19t69 73l-270 1022h448l90 -598l264 598h449l-631 -1159q-174 -320 -508 -320q-74 0 -142.5 13.5t-103.5 35.5z" />
<glyph unicode="z" horiz-adv-x="1116" d="M49 0l45 285l486 434h-398l54 338h958l-45 -295l-498 -424h463l-53 -338h-1012z" />
<glyph unicode="{" horiz-adv-x="888" d="M143 346l54 332q94 10 134.5 64t59.5 167l21 135q29 181 155.5 291.5t311.5 110.5h204l-49 -326h-114q-45 0 -81 -32.5t-44 -77.5l-39 -254q-15 -98 -75.5 -160t-156.5 -84q158 -40 158 -193q0 -15 -4 -51l-33 -202q-10 -63 -10 -70q0 -41 24.5 -66.5t67.5 -25.5h115 l-51 -326h-207q-163 0 -254.5 87t-91.5 235q0 36 6 80l20 135q8 47 8 90q0 65 -29 99.5t-100 41.5z" />
<glyph unicode="|" horiz-adv-x="727" d="M160 -227l282 1783h334l-282 -1783h-334z" />
<glyph unicode="}" horiz-adv-x="890" d="M-33 -422l49 326h115q45 0 81 32.5t44 77.5l39 254q15 98 75 160t156 84q-157 39 -157 193q0 15 4 51l33 202q10 62 10 70q0 41 -26 66.5t-71 25.5h-110l51 326h207q163 0 254.5 -87t91.5 -235q0 -36 -6 -80l-21 -135q-8 -47 -8 -90q0 -65 29 -99.5t100 -41.5l-53 -332 q-94 -10 -135 -64t-60 -167l-20 -135q-29 -181 -155.5 -291.5t-311.5 -110.5h-205z" />
<glyph unicode="~" horiz-adv-x="1271" d="M119 299l61 381q39 39 118.5 65.5t162.5 26.5q76 0 153.5 -18.5t132 -41t132 -41t153.5 -18.5q168 0 287 103l-62 -383q-40 -39 -118.5 -64.5t-163.5 -25.5q-76 0 -153.5 18t-133.5 39t-134.5 39t-154.5 18q-167 0 -280 -98z" />
<glyph unicode="&#xa1;" horiz-adv-x="794" d="M76 -410h512l86 922h-391zM260 834q0 103 74 176t178 73q103 0 176.5 -73t73.5 -176q0 -105 -73.5 -178.5t-176.5 -73.5q-105 0 -178.5 73.5t-73.5 178.5z" />
<glyph unicode="&#xa2;" horiz-adv-x="1042" d="M123 496q0 209 132.5 364t346.5 205l39 229h358l-36 -233q79 -19 149 -55l-57 -347q-72 32 -125.5 46t-122.5 14q-112 0 -185 -55.5t-73 -147.5q0 -54 25.5 -92t67.5 -55.5t80.5 -24t80.5 -6.5q118 0 221 41l-57 -356q-95 -38 -176 -46l-35 -217h-359l41 263 q-143 59 -229 178.5t-86 294.5z" />
<glyph unicode="&#xa3;" horiz-adv-x="1280" d="M82 0l59 379h49q71 0 110 27t46 69l12 82h-188l49 305h187l16 99q38 240 199 370.5t419 130.5q214 0 342 -57l-61 -389q-106 45 -223 45q-114 0 -174.5 -42.5t-75.5 -135.5l-4 -21h362l-49 -305h-360l-4 -29q-10 -62 -30.5 -96.5t-66.5 -52.5h572l-60 -379h-1126z" />
<glyph unicode="&#xa4;" horiz-adv-x="1198" d="M164 348l135 137q-61 106 -61 234q0 127 61 233l-135 138l178 180l135 -135q112 59 236 59q123 0 235 -59l135 135l179 -180l-136 -138q62 -108 62 -233q0 -126 -62 -234l136 -137l-179 -180l-135 135q-112 -59 -235 -59q-124 0 -236 59l-135 -135zM532 719 q0 -73 53.5 -126.5t127.5 -53.5q73 0 126.5 53.5t53.5 126.5t-53.5 126.5t-126.5 53.5q-74 0 -127.5 -53.5t-53.5 -126.5z" />
<glyph unicode="&#xa5;" horiz-adv-x="1460" d="M176 242l39 252h375l18 108h-375l39 252h277l-309 580h458l191 -396l311 396h477l-499 -580h280l-39 -252h-372l-19 -108h373l-39 -252h-373l-39 -242h-438l39 242h-375z" />
<glyph unicode="&#xa6;" horiz-adv-x="727" d="M160 -227l114 723h334l-114 -723h-334zM328 834l114 722h334l-114 -722h-334z" />
<glyph unicode="&#xa7;" horiz-adv-x="1390" d="M143 543q0 103 55.5 179t157.5 120q-49 74 -49 170q0 89 31.5 164t85 126.5t126 87.5t154.5 53t170 17q143 0 286.5 -32.5t256.5 -96.5l-57 -360q-97 59 -224 103t-243 44q-129 0 -129 -53q0 -15 11.5 -27.5t40 -25.5t54.5 -22.5t78.5 -27.5t89.5 -32q66 -25 114.5 -46.5 t102 -55.5t87 -70t55.5 -87.5t22 -111.5q0 -104 -55.5 -179.5t-157.5 -119.5q49 -74 49 -172q0 -89 -31.5 -163.5t-85 -126t-126 -87.5t-154.5 -52.5t-170 -16.5q-142 0 -286 32.5t-257 94.5l58 360q96 -58 223 -101.5t244 -43.5q129 0 129 53q0 14 -11.5 26t-40 25 t-55.5 22.5t-79 27.5t-89 32q-67 26 -115 47.5t-101.5 55.5t-87 70.5t-55.5 88t-22 111.5zM543 616q1 -17 13.5 -31.5t41 -28.5t55 -25t74.5 -28.5t80 -31.5l141 -61q27 4 49 22t23 53q-1 17 -13.5 31.5t-41 29t-55 25t-74.5 29t-80 31.5l-142 59q-27 -4 -48.5 -22 t-22.5 -52z" />
<glyph unicode="&#xa8;" horiz-adv-x="1054" d="M274 1341q0 84 60.5 143.5t144.5 59.5q87 0 146 -59t59 -144t-59 -144.5t-146 -59.5q-84 0 -144.5 60t-60.5 144zM760 1341q0 85 60 144t145 59t144.5 -59t59.5 -144t-59.5 -144.5t-144.5 -59.5t-145 59.5t-60 144.5z" />
<glyph unicode="&#xa9;" horiz-adv-x="1619" d="M170 717q0 149 58 286t157 238t238 161t292 60t290.5 -59.5t235 -159.5t155 -237.5t57.5 -288.5q0 -199 -98 -370.5t-269.5 -273.5t-376.5 -102q-153 0 -290.5 59.5t-235.5 160t-155.5 238t-57.5 288.5zM256 711q0 -134 50 -255t135.5 -210t207.5 -141t260 -52 q187 0 339 90t236.5 243t84.5 337q0 179 -84 329.5t-234.5 239t-335.5 88.5q-186 0 -337.5 -89.5t-236.5 -242.5t-85 -337zM524 717q0 184 129.5 300t327.5 116q113 0 203 -41v-236q-92 55 -199 55q-89 0 -148 -55.5t-59 -138.5q0 -86 60.5 -140.5t154.5 -54.5q123 0 203 60 v-238q-95 -45 -213 -45q-198 0 -328.5 117t-130.5 301z" />
<glyph unicode="&#xaa;" horiz-adv-x="849" d="M143 879q0 125 91 195.5t223 70.5q124 0 223 -51q6 30 6 45q0 112 -182 112q-122 0 -221 -47l32 201q112 45 265 45q72 0 133.5 -15t113 -46.5t80.5 -87t29 -130.5q0 -33 -10 -100l-21 -119q-2 -12 -4 -24.5t-3 -20t-1 -14.5q0 -43 47 -43q15 0 39 8l-29 -178 q-51 -33 -131 -33q-140 0 -172 92q-92 -96 -239 -96q-125 0 -197 66.5t-72 169.5zM389 901q0 -39 31.5 -61.5t83.5 -22.5q88 0 147 66l13 80q-49 38 -138 38q-59 0 -98 -25t-39 -75z" />
<glyph unicode="&#xab;" horiz-adv-x="1302" d="M125 422l35 211l309 364h430l-401 -491l243 -447h-422zM696 422l35 211l309 364h430l-401 -491l244 -447h-422z" />
<glyph unicode="&#xac;" horiz-adv-x="1169" d="M160 561l61 385h1024l-108 -692h-385l47 307h-639z" />
<glyph unicode="&#xad;" horiz-adv-x="995" d="M213 395l59 375h691l-60 -375h-690z" />
<glyph unicode="&#xae;" horiz-adv-x="1619" d="M170 717q0 149 58 286t157 238t238 161t292 60t290.5 -59.5t235 -159.5t155 -237.5t57.5 -288.5q0 -199 -98 -370.5t-269.5 -273.5t-376.5 -102q-153 0 -290.5 59.5t-235.5 160t-155.5 238t-57.5 288.5zM256 711q0 -134 49.5 -255t135 -210t208 -141t260.5 -52 q187 0 339 90t236.5 243t84.5 337q0 179 -84 329.5t-234.5 239t-335.5 88.5q-187 0 -338.5 -89.5t-236 -242.5t-84.5 -337zM580 344v801h387q136 0 218.5 -73t82.5 -185q0 -75 -39.5 -135.5t-108.5 -94.5l240 -313h-285l-215 285h-35v-285h-245zM825 809h113q34 0 55 17.5 t21 47.5t-21 47t-55 17h-113v-129z" />
<glyph unicode="&#xaf;" horiz-adv-x="1009" d="M217 1194l45 281h936l-45 -281h-936z" />
<glyph unicode="&#xb0;" horiz-adv-x="714" d="M195 1128q0 136 101.5 235t238.5 99t239.5 -99t102.5 -235t-102.5 -234.5t-239.5 -98.5t-238.5 98.5t-101.5 234.5zM418 1128q2 -50 35 -84t82 -34q50 0 83 34t33 84q0 52 -32.5 86.5t-83.5 34.5q-49 0 -82 -35t-35 -86z" />
<glyph unicode="&#xb1;" horiz-adv-x="1249" d="M76 0l53 350h1102l-55 -350h-1100zM195 760l59 375h362l48 299h374l-47 -299h365l-60 -375h-364l-47 -297h-375l47 297h-362z" />
<glyph unicode="&#xb2;" horiz-adv-x="690" d="M166 659l29 168l231 177q80 62 108.5 95.5t28.5 67.5q0 31 -23.5 50.5t-70.5 19.5q-104 0 -211 -72l39 234q89 51 223 51q117 0 201 -65t84 -183q0 -82 -47.5 -150t-153.5 -143l-74 -53h263l-31 -197h-596z" />
<glyph unicode="&#xb3;" horiz-adv-x="663" d="M143 715l37 215q36 -32 96 -56t132 -24q55 0 93 21.5t38 62.5q0 27 -27 48.5t-78 21.5q-78 0 -133 -25l23 143l170 113h-244l35 199h536l-28 -174l-156 -113q133 -68 133 -205q0 -134 -96.5 -216.5t-251.5 -82.5q-87 0 -162.5 21.5t-116.5 50.5z" />
<glyph unicode="&#xb4;" horiz-adv-x="1007" d="M393 1180l246 323h508l-399 -323h-355z" />
<glyph unicode="&#xb5;" horiz-adv-x="1294" d="M39 -410l231 1467h430l-82 -531q-6 -38 -6 -71q0 -56 27.5 -80.5t67.5 -24.5q73 0 120 56l103 651h430l-168 -1057h-430l22 135q-93 -135 -254 -158l-59 -387h-432z" />
<glyph unicode="&#xb6;" horiz-adv-x="1257" d="M182 924q0 149 85.5 267.5t222 180.5t294.5 62h590l-225 -1434h-438l84 535h-152q-215 0 -338 108.5t-123 280.5z" />
<glyph unicode="&#xb7;" horiz-adv-x="587" d="M184 807q0 104 74.5 177t177.5 73t176.5 -73t73.5 -177t-73.5 -178t-176.5 -74t-177.5 74t-74.5 178z" />
<glyph unicode="&#xb8;" horiz-adv-x="1064" d="M162 -326l274 357h338l-117 -357h-495z" />
<glyph unicode="&#xb9;" horiz-adv-x="536" d="M190 1098l37 229l230 107h227l-121 -775h-235l84 535z" />
<glyph unicode="&#xba;" horiz-adv-x="935" d="M201 1036q0 80 33 155.5t89.5 132.5t139.5 91.5t176 34.5q180 0 302 -107.5t122 -279.5q0 -82 -33 -158t-90.5 -134t-140.5 -93t-176 -35q-179 0 -300.5 109t-121.5 284zM455 1028q0 -71 47.5 -117.5t118.5 -46.5q80 0 134 57.5t54 145.5q0 71 -47.5 115.5t-118.5 44.5 q-81 0 -134.5 -55.5t-53.5 -143.5z" />
<glyph unicode="&#xbb;" horiz-adv-x="1302" d="M-8 59l401 492l-243 446h421l195 -362l-35 -211l-309 -365h-430zM563 59l402 492l-244 446h422l194 -362l-34 -211l-310 -365h-430z" />
<glyph unicode="&#xbc;" horiz-adv-x="1583" d="M190 0l1104 1434h267l-1104 -1434h-267zM190 1098l37 229l230 107h227l-121 -775h-235l84 535zM885 174l28 166l437 434h241l-69 -420h104l-31 -180h-102l-29 -174h-227l29 174h-381zM1149 354h145l29 166z" />
<glyph unicode="&#xbd;" d="M190 0l1104 1434h267l-1104 -1434h-267zM190 1098l37 229l230 107h227l-121 -775h-235l84 535zM1044 0l29 168l232 176q80 62 108.5 96t28.5 68q0 31 -23.5 50.5t-70.5 19.5q-104 0 -211 -72l39 233q91 52 223 52q117 0 200.5 -65t83.5 -183q0 -82 -47 -150.5 t-153 -142.5l-74 -53h262l-31 -197h-596z" />
<glyph unicode="&#xbe;" horiz-adv-x="1658" d="M143 715l37 215q36 -32 96 -56t132 -24q55 0 93 21.5t38 62.5q0 27 -27 48.5t-78 21.5q-78 0 -133 -25l23 143l170 113h-244l35 199h536l-28 -174l-156 -113q133 -68 133 -205q0 -134 -96.5 -216.5t-251.5 -82.5q-87 0 -162.5 21.5t-116.5 50.5zM266 0l1104 1434h266 l-1104 -1434h-266zM961 174l28 166l436 434h242l-70 -420h105l-31 -180h-102l-29 -174h-227l28 174h-380zM1225 354h145l29 166z" />
<glyph unicode="&#xbf;" horiz-adv-x="1028" d="M16 -49q0 91 34 165.5t95.5 127.5t137 89t166.5 58l18 121h410l-50 -330q-8 -1 -42.5 -5.5t-61.5 -9t-67 -12.5t-70 -19t-58.5 -25.5t-43.5 -35t-15 -44.5q0 -76 180 -76q202 0 369 78l-57 -355q-179 -100 -424 -100q-71 0 -141.5 12t-140 40.5t-122 70.5t-85 106.5 t-32.5 143.5zM469 831q0 104 73.5 178t176.5 74t177.5 -74t74.5 -178t-74.5 -176.5t-177.5 -72.5t-176.5 72.5t-73.5 176.5z" />
<glyph unicode="&#xc0;" horiz-adv-x="1603" d="M2 0l817 1442h420l365 -1442h-463l-54 268h-481l-139 -268h-465zM588 1878h508l141 -324h-354zM776 598h244l-68 340z" />
<glyph unicode="&#xc1;" horiz-adv-x="1603" d="M2 0l817 1442h420l365 -1442h-463l-54 268h-481l-139 -268h-465zM776 598h244l-68 340zM879 1554l245 324h508l-399 -324h-354z" />
<glyph unicode="&#xc2;" horiz-adv-x="1603" d="M2 0l817 1442h420l365 -1442h-463l-54 268h-481l-139 -268h-465zM573 1554l322 324h405l213 -324h-346l-92 127l-129 -127h-373zM776 598h244l-68 340z" />
<glyph unicode="&#xc3;" horiz-adv-x="1603" d="M2 0l817 1442h420l365 -1442h-463l-54 268h-481l-139 -268h-465zM621 1544q27 179 114.5 265.5t222.5 86.5q68 0 137.5 -32.5t112.5 -32.5q72 0 101 59h213q-26 -165 -117.5 -258.5t-222.5 -93.5q-45 0 -82 11t-58 24t-49.5 24t-58.5 11q-72 0 -103 -64h-210zM776 598 h244l-68 340z" />
<glyph unicode="&#xc4;" horiz-adv-x="1603" d="M2 0l817 1442h420l365 -1442h-463l-54 268h-481l-139 -268h-465zM621 1720q0 84 60 143.5t144 59.5q87 0 147 -59t60 -144t-60 -144.5t-147 -59.5q-84 0 -144 60t-60 144zM776 598h244l-68 340zM1106 1720q0 85 60 144t145 59t145 -59t60 -144t-60 -144.5t-145 -59.5 t-145 59.5t-60 144.5z" />
<glyph unicode="&#xc5;" horiz-adv-x="1603" d="M2 0l817 1442h420l365 -1442h-463l-54 268h-481l-139 -268h-465zM776 598h244l-68 340zM827 1720q0 92 67 158t159 66t156.5 -65.5t64.5 -158.5q0 -91 -64.5 -157t-156.5 -66t-159 66t-67 157zM967 1720q0 -34 26 -59t60 -25t59 25t25 59q0 35 -25 60.5t-59 25.5 t-60 -25.5t-26 -60.5z" />
<glyph unicode="&#xc6;" horiz-adv-x="2234" d="M2 0l961 1434h1402l-59 -379h-659l-21 -127h512l-55 -348h-512l-33 -201h672l-60 -379h-1112l41 268h-426l-176 -268h-475zM868 598h265l73 465h-32z" />
<glyph unicode="&#xc7;" horiz-adv-x="1353" d="M172 649q0 244 109 429.5t303.5 284.5t447.5 99q112 0 232 -23t202 -55l-71 -407q-70 37 -166 60.5t-199 23.5q-191 0 -300 -103t-109 -282q0 -134 92.5 -218.5t251.5 -84.5q231 0 389 108l-70 -432q-120 -49 -225 -65l-101 -310h-495l246 320q-248 56 -392.5 231.5 t-144.5 423.5z" />
<glyph unicode="&#xc8;" horiz-adv-x="1331" d="M111 0l227 1434h1124l-59 -379h-684l-21 -127h537l-55 -348h-537l-33 -201h697l-60 -379h-1136zM508 1878h508l141 -324h-354z" />
<glyph unicode="&#xc9;" horiz-adv-x="1331" d="M111 0l227 1434h1124l-59 -379h-684l-21 -127h537l-55 -348h-537l-33 -201h697l-60 -379h-1136zM672 1554l246 324h507l-399 -324h-354z" />
<glyph unicode="&#xca;" horiz-adv-x="1331" d="M111 0l227 1434h1124l-59 -379h-684l-21 -127h537l-55 -348h-537l-33 -201h697l-60 -379h-1136zM457 1554l321 324h406l213 -324h-346l-93 127l-129 -127h-372z" />
<glyph unicode="&#xcb;" horiz-adv-x="1331" d="M111 0l227 1434h1124l-59 -379h-684l-21 -127h537l-55 -348h-537l-33 -201h697l-60 -379h-1136zM500 1720q0 84 60.5 143.5t144.5 59.5q87 0 146.5 -59t59.5 -144t-59.5 -144.5t-146.5 -59.5q-84 0 -144.5 60t-60.5 144zM985 1720q0 85 60 144t145 59t145 -59t60 -144 t-60 -144.5t-145 -59.5t-145 59.5t-60 144.5z" />
<glyph unicode="&#xcc;" horiz-adv-x="671" d="M117 0l227 1434h438l-227 -1434h-438zM119 1878h508l141 -324h-354z" />
<glyph unicode="&#xcd;" horiz-adv-x="671" d="M117 0l227 1434h438l-227 -1434h-438zM410 1554l245 324h508l-399 -324h-354z" />
<glyph unicode="&#xce;" horiz-adv-x="671" d="M113 1554l321 324h406l213 -324h-346l-93 127l-129 -127h-372zM117 0l227 1434h438l-227 -1434h-438z" />
<glyph unicode="&#xcf;" horiz-adv-x="671" d="M117 0l227 1434h438l-227 -1434h-438zM158 1720q0 84 60 143.5t144 59.5q87 0 147 -59t60 -144t-60 -144.5t-147 -59.5q-84 0 -144 60t-60 144zM643 1720q0 85 60 144t145 59t145 -59t60 -144t-60 -144.5t-145 -59.5t-145 59.5t-60 144.5z" />
<glyph unicode="&#xd0;" horiz-adv-x="1679" d="M127 594l55 346h166l78 494h561q327 0 526 -185t199 -481q0 -162 -62.5 -304t-171.5 -244t-266 -161t-338 -59h-673l92 594h-166zM700 379h193q178 0 277.5 106.5t99.5 274.5q0 125 -83 210t-222 85h-156l-18 -115h233l-55 -346h-234z" />
<glyph unicode="&#xd1;" horiz-adv-x="1556" d="M111 0l225 1434h371l430 -709l110 709h428l-225 -1434h-358l-441 713l-110 -713h-430zM598 1544q27 179 115 265.5t223 86.5q68 0 137.5 -32.5t112.5 -32.5q71 0 100 59h213q-26 -165 -117.5 -258.5t-222.5 -93.5q-45 0 -82 11t-58 24t-49.5 24t-58.5 11q-71 0 -102 -64 h-211z" />
<glyph unicode="&#xd2;" d="M172 668q0 169 63.5 317.5t171 252.5t255 164t311.5 60q221 0 387.5 -88t255 -245.5t88.5 -362.5q0 -168 -62.5 -316t-169.5 -253t-255 -165.5t-314 -60.5q-219 0 -385.5 88.5t-256 246.5t-89.5 362zM614 1878h508l142 -324h-355zM621 668q0 -122 79.5 -208.5 t214.5 -86.5q155 0 247.5 111t92.5 282q0 122 -79.5 208.5t-214.5 86.5q-152 0 -246 -111.5t-94 -281.5z" />
<glyph unicode="&#xd3;" d="M172 668q0 169 63.5 317.5t171 252.5t255 164t311.5 60q221 0 387.5 -88t255 -245.5t88.5 -362.5q0 -168 -62.5 -316t-169.5 -253t-255 -165.5t-314 -60.5q-219 0 -385.5 88.5t-256 246.5t-89.5 362zM621 668q0 -122 79.5 -208.5t214.5 -86.5q155 0 247.5 111t92.5 282 q0 122 -79.5 208.5t-214.5 86.5q-152 0 -246 -111.5t-94 -281.5zM891 1554l246 324h508l-400 -324h-354z" />
<glyph unicode="&#xd4;" d="M172 668q0 169 63.5 317.5t171 252.5t255 164t311.5 60q221 0 387.5 -88t255 -245.5t88.5 -362.5q0 -168 -62.5 -316t-169.5 -253t-255 -165.5t-314 -60.5q-219 0 -385.5 88.5t-256 246.5t-89.5 362zM592 1554l321 324h406l213 -324h-346l-92 127l-129 -127h-373z M621 668q0 -122 79.5 -208.5t214.5 -86.5q155 0 247.5 111t92.5 282q0 122 -79.5 208.5t-214.5 86.5q-152 0 -246 -111.5t-94 -281.5z" />
<glyph unicode="&#xd5;" d="M172 668q0 169 63.5 317.5t171 252.5t255 164t311.5 60q221 0 387.5 -88t255 -245.5t88.5 -362.5q0 -168 -62.5 -316t-169.5 -253t-255 -165.5t-314 -60.5q-219 0 -385.5 88.5t-256 246.5t-89.5 362zM621 668q0 -122 79.5 -208.5t214.5 -86.5q155 0 247.5 111t92.5 282 q0 122 -79.5 208.5t-214.5 86.5q-152 0 -246 -111.5t-94 -281.5zM657 1544q27 179 115 265.5t223 86.5q68 0 137.5 -32.5t112.5 -32.5q72 0 101 59h213q-26 -165 -117.5 -258.5t-222.5 -93.5q-45 0 -82 11t-58 24t-49.5 24t-58.5 11q-72 0 -103 -64h-211z" />
<glyph unicode="&#xd6;" d="M172 668q0 169 63.5 317.5t171 252.5t255 164t311.5 60q221 0 387.5 -88t255 -245.5t88.5 -362.5q0 -168 -62.5 -316t-169.5 -253t-255 -165.5t-314 -60.5q-219 0 -385.5 88.5t-256 246.5t-89.5 362zM621 668q0 -122 79.5 -208.5t214.5 -86.5q155 0 247.5 111t92.5 282 q0 122 -79.5 208.5t-214.5 86.5q-152 0 -246 -111.5t-94 -281.5zM637 1720q0 84 60.5 143.5t144.5 59.5q87 0 147 -59t60 -144t-60 -144.5t-147 -59.5q-84 0 -144.5 60t-60.5 144zM1122 1720q0 85 60 144t145 59t145 -59t60 -144t-60 -144.5t-145 -59.5t-145 59.5t-60 144.5 z" />
<glyph unicode="&#xd7;" horiz-adv-x="1292" d="M168 416l321 274l-233 275l307 268l232 -275l317 275l236 -277l-316 -274l228 -274l-306 -269l-231 277l-317 -277z" />
<glyph unicode="&#xd8;" d="M80 0l229 233q-137 179 -137 435q0 169 63.5 317.5t171 252.5t255 164t311.5 60q255 0 432 -114l86 86h324l-240 -244q129 -177 129 -424q0 -168 -62.5 -316t-169.5 -253t-255 -165.5t-314 -60.5q-243 0 -422 109l-78 -80h-323zM621 668q0 -59 16 -103l459 467 q-63 29 -135 29q-152 0 -246 -111.5t-94 -281.5zM793 395q58 -22 122 -22q155 0 247.5 111t92.5 282q0 44 -12 88z" />
<glyph unicode="&#xd9;" horiz-adv-x="1501" d="M176 504q0 49 10 121l127 809h443l-133 -830q-5 -40 -5 -47q0 -91 56.5 -137.5t142.5 -46.5q87 0 153 49.5t85 159.5l137 852h442l-139 -877q-23 -143 -89.5 -256.5t-162.5 -184.5t-213 -108t-246 -37q-92 0 -179.5 20.5t-165.5 63.5t-136.5 104.5t-92.5 150.5t-34 194z M543 1878h508l141 -324h-354z" />
<glyph unicode="&#xda;" horiz-adv-x="1501" d="M176 504q0 49 10 121l127 809h443l-133 -830q-5 -40 -5 -47q0 -91 56.5 -137.5t142.5 -46.5q87 0 153 49.5t85 159.5l137 852h442l-139 -877q-23 -143 -89.5 -256.5t-162.5 -184.5t-213 -108t-246 -37q-92 0 -179.5 20.5t-165.5 63.5t-136.5 104.5t-92.5 150.5t-34 194z M821 1554l246 324h508l-399 -324h-355z" />
<glyph unicode="&#xdb;" horiz-adv-x="1501" d="M176 504q0 49 10 121l127 809h443l-133 -830q-5 -40 -5 -47q0 -91 56.5 -137.5t142.5 -46.5q87 0 153 49.5t85 159.5l137 852h442l-139 -877q-23 -143 -89.5 -256.5t-162.5 -184.5t-213 -108t-246 -37q-92 0 -179.5 20.5t-165.5 63.5t-136.5 104.5t-92.5 150.5t-34 194z M520 1554l322 324h405l213 -324h-346l-92 127l-129 -127h-373z" />
<glyph unicode="&#xdc;" horiz-adv-x="1501" d="M176 504q0 49 10 121l127 809h443l-133 -830q-5 -40 -5 -47q0 -91 56.5 -137.5t142.5 -46.5q87 0 153 49.5t85 159.5l137 852h442l-139 -877q-23 -143 -89.5 -256.5t-162.5 -184.5t-213 -108t-246 -37q-92 0 -179.5 20.5t-165.5 63.5t-136.5 104.5t-92.5 150.5t-34 194z M569 1720q0 84 60.5 143.5t144.5 59.5q87 0 147 -59t60 -144t-60 -144.5t-147 -59.5q-84 0 -144.5 60t-60.5 144zM1055 1720q0 85 60 144t145 59t144.5 -59t59.5 -144t-59.5 -144.5t-144.5 -59.5t-145 59.5t-60 144.5z" />
<glyph unicode="&#xdd;" horiz-adv-x="1470" d="M217 1434h485l187 -404l317 404h498l-651 -797l-101 -637h-438l100 627zM786 1554l246 324h508l-399 -324h-355z" />
<glyph unicode="&#xde;" horiz-adv-x="1368" d="M111 0l225 1434h438l-39 -250h234q228 0 360.5 -114.5t132.5 -297.5q0 -230 -166 -376t-426 -146h-284l-39 -250h-436zM637 569h190q79 0 136 35t57 111q0 110 -139 110h-203z" />
<glyph unicode="&#xdf;" horiz-adv-x="1292" d="M100 0l154 963q40 253 192 378t392 125q114 0 206 -31.5t149.5 -85t88.5 -121t31 -141.5q0 -104 -53.5 -191.5t-149.5 -129.5q74 -27 144.5 -118t70.5 -210q0 -200 -142 -326t-358 -126q-135 0 -200 20l53 324q44 -13 86 -13q65 0 106 43.5t41 110.5q0 60 -42.5 96.5 t-116.5 36.5h-33l45 279h29q51 0 78.5 32.5t27.5 83.5q0 39 -25 68t-67 29q-105 0 -125 -123l-152 -973h-430z" />
<glyph unicode="&#xe0;" horiz-adv-x="1251" d="M72 297q0 172 120.5 265t303.5 93q148 0 262 -57q4 20 4 39q0 123 -223 123q-62 0 -142 -14t-139 -41l53 321q165 57 359 57q82 0 155.5 -12.5t141.5 -42.5t116.5 -75t77.5 -114.5t29 -156.5q0 -43 -19 -145l-18 -103q-8 -52 -8 -76q0 -43 51 -43q26 0 55 11l-49 -293 q-36 -26 -101 -43t-118 -17q-196 0 -256 125q-39 -50 -117 -87.5t-178 -37.5q-171 0 -265.5 91.5t-94.5 232.5zM375 1503h508l143 -323h-356zM483 334q0 -41 31 -68.5t82 -27.5q85 0 135 61l14 104q-19 19 -54.5 30t-69.5 11q-60 0 -99 -27.5t-39 -82.5z" />
<glyph unicode="&#xe1;" horiz-adv-x="1251" d="M72 297q0 172 120.5 265t303.5 93q148 0 262 -57q4 20 4 39q0 123 -223 123q-62 0 -142 -14t-139 -41l53 321q165 57 359 57q82 0 155.5 -12.5t141.5 -42.5t116.5 -75t77.5 -114.5t29 -156.5q0 -43 -19 -145l-18 -103q-8 -52 -8 -76q0 -43 51 -43q26 0 55 11l-49 -293 q-36 -26 -101 -43t-118 -17q-196 0 -256 125q-39 -50 -117 -87.5t-178 -37.5q-171 0 -265.5 91.5t-94.5 232.5zM483 334q0 -41 31 -68.5t82 -27.5q85 0 135 61l14 104q-19 19 -54.5 30t-69.5 11q-60 0 -99 -27.5t-39 -82.5zM557 1180l246 323h508l-400 -323h-354z" />
<glyph unicode="&#xe2;" horiz-adv-x="1251" d="M72 297q0 172 120.5 265t303.5 93q148 0 262 -57q4 20 4 39q0 123 -223 123q-62 0 -142 -14t-139 -41l53 321q165 57 359 57q82 0 155.5 -12.5t141.5 -42.5t116.5 -75t77.5 -114.5t29 -156.5q0 -43 -19 -145l-18 -103q-8 -52 -8 -76q0 -43 51 -43q26 0 55 11l-49 -293 q-36 -26 -101 -43t-118 -17q-196 0 -256 125q-39 -50 -117 -87.5t-178 -37.5q-171 0 -265.5 91.5t-94.5 232.5zM299 1180l322 323h405l213 -323h-346l-92 127l-129 -127h-373zM483 334q0 -41 31 -68.5t82 -27.5q85 0 135 61l14 104q-19 19 -54.5 30t-69.5 11 q-60 0 -99 -27.5t-39 -82.5z" />
<glyph unicode="&#xe3;" horiz-adv-x="1251" d="M72 297q0 172 120.5 265t303.5 93q148 0 262 -57q4 20 4 39q0 123 -223 123q-62 0 -142 -14t-139 -41l53 321q165 57 359 57q82 0 155.5 -12.5t141.5 -42.5t116.5 -75t77.5 -114.5t29 -156.5q0 -43 -19 -145l-18 -103q-8 -52 -8 -76q0 -43 51 -43q26 0 55 11l-49 -293 q-36 -26 -101 -43t-118 -17q-196 0 -256 125q-39 -50 -117 -87.5t-178 -37.5q-171 0 -265.5 91.5t-94.5 232.5zM379 1165q27 179 115 266t223 87q68 0 137.5 -33t112.5 -33q71 0 100 59h213q-26 -165 -117.5 -258.5t-222.5 -93.5q-45 0 -82 11t-58 24t-49.5 24t-58.5 11 q-71 0 -102 -64h-211zM483 334q0 -41 31 -68.5t82 -27.5q85 0 135 61l14 104q-19 19 -54.5 30t-69.5 11q-60 0 -99 -27.5t-39 -82.5z" />
<glyph unicode="&#xe4;" horiz-adv-x="1251" d="M72 297q0 172 120.5 265t303.5 93q148 0 262 -57q4 20 4 39q0 123 -223 123q-62 0 -142 -14t-139 -41l53 321q165 57 359 57q82 0 155.5 -12.5t141.5 -42.5t116.5 -75t77.5 -114.5t29 -156.5q0 -43 -19 -145l-18 -103q-8 -52 -8 -76q0 -43 51 -43q26 0 55 11l-49 -293 q-36 -26 -101 -43t-118 -17q-196 0 -256 125q-39 -50 -117 -87.5t-178 -37.5q-171 0 -265.5 91.5t-94.5 232.5zM326 1341q0 84 60 143.5t144 59.5q87 0 146 -59t59 -144t-59 -144.5t-146 -59.5q-84 0 -144 60t-60 144zM483 334q0 -41 31 -68.5t82 -27.5q85 0 135 61l14 104 q-19 19 -54.5 30t-69.5 11q-60 0 -99 -27.5t-39 -82.5zM811 1341q0 85 60 144t145 59t145 -59t60 -144t-60 -144.5t-145 -59.5t-145 59.5t-60 144.5z" />
<glyph unicode="&#xe5;" horiz-adv-x="1251" d="M72 297q0 172 120.5 265t303.5 93q148 0 262 -57q4 20 4 39q0 123 -223 123q-62 0 -142 -14t-139 -41l53 321q165 57 359 57q82 0 155.5 -12.5t141.5 -42.5t116.5 -75t77.5 -114.5t29 -156.5q0 -43 -19 -145l-18 -103q-8 -52 -8 -76q0 -43 51 -43q26 0 55 11l-49 -293 q-36 -26 -101 -43t-118 -17q-196 0 -256 125q-39 -50 -117 -87.5t-178 -37.5q-171 0 -265.5 91.5t-94.5 232.5zM483 334q0 -41 31 -68.5t82 -27.5q85 0 135 61l14 104q-19 19 -54.5 30t-69.5 11q-60 0 -99 -27.5t-39 -82.5zM567 1350q0 92 66.5 157.5t159.5 65.5 q92 0 156.5 -65.5t64.5 -157.5q0 -91 -64.5 -157.5t-156.5 -66.5t-159 66.5t-67 157.5zM707 1350q0 -34 26 -59t60 -25t59 25t25 59q0 35 -25 60.5t-59 25.5t-60 -25.5t-26 -60.5z" />
<glyph unicode="&#xe6;" horiz-adv-x="1769" d="M72 297q0 172 120.5 265t303.5 93q148 0 262 -57q2 10 2 39q0 123 -221 123q-62 0 -142 -14t-139 -41l53 321q165 57 342 57q210 0 351 -112q146 112 325 112q93 0 178 -31t151 -87t105 -142t39 -188q0 -69 -26 -199h-660q7 -42 47.5 -71t94.5 -41.5t116 -12.5 q168 0 340 82l-49 -317q-137 -103 -414 -103q-127 0 -234.5 43t-182.5 123q-51 -64 -157.5 -115t-236.5 -51q-175 0 -271.5 91.5t-96.5 232.5zM483 334q0 -41 31 -68.5t82 -27.5q89 0 141 61q-22 62 -28 129q-40 16 -82 16q-61 0 -102.5 -27.5t-41.5 -82.5zM1126 641h287v23 q0 60 -29 95.5t-90 35.5q-56 0 -101.5 -39.5t-66.5 -114.5z" />
<glyph unicode="&#xe7;" horiz-adv-x="1042" d="M123 496q0 165 84.5 299.5t233 211t331.5 76.5q190 0 340 -77l-57 -347q-72 32 -125.5 46t-122.5 14q-112 0 -185 -55.5t-73 -147.5q0 -54 25.5 -92t67.5 -55.5t80.5 -24t80.5 -6.5q118 0 221 41l-57 -356q-92 -35 -168 -43l-99 -306h-495l260 338q-155 54 -248.5 178 t-93.5 306z" />
<glyph unicode="&#xe8;" horiz-adv-x="1185" d="M123 481q0 174 80 312.5t217 214t305 75.5q216 0 355 -121t139 -327q0 -64 -27 -199h-660q10 -62 82.5 -93.5t169.5 -31.5q174 0 346 82l-49 -317q-137 -103 -413 -103q-153 0 -276 61t-196 177.5t-73 269.5zM354 1503h508l144 -323h-357zM543 641h286v12q0 66 -31 104 t-87 38q-57 0 -103 -39.5t-65 -114.5z" />
<glyph unicode="&#xe9;" horiz-adv-x="1185" d="M123 481q0 174 80 312.5t217 214t305 75.5q216 0 355 -121t139 -327q0 -64 -27 -199h-660q10 -62 82.5 -93.5t169.5 -31.5q174 0 346 82l-49 -317q-137 -103 -413 -103q-153 0 -276 61t-196 177.5t-73 269.5zM541 1180l245 323h508l-399 -323h-354zM543 641h286v12 q0 66 -31 104t-87 38q-57 0 -103 -39.5t-65 -114.5z" />
<glyph unicode="&#xea;" horiz-adv-x="1185" d="M123 481q0 174 80 312.5t217 214t305 75.5q216 0 355 -121t139 -327q0 -64 -27 -199h-660q10 -62 82.5 -93.5t169.5 -31.5q174 0 346 82l-49 -317q-137 -103 -413 -103q-153 0 -276 61t-196 177.5t-73 269.5zM315 1180l322 323h405l213 -323h-346l-92 127l-129 -127h-373 zM543 641h286v12q0 66 -31 104t-87 38q-57 0 -103 -39.5t-65 -114.5z" />
<glyph unicode="&#xeb;" horiz-adv-x="1185" d="M123 481q0 174 80 312.5t217 214t305 75.5q216 0 355 -121t139 -327q0 -64 -27 -199h-660q10 -62 82.5 -93.5t169.5 -31.5q174 0 346 82l-49 -317q-137 -103 -413 -103q-153 0 -276 61t-196 177.5t-73 269.5zM336 1341q0 84 60.5 143.5t144.5 59.5q87 0 145.5 -59 t58.5 -144t-58.5 -144.5t-145.5 -59.5q-84 0 -144.5 60t-60.5 144zM543 641h286v12q0 66 -31 104t-87 38q-57 0 -103 -39.5t-65 -114.5zM821 1341q0 85 60 144t145 59t145 -59t60 -144t-60 -144.5t-145 -59.5t-145 59.5t-60 144.5z" />
<glyph unicode="&#xec;" horiz-adv-x="651" d="M41 1503h508l143 -323h-356zM109 0l165 1057h431l-166 -1057h-430z" />
<glyph unicode="&#xed;" horiz-adv-x="651" d="M109 0l165 1057h431l-166 -1057h-430zM328 1182l245 321h504l-397 -321h-352z" />
<glyph unicode="&#xee;" horiz-adv-x="651" d="M37 1180l321 323h406l213 -323h-346l-92 127l-129 -127h-373zM109 0l165 1057h431l-166 -1057h-430z" />
<glyph unicode="&#xef;" horiz-adv-x="651" d="M57 1341q0 84 60.5 143.5t144.5 59.5q87 0 146 -59t59 -144t-59 -144.5t-146 -59.5q-84 0 -144.5 60t-60.5 144zM109 0l165 1057h431l-166 -1057h-430zM543 1341q0 85 60 144t145 59t144.5 -59t59.5 -144t-59.5 -144.5t-144.5 -59.5t-145 59.5t-60 144.5z" />
<glyph unicode="&#xf0;" horiz-adv-x="1255" d="M123 465q0 202 131 336.5t344 134.5q105 0 176 -41l-119 158l-227 -70l-135 188l221 68l-145 195h448q13 -22 60 -84l182 55l135 -188l-182 -56l75 -106q49 -68 76.5 -110.5t61.5 -108t49.5 -134t15.5 -143.5q0 -161 -71 -293t-211.5 -212.5t-327.5 -80.5 q-108 0 -206 30.5t-177.5 89t-126.5 155t-47 217.5zM545 483q0 -65 41 -109t114 -44q66 0 114 43.5t48 120.5q0 65 -41 109t-114 44q-66 0 -114 -43.5t-48 -120.5z" />
<glyph unicode="&#xf1;" horiz-adv-x="1277" d="M100 0l168 1057h430l-22 -135q50 73 130 117t181 44q143 0 224 -96.5t81 -255.5q0 -81 -10 -143l-92 -588h-430l82 530q6 37 6 72q0 56 -27 80.5t-67 24.5q-65 0 -121 -56l-103 -651h-430zM408 1165q27 179 114.5 266t222.5 87q68 0 137.5 -33t112.5 -33q72 0 101 59h213 q-26 -165 -117.5 -258.5t-222.5 -93.5q-45 0 -82 11t-58 24t-49.5 24t-58.5 11q-72 0 -103 -64h-210z" />
<glyph unicode="&#xf2;" horiz-adv-x="1284" d="M123 512q0 111 46 214.5t125 182.5t193.5 126.5t243.5 47.5q164 0 297.5 -65t212 -188t78.5 -281q0 -112 -46 -217t-125 -184t-194 -127t-245 -48q-163 0 -296 65.5t-211.5 189.5t-78.5 284zM328 1503h508l143 -323h-356zM541 502q0 -79 48.5 -121.5t117.5 -42.5 q82 0 138 62t56 157q0 79 -48.5 120.5t-119.5 41.5q-82 0 -137 -62t-55 -155z" />
<glyph unicode="&#xf3;" horiz-adv-x="1284" d="M123 512q0 111 46 214.5t125 182.5t193.5 126.5t243.5 47.5q164 0 297.5 -65t212 -188t78.5 -281q0 -112 -46 -217t-125 -184t-194 -127t-245 -48q-163 0 -296 65.5t-211.5 189.5t-78.5 284zM541 502q0 -79 48.5 -121.5t117.5 -42.5q82 0 138 62t56 157q0 79 -48.5 120.5 t-119.5 41.5q-82 0 -137 -62t-55 -155zM600 1180l246 323h508l-400 -323h-354z" />
<glyph unicode="&#xf4;" horiz-adv-x="1284" d="M123 512q0 111 46 214.5t125 182.5t193.5 126.5t243.5 47.5q164 0 297.5 -65t212 -188t78.5 -281q0 -112 -46 -217t-125 -184t-194 -127t-245 -48q-163 0 -296 65.5t-211.5 189.5t-78.5 284zM324 1180l321 323h406l213 -323h-346l-93 127l-129 -127h-372zM541 502 q0 -79 48.5 -121.5t117.5 -42.5q82 0 138 62t56 157q0 79 -48.5 120.5t-119.5 41.5q-82 0 -137 -62t-55 -155z" />
<glyph unicode="&#xf5;" horiz-adv-x="1284" d="M123 512q0 111 46 214.5t125 182.5t193.5 126.5t243.5 47.5q164 0 297.5 -65t212 -188t78.5 -281q0 -112 -46 -217t-125 -184t-194 -127t-245 -48q-163 0 -296 65.5t-211.5 189.5t-78.5 284zM371 1165q27 179 115 266t223 87q54 0 96.5 -16.5t78.5 -33t74 -16.5 q72 0 101 59h213q-26 -165 -117.5 -258.5t-222.5 -93.5q-45 0 -82 11t-58 24t-49.5 24t-58.5 11q-71 0 -102 -64h-211zM541 502q0 -79 48.5 -121.5t117.5 -42.5q82 0 138 62t56 157q0 79 -48.5 120.5t-119.5 41.5q-82 0 -137 -62t-55 -155z" />
<glyph unicode="&#xf6;" horiz-adv-x="1284" d="M123 512q0 111 46 214.5t125 182.5t193.5 126.5t243.5 47.5q164 0 297.5 -65t212 -188t78.5 -281q0 -112 -46 -217t-125 -184t-194 -127t-245 -48q-163 0 -296 65.5t-211.5 189.5t-78.5 284zM365 1341q0 84 60 143.5t144 59.5q87 0 146 -59t59 -144t-59 -144.5 t-146 -59.5q-84 0 -144 60t-60 144zM541 502q0 -79 48.5 -121.5t117.5 -42.5q82 0 138 62t56 157q0 79 -48.5 120.5t-119.5 41.5q-82 0 -137 -62t-55 -155zM850 1341q0 85 60 144t145 59t145 -59t60 -144t-60 -144.5t-145 -59.5t-145 59.5t-60 144.5z" />
<glyph unicode="&#xf7;" horiz-adv-x="1263" d="M129 502l59 375h1119l-60 -375h-1118zM395 182q0 104 74 177t176 73q103 0 175.5 -73t72.5 -177q0 -103 -72.5 -175.5t-175.5 -72.5q-102 0 -176 73t-74 175zM555 1194q0 104 74 177t176 73q103 0 175.5 -73t72.5 -177q0 -103 -72.5 -175.5t-175.5 -72.5q-102 0 -176 73 t-74 175z" />
<glyph unicode="&#xf8;" horiz-adv-x="1337" d="M72 0l186 180q-113 138 -113 332q0 111 46 214.5t125 182.5t194 126.5t244 47.5q192 0 342 -92l67 66h246l-184 -178q116 -138 116 -330q0 -112 -46 -217t-125 -184t-194 -127t-245 -48q-193 0 -344 93l-70 -66h-245zM551 498q0 -23 2 -33l270 264q-30 12 -67 12 q-86 0 -145.5 -69t-59.5 -174zM655 328q35 -15 72 -15q86 0 146.5 71t60.5 177q0 23 -2 33z" />
<glyph unicode="&#xf9;" horiz-adv-x="1273" d="M147 326q0 75 11 143l92 588h430l-82 -531q-6 -38 -6 -75q0 -101 94 -101q74 0 121 56l102 651h430l-168 -1057h-430l23 135q-50 -73 -130 -117.5t-181 -44.5q-143 0 -224.5 97t-81.5 256zM391 1503h508l143 -323h-356z" />
<glyph unicode="&#xfa;" horiz-adv-x="1273" d="M147 326q0 75 11 143l92 588h430l-82 -531q-6 -38 -6 -75q0 -101 94 -101q74 0 121 56l102 651h430l-168 -1057h-430l23 135q-50 -73 -130 -117.5t-181 -44.5q-143 0 -224.5 97t-81.5 256zM592 1180l246 323h508l-400 -323h-354z" />
<glyph unicode="&#xfb;" horiz-adv-x="1273" d="M147 326q0 75 11 143l92 588h430l-82 -531q-6 -38 -6 -75q0 -101 94 -101q74 0 121 56l102 651h430l-168 -1057h-430l23 135q-50 -73 -130 -117.5t-181 -44.5q-143 0 -224.5 97t-81.5 256zM342 1180l322 323h405l213 -323h-346l-92 127l-129 -127h-373z" />
<glyph unicode="&#xfc;" horiz-adv-x="1273" d="M147 326q0 75 11 143l92 588h430l-82 -531q-6 -38 -6 -75q0 -101 94 -101q74 0 121 56l102 651h430l-168 -1057h-430l23 135q-50 -73 -130 -117.5t-181 -44.5q-143 0 -224.5 97t-81.5 256zM360 1341q0 84 60.5 143.5t144.5 59.5q87 0 146 -59t59 -144t-59 -144.5 t-146 -59.5q-84 0 -144.5 60t-60.5 144zM846 1341q0 85 60 144t145 59t144.5 -59t59.5 -144t-59.5 -144.5t-144.5 -59.5t-145 59.5t-60 144.5z" />
<glyph unicode="&#xfd;" horiz-adv-x="1241" d="M20 -373l60 371q68 -55 170 -55q65 0 105 19t69 73l-270 1022h448l90 -598l264 598h449l-631 -1159q-174 -320 -508 -320q-74 0 -142.5 13.5t-103.5 35.5zM575 1180l246 323h508l-399 -323h-355z" />
<glyph unicode="&#xfe;" horiz-adv-x="1351" d="M39 -410l285 1844h432l-74 -496q29 53 111 99t186 46q180 0 293.5 -139.5t113.5 -345.5q0 -90 -21.5 -178.5t-66 -169t-107 -142.5t-151.5 -98.5t-192 -36.5q-108 0 -189.5 48.5t-105.5 97.5l-82 -529h-432zM596 418q22 -39 67 -63.5t99 -24.5q79 0 131.5 64t52.5 161 q0 82 -41.5 125t-107.5 43q-98 0 -168 -86z" />
<glyph unicode="&#xff;" horiz-adv-x="1241" d="M20 -373l60 371q68 -55 170 -55q65 0 105 19t69 73l-270 1022h448l90 -598l264 598h449l-631 -1159q-174 -320 -508 -320q-74 0 -142.5 13.5t-103.5 35.5zM350 1341q0 84 60.5 143.5t144.5 59.5q87 0 146 -59t59 -144t-59 -144.5t-146 -59.5q-84 0 -144.5 60t-60.5 144z M836 1341q0 85 59.5 144t144.5 59t145 -59t60 -144t-60 -144.5t-145 -59.5t-144.5 59.5t-59.5 144.5z" />
<glyph unicode="&#x152;" horiz-adv-x="2246" d="M172 672q0 160 62 300.5t171 242t265.5 160.5t337.5 59h1370l-60 -379h-684l-20 -127h536l-55 -348h-536l-33 -201h696l-59 -379h-1260q-330 0 -530.5 187.5t-200.5 484.5zM621 672q0 -118 80.5 -205.5t209.5 -87.5h172l109 676h-209q-177 0 -269.5 -108t-92.5 -275z" />
<glyph unicode="&#x153;" horiz-adv-x="1875" d="M123 512q0 148 74.5 278.5t211.5 211.5t304 81q223 0 377 -129q160 129 346 129q93 0 178 -31t151 -87t105 -142t39 -188q0 -64 -27 -199h-659q7 -42 47.5 -71t94.5 -41.5t116 -12.5q168 0 340 82l-49 -317q-68 -51 -177 -77t-217 -26q-200 0 -350 117 q-153 -117 -350 -117q-110 0 -210.5 38.5t-177 107.5t-122 171t-45.5 222zM535 502q0 -79 45 -121.5t110 -42.5q76 0 129 62.5t53 156.5q0 79 -45.5 120.5t-111.5 41.5q-76 0 -128 -62t-52 -155zM1233 641h287v12q0 65 -31.5 103.5t-87.5 38.5q-57 0 -103 -39.5t-65 -114.5z " />
<glyph unicode="&#x178;" horiz-adv-x="1470" d="M217 1434h485l187 -404l317 404h498l-651 -797l-101 -637h-438l100 627zM541 1720q0 84 60 143.5t144 59.5q87 0 147 -59t60 -144t-60 -144.5t-147 -59.5q-84 0 -144 60t-60 144zM1026 1720q0 85 60 144t145 59t145 -59t60 -144t-60 -144.5t-145 -59.5t-145 59.5 t-60 144.5z" />
<glyph unicode="&#x2c6;" horiz-adv-x="1114" d="M276 1180l322 323h406l213 -323h-347l-92 127l-129 -127h-373z" />
<glyph unicode="&#x2dc;" horiz-adv-x="1013" d="M262 1165q27 179 115 266t223 87q68 0 137.5 -33t112.5 -33q71 0 100 59h213q-26 -165 -117.5 -258.5t-222.5 -93.5q-45 0 -82 11t-58 24t-49.5 24t-58.5 11q-71 0 -102 -64h-211z" />
<glyph unicode="&#x2000;" horiz-adv-x="972" />
<glyph unicode="&#x2001;" horiz-adv-x="1944" />
<glyph unicode="&#x2002;" horiz-adv-x="972" />
<glyph unicode="&#x2003;" horiz-adv-x="1944" />
<glyph unicode="&#x2004;" horiz-adv-x="648" />
<glyph unicode="&#x2005;" horiz-adv-x="486" />
<glyph unicode="&#x2006;" horiz-adv-x="324" />
<glyph unicode="&#x2007;" horiz-adv-x="324" />
<glyph unicode="&#x2008;" horiz-adv-x="243" />
<glyph unicode="&#x2009;" horiz-adv-x="388" />
<glyph unicode="&#x200a;" horiz-adv-x="108" />
<glyph unicode="&#x2010;" horiz-adv-x="993" d="M213 395l59 375h691l-60 -375h-690z" />
<glyph unicode="&#x2011;" horiz-adv-x="993" d="M213 395l59 375h691l-60 -375h-690z" />
<glyph unicode="&#x2012;" horiz-adv-x="993" d="M213 395l59 375h691l-60 -375h-690z" />
<glyph unicode="&#x2013;" horiz-adv-x="1593" d="M213 395l59 375h1289l-60 -375h-1288z" />
<glyph unicode="&#x2014;" horiz-adv-x="1830" d="M213 395l59 375h1526l-59 -375h-1526z" />
<glyph unicode="&#x2018;" horiz-adv-x="667" d="M133 715l399 719h347l-299 -719h-447z" />
<glyph unicode="&#x2019;" horiz-adv-x="667" d="M129 715l299 719h446l-399 -719h-346z" />
<glyph unicode="&#x201a;" horiz-adv-x="667" d="M-82 -311l299 719h447l-400 -719h-346z" />
<glyph unicode="&#x201c;" horiz-adv-x="1247" d="M133 715l399 719h347l-299 -719h-447zM713 715l399 719h346l-299 -719h-446z" />
<glyph unicode="&#x201d;" horiz-adv-x="1245" d="M129 715l299 719h446l-399 -719h-346zM709 715l299 719h446l-399 -719h-346z" />
<glyph unicode="&#x201e;" horiz-adv-x="1245" d="M-82 -311l299 719h447l-400 -719h-346zM496 -311l299 719h446l-399 -719h-346z" />
<glyph unicode="&#x2022;" horiz-adv-x="849" d="M162 807q0 154 109.5 263.5t263.5 109.5q153 0 261.5 -109.5t108.5 -263.5q0 -153 -108.5 -262t-261.5 -109q-154 0 -263.5 109.5t-109.5 261.5z" />
<glyph unicode="&#x2026;" horiz-adv-x="1728" d="M82 223q0 104 74.5 177t177.5 73t176.5 -73t73.5 -177t-73.5 -178t-176.5 -74t-177.5 74t-74.5 178zM647 223q0 104 73.5 177t176.5 73q104 0 177 -73t73 -177t-73 -178t-177 -74q-103 0 -176.5 74t-73.5 178zM1212 223q0 104 73.5 177t176.5 73q104 0 177 -73t73 -177 t-73 -178t-177 -74q-103 0 -176.5 74t-73.5 178z" />
<glyph unicode="&#x202f;" horiz-adv-x="388" />
<glyph unicode="&#x2039;" horiz-adv-x="731" d="M125 422l35 211l309 364h430l-401 -491l243 -447h-422z" />
<glyph unicode="&#x203a;" horiz-adv-x="731" d="M-8 59l401 492l-243 446h421l195 -362l-35 -211l-309 -365h-430z" />
<glyph unicode="&#x205f;" horiz-adv-x="486" />
<glyph unicode="&#x20ac;" horiz-adv-x="1310" d="M109 473l34 219h133l5 70h-127l34 219h142q87 229 293.5 355t484.5 126q84 0 172 -15t143 -36l-71 -383q-104 51 -254 51q-190 0 -305 -98h313l-35 -219h-391q-4 -46 -4 -70h383l-33 -219h-293q84 -119 314 -119q185 0 294 84l-65 -420q-69 -28 -139 -37.5t-170 -9.5 q-268 0 -444 129t-228 373h-186z" />
<glyph unicode="&#x2122;" horiz-adv-x="1404" d="M254 1268l29 166h561l-27 -166h-184l-94 -475h-193l94 475h-186zM813 793l123 641h178l94 -220l181 220h192l-123 -641h-190l75 348l-112 -131h-101l-51 131l-75 -348h-191z" />
<glyph unicode="&#x25fc;" horiz-adv-x="1054" d="M0 0v1055h1055v-1055h-1055z" />
</font>
</defs>
</svg>
