<?xml version="1.0" standalone="no"?>
<!DOCTYPE svg PUBLIC "-//W3C//DTD SVG 1.1//EN" "http://www.w3.org/Graphics/SVG/1.1/DTD/svg11.dtd" >
<svg xmlns="http://www.w3.org/2000/svg" xmlns:xlink="http://www.w3.org/1999/xlink" version="1.1">
<metadata></metadata>
<defs>
<font id="geometria_mediummedium_italic" horiz-adv-x="1718" >
<font-face units-per-em="2048" ascent="1589" descent="-459" />
<missing-glyph horiz-adv-x="532" />
<glyph unicode="&#xfb01;" horiz-adv-x="1320" d="M176 811l31 195h188l19 120q22 152 117 240t251 88q135 0 228 -43l-29 -186q-91 37 -170 37q-51 0 -86 -16.5t-56.5 -52t-33 -78.5t-19.5 -109h687l-158 -1006h-221l127 811h-465l-129 -811h-221l129 811h-189zM1098 1325q0 59 41 100t98 41q60 0 99.5 -40.5t39.5 -100.5 q0 -59 -39.5 -99t-99.5 -40q-57 0 -98 40.5t-41 98.5z" />
<glyph unicode="&#xfb02;" horiz-adv-x="1392" d="M176 811l31 195h188l19 120q22 152 117 240t251 88q135 0 228 -43l-29 -186q-91 37 -170 37q-51 0 -86 -16.5t-56.5 -52t-33 -78.5t-19.5 -109h465l68 428h221l-174 -1106q-8 -46 -8 -74q0 -78 92 -78q46 0 86 19l-31 -191q-58 -31 -155 -31q-108 0 -163.5 52.5 t-55.5 154.5q0 47 10 119l80 512h-465l-129 -811h-221l129 811h-189z" />
<glyph unicode="&#xfb03;" horiz-adv-x="1996" d="M176 811l31 195h188l19 120q22 152 117 240t251 88q135 0 228 -43l-29 -186q-91 37 -170 37q-51 0 -86 -16.5t-56.5 -52t-33 -78.5t-19.5 -109h465l19 120q22 152 117 240t251 88q135 0 228 -43l-29 -186q-91 37 -170 37q-51 0 -86 -16.5t-56 -52t-32.5 -78.5t-19.5 -109 h686l-158 -1006h-221l127 811h-465l-129 -811h-221l129 811h-465l-129 -811h-221l129 811h-189zM1784 1325q0 59 41 100t98 41q60 0 99.5 -40.5t39.5 -100.5q0 -59 -39.5 -99t-99.5 -40q-57 0 -98 40.5t-41 98.5z" />
<glyph unicode="&#xfb04;" horiz-adv-x="2078" d="M176 811l31 195h188l19 120q22 152 117 240t251 88q135 0 228 -43l-29 -186q-91 37 -170 37q-51 0 -86 -16.5t-56.5 -52t-33 -78.5t-19.5 -109h465l19 120q22 152 117 240t251 88q135 0 228 -43l-29 -186q-91 37 -170 37q-51 0 -86 -16.5t-56 -52t-32.5 -78.5t-19.5 -109 h464l68 428h221l-174 -1106q-8 -46 -8 -74q0 -78 92 -78q46 0 86 19l-31 -191q-58 -31 -155 -31q-108 0 -163.5 52.5t-55.5 154.5q0 47 10 119l80 512h-465l-129 -811h-221l129 811h-465l-129 -811h-221l129 811h-189z" />
<glyph horiz-adv-x="0" />
<glyph horiz-adv-x="682" />
<glyph unicode=" "  horiz-adv-x="532" />
<glyph unicode="&#x09;" horiz-adv-x="532" />
<glyph unicode="&#xa0;" horiz-adv-x="532" />
<glyph unicode="!" horiz-adv-x="636" d="M195 129q0 59 42 101t103 42q58 0 100.5 -42t42.5 -101q0 -61 -42 -103t-101 -42q-62 0 -103.5 42t-41.5 103zM289 461l106 973h299l-202 -973h-203z" />
<glyph unicode="&#x22;" horiz-adv-x="768" d="M227 868l90 566h193l-90 -566h-193zM623 868l90 566h192l-90 -566h-192z" />
<glyph unicode="#" horiz-adv-x="1501" d="M154 367l26 170h289l57 358h-288l26 172h289l59 367h174l-57 -367h352l60 367h174l-58 -367h289l-26 -172h-291l-55 -358h288l-24 -170h-293l-58 -367h-174l60 367h-357l-57 -367h-174l57 367h-288zM645 537h352l60 358h-357z" />
<glyph unicode="$" horiz-adv-x="1286" d="M113 127l37 235q72 -72 221 -126t301 -54q44 0 89 7t93 24t85 43t61 68t24 94q0 57 -42 99.5t-110 69.5t-149.5 51.5t-163 55t-149.5 70t-110 106.5t-42 156q0 100 39 180t108 132t156.5 82t190.5 38l32 203h222l-35 -211q196 -28 323 -111l-34 -221q-88 58 -211 95.5 t-248 37.5q-133 0 -222.5 -50.5t-89.5 -149.5q0 -44 33 -78.5t87 -56t123 -45t141 -44t141 -54t123 -74t87 -106t33 -147.5q0 -103 -41.5 -189t-113.5 -143.5t-165 -92.5t-200 -44l-30 -204h-222l31 209q-124 15 -232 53.5t-171 91.5z" />
<glyph unicode="%" horiz-adv-x="1677" d="M229 1096q0 149 104.5 256.5t260.5 107.5q151 0 245.5 -93.5t94.5 -233.5q0 -150 -105 -258.5t-260 -108.5q-150 0 -245 95t-95 235zM322 0l1075 1434h184l-1073 -1434h-186zM393 1096q0 -78 50 -129.5t126 -51.5q83 0 143 64.5t60 153.5q0 77 -49.5 126.5t-128.5 49.5 q-83 0 -142 -62t-59 -151zM971 305q0 148 104.5 255.5t259.5 107.5q151 0 245.5 -94t94.5 -234q0 -150 -105 -258.5t-259 -108.5q-150 0 -245 95.5t-95 236.5zM1135 305q0 -78 50 -129t126 -51q83 0 142.5 64t59.5 153q0 77 -49.5 126.5t-128.5 49.5q-83 0 -141.5 -62.5 t-58.5 -150.5z" />
<glyph unicode="&#x26;" horiz-adv-x="1482" d="M147 436q0 107 50 201.5t120.5 153.5t149.5 88q-51 87 -51 202q0 167 120 272t312 105q109 0 214 -38.5t167 -96.5l-31 -207q-63 63 -155.5 106.5t-188.5 43.5q-101 0 -159 -55t-58 -144q0 -64 36 -128.5t105 -147.5l330 -402q121 161 158 385h213q-49 -331 -240 -543 l188 -231h-251l-84 102q-185 -129 -412 -129q-150 0 -270.5 54.5t-191.5 161t-71 247.5zM367 432q0 -123 92.5 -193.5t232.5 -70.5q147 0 271 84l-381 465q-92 -36 -153.5 -111.5t-61.5 -173.5z" />
<glyph unicode="'" horiz-adv-x="372" d="M227 868l90 566h193l-90 -566h-193z" />
<glyph unicode="(" horiz-adv-x="708" d="M225 328q0 663 406 1118h233q-210 -232 -320 -517.5t-110 -594.5q0 -217 58.5 -409.5t160.5 -346.5h-231q-90 139 -143.5 336t-53.5 414z" />
<glyph unicode=")" horiz-adv-x="710" d="M4 -422q224 253 328 524.5t104 587.5q0 217 -58.5 409.5t-160.5 346.5h232q90 -139 143 -335.5t53 -414.5q0 -665 -399 -1118h-242z" />
<glyph unicode="*" horiz-adv-x="868" d="M213 934l242 125l-203 123l98 131l197 -131l35 252h151l-45 -252l238 131l55 -131l-242 -125l203 -125l-96 -129l-197 129l-37 -252h-151l45 252l-238 -129z" />
<glyph unicode="+" horiz-adv-x="1243" d="M205 573l31 199h405l66 408h200l-65 -408h407l-30 -199h-408l-66 -407h-200l65 407h-405z" />
<glyph unicode="," horiz-adv-x="550" d="M-25 -311l261 573h262l-342 -573h-181z" />
<glyph unicode="-" horiz-adv-x="1015" d="M279 465l30 199h604l-30 -199h-604z" />
<glyph unicode="." horiz-adv-x="512" d="M131 129q0 59 42 101t103 42q59 0 101.5 -42.5t42.5 -100.5q0 -61 -42.5 -103t-101.5 -42q-62 0 -103.5 42t-41.5 103z" />
<glyph unicode="/" horiz-adv-x="1071" d="M-63 -287l1163 1909h229l-1163 -1909h-229z" />
<glyph unicode="0" horiz-adv-x="1441" d="M227 610q0 121 28.5 241.5t86 230t136 194t187.5 134.5t232 50q168 0 292 -81.5t187.5 -224.5t63.5 -329q0 -121 -28.5 -242t-86 -230.5t-136.5 -194.5t-188 -135t-233 -50q-167 0 -290.5 81.5t-187 225t-63.5 330.5zM451 614q0 -67 11.5 -129t37 -117t63 -95.5t93 -64.5 t122.5 -24q81 0 152.5 39t122.5 104t88 148t55 171t18 173t-19 160t-56.5 136.5t-102 97.5t-147.5 36q-81 0 -153 -39t-123 -104t-88.5 -148t-55.5 -171t-18 -173z" />
<glyph unicode="1" horiz-adv-x="798" d="M225 1024l35 219l367 191h196l-227 -1434h-221l190 1192z" />
<glyph unicode="2" horiz-adv-x="1181" d="M86 0l25 164l503 416q85 70 137.5 118t99 102.5t67 104.5t20.5 103q0 114 -77 177.5t-199 63.5q-116 0 -214.5 -42t-197.5 -120l39 236q184 135 416 135q199 0 329.5 -115t130.5 -301q0 -147 -91.5 -276.5t-285.5 -284.5l-352 -280h680l-29 -201h-1001z" />
<glyph unicode="3" horiz-adv-x="1175" d="M90 96l35 213q176 -135 412 -135q98 0 182.5 33.5t141.5 106.5t57 173q0 118 -89.5 185t-236.5 67q-78 0 -156 -24l25 149l442 373h-596l33 197h893l-27 -168l-440 -377q72 -11 136 -39.5t119 -75t87.5 -119t32.5 -161.5q0 -119 -47 -218t-127.5 -164.5t-190 -102 t-233.5 -36.5q-278 0 -453 123z" />
<glyph unicode="4" horiz-adv-x="1304" d="M117 375l28 172l883 887h221l-137 -867h223l-30 -192h-224l-59 -375h-221l59 375h-743zM416 567h475l90 568z" />
<glyph unicode="5" horiz-adv-x="1208" d="M125 86l33 213q174 -125 393 -125q71 0 139 18t127.5 53t96 95.5t36.5 138.5q0 112 -91.5 187t-260.5 75q-150 0 -322 -49l203 742h748l-29 -199h-580l-90 -328q68 15 156 15q223 0 358.5 -124t135.5 -309q0 -122 -50 -221.5t-136.5 -163t-199.5 -97.5t-241 -34 q-263 0 -426 113z" />
<glyph unicode="6" horiz-adv-x="1308" d="M221 528q0 147 33 286t97.5 255.5t152 204.5t203 137t245.5 49q103 0 194.5 -27.5t149.5 -74.5l-32 -205q-125 104 -310 104q-123 0 -228 -68t-170.5 -180.5t-80.5 -246.5q138 164 377 164q187 0 304.5 -120t117.5 -298q0 -227 -152.5 -381t-390.5 -154t-374 154 t-136 401zM446 498q0 -133 76.5 -229.5t214.5 -96.5q131 0 223.5 93t92.5 229q0 112 -75 184t-198 72q-100 0 -193.5 -67t-140.5 -165v-20z" />
<glyph unicode="7" horiz-adv-x="1148" d="M184 0l813 1231h-721l33 203h979l-28 -174l-836 -1260h-240z" />
<glyph unicode="8" horiz-adv-x="1349" d="M174 389q0 142 91 248t253 145q-87 43 -132.5 114.5t-45.5 164.5q0 119 71 211.5t184 140t245 47.5q87 0 171 -23t156.5 -67t117 -117.5t44.5 -165.5q0 -124 -72.5 -214.5t-193.5 -131.5q114 -46 177 -130.5t63 -198.5q0 -135 -77 -235.5t-209.5 -152t-303.5 -51.5 q-75 0 -150 15.5t-145.5 49t-124.5 81.5t-86.5 118t-32.5 152zM412 408q0 -110 97 -177t228 -67q84 0 158.5 29t125 90.5t50.5 142.5q0 102 -93.5 170t-232.5 68q-135 0 -234 -69t-99 -187zM555 1047q0 -95 81 -153t189 -58q109 0 195 60.5t86 166.5q0 96 -80 152.5 t-192 56.5q-109 0 -194 -59.5t-85 -165.5z" />
<glyph unicode="9" horiz-adv-x="1308" d="M233 76l33 205q127 -105 309 -105q92 0 176.5 40t147 107.5t103.5 158t53 190.5q-138 -164 -377 -164q-187 0 -304.5 120t-117.5 298q0 227 152.5 380.5t390.5 153.5t374 -154t136 -401q0 -147 -33 -286t-97.5 -255.5t-152 -204.5t-203 -137t-245.5 -49q-102 0 -194.5 28 t-150.5 75zM477 940q0 -112 75 -184t198 -72q100 0 193 66.5t140 164.5v21q0 85 -31 157.5t-98.5 120.5t-160.5 48q-131 0 -223.5 -93t-92.5 -229z" />
<glyph unicode=":" horiz-adv-x="512" d="M131 129q0 59 42 101t103 42q59 0 101.5 -42.5t42.5 -100.5q0 -61 -42.5 -103t-101.5 -42q-62 0 -103.5 42t-41.5 103zM244 846q0 59 42 101t103 42q59 0 101 -42.5t42 -100.5q0 -61 -42 -103.5t-101 -42.5q-61 0 -103 42t-42 104z" />
<glyph unicode=";" horiz-adv-x="546" d="M-25 -311l261 573h262l-342 -573h-181zM279 846q0 59 42 101t103 42q58 0 100.5 -42.5t42.5 -100.5q0 -61 -42 -103.5t-101 -42.5q-61 0 -103 42t-42 104z" />
<glyph unicode="&#x3c;" horiz-adv-x="1243" d="M205 565l33 207l1079 424l-35 -219l-833 -309l735 -308l-35 -215z" />
<glyph unicode="=" horiz-adv-x="1243" d="M170 340l31 199h1011l-30 -199h-1012zM244 807l30 199h1012l-31 -199h-1011z" />
<glyph unicode="&#x3e;" horiz-adv-x="1243" d="M135 145l35 217l831 308l-733 311l35 215l944 -424l-30 -207z" />
<glyph unicode="?" horiz-adv-x="991" d="M238 1153l32 203q75 46 175 72t204 26q80 0 156 -23t140 -66t103 -114t39 -159q0 -90 -36.5 -165.5t-100 -129.5t-140 -91t-165.5 -59l-29 -186h-213l48 305q65 10 129.5 30.5t130.5 55.5t106.5 91t40.5 124q0 87 -70.5 137.5t-195.5 50.5q-165 0 -354 -102zM311 129 q0 59 43 101t103 42t101.5 -42t41.5 -101q0 -61 -41.5 -103t-101.5 -42t-103 42t-43 103z" />
<glyph unicode="@" horiz-adv-x="1947" d="M162 492q0 191 74 368t200.5 309t306.5 211.5t381 79.5q178 0 332 -61t261.5 -166t169 -248.5t61.5 -304.5q0 -104 -29.5 -203.5t-83.5 -179.5t-138.5 -129t-185.5 -49q-100 0 -161.5 42t-83.5 107q-139 -155 -328 -155q-172 0 -273.5 115t-101.5 286q0 75 20 147.5 t59.5 135.5t93.5 110.5t127.5 75t156.5 27.5q99 0 177 -42.5t120 -97.5l18 113h205l-88 -573q-6 -54 -6 -60q0 -72 35.5 -108.5t93.5 -36.5q84 0 154.5 68.5t109.5 177t39 227.5q0 145 -52 275t-147 229t-239.5 157t-317.5 58q-177 0 -341 -71t-285.5 -191t-194 -288 t-72.5 -353q0 -214 95 -388.5t268 -275t391 -100.5q230 0 442 112l-12 -75q-194 -101 -432 -101q-173 0 -324.5 62.5t-260.5 171t-171.5 262.5t-62.5 330zM782 535q0 -105 68 -171.5t170 -66.5q65 0 126 36t101 93l41 266q-28 55 -90 94t-137 39q-117 0 -198 -83.5 t-81 -206.5z" />
<glyph unicode="A" horiz-adv-x="1560" d="M45 0l854 1442h217l400 -1442h-236l-96 356h-684l-209 -356h-246zM614 555h516l-163 602z" />
<glyph unicode="B" horiz-adv-x="1476" d="M178 0l228 1434h624q175 0 280 -82.5t105 -227.5q0 -115 -60 -207t-169 -137q111 -21 183.5 -106.5t72.5 -216.5q0 -211 -151.5 -334t-385.5 -123h-727zM436 207h465q128 0 213.5 67t85.5 191q0 89 -63 140.5t-174 51.5h-455zM539 856h405q106 0 177 53.5t71 155.5 q0 75 -50.5 118.5t-140.5 43.5h-403z" />
<glyph unicode="C" horiz-adv-x="1400" d="M233 651q0 169 59 318t163 257.5t255 171t326 62.5q251 0 432 -106l-36 -217q-165 112 -398 112q-248 0 -408.5 -165.5t-160.5 -419.5q0 -208 133.5 -344t355.5 -136q239 0 414 125l-35 -231q-184 -105 -399 -105q-156 0 -288 51.5t-222 141.5t-140.5 215t-50.5 270z" />
<glyph unicode="D" horiz-adv-x="1597" d="M178 0l228 1434h460q323 0 519 -180.5t196 -471.5q0 -155 -47.5 -283t-133.5 -220t-206.5 -155t-267 -93.5t-314.5 -30.5h-434zM436 207h320q266 0 429 158t163 417q0 194 -131 319.5t-355 125.5h-264z" />
<glyph unicode="E" horiz-adv-x="1325" d="M178 0l228 1434h1019l-32 -207h-795l-57 -359h647l-33 -206h-647l-72 -455h821l-32 -207h-1047z" />
<glyph unicode="F" horiz-adv-x="1280" d="M178 0l228 1434h1017l-32 -207h-793l-59 -375h628l-32 -207h-629l-103 -645h-225z" />
<glyph unicode="G" horiz-adv-x="1583" d="M233 651q0 168 59 317t163 257.5t255 171.5t326 63q133 0 256.5 -34.5t204.5 -92.5l-37 -217q-169 133 -426 133q-249 0 -409 -165t-160 -422q0 -213 131.5 -345.5t341.5 -132.5q182 0 322 113l88 530h225l-103 -641q-223 -213 -552 -213q-150 0 -278 51t-217 140.5 t-139.5 215t-50.5 271.5z" />
<glyph unicode="H" horiz-adv-x="1554" d="M178 0l228 1434h225l-90 -566h747l90 566h226l-228 -1434h-225l104 662h-747l-105 -662h-225z" />
<glyph unicode="I" horiz-adv-x="604" d="M188 0l228 1434h225l-227 -1434h-226z" />
<glyph unicode="J" horiz-adv-x="1042" d="M76 70l35 225q47 -50 126 -80.5t160 -30.5q145 0 227 73.5t109 242.5l148 934h225l-158 -998q-20 -129 -68 -220.5t-119.5 -143.5t-156 -75.5t-190.5 -23.5q-94 0 -187 25.5t-151 71.5z" />
<glyph unicode="K" horiz-adv-x="1382" d="M178 0l225 1434h228l-92 -586l684 586h290l-778 -676l664 -758h-281l-606 688l-109 -688h-225z" />
<glyph unicode="L" horiz-adv-x="1228" d="M178 0l228 1434h227l-195 -1227h762l-33 -207h-989z" />
<glyph unicode="M" horiz-adv-x="1734" d="M178 0l228 1434h215l364 -648l565 648h234l-228 -1434h-225l172 1090l-479 -541h-131l-318 543l-172 -1092h-225z" />
<glyph unicode="N" horiz-adv-x="1581" d="M178 0l225 1434h195l643 -1059l168 1059h221l-225 -1434h-188l-650 1063l-168 -1063h-221z" />
<glyph unicode="O" d="M233 659q0 164 59.5 311.5t161.5 255t246.5 171t307.5 63.5q207 0 366 -89t243.5 -244.5t84.5 -352.5q0 -163 -59.5 -310.5t-162 -255.5t-247.5 -171.5t-309 -63.5q-155 0 -285 52t-218.5 143.5t-138 218t-49.5 272.5zM465 662q0 -204 128 -341t337 -137q151 0 275 78 t194.5 213t70.5 299q0 132 -56.5 239.5t-164.5 171.5t-248 64q-228 0 -382 -169t-154 -418z" />
<glyph unicode="P" horiz-adv-x="1355" d="M178 0l228 1434h589q208 0 326.5 -102t118.5 -267q0 -209 -151 -341t-382 -132h-411l-93 -592h-225zM532 799h398q74 0 136.5 25.5t104 81t41.5 132.5q0 89 -59 139t-170 50h-385z" />
<glyph unicode="Q" d="M233 659q0 164 59.5 311.5t161.5 255t246.5 171t307.5 63.5q207 0 366 -89t243.5 -244.5t84.5 -352.5q0 -266 -148 -475.5t-387 -286.5q83 -104 207 -104q88 0 170 45l-33 -207q-96 -45 -211 -45q-119 0 -211.5 67t-197.5 207q-197 7 -347.5 97.5t-230.5 243t-80 343.5z M465 662q0 -204 128 -341t337 -137q151 0 275 78t194.5 213t70.5 299q0 132 -56.5 239.5t-164.5 171.5t-248 64q-228 0 -382 -169t-154 -418z" />
<glyph unicode="R" horiz-adv-x="1501" d="M178 0l228 1434h620q204 0 320 -102.5t116 -266.5q0 -158 -98.5 -273t-261.5 -159l352 -633h-256l-338 606h-360l-97 -606h-225zM530 805h428q115 0 196 61.5t81 169.5q0 90 -61 140.5t-173 50.5h-403z" />
<glyph unicode="S" horiz-adv-x="1286" d="M113 127l37 238q73 -73 221.5 -127t300.5 -54q44 0 89 6.5t93 23.5t85 42.5t61 67.5t24 94q0 37 -15.5 66.5t-39.5 50t-65 39t-79 31.5t-95 30q-27 8 -40 12q-60 19 -96 31t-88 32.5t-82.5 39.5t-66 48t-54.5 60.5t-32 74.5t-13 93q0 108 45.5 192.5t124 136.5t178 78.5 t213.5 26.5q136 0 264 -33t211 -88l-34 -223q-88 58 -211 95.5t-248 37.5q-133 0 -222.5 -49.5t-89.5 -148.5q0 -31 15.5 -56.5t35.5 -42t61.5 -34t71 -27t87.5 -26.5t88 -27q58 -19 102.5 -36t95 -42t85.5 -54.5t65.5 -67t45.5 -86.5t15 -106q0 -111 -49 -202t-132 -149.5 t-189 -90t-223 -31.5q-163 0 -314.5 42.5t-236.5 111.5z" />
<glyph unicode="T" horiz-adv-x="1308" d="M262 1227l33 207h1173l-32 -207h-475l-195 -1227h-225l194 1227h-473z" />
<glyph unicode="U" horiz-adv-x="1523" d="M244 494q0 70 12 143l129 797h225l-129 -813q-10 -62 -10 -105q0 -157 90 -244.5t252 -87.5t272 100.5t140 293.5l137 856h225l-137 -863q-46 -288 -226.5 -443t-432.5 -155q-251 0 -399 139t-148 382z" />
<glyph unicode="V" horiz-adv-x="1550" d="M279 1434h243l295 -1127l653 1127h252l-841 -1442h-213z" />
<glyph unicode="W" horiz-adv-x="2181" d="M287 1434h243l177 -1078l518 1080h178l176 -1078l514 1076h252l-717 -1442h-198l-173 1067l-509 -1067h-201z" />
<glyph unicode="X" horiz-adv-x="1468" d="M35 0l690 776l-375 658h256l273 -476l424 476h268l-582 -656l447 -778h-258l-342 594l-527 -594h-274z" />
<glyph unicode="Y" horiz-adv-x="1402" d="M258 1434h254l319 -580l504 580h260l-677 -779l-103 -655h-225l102 649z" />
<glyph unicode="Z" horiz-adv-x="1314" d="M84 0l27 160l956 1067h-762l33 207h1071l-23 -158l-958 -1069h834l-31 -207h-1147z" />
<glyph unicode="[" horiz-adv-x="837" d="M111 -422l295 1868h581l-26 -174h-381l-242 -1520h381l-27 -174h-581z" />
<glyph unicode="\" horiz-adv-x="1069" d="M270 1622h199l559 -1909h-199z" />
<glyph unicode="]" horiz-adv-x="837" d="M12 -422l25 174h381l241 1520h-380l26 174h582l-295 -1868h-580z" />
<glyph unicode="^" horiz-adv-x="1095" d="M201 700l477 791h211l227 -791h-211l-151 596l-342 -596h-211z" />
<glyph unicode="_" horiz-adv-x="1298" d="M-31 -285l21 152h1274l-25 -152h-1270z" />
<glyph unicode="`" horiz-adv-x="1069" d="M563 1464h273l147 -286h-199z" />
<glyph unicode="a" horiz-adv-x="1222" d="M119 287q0 87 35 156.5t94.5 113t135 66t159.5 22.5q197 0 354 -88q12 62 12 98q0 101 -72.5 144t-205.5 43q-88 0 -174 -21t-148 -53l33 195q138 69 356 69q89 0 164.5 -19t136 -58.5t95 -107t34.5 -157.5q0 -22 -12 -115l-43 -260q-6 -35 -6 -65q0 -37 21.5 -57.5 t62.5 -20.5q28 0 47 8l-24 -170q-48 -28 -123 -28q-79 0 -132.5 35t-66.5 104q-156 -148 -369 -148q-164 0 -264 88t-100 226zM338 311q0 -72 58 -109.5t147 -37.5q97 0 179.5 37.5t127.5 85.5l20 114q-57 35 -134.5 56.5t-149.5 21.5q-111 0 -179.5 -42t-68.5 -126z" />
<glyph unicode="b" horiz-adv-x="1314" d="M158 0l227 1434h221l-88 -560q151 158 363 158q97 0 179 -37.5t137 -102t85.5 -150.5t30.5 -183q0 -113 -38 -218t-106.5 -187t-172 -131.5t-224.5 -49.5q-126 0 -221.5 53t-147.5 126l-24 -152h-221zM434 342q32 -67 117.5 -120.5t187.5 -53.5q144 0 246 107t102 262 q0 134 -79 217.5t-207 83.5q-90 0 -180 -52t-138 -127z" />
<glyph unicode="c" horiz-adv-x="1054" d="M162 463q0 159 78 290t213.5 205t300.5 74q184 0 329 -84l-30 -188q-131 78 -281 78q-166 0 -277.5 -103.5t-111.5 -261.5q0 -141 100.5 -223t249.5 -82q134 0 260 63l-30 -196q-127 -62 -283 -62q-228 0 -373 137t-145 353z" />
<glyph unicode="d" horiz-adv-x="1314" d="M162 446q0 113 38 218t106 187t171.5 131.5t224.5 49.5q126 0 220.5 -52.5t146.5 -125.5l92 580h221l-225 -1434h-223l20 131q-151 -158 -360 -158q-97 0 -179 37.5t-137 102t-85.5 150.5t-30.5 183zM387 469q0 -133 79.5 -217t207.5 -84q91 0 179.5 50.5t135.5 125.5 l49 318q-34 69 -118.5 122.5t-186.5 53.5q-144 0 -245 -106.5t-101 -262.5z" />
<glyph unicode="e" horiz-adv-x="1165" d="M162 457q0 156 70 287t198.5 209.5t288.5 78.5q106 0 192 -35.5t140.5 -96t84 -138t29.5 -164.5q0 -92 -12 -160h-776q1 -130 101 -200t251 -70q171 0 320 84l-29 -193q-122 -86 -338 -86q-227 0 -373.5 133t-146.5 351zM393 606h559v23q0 92 -65 154.5t-178 62.5 q-116 0 -203.5 -66t-112.5 -174z" />
<glyph unicode="f" horiz-adv-x="847" d="M176 811l31 195h188l19 120q22 152 117 240t251 88q135 0 228 -43l-29 -186q-91 37 -170 37q-51 0 -86 -16.5t-56.5 -52t-33 -78.5t-19.5 -109h330l-31 -195h-329l-129 -811h-221l129 811h-189z" />
<glyph unicode="g" horiz-adv-x="1300" d="M141 -330l33 203q148 -98 358 -98q75 0 138 14t121 46t97.5 92t53.5 143l12 82q-58 -66 -148 -107t-204 -41q-133 0 -234.5 64t-153.5 169t-52 232q0 109 38 210t106 179.5t171.5 126t224.5 47.5q126 0 221 -52.5t144 -121.5l25 148h221l-148 -945q-20 -128 -80 -223.5 t-148 -150.5t-190 -81t-219 -26q-113 0 -218.5 25.5t-168.5 64.5zM389 483q0 -130 82.5 -207t216.5 -77q86 0 170 50t133 124l45 293q-32 66 -115.5 118t-185.5 52q-145 0 -245.5 -100t-100.5 -253z" />
<glyph unicode="h" horiz-adv-x="1253" d="M158 0l227 1434h221l-88 -553q151 151 367 151q156 0 247 -91t91 -243q0 -38 -17 -149l-86 -549h-221l82 510q12 70 12 117q0 96 -56.5 147t-148.5 51q-89 0 -171 -48.5t-132 -114.5l-106 -662h-221z" />
<glyph unicode="i" horiz-adv-x="571" d="M176 0l158 1006h221l-158 -1006h-221zM350 1325q0 59 41 100t98 41q60 0 100 -40.5t40 -100.5q0 -59 -40 -99t-100 -40q-57 0 -98 40.5t-41 98.5z" />
<glyph unicode="j" horiz-adv-x="571" d="M-199 -379l31 193q63 -39 141 -39q46 0 79 13t53.5 33t36 63t24 82.5t20.5 111.5l148 928h221l-168 -1065q-28 -180 -131.5 -270.5t-259.5 -90.5q-53 0 -108.5 11t-86.5 30zM350 1325q0 59 41 100t98 41q60 0 100 -40.5t40 -100.5q0 -59 -40 -99t-100 -40q-57 0 -98 40.5 t-41 98.5z" />
<glyph unicode="k" horiz-adv-x="1157" d="M158 0l225 1434h223l-129 -805l463 377h289l-567 -469l483 -537h-271l-421 471l-74 -471h-221z" />
<glyph unicode="l" horiz-adv-x="612" d="M180 180q0 47 10 119l179 1135h221l-174 -1106q-8 -46 -8 -74q0 -78 92 -78q46 0 86 19l-31 -191q-58 -31 -156 -31q-108 0 -163.5 52.5t-55.5 154.5z" />
<glyph unicode="m" horiz-adv-x="1892" d="M158 0l161 1006h222l-23 -132q136 158 344 158q119 0 200.5 -51.5t100.5 -130.5q67 81 165 131.5t216 50.5q145 0 231.5 -80.5t86.5 -230.5q0 -51 -11 -115l-98 -606h-221l92 575q6 37 6 66q0 46 -13 80.5t-31.5 53.5t-45.5 31t-50 15.5t-48 3.5q-79 0 -152.5 -48 t-118.5 -120l-104 -657h-221l92 573q6 38 6 68q0 56 -18 95t-48.5 57t-59.5 25t-62 7q-76 0 -150 -45.5t-121 -115.5l-106 -664h-221z" />
<glyph unicode="n" horiz-adv-x="1253" d="M158 0l159 1006h222l-21 -125q151 151 367 151q156 0 247 -91t91 -243q0 -38 -17 -149l-86 -549h-221l82 510q12 70 12 117q0 96 -56.5 147t-148.5 51q-89 0 -171 -48.5t-132 -114.5l-106 -662h-221z" />
<glyph unicode="o" horiz-adv-x="1249" d="M162 475q0 110 42.5 212t116 178t178.5 121.5t224 45.5q232 0 378 -143t146 -359q0 -148 -72 -275.5t-202.5 -204.5t-290.5 -77q-229 0 -374.5 143.5t-145.5 358.5zM381 471q0 -135 84.5 -219t218.5 -84q143 0 243.5 107.5t100.5 263.5q0 133 -84 216t-219 83 q-143 0 -243.5 -106t-100.5 -261z" />
<glyph unicode="p" horiz-adv-x="1314" d="M94 -410l223 1416h222l-21 -132q151 158 363 158q97 0 179 -37.5t137 -102t85.5 -150.5t30.5 -183q0 -113 -38 -218t-106.5 -187t-172 -131.5t-224.5 -49.5q-126 0 -221.5 53t-147.5 126l-88 -562h-221zM434 342q32 -67 118.5 -120.5t188.5 -53.5q144 0 245 106.5 t101 262.5q0 134 -79 217.5t-207 83.5q-90 0 -180 -52t-138 -127z" />
<glyph unicode="q" horiz-adv-x="1312" d="M162 446q0 113 38 218t106 187t171.5 131.5t224.5 49.5q126 0 221.5 -53t147.5 -125l25 152h219l-221 -1416h-224l86 541q-151 -158 -362 -158q-97 0 -179 37.5t-137 102t-85.5 150.5t-30.5 183zM387 469q0 -133 80.5 -217t208.5 -84q91 0 179.5 50.5t135.5 125.5l49 318 q-34 69 -119.5 122.5t-187.5 53.5q-144 0 -245 -106.5t-101 -262.5z" />
<glyph unicode="r" horiz-adv-x="815" d="M158 0l159 1006h222l-27 -175q64 89 174 145t227 56q13 0 21 -2l-35 -221q-28 4 -61 4q-119 0 -215.5 -58.5t-145.5 -136.5l-98 -618h-221z" />
<glyph unicode="s" horiz-adv-x="1024" d="M92 98l29 197q65 -50 175 -90.5t245 -40.5q221 0 221 119q0 19 -11.5 36t-27.5 29t-48.5 25.5t-58 22.5t-73.5 24q-184 58 -264 121t-80 166q0 107 62.5 182.5t157 109t208.5 33.5q248 0 403 -114l-29 -197q-71 54 -168.5 87.5t-195.5 33.5q-207 0 -207 -113 q0 -13 2.5 -23t9.5 -19.5t14 -16t21.5 -14t26 -12.5t33.5 -12.5t38 -13t46 -14.5t51 -16q160 -50 237.5 -116t77.5 -171q0 -83 -39 -148t-104 -103t-142 -57.5t-159 -19.5q-133 0 -255 36.5t-196 88.5z" />
<glyph unicode="t" horiz-adv-x="892" d="M174 811l31 195h213l47 292h221l-47 -292h317l-28 -195h-318l-69 -424q-13 -89 -13 -102q0 -109 144 -109q75 0 151 37l-28 -188q-36 -25 -98 -38.5t-122 -13.5q-127 0 -201.5 59t-74.5 171q0 11 14 127l76 481h-215z" />
<glyph unicode="u" horiz-adv-x="1251" d="M188 307q0 39 17 150l86 549h221l-82 -510q-12 -70 -12 -115q0 -97 57 -149t148 -52q88 0 170.5 49t132.5 115l106 662h221l-159 -1006h-222l21 125q-152 -152 -367 -152q-156 0 -247 91t-91 243z" />
<glyph unicode="v" horiz-adv-x="1185" d="M197 1006h231l203 -732l430 732h237l-610 -1014h-201z" />
<glyph unicode="w" horiz-adv-x="1685" d="M217 1006h213l129 -691l346 695h176l129 -695l353 691h223l-514 -1014h-189l-137 700l-352 -700h-188z" />
<glyph unicode="x" horiz-adv-x="1183" d="M49 0l502 528l-299 478h237l203 -320l299 320h260l-450 -478l336 -528h-240l-235 369l-351 -369h-262z" />
<glyph unicode="y" horiz-adv-x="1173" d="M31 -383l30 197q66 -39 138 -39q89 0 160.5 63.5t146.5 198.5l-309 969h229l217 -734l395 734h238l-641 -1133q-87 -151 -191 -222t-243 -71q-98 0 -170 37z" />
<glyph unicode="z" horiz-adv-x="1056" d="M72 0l22 147l656 664h-525l33 195h840l-23 -152l-655 -659h594l-31 -195h-911z" />
<glyph unicode="{" horiz-adv-x="786" d="M158 426l28 172q43 4 75.5 20t52.5 38t34.5 56.5t22 66.5t14.5 77l43 277q23 146 120.5 229.5t242.5 83.5h139l-25 -174h-96q-74 0 -122.5 -44t-59.5 -116l-49 -317q-18 -113 -64 -183.5t-135 -99.5q117 -42 117 -188q0 -26 -13 -119l-37 -230q-12 -81 -12 -102 q0 -54 34.5 -87.5t98.5 -33.5h97l-27 -174h-141q-128 0 -199.5 65.5t-71.5 182.5q0 24 17 129l32 213q13 84 13 111q0 65 -29 102.5t-100 44.5z" />
<glyph unicode="|" horiz-adv-x="684" d="M205 -227l282 1783h201l-282 -1783h-201z" />
<glyph unicode="}" horiz-adv-x="778" d="M-4 -422l24 174h97q74 0 122.5 44t59.5 116l49 317q18 113 64 183.5t135 99.5q-117 42 -117 188q0 33 12 119l37 230q13 88 13 102q0 54 -35 87.5t-99 33.5h-96l27 174h141q127 0 198.5 -65.5t71.5 -182.5q0 -30 -16 -129l-33 -213q-12 -78 -12 -111q0 -65 29 -102.5 t100 -44.5l-29 -172q-43 -4 -75 -20t-52 -38t-35 -56.5t-22 -66t-14 -77.5l-43 -277q-23 -146 -120.5 -229.5t-242.5 -83.5h-139z" />
<glyph unicode="~" horiz-adv-x="1198" d="M178 391l31 201q34 38 101.5 62t142.5 24q62 0 128.5 -17t115.5 -37.5t115.5 -37.5t129.5 -17q146 0 244 95l-31 -203q-34 -38 -101 -61t-143 -23q-62 0 -129 17t-116 37t-116 37t-130 17q-145 0 -242 -94z" />
<glyph unicode="&#xa1;" horiz-adv-x="636" d="M98 -410l199 963h205l-105 -963h-299zM307 879q0 60 42 101.5t102 41.5q59 0 101 -41.5t42 -101.5t-42 -103t-101 -43q-60 0 -102 43t-42 103z" />
<glyph unicode="&#xa2;" horiz-adv-x="1054" d="M162 463q0 226 151 385.5t381 179.5l35 217h186l-36 -223q106 -19 204 -74l-30 -188q-131 78 -281 78q-166 0 -277.5 -103.5t-111.5 -261.5q0 -141 100.5 -223t249.5 -82q134 0 260 63l-30 -196q-114 -54 -250 -60l-33 -215h-186l36 232q-169 40 -268.5 166t-99.5 305z " />
<glyph unicode="&#xa3;" horiz-adv-x="1216" d="M102 0l31 203h35q30 0 53.5 8t39.5 26t26.5 34.5t18.5 47.5t11.5 49t8.5 54l26 170h-157l28 182h158l37 225q37 223 183 342t378 119q196 0 321 -80l-32 -213q-118 82 -281 82q-148 0 -239.5 -78t-114.5 -225l-27 -172h510l-29 -182h-509l-41 -258q-15 -92 -74 -131h678 l-33 -203h-1006z" />
<glyph unicode="&#xa4;" horiz-adv-x="1165" d="M217 334l133 135q-78 107 -78 250t78 250l-133 133l98 98l134 -133q109 82 249 82q141 0 250 -82l133 133l101 -98l-135 -133q79 -108 79 -250t-79 -250l135 -135l-101 -96l-133 131q-111 -80 -250 -80q-140 0 -249 82l-134 -133zM440 719q0 -109 75 -185.5t183 -76.5 t183 76.5t75 185.5t-75 185.5t-183 76.5t-183 -76.5t-75 -185.5z" />
<glyph unicode="&#xa5;" horiz-adv-x="1335" d="M176 274l25 162h415l27 170h-414l25 160h340l-340 668h252l282 -580l472 580h262l-553 -668h342l-27 -160h-416l-26 -170h415l-26 -162h-416l-41 -274h-225l41 274h-414z" />
<glyph unicode="&#xa6;" horiz-adv-x="684" d="M205 -227l114 723h201l-114 -723h-201zM373 834l114 722h201l-115 -722h-200z" />
<glyph unicode="&#xa7;" horiz-adv-x="1323" d="M168 -215l29 219q91 -55 207 -91t237 -36q45 0 88 5.5t89.5 19.5t75 43.5t28.5 70.5q0 27 -16 51t-39.5 41.5t-65.5 36t-78.5 31t-93.5 29.5q-45 13 -77 23.5t-81 30.5t-84.5 39t-75 48.5t-64 60.5t-41 73t-16.5 89q0 112 71.5 194t187.5 128q-107 83 -107 203 q0 95 42.5 167t117.5 114.5t168.5 63.5t203.5 21q134 0 256.5 -34.5t196.5 -82.5l-29 -217q-91 55 -207 91t-237 36q-45 0 -88 -5.5t-89.5 -19.5t-75 -43.5t-28.5 -70.5q0 -27 15.5 -51t39 -41.5t65.5 -35.5t78.5 -30.5t94.5 -29.5q38 -11 66.5 -20.5t71 -25t74 -32 t69 -38.5t63.5 -48t49 -56t34.5 -67t11.5 -78q0 -112 -71 -193.5t-187 -127.5q106 -82 106 -203q0 -96 -42.5 -168.5t-117.5 -115.5t-168.5 -64t-203.5 -21q-134 0 -256.5 34.5t-196.5 82.5zM403 604q0 -25 11.5 -47.5t37 -42t48.5 -34t66.5 -31.5t68.5 -26t74 -26l184 -63 q82 20 140.5 68.5t58.5 123.5q0 25 -11.5 47.5t-37 42t-48.5 34t-66.5 31.5t-68.5 26t-74 26l-184 64q-82 -20 -140.5 -69t-58.5 -124z" />
<glyph unicode="&#xa8;" horiz-adv-x="1069" d="M401 1327q0 51 36.5 87t88.5 36q51 0 86 -36t35 -87t-35 -87t-86 -36q-52 0 -88.5 36t-36.5 87zM825 1327q0 51 37 87t88 36t86 -36t35 -87t-35 -87t-86 -36t-88 36t-37 87z" />
<glyph unicode="&#xa9;" horiz-adv-x="1742" d="M244 717q0 200 98.5 371t269.5 271.5t373 100.5q152 0 290 -59t236.5 -159t156.5 -237t58 -288q0 -150 -58.5 -287t-157.5 -237.5t-237 -160t-290 -59.5q-203 0 -373.5 100.5t-268 271.5t-97.5 372zM311 717q0 -138 52.5 -264t142 -218t214.5 -146t263 -54 q139 0 264 54.5t214.5 146.5t142.5 217.5t53 263.5q0 185 -88.5 341.5t-243.5 248.5t-340 92q-138 0 -263 -54.5t-215 -146.5t-143 -217.5t-53 -263.5zM612 717q0 170 119 285.5t297 115.5q118 0 207 -47v-149q-91 59 -207 59q-112 0 -187 -74t-75 -190t77 -190t193 -74 q128 0 217 69v-149q-94 -60 -225 -60q-176 0 -296 117.5t-120 286.5z" />
<glyph unicode="&#xaa;" horiz-adv-x="1007" d="M233 883q0 86 46.5 148.5t118 91t157.5 28.5q148 0 270 -70q13 70 13 86q0 146 -213 146q-136 0 -246 -60l20 138q112 55 271 55q89 0 158 -24t115 -83.5t46 -148.5q0 -28 -10 -90l-29 -180q-8 -54 -8 -72q0 -29 16.5 -45.5t47.5 -16.5q18 0 36 9l-16 -121 q-44 -21 -90 -21q-58 0 -97 26.5t-48 82.5q-115 -115 -281 -115q-124 0 -200.5 66t-76.5 170zM387 899q0 -57 48 -88t124 -31q70 0 133 30.5t101 70.5l14 92q-97 59 -225 59q-86 0 -140.5 -33t-54.5 -100z" />
<glyph unicode="&#xab;" horiz-adv-x="1204" d="M141 446l19 113l350 371h229l-401 -438l262 -414h-221zM631 446l18 113l350 371h230l-402 -438l260 -414h-221z" />
<glyph unicode="&#xac;" horiz-adv-x="1146" d="M215 637l33 199h913l-86 -539h-198l53 340h-715z" />
<glyph unicode="&#xad;" horiz-adv-x="1015" d="M279 465l30 199h604l-30 -199h-604z" />
<glyph unicode="&#xae;" horiz-adv-x="1742" d="M244 717q0 200 98.5 371t269.5 271.5t373 100.5q152 0 290 -59t236.5 -159t156.5 -237t58 -288q0 -150 -58.5 -287t-157.5 -237.5t-237 -160t-290 -59.5q-203 0 -373.5 100.5t-268 271.5t-97.5 372zM311 717q0 -138 52.5 -264t142 -218t214.5 -146t263 -54 q139 0 264 54.5t214.5 146.5t142.5 217.5t53 263.5q0 185 -88.5 341.5t-243.5 248.5t-340 92q-138 0 -263 -54.5t-215 -146.5t-143 -217.5t-53 -263.5zM680 344v778h360q122 0 192.5 -63.5t70.5 -165.5q0 -78 -43 -134.5t-121 -76.5l243 -338h-165l-232 320h-158v-320h-147z M827 786h205q58 0 89.5 27.5t31.5 75.5q0 51 -31.5 78.5t-89.5 27.5h-205v-209z" />
<glyph unicode="&#xaf;" horiz-adv-x="1062" d="M406 1247l22 152h649l-26 -152h-645z" />
<glyph unicode="&#xb0;" horiz-adv-x="831" d="M276 1143q0 130 95 223.5t225 93.5t224.5 -93.5t94.5 -223.5q0 -129 -95 -222.5t-224 -93.5t-224.5 93.5t-95.5 222.5zM414 1143q0 -77 53 -131t129 -54t129 54t53 131t-53 131.5t-129 54.5t-129 -54.5t-53 -131.5z" />
<glyph unicode="&#xb1;" horiz-adv-x="1243" d="M125 74l31 196h1013l-30 -196h-1014zM233 756l31 198h406l55 346h201l-56 -346h408l-31 -198h-407l-56 -342h-200l55 342h-406z" />
<glyph unicode="&#xb2;" horiz-adv-x="716" d="M184 659l25 129l254 201q86 66 120.5 107t34.5 84q0 45 -32 72.5t-88 27.5q-103 0 -219 -80l30 184q94 64 226 64q114 0 192 -64t78 -174q0 -80 -48.5 -148.5t-152.5 -148.5l-133 -102h313l-24 -152h-576z" />
<glyph unicode="&#xb3;" horiz-adv-x="679" d="M160 715l28 168q38 -33 97.5 -55.5t130.5 -22.5q68 0 118 32.5t50 92.5q0 43 -38 71.5t-102 28.5q-58 0 -110 -18l16 112l205 158h-283l27 152h514l-20 -134l-197 -155q69 -20 117.5 -72.5t48.5 -136.5q0 -131 -95.5 -211t-242.5 -80q-82 0 -152.5 20.5t-111.5 49.5z" />
<glyph unicode="&#xb4;" horiz-adv-x="983" d="M535 1178l241 286h277l-316 -286h-202z" />
<glyph unicode="&#xb5;" horiz-adv-x="1277" d="M94 -410l223 1416h222l-82 -510q-13 -76 -13 -117q0 -97 57 -149t148 -52q88 0 170.5 50t132.5 116l107 662h221l-160 -1006h-221l21 125q-152 -152 -367 -152q-119 0 -201 54l-37 -437h-221z" />
<glyph unicode="&#xb6;" horiz-adv-x="1126" d="M238 969q0 140 74.5 247.5t196.5 162.5t271 55h391l-225 -1434h-225l98 618h-168q-195 0 -304 97t-109 254z" />
<glyph unicode="&#xb7;" horiz-adv-x="512" d="M213 791q0 59 42 101t103 42q59 0 101.5 -42.5t42.5 -100.5q0 -61 -42.5 -103.5t-101.5 -42.5q-61 0 -103 42t-42 104z" />
<glyph unicode="&#xb8;" horiz-adv-x="1009" d="M233 -283l238 299h180l-159 -299h-259z" />
<glyph unicode="&#xb9;" horiz-adv-x="559" d="M221 1139l27 180l233 115h174l-120 -775h-183l92 588z" />
<glyph unicode="&#xba;" horiz-adv-x="944" d="M217 1030q0 109 54.5 204t155 153.5t222.5 58.5q174 0 289 -108t115 -271q0 -171 -123.5 -295.5t-308.5 -124.5q-173 0 -288.5 109.5t-115.5 273.5zM395 1024q0 -97 64 -161t162 -64q106 0 179.5 78t73.5 192q0 97 -63 159t-162 62q-106 0 -180 -76.5t-74 -189.5z" />
<glyph unicode="&#xbb;" horiz-adv-x="1204" d="M115 78l401 438l-262 414h221l238 -371l-19 -113l-350 -368h-229zM604 78l402 438l-263 414h222l237 -371l-20 -113l-351 -368h-227z" />
<glyph unicode="&#xbc;" horiz-adv-x="1564" d="M221 0l1084 1434h200l-1083 -1434h-201zM223 1139l27 180l233 115h174l-120 -775h-183l92 588zM879 188l22 129l457 457h184l-72 -444h113l-24 -142h-111l-31 -188h-176l31 188h-393zM1087 330h207l39 239z" />
<glyph unicode="&#xbd;" horiz-adv-x="1671" d="M221 0l1084 1434h200l-1083 -1434h-201zM223 1139l27 180l233 115h174l-120 -775h-183l92 588zM1036 0l25 129l254 201q86 66 120.5 107t34.5 83q0 45 -32 73t-88 28q-104 0 -220 -80l31 184q92 63 225 63q114 0 192.5 -63.5t78.5 -173.5q0 -80 -48.5 -148.5 t-152.5 -148.5l-133 -102h313l-24 -152h-576z" />
<glyph unicode="&#xbe;" horiz-adv-x="1648" d="M160 715l28 168q38 -33 97.5 -55.5t130.5 -22.5q68 0 118 32.5t50 92.5q0 43 -38 71.5t-102 28.5q-58 0 -110 -18l16 112l205 158h-283l27 152h514l-20 -134l-197 -155q69 -20 117.5 -72.5t48.5 -136.5q0 -131 -95.5 -211t-242.5 -80q-82 0 -152.5 20.5t-111.5 49.5z M303 0l1083 1434h201l-1083 -1434h-201zM963 188l22 129l457 457h184l-72 -444h113l-25 -142h-110l-31 -188h-176l31 188h-393zM1171 330h207l39 239z" />
<glyph unicode="&#xbf;" horiz-adv-x="991" d="M78 -61q0 90 36.5 165.5t100 128.5t140 89.5t165.5 58.5l27 172h213l-45 -291q-51 -8 -102 -21t-108 -38t-99.5 -57t-70.5 -79.5t-28 -103.5q0 -85 70.5 -134.5t195.5 -49.5q166 0 355 102l-33 -205q-76 -45 -175.5 -70.5t-201.5 -25.5q-79 0 -155 22.5t-140.5 65 t-104.5 113t-40 158.5zM563 877q0 61 43 103t103 42t100.5 -41.5t40.5 -103.5q0 -59 -41 -101.5t-100 -42.5q-60 0 -103 42.5t-43 101.5z" />
<glyph unicode="&#xc0;" horiz-adv-x="1560" d="M45 0l854 1442h217l400 -1442h-236l-96 356h-684l-209 -356h-246zM614 555h516l-163 602zM711 1847h272l147 -286h-198z" />
<glyph unicode="&#xc1;" horiz-adv-x="1560" d="M45 0l854 1442h217l400 -1442h-236l-96 356h-684l-209 -356h-246zM614 555h516l-163 602zM922 1561l241 286h277l-316 -286h-202z" />
<glyph unicode="&#xc2;" horiz-adv-x="1560" d="M45 0l854 1442h217l400 -1442h-236l-96 356h-684l-209 -356h-246zM614 555h516l-163 602zM672 1561l286 286h222l188 -286h-201l-116 176l-174 -176h-205z" />
<glyph unicode="&#xc3;" horiz-adv-x="1560" d="M45 0l854 1442h217l400 -1442h-236l-96 356h-684l-209 -356h-246zM614 555h516l-163 602zM684 1585q19 110 84 180t154 70q40 0 79 -16.5t64.5 -36.5t59 -36.5t63.5 -16.5q78 0 106 96h121q-18 -106 -83 -179t-152 -73q-41 0 -81 17t-65.5 37t-59.5 37t-65 17 q-74 0 -104 -96h-121z" />
<glyph unicode="&#xc4;" horiz-adv-x="1560" d="M45 0l854 1442h217l400 -1442h-236l-96 356h-684l-209 -356h-246zM614 555h516l-163 602zM696 1702q0 54 37 90.5t90 36.5t89 -36.5t36 -90.5q0 -53 -36.5 -90t-88.5 -37q-53 0 -90 37.5t-37 89.5zM1133 1702q0 54 37 90.5t90 36.5t88.5 -36.5t35.5 -90.5q0 -53 -36 -90 t-88 -37t-89.5 37.5t-37.5 89.5z" />
<glyph unicode="&#xc5;" horiz-adv-x="1560" d="M45 0l854 1442h217l400 -1442h-236l-96 356h-684l-209 -356h-246zM614 555h516l-163 602zM827 1706q0 84 59.5 143.5t143.5 59.5q82 0 141.5 -60t59.5 -143t-59.5 -142t-141.5 -59q-85 0 -144 59t-59 142zM926 1706q0 -43 30 -72.5t74 -29.5q42 0 72.5 30t30.5 72 t-30.5 73t-72.5 31q-44 0 -74 -30.5t-30 -73.5z" />
<glyph unicode="&#xc6;" horiz-adv-x="2146" d="M0 0l1067 1434h1180l-33 -203h-780l-58 -365h633l-33 -202h-633l-73 -461h807l-31 -203h-1034l57 360h-549l-268 -360h-252zM664 553h436l106 678h-39z" />
<glyph unicode="&#xc7;" horiz-adv-x="1400" d="M233 651q0 169 59 318t163 257.5t255 171t326 62.5q251 0 432 -106l-36 -217q-165 112 -398 112q-248 0 -408.5 -165.5t-160.5 -419.5q0 -208 133.5 -344t355.5 -136q239 0 414 125l-35 -231q-169 -94 -358 -103l-137 -258h-258l213 269q-256 41 -408 223t-152 442z" />
<glyph unicode="&#xc8;" horiz-adv-x="1325" d="M178 0l228 1434h1019l-32 -207h-795l-57 -359h647l-33 -206h-647l-72 -455h821l-32 -207h-1047zM670 1847h272l148 -286h-199z" />
<glyph unicode="&#xc9;" horiz-adv-x="1325" d="M178 0l228 1434h1019l-32 -207h-795l-57 -359h647l-33 -206h-647l-72 -455h821l-32 -207h-1047zM727 1561l242 286h276l-315 -286h-203z" />
<glyph unicode="&#xca;" horiz-adv-x="1325" d="M178 0l228 1434h1019l-32 -207h-795l-57 -359h647l-33 -206h-647l-72 -455h821l-32 -207h-1047zM586 1561l286 286h222l188 -286h-201l-116 176l-174 -176h-205z" />
<glyph unicode="&#xcb;" horiz-adv-x="1325" d="M178 0l228 1434h1019l-32 -207h-795l-57 -359h647l-33 -206h-647l-72 -455h821l-32 -207h-1047zM600 1702q0 54 37 90.5t90 36.5t89 -36.5t36 -90.5q0 -53 -36.5 -90t-88.5 -37q-53 0 -90 37.5t-37 89.5zM1036 1702q0 54 37 90.5t90 36.5t89 -36.5t36 -90.5 q0 -53 -36.5 -90t-88.5 -37q-53 0 -90 37.5t-37 89.5z" />
<glyph unicode="&#xcc;" horiz-adv-x="604" d="M188 0l228 1434h225l-227 -1434h-226zM227 1847h273l147 -286h-198z" />
<glyph unicode="&#xcd;" horiz-adv-x="604" d="M188 0l228 1434h225l-227 -1434h-226zM440 1561l242 286h276l-315 -286h-203z" />
<glyph unicode="&#xce;" horiz-adv-x="604" d="M188 0l228 1434h225l-227 -1434h-226zM197 1561l286 286h222l188 -286h-201l-117 176l-174 -176h-204z" />
<glyph unicode="&#xcf;" horiz-adv-x="604" d="M188 0l228 1434h225l-227 -1434h-226zM219 1702q0 54 37 90.5t90 36.5t89 -36.5t36 -90.5q0 -53 -36.5 -90t-88.5 -37t-89.5 37.5t-37.5 89.5zM655 1702q0 54 37 90.5t90 36.5t89 -36.5t36 -90.5q0 -53 -36.5 -90t-88.5 -37t-89.5 37.5t-37.5 89.5z" />
<glyph unicode="&#xd0;" horiz-adv-x="1695" d="M168 639l35 203h207l94 592h461q323 0 518.5 -180.5t195.5 -471.5q0 -155 -47 -283t-133 -220t-206.5 -155t-267 -93.5t-314.5 -30.5h-435l101 639h-209zM535 207h319q266 0 429 158t163 417q0 194 -131 319.5t-354 125.5h-265l-61 -385h313l-35 -203h-311z" />
<glyph unicode="&#xd1;" horiz-adv-x="1581" d="M178 0l225 1434h195l643 -1059l168 1059h221l-225 -1434h-188l-650 1063l-168 -1063h-221zM702 1585q19 110 84 180t154 70q40 0 79 -16.5t64.5 -36.5t59 -36.5t63.5 -16.5q79 0 107 96h121q-18 -106 -83.5 -179t-152.5 -73q-41 0 -80.5 17t-65.5 37t-59.5 37t-64.5 17 q-75 0 -105 -96h-121z" />
<glyph unicode="&#xd2;" d="M233 659q0 164 59.5 311.5t161.5 255t246.5 171t307.5 63.5q207 0 366 -89t243.5 -244.5t84.5 -352.5q0 -163 -59.5 -310.5t-162 -255.5t-247.5 -171.5t-309 -63.5q-155 0 -285 52t-218.5 143.5t-138 218t-49.5 272.5zM465 662q0 -204 128 -341t337 -137q151 0 275 78 t194.5 213t70.5 299q0 132 -56.5 239.5t-164.5 171.5t-248 64q-228 0 -382 -169t-154 -418zM803 1847h272l148 -286h-199z" />
<glyph unicode="&#xd3;" d="M233 659q0 164 59.5 311.5t161.5 255t246.5 171t307.5 63.5q207 0 366 -89t243.5 -244.5t84.5 -352.5q0 -163 -59.5 -310.5t-162 -255.5t-247.5 -171.5t-309 -63.5q-155 0 -285 52t-218.5 143.5t-138 218t-49.5 272.5zM465 662q0 -204 128 -341t337 -137q151 0 275 78 t194.5 213t70.5 299q0 132 -56.5 239.5t-164.5 171.5t-248 64q-228 0 -382 -169t-154 -418zM905 1561l242 286h276l-315 -286h-203z" />
<glyph unicode="&#xd4;" d="M233 659q0 164 59.5 311.5t161.5 255t246.5 171t307.5 63.5q207 0 366 -89t243.5 -244.5t84.5 -352.5q0 -163 -59.5 -310.5t-162 -255.5t-247.5 -171.5t-309 -63.5q-155 0 -285 52t-218.5 143.5t-138 218t-49.5 272.5zM465 662q0 -204 128 -341t337 -137q151 0 275 78 t194.5 213t70.5 299q0 132 -56.5 239.5t-164.5 171.5t-248 64q-228 0 -382 -169t-154 -418zM733 1561l287 286h221l189 -286h-201l-117 176l-174 -176h-205z" />
<glyph unicode="&#xd5;" d="M233 659q0 164 59.5 311.5t161.5 255t246.5 171t307.5 63.5q207 0 366 -89t243.5 -244.5t84.5 -352.5q0 -163 -59.5 -310.5t-162 -255.5t-247.5 -171.5t-309 -63.5q-155 0 -285 52t-218.5 143.5t-138 218t-49.5 272.5zM465 662q0 -204 128 -341t337 -137q151 0 275 78 t194.5 213t70.5 299q0 132 -56.5 239.5t-164.5 171.5t-248 64q-228 0 -382 -169t-154 -418zM743 1585q19 110 84 180t154 70q40 0 79 -16.5t64.5 -36.5t59 -36.5t63.5 -16.5q79 0 107 96h121q-18 -106 -83.5 -179t-152.5 -73q-41 0 -80.5 17t-65.5 37t-59.5 37t-64.5 17 q-75 0 -105 -96h-121z" />
<glyph unicode="&#xd6;" d="M233 659q0 164 59.5 311.5t161.5 255t246.5 171t307.5 63.5q207 0 366 -89t243.5 -244.5t84.5 -352.5q0 -163 -59.5 -310.5t-162 -255.5t-247.5 -171.5t-309 -63.5q-155 0 -285 52t-218.5 143.5t-138 218t-49.5 272.5zM465 662q0 -204 128 -341t337 -137q151 0 275 78 t194.5 213t70.5 299q0 132 -56.5 239.5t-164.5 171.5t-248 64q-228 0 -382 -169t-154 -418zM743 1702q0 54 37 90.5t90 36.5t89 -36.5t36 -90.5q0 -53 -36.5 -90t-88.5 -37t-89.5 37.5t-37.5 89.5zM1180 1702q0 54 37 90.5t90 36.5t89 -36.5t36 -90.5q0 -53 -36.5 -90 t-88.5 -37q-53 0 -90 37.5t-37 89.5z" />
<glyph unicode="&#xd7;" horiz-adv-x="1150" d="M186 371l357 307l-260 311l157 133l258 -309l359 309l121 -145l-355 -311l260 -308l-157 -133l-258 307l-359 -307z" />
<glyph unicode="&#xd8;" d="M168 0l211 215q-146 185 -146 444q0 164 59.5 311.5t161.5 255t246.5 171t307.5 63.5q267 0 450 -147l119 121h197l-215 -220q143 -182 143 -440q0 -163 -59.5 -310.5t-162 -255.5t-247.5 -171.5t-309 -63.5q-261 0 -445 144l-114 -117h-197zM465 662q0 -160 78 -279 l755 768q-125 98 -297 98q-228 0 -382 -169t-154 -418zM639 279q122 -95 291 -95q151 0 275 78t194.5 213t70.5 299q0 150 -77 273z" />
<glyph unicode="&#xd9;" horiz-adv-x="1523" d="M244 494q0 70 12 143l129 797h225l-129 -813q-10 -62 -10 -105q0 -157 90 -244.5t252 -87.5t272 100.5t140 293.5l137 856h225l-137 -863q-46 -288 -226.5 -443t-432.5 -155q-251 0 -399 139t-148 382zM729 1847h272l148 -286h-199z" />
<glyph unicode="&#xda;" horiz-adv-x="1523" d="M244 494q0 70 12 143l129 797h225l-129 -813q-10 -62 -10 -105q0 -157 90 -244.5t252 -87.5t272 100.5t140 293.5l137 856h225l-137 -863q-46 -288 -226.5 -443t-432.5 -155q-251 0 -399 139t-148 382zM836 1561l241 286h277l-316 -286h-202z" />
<glyph unicode="&#xdb;" horiz-adv-x="1523" d="M244 494q0 70 12 143l129 797h225l-129 -813q-10 -62 -10 -105q0 -157 90 -244.5t252 -87.5t272 100.5t140 293.5l137 856h225l-137 -863q-46 -288 -226.5 -443t-432.5 -155q-251 0 -399 139t-148 382zM659 1561l287 286h221l189 -286h-201l-117 176l-174 -176h-205z" />
<glyph unicode="&#xdc;" horiz-adv-x="1523" d="M244 494q0 70 12 143l129 797h225l-129 -813q-10 -62 -10 -105q0 -157 90 -244.5t252 -87.5t272 100.5t140 293.5l137 856h225l-137 -863q-46 -288 -226.5 -443t-432.5 -155q-251 0 -399 139t-148 382zM684 1702q0 54 37 90.5t90 36.5t89 -36.5t36 -90.5q0 -53 -36.5 -90 t-88.5 -37q-53 0 -90 37.5t-37 89.5zM1120 1702q0 54 37 90.5t90 36.5t89 -36.5t36 -90.5q0 -53 -36.5 -90t-88.5 -37q-53 0 -90 37.5t-37 89.5z" />
<glyph unicode="&#xdd;" horiz-adv-x="1402" d="M258 1434h254l319 -580l504 580h260l-677 -779l-103 -655h-225l102 649zM741 1561l242 286h277l-316 -286h-203z" />
<glyph unicode="&#xde;" horiz-adv-x="1355" d="M178 0l228 1434h225l-47 -299h364q208 0 326.5 -102t118.5 -267q0 -209 -151 -341t-382 -132h-411l-46 -293h-225zM485 500h398q74 0 136.5 25.5t104 81t41.5 132.5q0 89 -59 139t-170 50h-385z" />
<glyph unicode="&#xdf;" horiz-adv-x="1273" d="M158 0l159 1010q33 209 173.5 326.5t340.5 117.5q115 0 211.5 -41.5t155.5 -121.5t59 -183q0 -112 -64.5 -201.5t-180.5 -130.5q103 -31 176.5 -120t73.5 -218q0 -203 -138 -334t-350 -131q-145 0 -217 37l31 193q72 -35 170 -35q118 0 204.5 75.5t86.5 194.5 q0 102 -80.5 173t-212.5 71h-49l30 188h68q100 2 168.5 57.5t68.5 153.5q0 78 -58 129.5t-159 51.5q-107 0 -185.5 -66t-100.5 -199l-160 -997h-221z" />
<glyph unicode="&#xe0;" horiz-adv-x="1222" d="M119 287q0 87 35 156.5t94.5 113t135 66t159.5 22.5q197 0 354 -88q12 62 12 98q0 101 -72.5 144t-205.5 43q-88 0 -174 -21t-148 -53l33 195q138 69 356 69q89 0 164.5 -19t136 -58.5t95 -107t34.5 -157.5q0 -22 -12 -115l-43 -260q-6 -35 -6 -65q0 -37 21.5 -57.5 t62.5 -20.5q28 0 47 8l-24 -170q-48 -28 -123 -28q-79 0 -132.5 35t-66.5 104q-156 -148 -369 -148q-164 0 -264 88t-100 226zM338 311q0 -72 58 -109.5t147 -37.5q97 0 179.5 37.5t127.5 85.5l20 114q-57 35 -134.5 56.5t-149.5 21.5q-111 0 -179.5 -42t-68.5 -126z M555 1464h272l148 -286h-199z" />
<glyph unicode="&#xe1;" horiz-adv-x="1222" d="M119 287q0 87 35 156.5t94.5 113t135 66t159.5 22.5q197 0 354 -88q12 62 12 98q0 101 -72.5 144t-205.5 43q-88 0 -174 -21t-148 -53l33 195q138 69 356 69q89 0 164.5 -19t136 -58.5t95 -107t34.5 -157.5q0 -22 -12 -115l-43 -260q-6 -35 -6 -65q0 -37 21.5 -57.5 t62.5 -20.5q28 0 47 8l-24 -170q-48 -28 -123 -28q-79 0 -132.5 35t-66.5 104q-156 -148 -369 -148q-164 0 -264 88t-100 226zM338 311q0 -72 58 -109.5t147 -37.5q97 0 179.5 37.5t127.5 85.5l20 114q-57 35 -134.5 56.5t-149.5 21.5q-111 0 -179.5 -42t-68.5 -126z M662 1178l241 286h277l-316 -286h-202z" />
<glyph unicode="&#xe2;" horiz-adv-x="1222" d="M119 287q0 87 35 156.5t94.5 113t135 66t159.5 22.5q197 0 354 -88q12 62 12 98q0 101 -72.5 144t-205.5 43q-88 0 -174 -21t-148 -53l33 195q138 69 356 69q89 0 164.5 -19t136 -58.5t95 -107t34.5 -157.5q0 -22 -12 -115l-43 -260q-6 -35 -6 -65q0 -37 21.5 -57.5 t62.5 -20.5q28 0 47 8l-24 -170q-48 -28 -123 -28q-79 0 -132.5 35t-66.5 104q-156 -148 -369 -148q-164 0 -264 88t-100 226zM338 311q0 -72 58 -109.5t147 -37.5q97 0 179.5 37.5t127.5 85.5l20 114q-57 35 -134.5 56.5t-149.5 21.5q-111 0 -179.5 -42t-68.5 -126z M420 1178l282 286h222l190 -286h-194l-119 176l-172 -176h-209z" />
<glyph unicode="&#xe3;" horiz-adv-x="1222" d="M119 287q0 87 35 156.5t94.5 113t135 66t159.5 22.5q197 0 354 -88q12 62 12 98q0 101 -72.5 144t-205.5 43q-88 0 -174 -21t-148 -53l33 195q138 69 356 69q89 0 164.5 -19t136 -58.5t95 -107t34.5 -157.5q0 -22 -12 -115l-43 -260q-6 -35 -6 -65q0 -37 21.5 -57.5 t62.5 -20.5q28 0 47 8l-24 -170q-48 -28 -123 -28q-79 0 -132.5 35t-66.5 104q-156 -148 -369 -148q-164 0 -264 88t-100 226zM338 311q0 -72 58 -109.5t147 -37.5q97 0 179.5 37.5t127.5 85.5l20 114q-57 35 -134.5 56.5t-149.5 21.5q-111 0 -179.5 -42t-68.5 -126z M446 1206q21 111 85.5 181.5t154.5 70.5q49 0 96 -26.5t89 -53t81 -26.5q79 0 107 96h119q-18 -106 -83.5 -179t-152.5 -73q-41 0 -80 16.5t-65 37t-59.5 37t-63.5 16.5q-77 0 -107 -97h-121z" />
<glyph unicode="&#xe4;" horiz-adv-x="1222" d="M119 287q0 87 35 156.5t94.5 113t135 66t159.5 22.5q197 0 354 -88q12 62 12 98q0 101 -72.5 144t-205.5 43q-88 0 -174 -21t-148 -53l33 195q138 69 356 69q89 0 164.5 -19t136 -58.5t95 -107t34.5 -157.5q0 -22 -12 -115l-43 -260q-6 -35 -6 -65q0 -37 21.5 -57.5 t62.5 -20.5q28 0 47 8l-24 -170q-48 -28 -123 -28q-79 0 -132.5 35t-66.5 104q-156 -148 -369 -148q-164 0 -264 88t-100 226zM338 311q0 -72 58 -109.5t147 -37.5q97 0 179.5 37.5t127.5 85.5l20 114q-57 35 -134.5 56.5t-149.5 21.5q-111 0 -179.5 -42t-68.5 -126z M451 1327q0 51 36 87t88 36q51 0 86 -36t35 -87t-35 -87t-86 -36q-52 0 -88 36t-36 87zM874 1327q0 51 37 87t88 36t86 -36t35 -87t-35 -87t-86 -36t-88 36t-37 87z" />
<glyph unicode="&#xe5;" horiz-adv-x="1222" d="M119 287q0 87 35 156.5t94.5 113t135 66t159.5 22.5q197 0 354 -88q12 62 12 98q0 101 -72.5 144t-205.5 43q-88 0 -174 -21t-148 -53l33 195q138 69 356 69q89 0 164.5 -19t136 -58.5t95 -107t34.5 -157.5q0 -22 -12 -115l-43 -260q-6 -35 -6 -65q0 -37 21.5 -57.5 t62.5 -20.5q28 0 47 8l-24 -170q-48 -28 -123 -28q-79 0 -132.5 35t-66.5 104q-156 -148 -369 -148q-164 0 -264 88t-100 226zM338 311q0 -72 58 -109.5t147 -37.5q97 0 179.5 37.5t127.5 85.5l20 114q-57 35 -134.5 56.5t-149.5 21.5q-111 0 -179.5 -42t-68.5 -126z M616 1307q0 83 60 142.5t143 59.5t143 -59.5t60 -142.5q0 -82 -60 -141.5t-143 -59.5t-143 59.5t-60 141.5zM715 1307q0 -41 30.5 -72t73.5 -31t74 31t31 72q0 44 -31 74t-74 30t-73.5 -30t-30.5 -74z" />
<glyph unicode="&#xe6;" horiz-adv-x="1873" d="M119 287q0 87 35 156.5t94.5 113t135 66t159.5 22.5q197 0 354 -88q12 80 12 98q0 101 -72 144t-206 43q-181 0 -322 -74l33 195q138 69 356 69q109 0 204 -41.5t153 -116.5q158 158 372 158q106 0 192 -35.5t141 -96t84.5 -138t29.5 -164.5q0 -92 -12 -160h-777 q1 -130 101.5 -200t251.5 -70q170 0 319 84l-28 -193q-125 -86 -338 -86q-139 0 -253 53t-182 148q-84 -84 -201.5 -142.5t-260.5 -58.5q-170 0 -272.5 88t-102.5 226zM338 309q0 -72 61 -110.5t160 -38.5q100 0 193 45t139 102q-12 34 -19 94q-59 36 -136 57t-150 21 q-110 0 -179 -43t-69 -127zM1102 606h559v23q0 92 -65.5 154.5t-178.5 62.5q-116 0 -203 -66t-112 -174z" />
<glyph unicode="&#xe7;" horiz-adv-x="1054" d="M162 463q0 159 78 290t213.5 205t300.5 74q184 0 329 -84l-30 -188q-131 78 -281 78q-166 0 -277.5 -103.5t-111.5 -261.5q0 -141 100.5 -223t249.5 -82q134 0 260 63l-30 -196q-111 -54 -238 -60l-137 -258h-258l215 271q-174 37 -278.5 165t-104.5 310z" />
<glyph unicode="&#xe8;" horiz-adv-x="1165" d="M162 457q0 156 70 287t198.5 209.5t288.5 78.5q106 0 192 -35.5t140.5 -96t84 -138t29.5 -164.5q0 -92 -12 -160h-776q1 -130 101 -200t251 -70q171 0 320 84l-29 -193q-122 -86 -338 -86q-227 0 -373.5 133t-146.5 351zM393 606h559v23q0 92 -65 154.5t-178 62.5 q-116 0 -203.5 -66t-112.5 -174zM518 1464h273l147 -286h-199z" />
<glyph unicode="&#xe9;" horiz-adv-x="1165" d="M162 457q0 156 70 287t198.5 209.5t288.5 78.5q106 0 192 -35.5t140.5 -96t84 -138t29.5 -164.5q0 -92 -12 -160h-776q1 -130 101 -200t251 -70q171 0 320 84l-29 -193q-122 -86 -338 -86q-227 0 -373.5 133t-146.5 351zM393 606h559v23q0 92 -65 154.5t-178 62.5 q-116 0 -203.5 -66t-112.5 -174zM649 1178l242 286h276l-315 -286h-203z" />
<glyph unicode="&#xea;" horiz-adv-x="1165" d="M162 457q0 156 70 287t198.5 209.5t288.5 78.5q106 0 192 -35.5t140.5 -96t84 -138t29.5 -164.5q0 -92 -12 -160h-776q1 -130 101 -200t251 -70q171 0 320 84l-29 -193q-122 -86 -338 -86q-227 0 -373.5 133t-146.5 351zM393 606h559v23q0 92 -65 154.5t-178 62.5 q-116 0 -203.5 -66t-112.5 -174zM428 1178l283 286h221l190 -286h-194l-119 176l-172 -176h-209z" />
<glyph unicode="&#xeb;" horiz-adv-x="1165" d="M162 457q0 156 70 287t198.5 209.5t288.5 78.5q106 0 192 -35.5t140.5 -96t84 -138t29.5 -164.5q0 -92 -12 -160h-776q1 -130 101 -200t251 -70q171 0 320 84l-29 -193q-122 -86 -338 -86q-227 0 -373.5 133t-146.5 351zM393 606h559v23q0 92 -65 154.5t-178 62.5 q-116 0 -203.5 -66t-112.5 -174zM455 1327q0 51 36.5 87t88.5 36q51 0 85.5 -36t34.5 -87t-34.5 -87t-85.5 -36q-52 0 -88.5 36t-36.5 87zM879 1327q0 51 37 87t88 36t85.5 -36t34.5 -87t-34.5 -87t-85.5 -36t-88 36t-37 87z" />
<glyph unicode="&#xec;" horiz-adv-x="571" d="M158 1464h272l148 -286h-199zM176 0l158 1006h221l-158 -1006h-221z" />
<glyph unicode="&#xed;" horiz-adv-x="571" d="M176 0l158 1006h221l-158 -1006h-221zM381 1180l242 286h274l-313 -286h-203z" />
<glyph unicode="&#xee;" horiz-adv-x="571" d="M119 1178l282 286h222l190 -286h-195l-118 176l-172 -176h-209zM176 0l158 1006h221l-158 -1006h-221z" />
<glyph unicode="&#xef;" horiz-adv-x="571" d="M156 1327q0 51 36.5 87t88.5 36q51 0 85.5 -36t34.5 -87t-34.5 -87t-85.5 -36q-52 0 -88.5 36t-36.5 87zM176 0l158 1006h221l-158 -1006h-221zM580 1327q0 51 37 87t88 36t85.5 -36t34.5 -87t-34.5 -87t-85.5 -36t-88 36t-37 87z" />
<glyph unicode="&#xf0;" horiz-adv-x="1232" d="M162 440q0 134 63.5 248.5t179.5 183t259 68.5q102 0 198 -49l-168 260l-274 -98l-76 118l268 97l-110 166h235l66 -101l231 84l76 -121l-229 -84l188 -299q78 -122 113 -209.5t35 -183.5q0 -148 -68.5 -272t-196.5 -199.5t-290 -75.5q-217 0 -358.5 129.5t-141.5 337.5z M381 449q0 -123 79.5 -202t209.5 -79q136 0 230.5 92.5t94.5 233.5q0 124 -79 205t-209 81q-135 0 -230.5 -95.5t-95.5 -235.5z" />
<glyph unicode="&#xf1;" horiz-adv-x="1253" d="M158 0l159 1006h222l-21 -125q151 151 367 151q156 0 247 -91t91 -243q0 -38 -17 -149l-86 -549h-221l82 510q12 70 12 117q0 96 -56.5 147t-148.5 51q-89 0 -171 -48.5t-132 -114.5l-106 -662h-221zM483 1206q21 111 85.5 181.5t154.5 70.5q49 0 96 -26.5t89 -53 t81 -26.5q79 0 107 96h118q-18 -106 -83 -179t-152 -73q-41 0 -80 16.5t-65 37t-59.5 37t-63.5 16.5q-77 0 -107 -97h-121z" />
<glyph unicode="&#xf2;" horiz-adv-x="1249" d="M162 475q0 110 42.5 212t116 178t178.5 121.5t224 45.5q232 0 378 -143t146 -359q0 -148 -72 -275.5t-202.5 -204.5t-290.5 -77q-229 0 -374.5 143.5t-145.5 358.5zM381 471q0 -135 84.5 -219t218.5 -84q143 0 243.5 107.5t100.5 263.5q0 133 -84 216t-219 83 q-143 0 -243.5 -106t-100.5 -261zM547 1464h272l148 -286h-199z" />
<glyph unicode="&#xf3;" horiz-adv-x="1249" d="M162 475q0 110 42.5 212t116 178t178.5 121.5t224 45.5q232 0 378 -143t146 -359q0 -148 -72 -275.5t-202.5 -204.5t-290.5 -77q-229 0 -374.5 143.5t-145.5 358.5zM381 471q0 -135 84.5 -219t218.5 -84q143 0 243.5 107.5t100.5 263.5q0 133 -84 216t-219 83 q-143 0 -243.5 -106t-100.5 -261zM643 1178l242 286h276l-315 -286h-203z" />
<glyph unicode="&#xf4;" horiz-adv-x="1249" d="M162 475q0 110 42.5 212t116 178t178.5 121.5t224 45.5q232 0 378 -143t146 -359q0 -148 -72 -275.5t-202.5 -204.5t-290.5 -77q-229 0 -374.5 143.5t-145.5 358.5zM381 471q0 -135 84.5 -219t218.5 -84q143 0 243.5 107.5t100.5 263.5q0 133 -84 216t-219 83 q-143 0 -243.5 -106t-100.5 -261zM442 1178l283 286h221l191 -286h-195l-119 176l-172 -176h-209z" />
<glyph unicode="&#xf5;" horiz-adv-x="1249" d="M162 475q0 110 42.5 212t116 178t178.5 121.5t224 45.5q232 0 378 -143t146 -359q0 -148 -72 -275.5t-202.5 -204.5t-290.5 -77q-229 0 -374.5 143.5t-145.5 358.5zM381 471q0 -135 84.5 -219t218.5 -84q143 0 243.5 107.5t100.5 263.5q0 133 -84 216t-219 83 q-143 0 -243.5 -106t-100.5 -261zM475 1206q21 111 85.5 181.5t154.5 70.5q49 0 96 -26.5t89 -53t81 -26.5q78 0 106 96h119q-18 -106 -83 -179t-152 -73q-41 0 -80 16.5t-65.5 37t-60 37t-63.5 16.5q-76 0 -106 -97h-121z" />
<glyph unicode="&#xf6;" horiz-adv-x="1249" d="M162 475q0 110 42.5 212t116 178t178.5 121.5t224 45.5q232 0 378 -143t146 -359q0 -148 -72 -275.5t-202.5 -204.5t-290.5 -77q-229 0 -374.5 143.5t-145.5 358.5zM381 471q0 -135 84.5 -219t218.5 -84q143 0 243.5 107.5t100.5 263.5q0 133 -84 216t-219 83 q-143 0 -243.5 -106t-100.5 -261zM477 1327q0 51 36.5 87t88.5 36q51 0 86 -36t35 -87t-35 -87t-86 -36q-52 0 -88.5 36t-36.5 87zM901 1327q0 51 37 87t88 36t86 -36t35 -87t-35 -87t-86 -36t-88 36t-37 87z" />
<glyph unicode="&#xf7;" horiz-adv-x="1212" d="M195 573l32 199h981l-32 -199h-981zM469 231q0 60 41 102t102 42q60 0 102 -42t42 -102q0 -61 -42 -103t-102 -42q-61 0 -102 41.5t-41 103.5zM635 1112q0 60 41.5 101.5t101.5 41.5t102 -41.5t42 -101.5q0 -61 -42 -103t-102 -42t-101.5 42t-41.5 103z" />
<glyph unicode="&#xf8;" horiz-adv-x="1275" d="M117 0l162 160q-105 133 -105 315q0 110 42.5 212t116 178t178.5 121.5t224 45.5q186 0 324 -98l74 72h186l-164 -164q105 -134 105 -312q0 -110 -43 -212t-116.5 -178t-180 -121.5t-226.5 -45.5q-182 0 -319 97l-70 -70h-188zM393 471q0 -90 39 -160l481 477 q-79 50 -176 50q-143 0 -243.5 -106t-100.5 -261zM522 215q74 -47 174 -47q143 0 243.5 107.5t100.5 263.5q0 83 -36 153z" />
<glyph unicode="&#xf9;" horiz-adv-x="1251" d="M188 307q0 39 17 150l86 549h221l-82 -510q-12 -70 -12 -115q0 -97 57 -149t148 -52q88 0 170.5 49t132.5 115l106 662h221l-159 -1006h-222l21 125q-152 -152 -367 -152q-156 0 -247 91t-91 243zM520 1464h273l147 -286h-199z" />
<glyph unicode="&#xfa;" horiz-adv-x="1251" d="M188 307q0 39 17 150l86 549h221l-82 -510q-12 -70 -12 -115q0 -97 57 -149t148 -52q88 0 170.5 49t132.5 115l106 662h221l-159 -1006h-222l21 125q-152 -152 -367 -152q-156 0 -247 91t-91 243zM672 1178l241 286h277l-316 -286h-202z" />
<glyph unicode="&#xfb;" horiz-adv-x="1251" d="M188 307q0 39 17 150l86 549h221l-82 -510q-12 -70 -12 -115q0 -97 57 -149t148 -52q88 0 170.5 49t132.5 115l106 662h221l-159 -1006h-222l21 125q-152 -152 -367 -152q-156 0 -247 91t-91 243zM446 1178l283 286h221l191 -286h-195l-119 176l-172 -176h-209z" />
<glyph unicode="&#xfc;" horiz-adv-x="1251" d="M188 307q0 39 17 150l86 549h221l-82 -510q-12 -70 -12 -115q0 -97 57 -149t148 -52q88 0 170.5 49t132.5 115l106 662h221l-159 -1006h-222l21 125q-152 -152 -367 -152q-156 0 -247 91t-91 243zM492 1327q0 51 36 87t88 36q51 0 86 -36t35 -87t-35 -87t-86 -36 q-52 0 -88 36t-36 87zM915 1327q0 51 37 87t88 36t86 -36t35 -87t-35 -87t-86 -36t-88 36t-37 87z" />
<glyph unicode="&#xfd;" horiz-adv-x="1173" d="M31 -383l30 197q66 -39 138 -39q89 0 160.5 63.5t146.5 198.5l-309 969h229l217 -734l395 734h238l-641 -1133q-87 -151 -191 -222t-243 -71q-98 0 -170 37zM635 1178l242 286h276l-315 -286h-203z" />
<glyph unicode="&#xfe;" horiz-adv-x="1314" d="M94 -410l293 1844h223l-92 -560q151 158 363 158q97 0 179 -37.5t137 -102t85.5 -150.5t30.5 -183q0 -113 -38 -218t-106.5 -187t-172 -131.5t-224.5 -49.5q-126 0 -221.5 53t-147.5 126l-88 -562h-221zM434 342q32 -67 118.5 -120.5t188.5 -53.5q144 0 245 106.5 t101 262.5q0 134 -79.5 217.5t-208.5 83.5q-90 0 -178.5 -51.5t-137.5 -127.5z" />
<glyph unicode="&#xff;" horiz-adv-x="1173" d="M31 -383l30 197q66 -39 138 -39q89 0 160.5 63.5t146.5 198.5l-309 969h229l217 -734l395 734h238l-641 -1133q-87 -151 -191 -222t-243 -71q-98 0 -170 37zM428 1327q0 51 36.5 87t88.5 36q51 0 86 -36t35 -87t-35 -87t-86 -36q-52 0 -88.5 36t-36.5 87zM852 1327 q0 51 37 87t88 36t86 -36t35 -87t-35 -87t-86 -36t-88 36t-37 87z" />
<glyph unicode="&#x152;" horiz-adv-x="2314" d="M233 651q0 168 63 313t173 248.5t267 162.5t339 59h1340l-33 -207h-780l-58 -359h633l-33 -206h-631l-71 -455h805l-33 -207h-1270q-322 0 -516.5 179.5t-194.5 471.5zM465 651q0 -194 130.5 -319t354.5 -125h264l162 1020h-319q-266 0 -429 -158.5t-163 -417.5z" />
<glyph unicode="&#x153;" horiz-adv-x="2009" d="M162 475q0 148 71.5 275.5t201 204.5t288.5 77q134 0 241.5 -51.5t176.5 -142.5q76 91 184.5 142.5t237.5 51.5q139 0 242.5 -61.5t153.5 -158.5t50 -214q0 -92 -12 -160h-776q1 -88 50 -150t126 -91t174 -29q169 0 321 84l-28 -193q-122 -86 -338 -86q-134 0 -245 50 t-181 139q-76 -88 -184.5 -138.5t-235.5 -50.5q-229 0 -373.5 143.5t-144.5 358.5zM381 471q0 -135 84.5 -219t218.5 -84q143 0 243.5 107.5t100.5 263.5q0 133 -84 216t-219 83q-143 0 -243.5 -106t-100.5 -261zM1235 606h561v23q0 92 -66 154.5t-180 62.5q-115 0 -202 -66 t-113 -174z" />
<glyph unicode="&#x178;" horiz-adv-x="1402" d="M258 1434h254l319 -580l504 580h260l-677 -779l-103 -655h-225l102 649zM594 1702q0 54 37 90.5t90 36.5t89 -36.5t36 -90.5q0 -53 -36.5 -90t-88.5 -37q-53 0 -90 37.5t-37 89.5zM1030 1702q0 54 37 90.5t90 36.5t89 -36.5t36 -90.5q0 -53 -36.5 -90t-88.5 -37 q-53 0 -90 37.5t-37 89.5z" />
<glyph unicode="&#x2c6;" horiz-adv-x="1097" d="M383 1178l283 286h221l190 -286h-194l-119 176l-172 -176h-209z" />
<glyph unicode="&#x2dc;" horiz-adv-x="1052" d="M367 1206q21 111 85 181.5t154 70.5q49 0 96 -26.5t89 -53t81 -26.5q79 0 107 96h119q-18 -106 -83.5 -179t-152.5 -73q-41 0 -80 16.5t-65 37t-59.5 37t-63.5 16.5q-77 0 -107 -97h-120z" />
<glyph unicode="&#x2000;" horiz-adv-x="954" />
<glyph unicode="&#x2001;" horiz-adv-x="1909" />
<glyph unicode="&#x2002;" horiz-adv-x="954" />
<glyph unicode="&#x2003;" horiz-adv-x="1909" />
<glyph unicode="&#x2004;" horiz-adv-x="636" />
<glyph unicode="&#x2005;" horiz-adv-x="477" />
<glyph unicode="&#x2006;" horiz-adv-x="318" />
<glyph unicode="&#x2007;" horiz-adv-x="318" />
<glyph unicode="&#x2008;" horiz-adv-x="238" />
<glyph unicode="&#x2009;" horiz-adv-x="381" />
<glyph unicode="&#x200a;" horiz-adv-x="106" />
<glyph unicode="&#x2010;" horiz-adv-x="1015" d="M279 465l30 199h604l-30 -199h-604z" />
<glyph unicode="&#x2011;" horiz-adv-x="1015" d="M279 465l30 199h604l-30 -199h-604z" />
<glyph unicode="&#x2012;" horiz-adv-x="1015" d="M279 465l30 199h604l-30 -199h-604z" />
<glyph unicode="&#x2013;" horiz-adv-x="1548" d="M279 465l30 199h1137l-31 -199h-1136z" />
<glyph unicode="&#x2014;" horiz-adv-x="1878" d="M279 465l30 199h1467l-31 -199h-1466z" />
<glyph unicode="&#x2018;" horiz-adv-x="479" d="M156 860l342 574h180l-260 -574h-262z" />
<glyph unicode="&#x2019;" horiz-adv-x="479" d="M156 860l260 574h262l-342 -574h-180z" />
<glyph unicode="&#x201a;" horiz-adv-x="550" d="M-25 -311l261 573h262l-342 -573h-181z" />
<glyph unicode="&#x201c;" horiz-adv-x="860" d="M154 860l342 574h180l-260 -574h-262zM535 860l342 574h180l-260 -574h-262z" />
<glyph unicode="&#x201d;" horiz-adv-x="860" d="M156 860l260 574h262l-342 -574h-180zM537 860l260 574h262l-342 -574h-180z" />
<glyph unicode="&#x201e;" horiz-adv-x="931" d="M-25 -311l261 573h262l-342 -573h-181zM356 -311l260 573h263l-342 -573h-181z" />
<glyph unicode="&#x2022;" horiz-adv-x="843" d="M264 788q0 111 78 190t188 79t188.5 -79.5t78.5 -189.5q0 -108 -78.5 -186t-188.5 -78t-188 78t-78 186z" />
<glyph unicode="&#x2026;" horiz-adv-x="1460" d="M131 129q0 59 42 101t103 42q59 0 101.5 -42.5t42.5 -100.5q0 -61 -42.5 -103t-101.5 -42q-62 0 -103.5 42t-41.5 103zM604 129q0 59 42.5 101t103.5 42q58 0 100.5 -42t42.5 -101q0 -61 -42 -103t-101 -42q-62 0 -104 42t-42 103zM1075 129q0 59 42.5 101t103.5 42 q59 0 101 -42t42 -101q0 -61 -42 -103t-101 -42q-62 0 -104 42t-42 103z" />
<glyph unicode="&#x202f;" horiz-adv-x="381" />
<glyph unicode="&#x2039;" horiz-adv-x="714" d="M141 446l19 113l350 371h229l-401 -438l262 -414h-221z" />
<glyph unicode="&#x203a;" horiz-adv-x="714" d="M115 78l401 438l-262 414h221l238 -371l-19 -113l-350 -368h-229z" />
<glyph unicode="&#x205f;" horiz-adv-x="477" />
<glyph unicode="&#x20ac;" horiz-adv-x="1390" d="M152 496l24 159h154q0 83 16 168h-141l24 160h160q85 223 273 350t432 127q218 0 364 -98l-41 -211q-141 100 -323 100q-159 0 -279 -69t-186 -199h479l-25 -160h-510q-14 -71 -14 -168h496l-25 -159h-457q25 -109 90 -181t150.5 -102.5t192.5 -30.5q210 0 352 111 l-35 -230q-140 -90 -354 -90q-114 0 -216.5 33t-187 96t-143 164t-80.5 230h-190z" />
<glyph unicode="&#x2122;" horiz-adv-x="1400" d="M240 1323l18 111h530l-18 -111h-205l-82 -524h-127l82 524h-198zM795 799l100 635h115l151 -260l232 260h123l-101 -635h-127l70 438l-184 -197h-64l-121 199l-69 -440h-125z" />
<glyph unicode="&#x25fc;" horiz-adv-x="1003" d="M0 0v1004h1004v-1004h-1004z" />
</font>
</defs>
</svg>
