<?xml version="1.0" standalone="no"?>
<!DOCTYPE svg PUBLIC "-//W3C//DTD SVG 1.1//EN" "http://www.w3.org/Graphics/SVG/1.1/DTD/svg11.dtd" >
<svg xmlns="http://www.w3.org/2000/svg" xmlns:xlink="http://www.w3.org/1999/xlink" version="1.1">
<metadata></metadata>
<defs>
<font id="geometria_extraboldextrabold" horiz-adv-x="1695" >
<font-face units-per-em="2048" ascent="1589" descent="-459" />
<missing-glyph horiz-adv-x="516" />
<glyph unicode="&#xfb01;" horiz-adv-x="1499" d="M31 750h174v-750h362v750h430v-750h363v1040h-793v19q0 110 125 110q98 0 178 -30v278q-121 45 -284 45q-190 0 -285.5 -102t-95.5 -264v-56h-174v-290zM973 1343q0 88 60.5 148.5t146.5 60.5q88 0 148.5 -60.5t60.5 -148.5t-60.5 -148t-148.5 -60q-86 0 -146.5 60.5 t-60.5 147.5z" />
<glyph unicode="&#xfb02;" horiz-adv-x="1556" d="M31 750v290h174v56q0 162 95.5 264t285.5 102q163 0 284 -45v-278q-80 30 -178 30q-125 0 -125 -110v-19h430v394h363v-1072q0 -41 21.5 -60t52.5 -19q33 0 61 14v-285q-77 -39 -201 -39q-297 0 -297 303v474h-430v-750h-362v750h-174z" />
<glyph unicode="&#xfb03;" horiz-adv-x="2273" d="M31 750h174v-750h362v750h430v-750h363v750h430v-750h362v1040h-792v19q0 110 125 110q98 0 178 -30v278q-121 45 -285 45q-190 0 -285.5 -102t-95.5 -264v-56h-430v19q0 110 125 110q98 0 178 -30v278q-121 45 -284 45q-190 0 -285.5 -102t-95.5 -264v-56h-174v-290z M1763 1343q0 88 60.5 148.5t146.5 60.5q88 0 148.5 -60.5t60.5 -148.5t-60.5 -148t-148.5 -60q-86 0 -146.5 60.5t-60.5 147.5z" />
<glyph unicode="&#xfb04;" horiz-adv-x="2349" d="M31 750v290h174v56q0 162 95.5 264t285.5 102q163 0 284 -45v-278q-80 30 -178 30q-125 0 -125 -110v-19h430v56q0 162 95.5 264t285.5 102q164 0 285 -45v-278q-80 30 -178 30q-125 0 -125 -110v-19h430v394h362v-1072q0 -41 21.5 -60t52.5 -19q34 0 62 14v-285 q-77 -39 -201 -39q-297 0 -297 303v474h-430v-750h-363v750h-430v-750h-362v750h-174z" />
<glyph horiz-adv-x="0" />
<glyph horiz-adv-x="682" />
<glyph unicode=" "  horiz-adv-x="516" />
<glyph unicode="&#x09;" horiz-adv-x="516" />
<glyph unicode="&#xa0;" horiz-adv-x="516" />
<glyph unicode="!" horiz-adv-x="739" d="M121 1434h497l-83 -938h-330zM154 186q0 91 63 154t152 63t152 -63t63 -154q0 -89 -63 -152t-152 -63t-152 63t-63 152z" />
<glyph unicode="&#x22;" horiz-adv-x="843" d="M51 778v656h311v-656h-311zM481 778v656h312v-656h-312z" />
<glyph unicode="#" horiz-adv-x="1642" d="M72 317l45 277h276l39 246h-276l43 276h278l49 318h281l-49 -318h256l49 318h280l-49 -318h277l-45 -276h-277l-39 -246h279l-45 -277h-277l-51 -317h-280l51 317h-256l-51 -317h-281l51 317h-278zM674 594h256l39 246h-256z" />
<glyph unicode="$" horiz-adv-x="1302" d="M88 125v377q91 -81 247.5 -139t293.5 -58q42 0 78.5 5.5t69.5 17.5t52 35t19 55q0 19 -5.5 34.5t-21 29t-28.5 22t-43.5 19.5t-49 16.5t-62.5 18.5t-67 20q-187 58 -265 98q-166 88 -205 243q-13 52 -13 113q0 175 110.5 282.5t305.5 135.5v203h315v-205 q163 -26 318 -105v-354q-94 58 -227 98.5t-255 40.5q-188 0 -188 -94q0 -21 14 -36.5t46.5 -28.5t64.5 -22.5t92 -26.5t104 -31q77 -25 135.5 -50.5t118.5 -65t99 -86t63.5 -112t24.5 -143.5q0 -171 -111.5 -287.5t-298.5 -154.5v-209h-315v199q-244 26 -416 145z" />
<glyph unicode="%" horiz-adv-x="1677" d="M31 1092q0 152 104.5 254t265.5 102t266 -102t105 -254t-105 -254.5t-266 -102.5t-265.5 102.5t-104.5 254.5zM270 1092q0 -59 37.5 -99.5t93.5 -40.5t93.5 40.5t37.5 99.5t-37 99t-94 40t-94 -40t-37 -99zM285 0l866 1434h244l-867 -1434h-243zM905 342q0 152 105 254 t266 102t266 -102t105 -254t-105 -254t-266 -102t-266 102t-105 254zM1145 342q0 -59 37 -99t94 -40t94 40t37 99t-37 99t-94 40t-94 -40t-37 -99z" />
<glyph unicode="&#x26;" horiz-adv-x="1583" d="M66 444q0 74 23 142t60 117.5t77 85.5t81 57q-71 109 -71 227q0 168 120.5 278.5t317.5 110.5q222 0 395 -100v-336q-157 127 -324 127q-68 0 -108.5 -27t-40.5 -82q0 -33 26 -75t54 -73t78 -79l260 -260q42 82 49 236h332q-9 -262 -144 -474l322 -319h-443l-98 92 q-180 -121 -403 -121q-119 0 -221 31t-178.5 89.5t-120 149.5t-43.5 203zM420 467q0 -85 62.5 -135.5t160.5 -50.5q88 0 152 43l-291 297q-35 -20 -59.5 -61.5t-24.5 -92.5z" />
<glyph unicode="'" horiz-adv-x="413" d="M51 778v656h311v-656h-311z" />
<glyph unicode="(" horiz-adv-x="841" d="M133 512q0 264 74 506.5t219 427.5h369q-328 -419 -328 -934t328 -934h-369q-145 185 -219 427.5t-74 506.5z" />
<glyph unicode=")" horiz-adv-x="841" d="M47 -422q328 419 328 934t-328 934h369q145 -185 219 -427.5t74 -506.5t-74 -506.5t-219 -427.5h-369z" />
<glyph unicode="*" horiz-adv-x="858" d="M47 946l201 105l-201 104l100 174l191 -123l-8 228h198l-8 -228l191 123l100 -174l-201 -104l201 -105l-100 -174l-191 121l8 -225h-198l8 225l-191 -121z" />
<glyph unicode="+" horiz-adv-x="1339" d="M133 514v320h377v378h319v-378h377v-320h-377v-377h-319v377h-377z" />
<glyph unicode="," horiz-adv-x="669" d="M43 -311l184 671h369l-264 -671h-289z" />
<glyph unicode="-" horiz-adv-x="1050" d="M195 414v319h661v-319h-661z" />
<glyph unicode="." horiz-adv-x="573" d="M72 188q0 89 63 152t152 63t152 -63t63 -152q0 -91 -63 -154t-152 -63t-152 63t-63 154z" />
<glyph unicode="/" horiz-adv-x="1118" d="M-57 -287l862 1909h342l-862 -1909h-342z" />
<glyph unicode="0" horiz-adv-x="1445" d="M90 717q0 144 41.5 276.5t119 237.5t200 168t272.5 63q121 0 225 -41t178 -112t126.5 -166t78 -203t25.5 -223q0 -144 -41.5 -276.5t-118.5 -238t-199.5 -168.5t-273.5 -63q-150 0 -272.5 63t-200 168.5t-119 238t-41.5 276.5zM459 717q0 -106 28.5 -197t90 -151 t145.5 -60q85 0 146.5 60.5t89.5 150.5t28 197t-28 197t-89.5 150t-146.5 60q-84 0 -145.5 -60t-90 -150.5t-28.5 -196.5z" />
<glyph unicode="1" horiz-adv-x="821" d="M29 909v355l336 170h319v-1434h-362v1044z" />
<glyph unicode="2" horiz-adv-x="1191" d="M66 0v266l387 344q136 121 187.5 197.5t51.5 155.5q0 73 -56 117t-147 44q-192 0 -374 -151v368q172 121 413 121q80 0 157.5 -19t145 -58t119 -92t81.5 -127t30 -158q0 -152 -67 -269t-236 -270l-174 -156h522v-313h-1040z" />
<glyph unicode="3" horiz-adv-x="1191" d="M78 90v342q214 -137 428 -137q104 0 174 51.5t70 140.5q0 80 -62 132.5t-168 52.5q-129 0 -225 -49v239l303 262h-481v310h936v-277l-279 -246q42 -12 84 -31t91 -54.5t85.5 -80.5t61 -112.5t24.5 -145.5q0 -158 -81.5 -277t-215.5 -179t-299 -60q-253 0 -446 119z" />
<glyph unicode="4" horiz-adv-x="1325" d="M37 340v258l684 836h364v-807h199v-287h-199v-340h-358v340h-690zM426 627h301v360z" />
<glyph unicode="5" horiz-adv-x="1198" d="M82 74v342q195 -121 397 -121q52 0 97.5 10t84 32t60.5 60t22 90q0 89 -71.5 141t-200.5 52q-152 0 -344 -66l94 820h795v-314h-522l-19 -157q50 8 88 8q242 0 396.5 -132.5t154.5 -351.5q0 -126 -50 -226t-136 -162.5t-196 -95t-234 -32.5q-235 0 -416 103z" />
<glyph unicode="6" horiz-adv-x="1308" d="M96 643q0 126 24.5 243t77.5 222.5t130.5 183.5t191 124t250.5 46q193 0 334 -92v-326q-136 95 -291 95q-142 0 -234 -83t-104 -212q115 112 289 112q128 0 230.5 -55t163.5 -163t61 -253q0 -152 -71 -270t-193 -181t-273 -63q-279 0 -432.5 181t-153.5 491zM459 551 q0 -131 55.5 -201.5t144.5 -70.5q86 0 139.5 54t53.5 142q0 85 -52.5 143t-137.5 58q-63 0 -116 -32.5t-87 -92.5z" />
<glyph unicode="7" horiz-adv-x="1181" d="M63 1112v322h1047v-287l-575 -1147h-392l553 1112h-633z" />
<glyph unicode="8" horiz-adv-x="1302" d="M68 414q0 117 74 213.5t182 134.5q-85 37 -140 118t-55 175q0 120 69 213.5t187.5 143.5t265.5 50t266 -50t188 -143.5t69 -213.5q0 -94 -55 -175t-140 -118q108 -38 182 -134.5t74 -213.5q0 -141 -83 -243.5t-213 -151t-288 -48.5q-117 0 -221 28.5t-185.5 82.5 t-129 140t-47.5 192zM442 444q0 -70 59.5 -117.5t149.5 -47.5t149.5 47.5t59.5 117.5q0 72 -59.5 120t-149.5 48t-149.5 -48t-59.5 -120zM477 1016q0 -61 50 -101.5t124 -40.5q73 0 123.5 40.5t50.5 101.5q0 62 -50.5 102.5t-123.5 40.5q-74 0 -124 -40.5t-50 -102.5z" />
<glyph unicode="9" horiz-adv-x="1308" d="M90 948q0 152 71 270t193 181t273 63q279 0 432 -180t153 -491q0 -126 -24.5 -243t-77.5 -222.5t-130 -184t-190.5 -124.5t-250.5 -46q-193 0 -334 92v326q134 -94 291 -94q142 0 234 83t104 212q-116 -113 -289 -113q-128 0 -230.5 55t-163.5 163t-61 253zM457 958 q0 -85 52.5 -142.5t137.5 -57.5q63 0 116 32.5t87 92.5q0 131 -55.5 201.5t-145.5 70.5q-86 0 -139 -54.5t-53 -142.5z" />
<glyph unicode=":" horiz-adv-x="573" d="M72 188q0 89 63 152t152 63t152 -63t63 -152q0 -91 -63 -154t-152 -63t-152 63t-63 154zM72 819q0 89 63 152t152 63t152 -63t63 -152q0 -91 -63 -154t-152 -63t-152 63t-63 154z" />
<glyph unicode=";" horiz-adv-x="675" d="M43 -311l184 671h369l-264 -671h-289zM172 819q0 89 63 152t152 63t152 -63t63 -152q0 -91 -63 -154t-152 -63t-152 63t-63 154z" />
<glyph unicode="&#x3c;" horiz-adv-x="1339" d="M133 512v342l1073 426v-350l-710 -246l710 -246v-352z" />
<glyph unicode="=" horiz-adv-x="1339" d="M133 281v323h1073v-323h-1073zM133 745v324h1073v-324h-1073z" />
<glyph unicode="&#x3e;" horiz-adv-x="1339" d="M133 86v352l711 246l-711 246v350l1073 -426v-342z" />
<glyph unicode="?" horiz-adv-x="1026" d="M47 1028v315q87 56 202 87.5t232 31.5q100 0 189.5 -26t161.5 -75.5t114.5 -131.5t42.5 -185q0 -78 -33 -148t-87.5 -120.5t-116.5 -86t-129 -56.5v-137h-344v305q85 16 158 43.5t127 74t54 99.5q0 44 -30 71.5t-71.5 37.5t-96.5 10q-104 0 -191 -29t-182 -80zM242 188 q0 89 63 152t152 63t152 -63t63 -152q0 -91 -63 -154t-152 -63t-152 63t-63 154z" />
<glyph unicode="@" horiz-adv-x="1906" d="M59 565q0 188 71 355t191 285.5t285 187.5t348 69q187 0 353.5 -66.5t284.5 -180t186.5 -269t68.5 -328.5q0 -239 -107.5 -377.5t-279.5 -138.5q-104 0 -185 38t-124 102q-42 -58 -119.5 -104t-187.5 -46q-180 0 -295 134t-115 335q0 202 115 335.5t291 133.5 q168 0 272 -123v101h293v-592q0 -102 35.5 -152.5t97.5 -50.5q85 0 153 107.5t68 297.5q0 152 -56.5 291t-158.5 244.5t-255 168t-335 62.5q-174 0 -325.5 -65t-256.5 -176t-165 -261t-60 -317q0 -170 59.5 -320.5t164.5 -260.5t256.5 -174t326.5 -64q233 0 451 129v-88 q-200 -119 -451 -119q-246 0 -450.5 113.5t-324.5 320t-120 463.5zM745 561q0 -88 52.5 -146.5t136.5 -58.5q59 0 106 27.5t72 69.5v217q-25 41 -71.5 68.5t-106.5 27.5q-84 0 -136.5 -58.5t-52.5 -146.5z" />
<glyph unicode="A" horiz-adv-x="1599" d="M20 0l603 1442h354l602 -1442h-395l-121 303h-533l-120 -303h-390zM647 598h299l-149 383z" />
<glyph unicode="B" horiz-adv-x="1458" d="M137 0v1434h699q197 0 321.5 -93t124.5 -270q0 -105 -51.5 -176t-116.5 -102q47 -11 93 -40.5t87 -75.5t66.5 -115.5t25.5 -149.5q0 -185 -140.5 -298.5t-371.5 -113.5h-737zM506 307h297q84 0 132 40t48 112q0 71 -48.5 112t-131.5 41h-297v-305zM506 885h274 q68 0 108 33t40 90q0 60 -40 93.5t-108 33.5h-274v-250z" />
<glyph unicode="C" horiz-adv-x="1376" d="M92 717q0 162 60.5 301.5t166 236.5t253 152t317.5 55q202 0 371 -82v-362q-84 52 -169 78t-198 26q-181 0 -301.5 -114.5t-120.5 -290.5q0 -179 123.5 -292.5t312.5 -113.5q226 0 377 115v-365q-175 -90 -393 -90q-226 0 -408 94t-286.5 265t-104.5 387z" />
<glyph unicode="D" horiz-adv-x="1593" d="M137 0v1434h572q173 0 320.5 -53t251 -147t162 -227.5t58.5 -289.5t-58.5 -289.5t-162 -227.5t-251 -147t-320.5 -53h-572zM506 324h176q209 0 323.5 102.5t114.5 290.5t-114.5 290.5t-323.5 102.5h-176v-786z" />
<glyph unicode="E" horiz-adv-x="1314" d="M137 0v1434h1090v-324h-721v-195h573v-311h-573v-280h737v-324h-1106z" />
<glyph unicode="F" horiz-adv-x="1298" d="M137 0v1434h1090v-324h-721v-209h538v-311h-538v-590h-369z" />
<glyph unicode="G" horiz-adv-x="1562" d="M92 717q0 162 60.5 301.5t166 236.5t252.5 152t316 55q136 0 228 -25.5t190 -76.5v-346q-195 108 -392 108q-196 0 -319 -113t-123 -298q0 -189 116 -300.5t285 -111.5q144 0 228 68v469h370v-637q-86 -95 -247.5 -161.5t-350.5 -66.5q-162 0 -305.5 55t-248 152 t-165.5 237t-61 302z" />
<glyph unicode="H" horiz-adv-x="1552" d="M137 0v1434h369v-510h541v510h368v-1434h-368v596h-541v-596h-369z" />
<glyph unicode="I" horiz-adv-x="659" d="M145 0v1434h369v-1434h-369z" />
<glyph unicode="J" horiz-adv-x="1052" d="M51 51v355q56 -42 131.5 -68.5t141.5 -26.5q121 0 181 54.5t60 183.5v885h369v-945q0 -118 -30 -209.5t-79 -148.5t-119 -94t-143.5 -51.5t-159.5 -14.5q-96 0 -193.5 19.5t-158.5 60.5z" />
<glyph unicode="K" horiz-adv-x="1505" d="M137 0v1434h369v-547l465 547h442l-555 -660l658 -774h-449l-561 637v-637h-369z" />
<glyph unicode="L" horiz-adv-x="1247" d="M137 0v1434h369v-1110h688v-324h-1057z" />
<glyph unicode="M" horiz-adv-x="1732" d="M137 0v1434h367l362 -551l365 551h364v-1434h-366v874l-256 -385h-203l-264 385v-874h-369z" />
<glyph unicode="N" horiz-adv-x="1576" d="M137 0v1434h316l626 -789v789h361v-1434h-305l-635 793v-793h-363z" />
<glyph unicode="O" d="M92 717q0 152 57 289t155.5 237.5t240 159.5t303.5 59t303.5 -59t240 -159.5t155.5 -237.5t57 -289q0 -151 -57 -288t-155.5 -238t-240.5 -160.5t-303 -59.5t-303 59.5t-240.5 160.5t-155.5 238t-57 288zM471 717q0 -175 107 -290.5t270 -115.5t270 115.5t107 290.5 t-107 290t-270 115t-270 -115t-107 -290z" />
<glyph unicode="P" horiz-adv-x="1345" d="M137 0v1434h639q239 0 380.5 -125.5t141.5 -323.5q0 -199 -141.5 -324.5t-380.5 -125.5h-270v-535h-369zM506 838h244q80 0 128 38t48 105t-47.5 104t-128.5 37h-244v-284z" />
<glyph unicode="Q" d="M92 717q0 152 57 289t155.5 237.5t240 159.5t303.5 59t303.5 -59t240 -159.5t155.5 -237.5t57 -289q0 -223 -117.5 -405.5t-315.5 -272.5q73 -88 195 -88q94 0 170 43v-305q-105 -47 -229 -47q-130 0 -256 74.5t-275 258.5q-198 16 -355 120t-243 267.5t-86 354.5z M471 717q0 -175 107 -290.5t270 -115.5t270 115.5t107 290.5t-107 290t-270 115t-270 -115t-107 -290z" />
<glyph unicode="R" horiz-adv-x="1492" d="M137 0v1434h674q236 0 376 -124t140 -319q0 -138 -73 -244.5t-205 -158.5l434 -588h-424l-406 547h-147v-547h-369zM506 848h285q76 0 119.5 35.5t43.5 99.5t-44 101.5t-119 37.5h-285v-274z" />
<glyph unicode="S" horiz-adv-x="1302" d="M88 125v377q91 -81 247.5 -139t293.5 -58q42 0 78.5 5.5t69.5 17.5t52 35t19 55q0 19 -5.5 34.5t-21 29t-28.5 22t-43.5 19.5t-49 16.5t-62.5 18.5t-67 20q-187 58 -265 98q-166 88 -205 243q-13 52 -13 113q0 208 152.5 319t410.5 111t486 -119v-354q-94 58 -227 98.5 t-255 40.5q-188 0 -188 -94q0 -21 14 -36.5t46.5 -28.5t64.5 -22.5t92 -26.5t104 -31q77 -25 135.5 -50.5t118.5 -65t99 -86t63.5 -112t24.5 -143.5q0 -141 -76 -246.5t-208.5 -160t-301.5 -54.5q-332 0 -555 154z" />
<glyph unicode="T" horiz-adv-x="1345" d="M57 1110v324h1231v-324h-432v-1110h-369v1110h-430z" />
<glyph unicode="U" horiz-adv-x="1495" d="M119 600v834h368v-852q0 -137 74 -204t187 -67q114 0 187 66.5t73 204.5v852h368v-834q0 -151 -49 -272t-134.5 -198.5t-199 -118t-245.5 -40.5t-245.5 40.5t-199.5 118t-135 198.5t-49 272z" />
<glyph unicode="V" horiz-adv-x="1568" d="M23 1434h407l356 -934l359 934h401l-588 -1442h-350z" />
<glyph unicode="W" horiz-adv-x="2228" d="M25 1434h411l242 -854l299 858h287l299 -858l241 854h404l-479 -1442h-324l-287 839l-291 -839h-327z" />
<glyph unicode="X" horiz-adv-x="1507" d="M-10 0l549 770l-467 664h430l254 -369l256 369h424l-467 -662l549 -772h-433l-335 477l-334 -477h-426z" />
<glyph unicode="Y" horiz-adv-x="1490" d="M10 1434h420l320 -473l321 473h410l-551 -791v-643h-369v635z" />
<glyph unicode="Z" horiz-adv-x="1314" d="M51 0v262l684 848h-657v324h1153v-260l-682 -850h715v-324h-1213z" />
<glyph unicode="[" horiz-adv-x="925" d="M145 -422v1868h709v-279h-381v-1310h381v-279h-709z" />
<glyph unicode="\" horiz-adv-x="1118" d="M-29 1622h342l863 -1909h-342z" />
<glyph unicode="]" horiz-adv-x="925" d="M72 -143h381v1310h-381v279h708v-1868h-708v279z" />
<glyph unicode="^" horiz-adv-x="1165" d="M51 686l361 850h342l360 -850h-340l-190 541l-191 -541h-342z" />
<glyph unicode="_" horiz-adv-x="1351" d="M6 -90h1340v-238h-1340v238z" />
<glyph unicode="`" horiz-adv-x="1069" d="M244 1491h428l194 -311h-301z" />
<glyph unicode="a" horiz-adv-x="1251" d="M41 319q0 87 36.5 154t96.5 105.5t129 57.5t143 19q159 0 265 -53v14q0 44 -16.5 76t-39.5 49t-58.5 26.5t-63.5 12t-64 2.5q-69 0 -155 -20.5t-148 -54.5v284q164 76 391 76q230 0 371 -113.5t141 -306.5v-315q0 -56 61 -56q37 0 60 13v-258q-30 -24 -82 -39t-102 -15 q-86 0 -152.5 30.5t-101.5 88.5q-129 -123 -332 -123q-171 0 -275 96.5t-104 249.5zM397 336q0 -55 42 -87t104 -32q51 0 95.5 23.5t72.5 66.5v109q-61 45 -152 45q-68 0 -115 -34t-47 -91z" />
<glyph unicode="b" horiz-adv-x="1333" d="M125 0v1434h362v-510q111 143 312 143q135 0 244 -71.5t170 -196.5t61 -279t-61 -279t-170 -196.5t-244 -71.5q-205 0 -312 144v-117h-362zM487 391q30 -48 83 -79t124 -31q97 0 158 68.5t61 170.5t-61 171t-158 69q-70 0 -123.5 -31t-83.5 -80v-258z" />
<glyph unicode="c" horiz-adv-x="1052" d="M59 522q0 129 49.5 235t131.5 172.5t183.5 102t211.5 35.5q96 0 164 -14t143 -49v-304q-69 29 -124 41.5t-126 12.5q-116 0 -196 -63t-80 -171t79.5 -171.5t194.5 -63.5q82 0 142 13.5t124 47.5v-301q-82 -39 -153.5 -55.5t-171.5 -16.5q-108 0 -209 36t-182.5 103 t-131 174t-49.5 236z" />
<glyph unicode="d" horiz-adv-x="1333" d="M59 520q0 154 61.5 279t170.5 196.5t244 71.5q200 0 311 -143v510h362v-1434h-362v117q-107 -144 -311 -144q-135 0 -244 71.5t-170.5 196.5t-61.5 279zM420 520q0 -102 61 -170.5t158 -68.5q71 0 124 31t83 79v258q-30 49 -83.5 80t-123.5 31q-97 0 -158 -69t-61 -171z " />
<glyph unicode="e" horiz-adv-x="1179" d="M59 520q0 113 39 212.5t109 174t174.5 117.5t228.5 43q221 0 361.5 -153t140.5 -392v-90h-696q16 -55 62.5 -92.5t107 -53.5t133.5 -16q171 0 334 90v-278q-69 -51 -179 -80t-235 -29q-116 0 -221 37.5t-185 105.5t-127 173t-47 231zM414 625h344q-3 77 -50.5 126.5 t-113.5 49.5q-71 0 -120.5 -47.5t-59.5 -128.5z" />
<glyph unicode="f" horiz-adv-x="911" d="M31 750v290h174v56q0 162 95.5 264t285.5 102q163 0 284 -45v-278q-80 30 -178 30q-125 0 -125 -110v-19h303v-290h-303v-750h-362v750h-174z" />
<glyph unicode="g" horiz-adv-x="1310" d="M59 555q0 221 129 366.5t332 145.5q190 0 316 -135v108h362v-895q0 -114 -37 -210t-98 -160.5t-142 -110t-167.5 -66t-175.5 -20.5q-123 0 -233 23.5t-179 64.5v316q167 -101 373 -101q41 0 78.5 5.5t78.5 22t71 42.5t49.5 70t19.5 102v53q-124 -133 -316 -133 q-203 0 -332 145.5t-129 366.5zM420 555q0 -90 56.5 -149.5t152.5 -59.5q69 0 123.5 27t83.5 69v226q-30 41 -84.5 68.5t-122.5 27.5q-96 0 -152.5 -59.5t-56.5 -149.5z" />
<glyph unicode="h" horiz-adv-x="1280" d="M125 0v1434h362v-510q135 143 316 143q173 0 272 -115.5t99 -312.5v-639h-363v571q0 92 -43 132t-106 40q-106 0 -175 -92v-651h-362z" />
<glyph unicode="i" horiz-adv-x="634" d="M109 1343q0 88 60 148.5t146 60.5q88 0 148.5 -60.5t60.5 -148.5t-60.5 -148t-148.5 -60q-86 0 -146 60t-60 148zM135 0v1040h363v-1040h-363z" />
<glyph unicode="j" horiz-adv-x="634" d="M-166 -82v-297q37 -21 107.5 -32t138.5 -11q199 0 309.5 113.5t110.5 310.5v1038h-363v-1007q0 -148 -151 -148q-81 0 -152 33zM109 1343q0 88 60 148.5t146 60.5q88 0 148.5 -60.5t60.5 -148.5t-60.5 -148t-148.5 -60q-86 0 -146 60t-60 148z" />
<glyph unicode="k" horiz-adv-x="1294" d="M125 0v1434h362v-762l310 368h428l-412 -467l479 -573h-452l-353 430v-430h-362z" />
<glyph unicode="l" horiz-adv-x="684" d="M125 276v1158h362v-1072q0 -41 21.5 -60t52.5 -19q34 0 62 14v-285q-77 -39 -201 -39q-297 0 -297 303z" />
<glyph unicode="m" horiz-adv-x="1910" d="M125 0v1040h362v-122q114 149 320 149q100 0 176 -53t111 -119q53 73 144.5 122.5t195.5 49.5q163 0 266.5 -106t103.5 -312v-649h-362v578q0 167 -131 167q-51 0 -95 -26t-69 -70v-649h-363v578q0 167 -131 167q-51 0 -95 -26t-71 -70v-649h-362z" />
<glyph unicode="n" horiz-adv-x="1280" d="M125 0v1040h362v-116q135 143 316 143q173 0 272 -115.5t99 -312.5v-639h-363v571q0 92 -43 132t-106 40q-106 0 -175 -92v-651h-362z" />
<glyph unicode="o" horiz-adv-x="1290" d="M59 520q0 232 166 389.5t420 157.5t420 -157.5t166 -389.5q0 -153 -74.5 -278t-209 -197t-302.5 -72t-302.5 72t-209 197t-74.5 278zM416 520q0 -102 64.5 -169.5t164.5 -67.5t164.5 67.5t64.5 169.5q0 101 -64.5 169.5t-164.5 68.5t-164.5 -68.5t-64.5 -169.5z" />
<glyph unicode="p" horiz-adv-x="1333" d="M125 -410v1450h362v-116q106 143 312 143q135 0 244 -71.5t170 -196.5t61 -279t-61 -279t-170 -196.5t-244 -71.5q-200 0 -312 144v-527h-362zM487 391q30 -48 83 -79t124 -31q97 0 158 68.5t61 170.5t-61 171t-158 69q-70 0 -123.5 -31t-83.5 -80v-258z" />
<glyph unicode="q" horiz-adv-x="1333" d="M59 520q0 154 61.5 279t170.5 196.5t244 71.5q205 0 311 -143v116h362v-1450h-362v527q-112 -144 -311 -144q-135 0 -244 71.5t-170.5 196.5t-61.5 279zM420 520q0 -102 61 -170.5t158 -68.5q71 0 124 31t83 79v258q-30 49 -83.5 80t-123.5 31q-97 0 -158 -69t-61 -171z " />
<glyph unicode="r" horiz-adv-x="927" d="M125 0v1040h362v-170q37 71 133.5 134t208.5 63q29 0 45 -4v-350q-66 16 -122 16q-93 0 -164 -34.5t-101 -90.5v-604h-362z" />
<glyph unicode="s" horiz-adv-x="1060" d="M76 735q0 155 127 243.5t350 88.5q107 0 214 -27t179 -71v-295q-76 47 -178 79.5t-201 32.5q-116 0 -116 -53q0 -15 11 -26.5t36.5 -20t48.5 -14.5t65.5 -15t69.5 -16q166 -42 242.5 -119t76.5 -213q0 -149 -127.5 -242.5t-347.5 -93.5q-133 0 -249.5 24t-190.5 69v305 q64 -44 181 -78.5t243 -34.5q127 0 127 51q0 15 -9.5 26t-36 21.5t-47 16.5t-69.5 18.5t-76 20.5q-90 25 -145.5 49.5t-98.5 61.5t-61 88t-18 124z" />
<glyph unicode="t" horiz-adv-x="919" d="M31 750v290h182v267h362v-267h265v-290h-265v-338q0 -67 28 -96t93 -29q74 0 144 37v-289q-99 -62 -267 -62q-160 0 -260 87.5t-100 252.5v437h-182z" />
<glyph unicode="u" horiz-adv-x="1280" d="M106 401v639h363v-571q0 -92 43 -132t106 -40q106 0 175 92v651h362v-1040h-362v117q-136 -144 -316 -144q-173 0 -272 115.5t-99 312.5z" />
<glyph unicode="v" horiz-adv-x="1232" d="M12 1040h385l226 -598l225 598h373l-441 -1048h-327z" />
<glyph unicode="w" horiz-adv-x="1705" d="M20 1040h359l166 -530l166 534h286l170 -534l162 530h357l-347 -1048h-311l-182 534l-176 -534h-310z" />
<glyph unicode="x" horiz-adv-x="1222" d="M20 0l375 537l-348 503h395l170 -258l170 258h394l-349 -501l373 -539h-399l-193 287l-194 -287h-394z" />
<glyph unicode="y" horiz-adv-x="1247" d="M20 1040h386l231 -626l217 626h377l-465 -1144q-130 -318 -432 -318q-64 0 -129 14t-103 33v312q79 -50 168 -50q70 0 115.5 34.5t77.5 113.5z" />
<glyph unicode="z" horiz-adv-x="1105" d="M61 0v240l463 508h-436v292h920v-247l-471 -500h503v-293h-979z" />
<glyph unicode="{" horiz-adv-x="888" d="M100 373v278q95 10 126.5 63t31.5 165v194q0 169 101 271t272 102h186v-279h-108q-56 0 -89.5 -36t-33.5 -91v-272q0 -208 -176 -256q176 -51 176 -256v-272q0 -56 33.5 -91.5t89.5 -35.5h108v-279h-186q-171 0 -272 101t-101 272v194q0 112 -31.5 165t-126.5 63z" />
<glyph unicode="|" horiz-adv-x="741" d="M215 -227v1783h311v-1783h-311z" />
<glyph unicode="}" horiz-adv-x="888" d="M72 -143h108q56 0 89.5 35.5t33.5 91.5v272q0 205 176 256q-176 48 -176 256v272q0 55 -33.5 91t-89.5 36h-108v279h186q171 0 272 -102t101 -271v-194q0 -113 31 -165.5t126 -62.5v-278q-95 -10 -126 -62.5t-31 -165.5v-194q0 -171 -101 -272t-272 -101h-186v279z" />
<glyph unicode="~" horiz-adv-x="1339" d="M133 330v321q31 39 102 64.5t152 25.5q72 0 148.5 -18t133 -39t133 -39t148.5 -18q161 0 256 98v-324q-33 -39 -103.5 -63.5t-152.5 -24.5q-71 0 -147.5 17.5t-133 39t-133.5 39t-149 17.5q-161 0 -254 -96z" />
<glyph unicode="&#xa1;" horiz-adv-x="739" d="M121 -410l84 953h330l83 -953h-497zM154 852q0 89 63 152t152 63t152 -63t63 -152q0 -91 -63 -154t-152 -63t-152 63t-63 154z" />
<glyph unicode="&#xa2;" horiz-adv-x="1052" d="M59 522q0 203 113 338t289 182v236h303v-219q82 -11 178 -55v-304q-69 29 -124 41.5t-126 12.5q-116 0 -196 -63t-80 -171t79.5 -171.5t194.5 -63.5q82 0 142 13.5t124 47.5v-301q-97 -47 -192 -61v-224h-303v236h2q-175 47 -289.5 184t-114.5 342z" />
<glyph unicode="&#xa3;" horiz-adv-x="1200" d="M61 0v324h62q117 0 117 131v110h-179v269h179v127q0 234 146 367.5t396 133.5q189 0 326 -63v-338q-142 61 -264 61q-236 0 -236 -213v-75h410v-269h-410v-112q0 -44 -16 -76t-32 -43l-15 -10h604v-324h-1088z" />
<glyph unicode="&#xa4;" horiz-adv-x="1198" d="M72 344l135 135q-68 111 -68 240q0 128 68 239l-135 136l151 153l135 -135q114 68 240 68q129 0 240 -68l137 135l151 -153l-135 -136q68 -111 68 -239q0 -129 -68 -240l135 -135l-151 -154l-137 136q-111 -68 -240 -68q-126 0 -240 68l-135 -136zM414 719q0 -77 54 -132 t130 -55q78 0 132 55t54 132t-54 131.5t-132 54.5q-76 0 -130 -54.5t-54 -131.5z" />
<glyph unicode="&#xa5;" horiz-adv-x="1429" d="M10 1434h389l320 -484l321 484h379l-434 -609h301v-225h-387v-123h387v-225h-387v-252h-369v252h-387v225h387v123h-387v225h297z" />
<glyph unicode="&#xa6;" horiz-adv-x="741" d="M215 -227v723h311v-723h-311zM215 834v722h311v-722h-311z" />
<glyph unicode="&#xa7;" horiz-adv-x="1327" d="M51 582q0 171 187 258q-101 98 -101 237q0 183 154.5 284t400.5 101q140 0 264 -32.5t201 -71.5v-318q-100 51 -229 87t-248 36q-166 0 -166 -80q0 -15 7 -27.5t24 -23.5t35 -19t49 -17.5t57 -17t69.5 -19t75.5 -21.5q78 -24 136 -46.5t119.5 -57.5t100.5 -75.5t64 -98.5 t25 -128q0 -89 -50.5 -154t-135.5 -104q100 -97 100 -237q0 -183 -154.5 -284t-402.5 -101q-139 0 -262.5 32.5t-200.5 71.5v318q100 -51 229 -87t248 -36q166 0 166 80q0 15 -7 27.5t-24 23.5t-35 19t-49 17.5t-57 17t-69.5 19t-75.5 21.5q-78 24 -136 46.5t-119.5 57.5 t-100.5 75.5t-64 98.5t-25 128zM387 610q0 -17 7 -31t25.5 -26.5t34.5 -21t50 -20t54.5 -17.5t66 -18.5t67.5 -18.5q136 -43 154 -49q94 23 94 94q0 17 -7 31.5t-25.5 27t-34.5 21.5t-50 20.5t-54.5 17.5t-66 18.5t-67.5 18.5q-111 35 -154 50q-94 -23 -94 -97z" />
<glyph unicode="&#xa8;" horiz-adv-x="1069" d="M139 1337q0 73 52.5 124.5t125.5 51.5q75 0 127 -51t52 -125t-52 -126t-127 -52q-72 0 -125 52.5t-53 125.5zM604 1337q0 73 52 124.5t126 51.5t126.5 -51.5t52.5 -124.5t-52.5 -125.5t-126.5 -52.5t-126 52.5t-52 125.5z" />
<glyph unicode="&#xa9;" horiz-adv-x="1667" d="M92 717q0 149 58.5 286t157 238t237 161t291.5 60t290.5 -59.5t235.5 -159.5t155.5 -237.5t57.5 -288.5q0 -149 -58.5 -286.5t-157 -238t-237 -161t-291.5 -60.5t-290.5 59.5t-235.5 160t-155.5 238t-57.5 288.5zM172 713q0 -136 50.5 -258.5t137.5 -212t210 -142.5 t261 -53q139 0 263 53.5t211.5 144t138.5 215t51 261.5q0 182 -85.5 334t-237 241.5t-336.5 89.5t-338 -90.5t-239.5 -245t-86.5 -337.5zM451 717q0 172 126.5 291.5t315.5 119.5q119 0 205 -45v-202q-93 59 -205 59q-98 0 -164.5 -63t-66.5 -160q0 -98 68.5 -160.5 t172.5 -62.5q125 0 209 63v-203q-94 -51 -219 -51q-187 0 -314.5 121.5t-127.5 292.5z" />
<glyph unicode="&#xaa;" horiz-adv-x="868" d="M23 901q0 83 45.5 142t112 84.5t145.5 25.5q121 0 217 -51v24q0 44 -17.5 74t-49 43.5t-63 19t-71.5 5.5q-55 0 -119 -18t-112 -44v185q116 59 284 59q165 0 264 -79.5t99 -221.5v-256q0 -28 16 -42.5t39 -14.5q28 0 43 10v-164q-50 -33 -119 -33q-60 0 -105.5 25.5 t-66.5 73.5q-101 -105 -260 -105q-126 0 -204 70.5t-78 187.5zM240 911q0 -50 38.5 -76t96.5 -26q51 0 96 22.5t72 57.5v80q-64 45 -154 45q-65 0 -107 -28t-42 -75z" />
<glyph unicode="&#xab;" horiz-adv-x="1236" d="M43 430v178l266 367h361l-328 -455l328 -454h-361zM571 430v178l267 367h360l-328 -455l328 -454h-360z" />
<glyph unicode="&#xac;" horiz-adv-x="1253" d="M133 586v323h987v-641h-323v318h-664z" />
<glyph unicode="&#xad;" horiz-adv-x="1050" d="M195 414v319h661v-319h-661z" />
<glyph unicode="&#xae;" horiz-adv-x="1667" d="M92 717q0 149 58.5 286t157 238t237 161t291.5 60t290.5 -59.5t235.5 -159.5t155.5 -237.5t57.5 -288.5q0 -149 -58.5 -286.5t-157 -238t-237 -161t-291.5 -60.5t-290.5 59.5t-235.5 160t-155.5 238t-57.5 288.5zM172 713q0 -182 85.5 -334.5t237 -242t336.5 -89.5 q139 0 263 53.5t211.5 144t138.5 215t51 261.5q0 182 -85.5 334t-237 241.5t-336.5 89.5q-139 0 -263 -53.5t-211.5 -144t-138.5 -214.5t-51 -261zM510 344v793h373q130 0 207 -68t77 -176q0 -77 -40.5 -136t-112.5 -87l237 -326h-225l-221 303h-92v-303h-203zM713 811h159 q41 0 65 20.5t24 55.5q0 37 -24 58.5t-65 21.5h-159v-156z" />
<glyph unicode="&#xaf;" horiz-adv-x="1032" d="M168 1212v238h684v-238h-684z" />
<glyph unicode="&#xb0;" horiz-adv-x="772" d="M51 1133q0 134 100 231.5t236 97.5q134 0 234 -97.5t100 -231.5q0 -133 -100 -230.5t-234 -97.5q-135 0 -235.5 97.5t-100.5 230.5zM250 1133q0 -59 39.5 -99.5t97.5 -40.5q57 0 96 40.5t39 99.5q0 60 -39 100.5t-96 40.5q-58 0 -97.5 -40.5t-39.5 -100.5z" />
<glyph unicode="&#xb1;" horiz-adv-x="1339" d="M133 0v324h1073v-324h-1073zM133 772v320h377v342h319v-342h377v-320h-377v-326h-319v326h-377z" />
<glyph unicode="&#xb2;" horiz-adv-x="727" d="M76 659v158l211 176q73 62 101 101t28 77q0 35 -28.5 56.5t-74.5 21.5q-109 0 -209 -78v218q94 61 228 61q77 0 145 -28.5t113 -86.5t45 -135q0 -84 -37 -149t-131 -144l-76 -65h268v-183h-583z" />
<glyph unicode="&#xb3;" horiz-adv-x="673" d="M43 707v198q119 -69 233 -69q59 0 97.5 24t38.5 66q0 37 -31 61.5t-88 24.5q-79 0 -131 -25v133l166 131h-265v183h531v-162l-152 -125q31 -8 59 -22t60 -39t51 -68t19 -98q0 -125 -97.5 -201t-238.5 -76q-144 0 -252 64z" />
<glyph unicode="&#xb4;" horiz-adv-x="901" d="M250 1180l194 311h428l-321 -311h-301z" />
<glyph unicode="&#xb5;" horiz-adv-x="1298" d="M125 -410v1450h362v-571q0 -91 43.5 -131.5t106.5 -40.5q105 0 174 92v651h363v-1040h-363v117q-136 -144 -315 -144h-9v-383h-362z" />
<glyph unicode="&#xb6;" horiz-adv-x="1224" d="M55 997q0 194 137.5 315.5t370.5 121.5h524v-1434h-368v561h-156q-232 0 -370 122t-138 314z" />
<glyph unicode="&#xb7;" horiz-adv-x="573" d="M72 803q0 89 63 152t152 63t152 -63t63 -152q0 -91 -63 -154t-152 -63t-152 63t-63 154z" />
<glyph unicode="&#xb8;" horiz-adv-x="1056" d="M190 -311l263 338h286l-131 -338h-418z" />
<glyph unicode="&#xb9;" horiz-adv-x="524" d="M33 1112v211l213 111h209v-775h-217v553z" />
<glyph unicode="&#xba;" horiz-adv-x="909" d="M31 1047q0 173 120 288t304 115t304 -115t120 -288t-120 -288.5t-304 -115.5t-304 115.5t-120 288.5zM264 1049q0 -88 53 -145.5t138 -57.5t138.5 58t53.5 145q0 84 -53.5 140t-138.5 56t-138 -55.5t-53 -140.5z" />
<glyph unicode="&#xbb;" horiz-adv-x="1236" d="M39 66l328 454l-328 455h360l267 -367v-178l-267 -364h-360zM567 66l328 454l-328 455h361l266 -367v-178l-266 -364h-361z" />
<glyph unicode="&#xbc;" horiz-adv-x="1579" d="M33 1112v211l213 111h209v-775h-217v553zM197 0l870 1434h246l-871 -1434h-245zM852 178v154l371 442h223v-428h106v-168h-106v-178h-211v178h-383zM1069 346h166v191z" />
<glyph unicode="&#xbd;" horiz-adv-x="1652" d="M33 1112v211l213 111h209v-775h-217v553zM197 0l870 1434h246l-871 -1434h-245zM1001 0v158l211 176q73 62 101 101t28 77q0 35 -28 56.5t-74 21.5q-109 0 -209 -78v217q95 62 227 62q77 0 145 -28.5t113.5 -86.5t45.5 -135q0 -84 -37 -149t-131 -144l-76 -66h268v-182 h-584z" />
<glyph unicode="&#xbe;" horiz-adv-x="1665" d="M43 707v198q119 -69 233 -69q59 0 97.5 24t38.5 66q0 37 -31 61.5t-88 24.5q-79 0 -131 -25v133l166 131h-265v183h531v-162l-152 -125q31 -8 59 -22t60 -39t51 -68t19 -98q0 -125 -97.5 -201t-238.5 -76q-144 0 -252 64zM281 0l870 1434h246l-871 -1434h-245zM938 178 v154l371 442h223v-428h106v-168h-106v-178h-211v178h-383zM1155 346h166v191z" />
<glyph unicode="&#xbf;" horiz-adv-x="1026" d="M37 -4q0 78 33 148.5t87.5 121t116.5 86t129 56.5v137h345v-305q-85 -16 -158.5 -43.5t-127.5 -74t-54 -99.5q0 -44 30 -71.5t71.5 -37.5t96.5 -10q104 0 191.5 28.5t181.5 79.5v-315q-87 -56 -202 -87.5t-232 -31.5q-100 0 -189.5 26t-161.5 75.5t-114.5 131.5 t-42.5 185zM354 852q0 91 63 154t152 63t152 -63t63 -154q0 -89 -63 -152t-152 -63t-152 63t-63 152z" />
<glyph unicode="&#xc0;" horiz-adv-x="1599" d="M20 0l603 1442h354l602 -1442h-395l-121 303h-533l-120 -303h-390zM338 1868h428l195 -312h-302zM647 598h299l-149 383z" />
<glyph unicode="&#xc1;" horiz-adv-x="1599" d="M20 0l603 1442h354l602 -1442h-395l-121 303h-533l-120 -303h-390zM647 598h299l-149 383zM655 1556l195 312h428l-322 -312h-301z" />
<glyph unicode="&#xc2;" horiz-adv-x="1599" d="M20 0l603 1442h354l602 -1442h-395l-121 303h-533l-120 -303h-390zM369 1559l260 309h342l254 -309h-307l-125 141l-123 -141h-301zM647 598h299l-149 383z" />
<glyph unicode="&#xc3;" horiz-adv-x="1599" d="M20 0l603 1442h354l602 -1442h-395l-121 303h-533l-120 -303h-390zM399 1559q0 132 71.5 224.5t186.5 92.5q52 0 99 -20t88.5 -40t79.5 -20q72 0 90 72h182q0 -122 -72.5 -220t-183.5 -98q-55 0 -102.5 20.5t-88 41t-77.5 20.5q-72 0 -90 -73h-183zM647 598h299l-149 383 z" />
<glyph unicode="&#xc4;" horiz-adv-x="1599" d="M20 0l603 1442h354l602 -1442h-395l-121 303h-533l-120 -303h-390zM387 1714q0 73 52.5 124.5t125.5 51.5q75 0 126.5 -51t51.5 -125t-51.5 -126t-126.5 -52q-72 0 -125 52.5t-53 125.5zM647 598h299l-149 383zM852 1714q0 73 52 124.5t126 51.5t126 -51.5t52 -124.5 q0 -74 -52 -126t-126 -52t-126 52t-52 126z" />
<glyph unicode="&#xc5;" horiz-adv-x="1599" d="M20 0l603 1442h354l602 -1442h-395l-121 303h-533l-120 -303h-390zM582 1714q0 89 64 153t153 64t152 -64t63 -153q0 -88 -63 -151.5t-152 -63.5t-153 63.5t-64 151.5zM647 598h299l-149 383zM707 1714q0 -37 27.5 -63.5t64.5 -26.5t63.5 26.5t26.5 63.5q0 38 -26.5 65 t-63.5 27t-64.5 -27t-27.5 -65z" />
<glyph unicode="&#xc6;" horiz-adv-x="2191" d="M6 0l770 1434h1327v-324h-700v-195h553v-311h-553v-280h717v-324h-1086v289h-473l-153 -289h-402zM725 598h309v520h-35z" />
<glyph unicode="&#xc7;" horiz-adv-x="1376" d="M92 717q0 162 60.5 301.5t166 236.5t253 152t317.5 55q202 0 371 -82v-362q-84 52 -169 78t-198 26q-181 0 -301.5 -114.5t-120.5 -290.5q0 -179 123.5 -292.5t312.5 -113.5q226 0 377 115v-365q-103 -54 -250 -77l-112 -295h-418l229 297q-285 46 -463 244.5t-178 486.5 z" />
<glyph unicode="&#xc8;" horiz-adv-x="1314" d="M137 0v1434h1090v-324h-721v-195h573v-311h-573v-280h737v-324h-1106zM264 1868h428l195 -312h-301z" />
<glyph unicode="&#xc9;" horiz-adv-x="1314" d="M137 0v1434h1090v-324h-721v-195h573v-311h-573v-280h737v-324h-1106zM467 1556l195 312h428l-322 -312h-301z" />
<glyph unicode="&#xca;" horiz-adv-x="1314" d="M137 0v1434h1090v-324h-721v-195h573v-311h-573v-280h737v-324h-1106zM262 1559l260 309h342l254 -309h-307l-125 141l-123 -141h-301z" />
<glyph unicode="&#xcb;" horiz-adv-x="1314" d="M137 0v1434h1090v-324h-721v-195h573v-311h-573v-280h737v-324h-1106zM274 1714q0 73 53 124.5t126 51.5q75 0 126.5 -51t51.5 -125t-51.5 -126t-126.5 -52q-72 0 -125.5 52.5t-53.5 125.5zM739 1714q0 73 52.5 124.5t126.5 51.5t126 -51.5t52 -124.5q0 -74 -52 -126 t-126 -52t-126.5 52.5t-52.5 125.5z" />
<glyph unicode="&#xcc;" horiz-adv-x="659" d="M-135 1868h428l194 -312h-301zM145 0v1434h369v-1434h-369z" />
<glyph unicode="&#xcd;" horiz-adv-x="659" d="M145 0v1434h369v-1434h-369zM182 1556l195 312h428l-322 -312h-301z" />
<glyph unicode="&#xce;" horiz-adv-x="659" d="M-98 1559l260 309h342l254 -309h-307l-125 141l-123 -141h-301zM145 0v1434h369v-1434h-369z" />
<glyph unicode="&#xcf;" horiz-adv-x="657" d="M-82 1714q0 73 52.5 124.5t125.5 51.5q75 0 126.5 -51t51.5 -125t-51.5 -126t-126.5 -52q-72 0 -125 52.5t-53 125.5zM143 0v1434h369v-1434h-369zM383 1714q0 73 52 124.5t126 51.5t126 -51.5t52 -124.5q0 -74 -52.5 -126t-125.5 -52t-125.5 52t-52.5 126z" />
<glyph unicode="&#xd0;" horiz-adv-x="1712" d="M74 606v305h182v523h571q231 0 411.5 -90.5t281 -254t100.5 -372.5t-100.5 -372.5t-281 -254t-411.5 -90.5h-571v606h-182zM625 324h176q209 0 323.5 102.5t114.5 290.5t-114.5 290.5t-323.5 102.5h-176v-199h258v-305h-258v-282z" />
<glyph unicode="&#xd1;" horiz-adv-x="1576" d="M137 0v1434h316l626 -789v789h361v-1434h-305l-635 793v-793h-363zM391 1559q0 132 71.5 224.5t186.5 92.5q52 0 98.5 -20t88 -40t79.5 -20q73 0 91 72h182q0 -122 -72.5 -220t-183.5 -98q-55 0 -102.5 20.5t-88 41t-77.5 20.5q-73 0 -91 -73h-182z" />
<glyph unicode="&#xd2;" d="M92 717q0 152 57 289t155.5 237.5t240 159.5t303.5 59t303.5 -59t240 -159.5t155.5 -237.5t57 -289q0 -151 -57 -288t-155.5 -238t-240.5 -160.5t-303 -59.5t-303 59.5t-240.5 160.5t-155.5 238t-57 288zM381 1868h428l195 -312h-302zM471 717q0 -175 107 -290.5 t270 -115.5t270 115.5t107 290.5t-107 290t-270 115t-270 -115t-107 -290z" />
<glyph unicode="&#xd3;" d="M92 717q0 152 57 289t155.5 237.5t240 159.5t303.5 59t303.5 -59t240 -159.5t155.5 -237.5t57 -289q0 -151 -57 -288t-155.5 -238t-240.5 -160.5t-303 -59.5t-303 59.5t-240.5 160.5t-155.5 238t-57 288zM471 717q0 -175 107 -290.5t270 -115.5t270 115.5t107 290.5 t-107 290t-270 115t-270 -115t-107 -290zM680 1556l194 312h429l-322 -312h-301z" />
<glyph unicode="&#xd4;" d="M92 717q0 152 57 289t155.5 237.5t240 159.5t303.5 59t303.5 -59t240 -159.5t155.5 -237.5t57 -289q0 -151 -57 -288t-155.5 -238t-240.5 -160.5t-303 -59.5t-303 59.5t-240.5 160.5t-155.5 238t-57 288zM420 1559l260 309h342l254 -309h-307l-125 141l-123 -141h-301z M471 717q0 -175 107 -290.5t270 -115.5t270 115.5t107 290.5t-107 290t-270 115t-270 -115t-107 -290z" />
<glyph unicode="&#xd5;" d="M92 717q0 152 57 289t155.5 237.5t240 159.5t303.5 59t303.5 -59t240 -159.5t155.5 -237.5t57 -289q0 -151 -57 -288t-155.5 -238t-240.5 -160.5t-303 -59.5t-303 59.5t-240.5 160.5t-155.5 238t-57 288zM451 1559q0 132 71.5 224.5t186.5 92.5q52 0 98.5 -20t88 -40 t79.5 -20q72 0 90 72h182q0 -122 -72.5 -220t-183.5 -98q-55 0 -102.5 20.5t-88 41t-77.5 20.5q-72 0 -90 -73h-182zM471 717q0 -175 107 -290.5t270 -115.5t270 115.5t107 290.5t-107 290t-270 115t-270 -115t-107 -290z" />
<glyph unicode="&#xd6;" d="M92 717q0 152 57 289t155.5 237.5t240 159.5t303.5 59t303.5 -59t240 -159.5t155.5 -237.5t57 -289q0 -151 -57 -288t-155.5 -238t-240.5 -160.5t-303 -59.5t-303 59.5t-240.5 160.5t-155.5 238t-57 288zM440 1714q0 73 52.5 124.5t125.5 51.5q75 0 127 -51t52 -125 t-52 -126t-127 -52q-72 0 -125 52.5t-53 125.5zM471 717q0 -175 107 -290.5t270 -115.5t270 115.5t107 290.5t-107 290t-270 115t-270 -115t-107 -290zM905 1714q0 73 52 124.5t126 51.5t126.5 -51.5t52.5 -124.5t-52.5 -125.5t-126.5 -52.5q-73 0 -125.5 52t-52.5 126z" />
<glyph unicode="&#xd7;" horiz-adv-x="1294" d="M133 399l287 285l-287 287l229 229l285 -287l287 287l227 -229l-284 -287l284 -285l-227 -229l-287 287l-285 -287z" />
<glyph unicode="&#xd8;" d="M92 717q0 152 57 289t155.5 237.5t240 159.5t303.5 59q208 0 391 -102l61 74h277l-172 -207q95 -103 147 -233.5t52 -276.5q0 -151 -57 -288t-155.5 -238t-240.5 -160.5t-303 -59.5q-217 0 -393 103l-62 -74h-276l172 209q-95 101 -146 231.5t-51 276.5zM471 717 q0 -127 55 -221l486 589q-79 37 -164 37q-163 0 -270 -115t-107 -290zM682 348q73 -37 166 -37q163 0 270 115.5t107 290.5q0 125 -58 221z" />
<glyph unicode="&#xd9;" horiz-adv-x="1495" d="M119 600v834h368v-852q0 -137 74 -204t187 -67q114 0 187 66.5t73 204.5v852h368v-834q0 -151 -49 -272t-134.5 -198.5t-199 -118t-245.5 -40.5t-245.5 40.5t-199.5 118t-135 198.5t-49 272zM285 1868h428l194 -312h-301z" />
<glyph unicode="&#xda;" horiz-adv-x="1495" d="M119 600v834h368v-852q0 -137 74 -204t187 -67q114 0 187 66.5t73 204.5v852h368v-834q0 -151 -49 -272t-134.5 -198.5t-199 -118t-245.5 -40.5t-245.5 40.5t-199.5 118t-135 198.5t-49 272zM586 1556l194 312h428l-321 -312h-301z" />
<glyph unicode="&#xdb;" horiz-adv-x="1495" d="M119 600v834h368v-852q0 -137 74 -204t187 -67q114 0 187 66.5t73 204.5v852h368v-834q0 -151 -49 -272t-134.5 -198.5t-199 -118t-245.5 -40.5t-245.5 40.5t-199.5 118t-135 198.5t-49 272zM319 1559l261 309h342l254 -309h-308l-125 141l-122 -141h-302z" />
<glyph unicode="&#xdc;" horiz-adv-x="1495" d="M119 600v834h368v-852q0 -137 74 -204t187 -67q114 0 187 66.5t73 204.5v852h368v-834q0 -151 -49 -272t-134.5 -198.5t-199 -118t-245.5 -40.5t-245.5 40.5t-199.5 118t-135 198.5t-49 272zM340 1714q0 73 52.5 124.5t125.5 51.5q75 0 126.5 -51t51.5 -125t-51.5 -126 t-126.5 -52q-72 0 -125 52.5t-53 125.5zM805 1714q0 73 52 124.5t126 51.5t126 -51.5t52 -124.5q0 -74 -52.5 -126t-125.5 -52t-125.5 52t-52.5 126z" />
<glyph unicode="&#xdd;" horiz-adv-x="1490" d="M10 1434h420l320 -473l321 473h410l-551 -791v-643h-369v635zM580 1556l194 312h428l-321 -312h-301z" />
<glyph unicode="&#xde;" horiz-adv-x="1380" d="M137 0v1434h369v-269h305q239 0 380.5 -125t141.5 -323q0 -199 -141.5 -325t-380.5 -126h-305v-266h-369zM506 569h274q80 0 130.5 37.5t50.5 102.5q0 68 -45.5 106.5t-124.5 38.5h-285v-285z" />
<glyph unicode="&#xdf;" horiz-adv-x="1298" d="M125 0v950q0 241 146.5 376.5t377.5 135.5q120 0 215.5 -32.5t156 -88.5t92.5 -129t32 -157q0 -108 -52 -181t-114 -100q45 -16 88.5 -46t83.5 -74.5t64 -110.5t24 -142q0 -103 -34 -184t-94.5 -131t-141 -76t-176.5 -26q-129 0 -185 22v279q56 -17 111 -17q76 0 122 47 t46 125q0 89 -63 142t-169 53h-34v239h32q71 0 109.5 37.5t38.5 100.5t-39.5 99t-106.5 36q-73 0 -120.5 -50t-47.5 -147v-950h-362z" />
<glyph unicode="&#xe0;" horiz-adv-x="1251" d="M41 319q0 -153 104 -249.5t275 -96.5q203 0 332 123q35 -58 101.5 -88.5t152.5 -30.5q50 0 102 15t82 39v258q-23 -13 -60 -13q-61 0 -61 56v315q0 193 -141 306.5t-371 113.5q-227 0 -391 -76v-284q62 34 148 54.5t155 20.5q36 0 64 -2.5t63.5 -12t58.5 -26.5t39.5 -49 t16.5 -76v-14q-106 53 -265 53q-74 0 -143 -19t-129 -57.5t-96.5 -105.5t-36.5 -154zM170 1491h428l195 -311h-301zM397 336q0 57 47 91t115 34q91 0 152 -45v-109q-28 -43 -72.5 -66.5t-95.5 -23.5q-62 0 -104 32t-42 87z" />
<glyph unicode="&#xe1;" horiz-adv-x="1251" d="M41 319q0 -153 104 -249.5t275 -96.5q203 0 332 123q35 -58 101.5 -88.5t152.5 -30.5q50 0 102 15t82 39v258q-23 -13 -60 -13q-61 0 -61 56v315q0 193 -141 306.5t-371 113.5q-227 0 -391 -76v-284q62 34 148 54.5t155 20.5q36 0 64 -2.5t63.5 -12t58.5 -26.5t39.5 -49 t16.5 -76v-14q-106 53 -265 53q-74 0 -143 -19t-129 -57.5t-96.5 -105.5t-36.5 -154zM375 1180l194 311h428l-321 -311h-301zM397 336q0 57 47 91t115 34q91 0 152 -45v-109q-28 -43 -72.5 -66.5t-95.5 -23.5q-62 0 -104 32t-42 87z" />
<glyph unicode="&#xe2;" horiz-adv-x="1251" d="M41 319q0 -153 104 -249.5t275 -96.5q203 0 332 123q35 -58 101.5 -88.5t152.5 -30.5q50 0 102 15t82 39v258q-23 -13 -60 -13q-61 0 -61 56v315q0 193 -141 306.5t-371 113.5q-227 0 -391 -76v-284q62 34 148 54.5t155 20.5q36 0 64 -2.5t63.5 -12t58.5 -26.5t39.5 -49 t16.5 -76v-14q-106 53 -265 53q-74 0 -143 -19t-129 -57.5t-96.5 -105.5t-36.5 -154zM176 1182l260 309h342l254 -309h-307l-125 141l-123 -141h-301zM397 336q0 57 47 91t115 34q91 0 152 -45v-109q-28 -43 -72.5 -66.5t-95.5 -23.5q-62 0 -104 32t-42 87z" />
<glyph unicode="&#xe3;" horiz-adv-x="1251" d="M41 319q0 -153 104 -249.5t275 -96.5q203 0 332 123q35 -58 101.5 -88.5t152.5 -30.5q50 0 102 15t82 39v258q-23 -13 -60 -13q-61 0 -61 56v315q0 193 -141 306.5t-371 113.5q-227 0 -391 -76v-284q62 34 148 54.5t155 20.5q36 0 64 -2.5t63.5 -12t58.5 -26.5t39.5 -49 t16.5 -76v-14q-106 53 -265 53q-74 0 -143 -19t-129 -57.5t-96.5 -105.5t-36.5 -154zM233 1182q0 132 72 224.5t187 92.5q52 0 98.5 -20t88 -40t79.5 -20q72 0 90 72h182q0 -77 -30.5 -149t-90.5 -120t-135 -48q-43 0 -83 12.5t-65 28t-57.5 28t-62.5 12.5q-72 0 -90 -73 h-183zM397 336q0 57 47 91t115 34q91 0 152 -45v-109q-28 -43 -72.5 -66.5t-95.5 -23.5q-62 0 -104 32t-42 87z" />
<glyph unicode="&#xe4;" horiz-adv-x="1251" d="M41 319q0 -153 104 -249.5t275 -96.5q203 0 332 123q35 -58 101.5 -88.5t152.5 -30.5q50 0 102 15t82 39v258q-23 -13 -60 -13q-61 0 -61 56v315q0 193 -141 306.5t-371 113.5q-227 0 -391 -76v-284q62 34 148 54.5t155 20.5q36 0 64 -2.5t63.5 -12t58.5 -26.5t39.5 -49 t16.5 -76v-14q-106 53 -265 53q-74 0 -143 -19t-129 -57.5t-96.5 -105.5t-36.5 -154zM164 1337q0 73 52.5 124.5t125.5 51.5q75 0 126.5 -51t51.5 -125t-51.5 -126t-126.5 -52q-72 0 -125 52.5t-53 125.5zM397 336q0 57 47 91t115 34q91 0 152 -45v-109q-28 -43 -72.5 -66.5 t-95.5 -23.5q-62 0 -104 32t-42 87zM629 1337q0 73 52 124.5t126 51.5t126 -51.5t52 -124.5t-52.5 -125.5t-125.5 -52.5t-125.5 52.5t-52.5 125.5z" />
<glyph unicode="&#xe5;" horiz-adv-x="1251" d="M41 319q0 -153 104 -249.5t275 -96.5q203 0 332 123q35 -58 101.5 -88.5t152.5 -30.5q50 0 102 15t82 39v258q-23 -13 -60 -13q-61 0 -61 56v315q0 193 -141 306.5t-371 113.5q-227 0 -391 -76v-284q62 34 148 54.5t155 20.5q36 0 64 -2.5t63.5 -12t58.5 -26.5t39.5 -49 t16.5 -76v-14q-106 53 -265 53q-74 0 -143 -19t-129 -57.5t-96.5 -105.5t-36.5 -154zM356 1335q0 89 64 153t153 64t152 -64t63 -153q0 -88 -63 -151.5t-152 -63.5t-153 63.5t-64 151.5zM397 336q0 57 47 91t115 34q91 0 152 -45v-109q-28 -43 -72.5 -66.5t-95.5 -23.5 q-62 0 -104 32t-42 87zM481 1335q0 -37 27.5 -63.5t64.5 -26.5t64 26.5t27 63.5q0 38 -27 65t-64 27t-64.5 -27t-27.5 -65z" />
<glyph unicode="&#xe6;" horiz-adv-x="1816" d="M41 319q0 87 36.5 154t96.5 105.5t129 57.5t143 19q159 0 265 -53v14q0 44 -16.5 76t-39.5 49t-58.5 26.5t-63.5 12t-64 2.5q-69 0 -155 -20.5t-148 -54.5v284q164 76 381 76q109 0 201.5 -35.5t152.5 -95.5q63 60 155.5 95.5t190.5 35.5q221 0 361.5 -153t140.5 -392 v-90h-696q16 -55 62.5 -92.5t107 -53.5t133.5 -16q171 0 334 90v-278q-69 -51 -179 -80t-235 -29q-128 0 -240 42t-192 124q-162 -166 -414 -166q-177 0 -283 96t-106 250zM397 336q0 -55 42 -87t104 -32q119 0 190 100q-20 56 -28 103q-61 41 -146 41q-68 0 -115 -34 t-47 -91zM1051 625h344q-3 77 -50.5 126.5t-113.5 49.5q-71 0 -120.5 -47.5t-59.5 -128.5z" />
<glyph unicode="&#xe7;" horiz-adv-x="1052" d="M59 522q0 129 49.5 235t131.5 172.5t183.5 102t211.5 35.5q96 0 164 -14t143 -49v-304q-69 29 -124 41.5t-126 12.5q-116 0 -196 -63t-80 -171t79.5 -171.5t194.5 -63.5q82 0 142 13.5t124 47.5v-301q-70 -34 -133 -49l-118 -307h-418l229 295q-93 16 -174 59t-145 109 t-101 161.5t-37 208.5z" />
<glyph unicode="&#xe8;" horiz-adv-x="1179" d="M59 520q0 113 39 212.5t109 174t174.5 117.5t228.5 43q221 0 361.5 -153t140.5 -392v-90h-696q16 -55 62.5 -92.5t107 -53.5t133.5 -16q171 0 334 90v-278q-69 -51 -179 -80t-235 -29q-116 0 -221 37.5t-185 105.5t-127 173t-47 231zM205 1491h428l194 -311h-301z M414 625h344q-3 77 -50.5 126.5t-113.5 49.5q-71 0 -120.5 -47.5t-59.5 -128.5z" />
<glyph unicode="&#xe9;" horiz-adv-x="1179" d="M59 520q0 113 39 212.5t109 174t174.5 117.5t228.5 43q221 0 361.5 -153t140.5 -392v-90h-696q16 -55 62.5 -92.5t107 -53.5t133.5 -16q171 0 334 90v-278q-69 -51 -179 -80t-235 -29q-116 0 -221 37.5t-185 105.5t-127 173t-47 231zM371 1180l194 311h428l-321 -311 h-301zM414 625h344q-3 77 -50.5 126.5t-113.5 49.5q-71 0 -120.5 -47.5t-59.5 -128.5z" />
<glyph unicode="&#xea;" horiz-adv-x="1179" d="M59 520q0 113 39 212.5t109 174t174.5 117.5t228.5 43q221 0 361.5 -153t140.5 -392v-90h-696q16 -55 62.5 -92.5t107 -53.5t133.5 -16q171 0 334 90v-278q-69 -51 -179 -80t-235 -29q-116 0 -221 37.5t-185 105.5t-127 173t-47 231zM160 1182l260 309h342l254 -309h-307 l-125 141l-123 -141h-301zM414 625h344q-3 77 -50.5 126.5t-113.5 49.5q-71 0 -120.5 -47.5t-59.5 -128.5z" />
<glyph unicode="&#xeb;" horiz-adv-x="1179" d="M59 520q0 113 39 212.5t109 174t174.5 117.5t228.5 43q221 0 361.5 -153t140.5 -392v-90h-696q16 -55 62.5 -92.5t107 -53.5t133.5 -16q171 0 334 90v-278q-69 -51 -179 -80t-235 -29q-116 0 -221 37.5t-185 105.5t-127 173t-47 231zM182 1337q0 73 52.5 124.5 t125.5 51.5q75 0 127 -51t52 -125t-52 -126t-127 -52q-72 0 -125 52.5t-53 125.5zM414 625h344q-3 77 -50.5 126.5t-113.5 49.5q-71 0 -120.5 -47.5t-59.5 -128.5zM647 1337q0 73 52 124.5t126 51.5t126.5 -51.5t52.5 -124.5t-52.5 -125.5t-126.5 -52.5q-73 0 -125.5 52.5 t-52.5 125.5z" />
<glyph unicode="&#xec;" horiz-adv-x="567" d="M-184 1491h428l194 -311h-301zM102 0v1040h363v-1040h-363z" />
<glyph unicode="&#xed;" horiz-adv-x="567" d="M102 0v1040h363v-1040h-363zM127 1182l195 309h423l-319 -309h-299z" />
<glyph unicode="&#xee;" horiz-adv-x="567" d="M-145 1182l260 309h342l254 -309h-308l-124 141l-123 -141h-301zM102 0v1040h363v-1040h-363z" />
<glyph unicode="&#xef;" horiz-adv-x="575" d="M-123 1337q0 73 52.5 124.5t125.5 51.5q75 0 126.5 -51t51.5 -125t-51.5 -126t-126.5 -52q-72 0 -125 52.5t-53 125.5zM102 0v1040h363v-1040h-363zM342 1337q0 73 52 124.5t126 51.5t126 -51.5t52 -124.5t-52 -125.5t-126 -52.5t-126 52.5t-52 125.5z" />
<glyph unicode="&#xf0;" horiz-adv-x="1243" d="M59 477q0 210 127 335.5t324 125.5q101 0 178 -31l-145 176l-234 -86l-129 166l228 84l-156 187h389l64 -78l194 71l129 -165l-194 -72l114 -143q132 -164 184 -279.5t52 -261.5q0 -110 -42 -208.5t-116 -170t-179 -113t-226 -41.5q-161 0 -290 67.5t-200.5 182.5 t-71.5 254zM416 485q0 -87 58 -144.5t147 -57.5t146.5 57.5t57.5 144.5q0 86 -58 144.5t-146 58.5t-146.5 -58.5t-58.5 -144.5z" />
<glyph unicode="&#xf1;" horiz-adv-x="1280" d="M125 0h362v651q69 92 175 92q63 0 106 -40t43 -132v-571h363v639q0 197 -99 312.5t-272 115.5q-181 0 -316 -143v116h-362v-1040zM252 1182q0 132 71.5 224.5t186.5 92.5q52 0 98.5 -20t88 -40t79.5 -20q72 0 90 72h183q0 -77 -30.5 -149t-90.5 -120t-135 -48 q-43 0 -83 12.5t-65.5 28t-58 28t-62.5 12.5q-72 0 -90 -73h-182z" />
<glyph unicode="&#xf2;" horiz-adv-x="1290" d="M59 520q0 232 166 389.5t420 157.5t420 -157.5t166 -389.5q0 -153 -74.5 -278t-209 -197t-302.5 -72t-302.5 72t-209 197t-74.5 278zM188 1491h428l195 -311h-301zM416 520q0 -102 64.5 -169.5t164.5 -67.5t164.5 67.5t64.5 169.5q0 101 -64.5 169.5t-164.5 68.5 t-164.5 -68.5t-64.5 -169.5z" />
<glyph unicode="&#xf3;" horiz-adv-x="1290" d="M59 520q0 232 166 389.5t420 157.5t420 -157.5t166 -389.5q0 -153 -74.5 -278t-209 -197t-302.5 -72t-302.5 72t-209 197t-74.5 278zM416 520q0 -102 64.5 -169.5t164.5 -67.5t164.5 67.5t64.5 169.5q0 101 -64.5 169.5t-164.5 68.5t-164.5 -68.5t-64.5 -169.5zM475 1180 l195 311h428l-322 -311h-301z" />
<glyph unicode="&#xf4;" horiz-adv-x="1290" d="M59 520q0 232 166 389.5t420 157.5t420 -157.5t166 -389.5q0 -153 -74.5 -278t-209 -197t-302.5 -72t-302.5 72t-209 197t-74.5 278zM217 1182l260 309h342l254 -309h-307l-125 141l-123 -141h-301zM416 520q0 -102 64.5 -169.5t164.5 -67.5t164.5 67.5t64.5 169.5 q0 101 -64.5 169.5t-164.5 68.5t-164.5 -68.5t-64.5 -169.5z" />
<glyph unicode="&#xf5;" horiz-adv-x="1290" d="M59 520q0 232 166 389.5t420 157.5t420 -157.5t166 -389.5q0 -153 -74.5 -278t-209 -197t-302.5 -72t-302.5 72t-209 197t-74.5 278zM248 1182q0 132 71.5 224.5t186.5 92.5q52 0 98.5 -20t88 -40t79.5 -20q72 0 90 72h182q0 -77 -30.5 -149t-90.5 -120t-135 -48 q-43 0 -83 12.5t-65 28t-57.5 28t-62.5 12.5q-72 0 -90 -73h-182zM416 520q0 -102 64.5 -169.5t164.5 -67.5t164.5 67.5t64.5 169.5q0 101 -64.5 169.5t-164.5 68.5t-164.5 -68.5t-64.5 -169.5z" />
<glyph unicode="&#xf6;" horiz-adv-x="1290" d="M59 520q0 232 166 389.5t420 157.5t420 -157.5t166 -389.5q0 -153 -74.5 -278t-209 -197t-302.5 -72t-302.5 72t-209 197t-74.5 278zM236 1337q0 73 52.5 124.5t125.5 51.5q75 0 126.5 -51t51.5 -125t-51.5 -126t-126.5 -52q-72 0 -125 52.5t-53 125.5zM416 520 q0 -102 64.5 -169.5t164.5 -67.5t164.5 67.5t64.5 169.5q0 101 -64.5 169.5t-164.5 68.5t-164.5 -68.5t-64.5 -169.5zM700 1337q0 73 52.5 124.5t126.5 51.5t126 -51.5t52 -124.5t-52.5 -125.5t-125.5 -52.5q-74 0 -126.5 52.5t-52.5 125.5z" />
<glyph unicode="&#xf7;" horiz-adv-x="1339" d="M133 514v320h1073v-320h-1073zM455 190q0 90 63.5 154t153.5 64q89 0 152 -63.5t63 -154.5q0 -89 -63 -152t-152 -63t-153 63t-64 152zM455 1155q0 90 63.5 153.5t153.5 63.5q89 0 152 -63t63 -154q0 -89 -63 -152t-152 -63t-153 63t-64 152z" />
<glyph unicode="&#xf8;" horiz-adv-x="1290" d="M59 520q0 232 166 389.5t420 157.5q158 0 291 -68l43 50h248l-140 -162q144 -154 144 -367q0 -153 -74.5 -278t-209 -197t-302.5 -72q-158 0 -293 66l-41 -47h-248l140 160q-144 154 -144 368zM416 520q0 -56 18 -100l283 325q-37 13 -72 13q-100 0 -164.5 -68.5 t-64.5 -169.5zM571 293q29 -10 74 -10q100 0 164.5 67.5t64.5 169.5q0 50 -20 98z" />
<glyph unicode="&#xf9;" horiz-adv-x="1280" d="M106 401q0 -197 99 -312.5t272 -115.5q180 0 316 144v-117h362v1040h-362v-651q-69 -92 -175 -92q-63 0 -106 40t-43 132v571h-363v-639zM213 1491h428l195 -311h-301z" />
<glyph unicode="&#xfa;" horiz-adv-x="1280" d="M106 401q0 -197 99 -312.5t272 -115.5q180 0 316 144v-117h362v1040h-362v-651q-69 -92 -175 -92q-63 0 -106 40t-43 132v571h-363v-639zM432 1180l195 311h428l-322 -311h-301z" />
<glyph unicode="&#xfb;" horiz-adv-x="1280" d="M106 401q0 -197 99 -312.5t272 -115.5q180 0 316 144v-117h362v1040h-362v-651q-69 -92 -175 -92q-63 0 -106 40t-43 132v571h-363v-639zM203 1182l260 309h342l254 -309h-307l-125 141l-123 -141h-301z" />
<glyph unicode="&#xfc;" horiz-adv-x="1280" d="M106 401q0 -197 99 -312.5t272 -115.5q180 0 316 144v-117h362v1040h-362v-651q-69 -92 -175 -92q-63 0 -106 40t-43 132v571h-363v-639zM223 1337q0 73 52.5 124.5t125.5 51.5q75 0 127 -51t52 -125t-52 -126t-127 -52q-72 0 -125 52.5t-53 125.5zM688 1337 q0 73 52 124.5t126 51.5t126 -51.5t52 -124.5t-52 -125.5t-126 -52.5t-126 52.5t-52 125.5z" />
<glyph unicode="&#xfd;" horiz-adv-x="1247" d="M20 1040h386l231 -626l217 626h377l-465 -1144q-130 -318 -432 -318q-64 0 -129 14t-103 33v312q79 -50 168 -50q70 0 115.5 34.5t77.5 113.5zM451 1180l194 311h428l-321 -311h-301z" />
<glyph unicode="&#xfe;" horiz-adv-x="1333" d="M125 -410v1844h362v-510q106 143 312 143q135 0 244 -71.5t170 -196.5t61 -279t-61 -279t-170 -196.5t-244 -71.5q-200 0 -312 144v-527h-362zM487 391q30 -48 83 -79t124 -31q97 0 158 68.5t61 170.5t-61 171t-158 69q-70 0 -123.5 -31t-83.5 -80v-258z" />
<glyph unicode="&#xff;" horiz-adv-x="1247" d="M20 1040h386l231 -626l217 626h377l-465 -1144q-130 -318 -432 -318q-64 0 -129 14t-103 33v312q79 -50 168 -50q70 0 115.5 34.5t77.5 113.5zM217 1337q0 73 52.5 124.5t125.5 51.5q75 0 126.5 -51t51.5 -125t-51.5 -126t-126.5 -52q-72 0 -125 52.5t-53 125.5z M682 1337q0 73 52 124.5t126 51.5t126 -51.5t52 -124.5t-52 -125.5t-126 -52.5t-126 52.5t-52 125.5z" />
<glyph unicode="&#x152;" horiz-adv-x="2158" d="M92 717q0 209 100.5 372.5t281 254t411.5 90.5h1186v-324h-701v-195h553v-311h-553v-280h717v-324h-1202q-231 0 -411.5 90.5t-281 254t-100.5 372.5zM473 717q0 -188 114.5 -290.5t323.5 -102.5h90v786h-90q-209 0 -323.5 -102.5t-114.5 -290.5z" />
<glyph unicode="&#x153;" horiz-adv-x="1966" d="M59 520q0 232 166 389.5t420 157.5q231 0 393 -158q144 158 367 158q209 0 351 -154t142 -391v-90h-696q16 -55 62.5 -92.5t107 -53.5t133.5 -16q171 0 334 90v-278q-147 -109 -395 -109q-121 0 -228.5 42.5t-171.5 109.5q-171 -152 -399 -152q-168 0 -302.5 72t-209 197 t-74.5 278zM416 520q0 -102 64.5 -169.5t164.5 -67.5t164.5 67.5t64.5 169.5q0 101 -64.5 169.5t-164.5 68.5t-164.5 -68.5t-64.5 -169.5zM1200 625h344q-3 77 -50.5 126.5t-113.5 49.5q-71 0 -120.5 -47.5t-59.5 -128.5z" />
<glyph unicode="&#x178;" horiz-adv-x="1490" d="M10 1434h420l320 -473l321 473h410l-551 -791v-643h-369v635zM340 1714q0 73 52.5 124.5t125.5 51.5q75 0 126.5 -51t51.5 -125t-51.5 -126t-126.5 -52q-72 0 -125 52.5t-53 125.5zM805 1714q0 73 52 124.5t126 51.5t126 -51.5t52 -124.5q0 -74 -52.5 -126t-125.5 -52 t-125.5 52t-52.5 126z" />
<glyph unicode="&#x2c6;" horiz-adv-x="1118" d="M135 1182l260 309h342l254 -309h-307l-125 141l-123 -141h-301z" />
<glyph unicode="&#x2dc;" horiz-adv-x="1036" d="M115 1182q0 132 71.5 224.5t186.5 92.5q52 0 98.5 -20t88 -40t79.5 -20q72 0 90 72h182q0 -77 -30.5 -149t-90.5 -120t-135 -48q-43 0 -83 12.5t-65 28t-57.5 28t-62.5 12.5q-72 0 -90 -73h-182z" />
<glyph unicode="&#x2000;" horiz-adv-x="965" />
<glyph unicode="&#x2001;" horiz-adv-x="1931" />
<glyph unicode="&#x2002;" horiz-adv-x="965" />
<glyph unicode="&#x2003;" horiz-adv-x="1931" />
<glyph unicode="&#x2004;" horiz-adv-x="643" />
<glyph unicode="&#x2005;" horiz-adv-x="482" />
<glyph unicode="&#x2006;" horiz-adv-x="321" />
<glyph unicode="&#x2007;" horiz-adv-x="321" />
<glyph unicode="&#x2008;" horiz-adv-x="241" />
<glyph unicode="&#x2009;" horiz-adv-x="386" />
<glyph unicode="&#x200a;" horiz-adv-x="107" />
<glyph unicode="&#x2010;" horiz-adv-x="1050" d="M195 414v319h661v-319h-661z" />
<glyph unicode="&#x2011;" horiz-adv-x="1050" d="M195 414v319h661v-319h-661z" />
<glyph unicode="&#x2012;" horiz-adv-x="1050" d="M195 414v319h661v-319h-661z" />
<glyph unicode="&#x2013;" horiz-adv-x="1628" d="M195 414v319h1239v-319h-1239z" />
<glyph unicode="&#x2014;" horiz-adv-x="1894" d="M195 414v319h1505v-319h-1505z" />
<glyph unicode="&#x2018;" horiz-adv-x="585" d="M10 762l264 672h289l-184 -672h-369z" />
<glyph unicode="&#x2019;" horiz-adv-x="585" d="M23 762l184 672h368l-264 -672h-288z" />
<glyph unicode="&#x201a;" horiz-adv-x="669" d="M43 -311l184 671h369l-264 -671h-289z" />
<glyph unicode="&#x201c;" horiz-adv-x="1099" d="M10 762l264 672h289l-184 -672h-369zM524 762l264 672h289l-184 -672h-369z" />
<glyph unicode="&#x201d;" horiz-adv-x="1099" d="M23 762l184 672h368l-264 -672h-288zM537 762l184 672h369l-265 -672h-288z" />
<glyph unicode="&#x201e;" horiz-adv-x="1183" d="M43 -311l184 671h369l-264 -671h-289zM557 -311l184 671h369l-264 -671h-289z" />
<glyph unicode="&#x2022;" horiz-adv-x="858" d="M92 803q0 139 99 238.5t239 99.5q139 0 237.5 -99t98.5 -239q0 -138 -98.5 -237t-237.5 -99t-238.5 99t-99.5 237z" />
<glyph unicode="&#x2026;" horiz-adv-x="1642" d="M72 188q0 89 63 152t152 63t152 -63t63 -152q0 -91 -63 -154t-152 -63t-152 63t-63 154zM606 188q0 89 63 152t152 63t152 -63t63 -152q0 -91 -63 -154t-152 -63t-152 63t-63 154zM1141 188q0 89 63 152t152 63t152 -63t63 -152q0 -91 -63 -154t-152 -63t-152 63t-63 154 z" />
<glyph unicode="&#x202f;" horiz-adv-x="386" />
<glyph unicode="&#x2039;" horiz-adv-x="708" d="M43 430v178l266 367h361l-328 -455l328 -454h-361z" />
<glyph unicode="&#x203a;" horiz-adv-x="708" d="M39 66l328 454l-328 455h360l267 -367v-178l-267 -364h-360z" />
<glyph unicode="&#x205f;" horiz-adv-x="482" />
<glyph unicode="&#x20ac;" horiz-adv-x="1331" d="M51 481v199h125q0 79 2 102h-127v199h164q71 219 250 350t430 131q181 0 313 -61v-346q-131 69 -268 69q-215 0 -315 -143h317v-199h-385q-4 -16 -4 -53q0 -29 4 -49h385v-199h-334q96 -172 332 -172q171 0 299 86v-358q-132 -66 -344 -66q-260 0 -441.5 139.5 t-246.5 370.5h-156z" />
<glyph unicode="&#x2122;" horiz-adv-x="1394" d="M31 1290v144h549v-144h-193v-495h-166v495h-190zM678 795v639h158l159 -236l158 236h160v-639h-164v387l-111 -160h-86l-110 160v-387h-164z" />
<glyph unicode="&#x25fc;" horiz-adv-x="1044" d="M0 0v1044h1044v-1044h-1044z" />
</font>
</defs>
</svg>
