<?xml version="1.0" standalone="no"?>
<!DOCTYPE svg PUBLIC "-//W3C//DTD SVG 1.1//EN" "http://www.w3.org/Graphics/SVG/1.1/DTD/svg11.dtd" >
<svg xmlns="http://www.w3.org/2000/svg" xmlns:xlink="http://www.w3.org/1999/xlink" version="1.1">
<metadata></metadata>
<defs>
<font id="geometria_extralightXLt" horiz-adv-x="1734" >
<font-face units-per-em="2048" ascent="1589" descent="-459" />
<missing-glyph horiz-adv-x="557" />
<glyph unicode="&#xfb01;" horiz-adv-x="1118" d="M59 911v58h207v213q0 124 63.5 194t180.5 70q100 0 178 -41v-62q-84 43 -170 43q-92 0 -140 -57t-48 -162v-198h569v-969h-63v911h-506v-911h-64v911h-207zM807 1321q0 26 17.5 43.5t43.5 17.5t44 -17.5t18 -43.5t-18 -43.5t-44 -17.5t-43.5 17.5t-17.5 43.5z" />
<glyph unicode="&#xfb02;" horiz-adv-x="1202" d="M59 911v58h207v213q0 124 63.5 194t180.5 70q100 0 178 -41v-62q-84 43 -170 43q-92 0 -140 -57t-48 -162v-198h506v465h63v-1231q0 -168 150 -168q56 0 110 33v-64q-54 -29 -123 -29q-38 0 -71 10t-63.5 33.5t-48 68.5t-17.5 108v716h-506v-911h-64v911h-207z" />
<glyph unicode="&#xfb03;" horiz-adv-x="1685" d="M59 909v60h207v213q0 124 63.5 194t180.5 70q100 0 178 -41v-62q-84 43 -170 43q-92 0 -140 -57t-48 -162v-198h504v213q0 124 63 194t180 70q100 0 178 -41v-62q-84 43 -170 43q-92 0 -140 -57t-48 -162v-198h569v-969h-63v909h-506v-909h-63v909h-504v-909h-64v909 h-207zM1374 1321q0 26 18 43.5t44 17.5t43.5 -17.5t17.5 -43.5t-17.5 -43.5t-43.5 -17.5t-44 17.5t-18 43.5z" />
<glyph unicode="&#xfb04;" horiz-adv-x="1769" d="M59 909v60h207v213q0 124 63.5 194t180.5 70q100 0 178 -41v-62q-84 43 -170 43q-92 0 -140 -57t-48 -162v-198h504v213q0 124 63 194t180 70q100 0 178 -41v-62q-84 43 -170 43q-92 0 -140 -57t-48 -162v-198h506v465h63v-1231q0 -168 150 -168q56 0 110 33v-64 q-51 -29 -122 -29q-39 0 -72 10t-63.5 33.5t-48 68.5t-17.5 108v714h-506v-909h-63v909h-504v-909h-64v909h-207z" />
<glyph horiz-adv-x="0" />
<glyph horiz-adv-x="682" />
<glyph unicode=" "  horiz-adv-x="557" />
<glyph unicode="&#x09;" horiz-adv-x="557" />
<glyph unicode="&#xa0;" horiz-adv-x="557" />
<glyph unicode="!" horiz-adv-x="518" d="M197 57q0 28 17.5 46t43.5 18q27 0 45.5 -18.5t18.5 -45.5q0 -26 -18.5 -43.5t-45.5 -17.5q-26 0 -43.5 17.5t-17.5 43.5zM221 1434h74l-4 -1014h-62z" />
<glyph unicode="&#x22;" horiz-adv-x="675" d="M133 969v465h60v-465h-60zM489 969v465h62v-465h-62z" />
<glyph unicode="#" horiz-adv-x="1415" d="M68 418l10 59h303l76 477h-303l10 60h301l67 420h62l-70 -420h461l68 420h59l-65 -420h305l-11 -60h-303l-75 -477h303l-9 -59h-305l-67 -418h-60l66 418h-459l-65 -418h-62l68 418h-305zM440 477h461l76 477h-459z" />
<glyph unicode="$" horiz-adv-x="1269" d="M98 129v74q81 -67 216.5 -117.5t295.5 -50.5q198 0 323.5 92t125.5 242q0 47 -13 87t-32 70t-54.5 57t-67.5 45t-84 37.5t-91 31.5t-101 30q-69 19 -112.5 32.5t-98 34t-88 40t-69 48t-54.5 60.5t-31.5 74.5t-12.5 93.5q0 141 113 241t323 107v211h63v-211 q233 -9 398 -121v-67q-193 129 -426 129q-103 0 -183 -24.5t-127.5 -66.5t-71.5 -92t-24 -106q0 -70 31 -123t84 -86.5t121 -58.5t144 -45.5t151.5 -42t143.5 -53t121 -73t84 -107.5t31 -152q0 -91 -39 -165t-106 -122.5t-152 -75.5t-180 -31v-211h-63v211q-151 4 -284 49.5 t-204 104.5z" />
<glyph unicode="%" horiz-adv-x="1675" d="M119 1120q0 140 94.5 239t237.5 99q141 0 236 -99t95 -239q0 -142 -95 -242t-236 -100q-143 0 -237.5 99.5t-94.5 242.5zM180 1120q0 -123 76 -203.5t195 -80.5q118 0 194 81t76 203q0 118 -76.5 199.5t-193.5 81.5q-118 0 -194.5 -81t-76.5 -200zM393 0l826 1434h65 l-825 -1434h-66zM893 315q0 141 94.5 240.5t235.5 99.5q143 0 238 -99.5t95 -240.5q0 -143 -95 -241.5t-238 -98.5q-141 0 -235.5 99t-94.5 241zM952 317q0 -123 76 -203.5t195 -80.5q118 0 194 81t76 203q0 118 -76.5 199.5t-193.5 81.5q-118 0 -194.5 -81t-76.5 -200z" />
<glyph unicode="&#x26;" horiz-adv-x="1429" d="M117 424q0 83 28.5 156.5t74.5 123.5t93.5 83.5t94.5 50.5q-56 68 -86.5 132t-30.5 148q0 155 107.5 247.5t271.5 92.5q198 0 342 -115v-77q-149 133 -332 133q-145 0 -233.5 -74.5t-88.5 -204.5q0 -87 40.5 -159t117.5 -146l574 -549q145 196 151 490h64 q-3 -148 -46.5 -287t-125.5 -246l235 -223h-92l-184 174q-186 -199 -471 -199q-101 0 -192 30.5t-160.5 86t-110.5 141.5t-41 191zM182 424q0 -180 126 -284.5t313 -104.5q255 0 426 184l-594 572q-49 -14 -95.5 -45t-86.5 -76t-64.5 -109t-24.5 -137z" />
<glyph unicode="'" horiz-adv-x="317" d="M133 969v465h60v-465h-60z" />
<glyph unicode="(" horiz-adv-x="714" d="M215 514q0 545 309 932h70q-318 -408 -318 -932t318 -936h-70q-309 391 -309 936z" />
<glyph unicode=")" horiz-adv-x="714" d="M121 -422q317 411 317 936t-317 932h69q310 -389 310 -932t-310 -936h-69z" />
<glyph unicode="*" horiz-adv-x="872" d="M115 924l268 153l-268 154l28 49l267 -158v312h55l-2 -312l268 158l27 -49l-271 -154l271 -153l-27 -50l-268 158l2 -311h-55v311l-267 -158z" />
<glyph unicode="+" horiz-adv-x="1228" d="M143 631v59h443v443h59v-443h440v-59h-440v-441h-59v441h-443z" />
<glyph unicode="," horiz-adv-x="425" d="M59 -311l154 467h80l-174 -467h-60z" />
<glyph unicode="-" horiz-adv-x="978" d="M219 520v60h541v-60h-541z" />
<glyph unicode="." horiz-adv-x="440" d="M158 57q0 27 18 45.5t45 18.5q26 0 44 -18t18 -46q0 -26 -18 -43.5t-44 -17.5t-44.5 17.5t-18.5 43.5z" />
<glyph unicode="/" horiz-adv-x="1007" d="M39 -287l862 1909h70l-862 -1909h-70z" />
<glyph unicode="0" horiz-adv-x="1443" d="M154 717q0 209 71.5 378t201.5 266t294 97t294.5 -97t202.5 -266t72 -378q0 -210 -72 -379.5t-202.5 -266t-294.5 -96.5t-294 96.5t-201.5 266t-71.5 379.5zM217 717q0 -195 65 -351t180 -243.5t259 -87.5t259.5 87.5t181 243.5t65.5 351q0 194 -65.5 350t-181 244 t-259.5 88t-259 -88t-180 -244t-65 -350z" />
<glyph unicode="1" horiz-adv-x="735" d="M82 1151v68l338 215h59v-1434h-63v1362z" />
<glyph unicode="2" horiz-adv-x="1163" d="M94 0l2 51l520 506q67 64 108.5 107.5t84 96.5t65.5 97t37.5 97t14.5 110q0 147 -103.5 240.5t-271.5 93.5q-138 0 -238.5 -55t-189.5 -152v84q174 182 432 182q194 0 315 -108t121 -281q0 -75 -19 -140.5t-62.5 -132t-98.5 -127.5t-143 -145l-478 -465h859l-2 -59h-953z " />
<glyph unicode="3" horiz-adv-x="1153" d="M82 76v69q157 -110 403 -110q89 0 172 28t148.5 78t105 127.5t39.5 169.5q0 173 -123 278t-329 105q-61 0 -133 -14v49l514 518h-727v60h817v-48l-500 -509q10 2 35 2q102 0 193 -27.5t162.5 -81t113 -139t41.5 -193.5q0 -203 -150.5 -333t-374.5 -130q-241 0 -407 101z " />
<glyph unicode="4" horiz-adv-x="1277" d="M86 428v51l805 955h57v-947h254v-59h-254v-428h-61v428h-801zM166 487h721v850z" />
<glyph unicode="5" horiz-adv-x="1224" d="M141 68v67q160 -100 389 -100q209 0 344.5 115.5t135.5 285.5q0 164 -126.5 275.5t-332.5 111.5q-183 0 -346 -57l96 668h674v-60h-621l-78 -528q118 37 285 37q144 0 262 -57t186 -159.5t68 -230.5q0 -198 -156 -329.5t-393 -131.5q-227 0 -387 93z" />
<glyph unicode="6" horiz-adv-x="1304" d="M160 647q0 173 43 322.5t121 257.5t191.5 169.5t248.5 61.5q168 0 293 -86v-63q-133 90 -291 90q-107 0 -197 -42t-151.5 -112.5t-105 -165t-64.5 -198t-23 -213.5v-64q55 123 178 207t287 84q193 0 329 -126t136 -320q0 -203 -135.5 -338.5t-335.5 -135.5 q-239 0 -381.5 176t-142.5 496zM231 506q26 -216 141.5 -343.5t313.5 -127.5q169 0 286.5 117t117.5 294q0 174 -119 283t-291 109q-153 0 -275.5 -93.5t-173.5 -238.5z" />
<glyph unicode="7" horiz-adv-x="1103" d="M100 1374v60h904v-48l-703 -1386h-72l699 1374h-828z" />
<glyph unicode="8" horiz-adv-x="1325" d="M131 377q0 147 96 246.5t265 138.5q-129 35 -205 123t-76 213q0 160 127.5 260t323.5 100t324 -100t128 -260q0 -125 -77 -213t-206 -123q169 -39 265 -138.5t96 -246.5q0 -117 -70 -209t-190.5 -142.5t-269.5 -50.5q-148 0 -269 50.5t-191.5 142.5t-70.5 209zM197 383 q0 -149 134 -249.5t331 -100.5q198 0 332 100.5t134 249.5q0 152 -133 249t-333 97q-199 0 -332 -97t-133 -249zM272 1094q0 -134 112 -221t278 -87q167 0 278 87t111 221q0 135 -111 221t-278 86q-166 0 -278 -86t-112 -221z" />
<glyph unicode="9" horiz-adv-x="1304" d="M152 983q0 203 135.5 339t335.5 136q241 0 383.5 -176t142.5 -496q0 -173 -43.5 -322.5t-121.5 -257.5t-192 -169.5t-249 -61.5q-169 0 -291 86v64q133 -90 291 -90q107 0 197 42t151.5 112.5t104.5 165t63.5 198t21.5 213.5q2 20 2 63q-55 -123 -179 -206.5t-288 -83.5 q-193 0 -328.5 125t-135.5 319zM217 987q0 -174 120 -282.5t292 -108.5q152 0 274 93.5t174 238.5q-26 216 -141 343.5t-313 127.5q-169 0 -287.5 -118t-118.5 -294z" />
<glyph unicode=":" horiz-adv-x="440" d="M158 57q0 27 18 45.5t45 18.5q26 0 44 -18t18 -46q0 -26 -18 -43.5t-44 -17.5t-44.5 17.5t-18.5 43.5zM158 870q0 28 18 46t45 18q26 0 44 -18t18 -46q0 -26 -18 -43.5t-44 -17.5t-44.5 17.5t-18.5 43.5z" />
<glyph unicode=";" horiz-adv-x="425" d="M59 -311l154 467h80l-174 -467h-60zM160 870q0 28 18 46t45 18q26 0 44 -18t18 -46q0 -26 -18 -43.5t-44 -17.5t-44.5 17.5t-18.5 43.5z" />
<glyph unicode="&#x3c;" horiz-adv-x="1228" d="M143 623v61l942 416v-68l-862 -379l862 -379v-65z" />
<glyph unicode="=" horiz-adv-x="1228" d="M143 395v60h942v-60h-942zM143 862v60h942v-60h-942z" />
<glyph unicode="&#x3e;" horiz-adv-x="1228" d="M143 209v65l865 379l-865 379v68l942 -416v-61z" />
<glyph unicode="?" horiz-adv-x="946" d="M66 1266v65q64 51 156.5 83t195.5 32q174 0 293.5 -104t119.5 -267q0 -76 -31 -142.5t-85.5 -116t-121 -86t-144.5 -60.5v-250h-62v291q68 15 132.5 45t121 74t91 107.5t34.5 135.5q0 138 -100 225.5t-254 87.5q-198 0 -346 -120zM356 57q0 27 18.5 45.5t45.5 18.5 q26 0 43.5 -18t17.5 -46q0 -26 -17.5 -43.5t-43.5 -17.5q-27 0 -45.5 17.5t-18.5 43.5z" />
<glyph unicode="@" horiz-adv-x="1990" d="M117 561q0 188 69.5 355t188 285.5t281 187.5t341.5 69q185 0 348.5 -66.5t279 -179.5t182.5 -268.5t67 -329.5q0 -129 -38.5 -235t-115 -170t-176.5 -64q-97 0 -151.5 50.5t-75.5 123.5q-48 -67 -138 -120.5t-200 -53.5q-119 0 -213 58.5t-143.5 153t-49.5 204.5 t49.5 204.5t143.5 153t213 58.5q108 0 192.5 -49.5t135.5 -114.5v131h61v-538q0 -106 50 -162t132 -56q127 0 204 121.5t77 306.5q0 158 -60.5 303t-167 255.5t-264.5 176.5t-342 66q-177 0 -333.5 -68.5t-266 -184t-173.5 -273t-64 -330.5q0 -232 107.5 -427.5t300.5 -312 t429 -116.5q217 0 412 100v-45q-190 -96 -412 -96q-179 0 -341.5 69.5t-281 188t-188 285.5t-69.5 354zM639 561q0 -150 100 -253t250 -103q96 0 183 52t135 136v336q-48 83 -135.5 136t-182.5 53q-150 0 -250 -103t-100 -254z" />
<glyph unicode="A" horiz-adv-x="1513" d="M74 0l653 1444h59l654 -1444h-68l-198 436h-836l-199 -436h-65zM362 494h789l-395 862z" />
<glyph unicode="B" horiz-adv-x="1486" d="M223 0v1434h590q190 0 294.5 -92.5t104.5 -251.5q0 -116 -55 -195.5t-158 -116.5q162 -23 252 -125t90 -258q0 -180 -119 -287.5t-335 -107.5h-664zM287 59h592q189 0 292 89t103 251q0 160 -103.5 249t-291.5 89h-592v-678zM287 795h520q163 0 252.5 75t89.5 213 t-89.5 214.5t-252.5 76.5h-520v-579z" />
<glyph unicode="C" horiz-adv-x="1421" d="M160 717q0 158 55 296t149.5 235.5t226 153.5t279.5 56q240 0 414 -117v-69q-190 127 -412 127q-134 0 -253.5 -52t-206 -142t-137 -217t-50.5 -271t50.5 -271t137 -217t206.5 -142t255 -52q256 0 445 153v-73q-181 -140 -449 -140q-198 0 -360.5 95t-256 265.5 t-93.5 381.5z" />
<glyph unicode="D" horiz-adv-x="1585" d="M223 0v1434h430q227 0 402 -89.5t271.5 -252.5t96.5 -375t-96.5 -375t-271.5 -252.5t-402 -89.5h-430zM287 59h350q331 0 526 181t195 477t-195 476.5t-526 180.5h-350v-1315z" />
<glyph unicode="E" horiz-adv-x="1300" d="M223 0v1434h942v-60h-878v-573h729v-60h-729v-682h913v-59h-977z" />
<glyph unicode="F" horiz-adv-x="1257" d="M223 0v1434h934v-60h-870v-592h725v-59h-725v-723h-64z" />
<glyph unicode="G" horiz-adv-x="1603" d="M160 717q0 158 55 296t149.5 235.5t226 153.5t279.5 56q132 0 255.5 -39t215.5 -114v-72q-97 81 -219.5 123.5t-249.5 42.5q-134 0 -253.5 -51.5t-206 -141.5t-137 -217t-50.5 -272t50.5 -272.5t137.5 -217t205.5 -141t251.5 -51.5q144 0 270 47.5t208 136.5v600h65v-626 q-93 -101 -232.5 -159.5t-310.5 -58.5q-148 0 -279 56t-226 153.5t-150 236t-55 296.5z" />
<glyph unicode="H" horiz-adv-x="1554" d="M223 0v1434h64v-633h981v633h63v-1434h-63v741h-981v-741h-64z" />
<glyph unicode="I" horiz-adv-x="536" d="M236 0v1434h65v-1434h-65z" />
<glyph unicode="J" horiz-adv-x="1024" d="M78 74v76q59 -54 141.5 -84.5t171.5 -30.5q365 0 365 387v1012h63v-1020q0 -216 -109 -327.5t-313 -111.5q-192 0 -319 99z" />
<glyph unicode="K" horiz-adv-x="1298" d="M223 0v1434h64v-1434h-64zM362 748v53l723 633h95l-752 -658l866 -776h-96z" />
<glyph unicode="L" horiz-adv-x="1206" d="M223 0v1434h64v-1375h850v-59h-914z" />
<glyph unicode="M" horiz-adv-x="1732" d="M223 0v1434h66l577 -754l580 754h63v-1434h-63v1331l-555 -719h-47l-557 719v-1331h-64z" />
<glyph unicode="N" horiz-adv-x="1585" d="M223 0v1434h60l1015 -1321v1321h64v-1434h-59l-1016 1323v-1323h-64z" />
<glyph unicode="O" d="M160 717q0 157 54.5 295t148.5 235.5t225.5 154t279.5 56.5t278.5 -56.5t224 -154t148 -235.5t54.5 -295q0 -210 -92.5 -380.5t-254 -266t-358.5 -95.5q-198 0 -360 95.5t-255 265.5t-93 381zM225 717q0 -144 50 -271t136 -217t205 -142t252 -52q132 0 250.5 52 t203.5 142t135 217t50 271q0 143 -50 270t-135 217t-203.5 142.5t-250.5 52.5q-133 0 -252 -52.5t-205 -142.5t-136 -217t-50 -270z" />
<glyph unicode="P" horiz-adv-x="1359" d="M223 0v1434h590q207 0 320.5 -102.5t113.5 -274.5q0 -173 -113.5 -276t-320.5 -103h-526v-678h-64zM287 737h522q177 0 275 83t98 235t-98 235.5t-275 83.5h-522v-637z" />
<glyph unicode="Q" d="M160 717q0 157 54.5 295t148.5 235.5t225.5 154t279.5 56.5t278.5 -56.5t224 -154t148 -235.5t54.5 -295q0 -265 -142 -460t-372 -257q149 -162 303 -162q103 0 170 49v-67q-71 -41 -172 -41q-177 0 -375 207q-68 -11 -117 -11q-198 0 -360 95.5t-255 265.5t-93 381z M225 717q0 -144 50 -271t136 -217t205 -142t252 -52q132 0 250.5 52t204.5 142t136 217t50 271q0 143 -50 270t-136 217t-204.5 142.5t-250.5 52.5q-133 0 -252 -52.5t-205 -142.5t-136 -217t-50 -270z" />
<glyph unicode="R" horiz-adv-x="1505" d="M223 0v1434h631q201 0 313.5 -101t112.5 -268q0 -155 -95 -253.5t-270 -115.5l478 -696h-78l-475 692h-553v-692h-64zM287 752h561q174 0 270 81t96 230t-96 230t-270 81h-561v-622z" />
<glyph unicode="S" horiz-adv-x="1269" d="M98 129v74q81 -67 216.5 -117.5t295.5 -50.5q198 0 324.5 92t126.5 242q0 47 -13 87t-32.5 70t-55 57t-67.5 45t-84.5 38t-91 31.5t-101.5 29.5q-69 19 -112.5 32.5t-98 34t-88 40t-69 48t-54.5 60.5t-31.5 74.5t-12.5 93.5q0 70 29 131.5t85 110.5t147 77.5t205 28.5 q251 0 431 -121v-67q-193 129 -426 129q-103 0 -183 -24.5t-127.5 -66.5t-71.5 -92t-24 -106q0 -60 24 -107.5t53 -76t92.5 -57t101 -40.5t119.5 -35l42 -12q190 -56 270 -97q174 -89 203 -245q6 -34 6 -71q0 -94 -42.5 -170.5t-114 -124.5t-162 -73.5t-191.5 -25.5 q-159 0 -300 46t-218 108z" />
<glyph unicode="T" horiz-adv-x="1261" d="M76 1374v60h1110v-60h-524v-1374h-64v1374h-522z" />
<glyph unicode="U" horiz-adv-x="1527" d="M201 612v822h63v-822q0 -272 133.5 -424.5t366.5 -152.5t367.5 152.5t134.5 424.5v822h63v-822q0 -153 -41.5 -274.5t-116.5 -200.5t-178.5 -120.5t-228.5 -41.5q-256 0 -409.5 166t-153.5 471z" />
<glyph unicode="V" horiz-adv-x="1525" d="M86 1434h68l610 -1352l608 1352h68l-647 -1442h-60z" />
<glyph unicode="W" horiz-adv-x="2117" d="M98 1434h72l461 -1336l401 1338h53l404 -1338l461 1336h69l-501 -1442h-58l-401 1323l-402 -1323h-57z" />
<glyph unicode="X" horiz-adv-x="1421" d="M82 0l588 780l-490 654h80l451 -600l452 600h78l-489 -652l589 -782h-84l-548 729l-547 -729h-80z" />
<glyph unicode="Y" horiz-adv-x="1300" d="M59 1434h78l514 -703l514 703h78l-559 -766v-668h-66v668z" />
<glyph unicode="Z" horiz-adv-x="1306" d="M117 0v45l956 1329h-899v60h985v-45l-952 -1330h983v-59h-1073z" />
<glyph unicode="[" horiz-adv-x="735" d="M211 -422v1868h442v-55h-381v-1758h381v-55h-442z" />
<glyph unicode="\" horiz-adv-x="1005" d="M41 1622h70l862 -1909h-70z" />
<glyph unicode="]" horiz-adv-x="735" d="M82 -367h381v1758h-381v55h442v-1868h-442v55z" />
<glyph unicode="^" horiz-adv-x="1011" d="M131 717l344 725h60l346 -725h-66l-309 655l-309 -655h-66z" />
<glyph unicode="_" horiz-adv-x="1230" d="M16 -178h1198v-60h-1198v60z" />
<glyph unicode="`" horiz-adv-x="1067" d="M375 1434h86l198 -258h-73z" />
<glyph unicode="a" horiz-adv-x="1200" d="M106 291q0 139 115 226t291 87q206 0 397 -112v151q0 143 -94 217t-268 74q-98 0 -186 -32t-146 -73v68q55 38 144.5 67t197.5 29q88 0 162 -20t131.5 -61t90 -109.5t32.5 -159.5v-446q0 -69 29.5 -108.5t80.5 -39.5q32 0 56 12v-55q-19 -12 -66 -12q-65 0 -111.5 44.5 t-50.5 131.5q-72 -86 -180.5 -140.5t-247.5 -54.5q-98 0 -181.5 34t-139.5 107.5t-56 174.5zM172 291q0 -67 28.5 -118t76.5 -80t104.5 -43.5t120.5 -14.5q128 0 235.5 62t171.5 147v182q-186 123 -381 123q-164 0 -260 -70.5t-96 -187.5z" />
<glyph unicode="b" horiz-adv-x="1286" d="M190 0v1434h64v-650q68 95 174.5 152t237.5 57q149 0 265.5 -72t177 -187.5t60.5 -250.5q0 -133 -60.5 -248t-177.5 -187.5t-265 -72.5q-131 0 -237.5 57t-174.5 152v-184h-64zM254 283q52 -109 162.5 -178.5t240.5 -69.5q190 0 318.5 129.5t128.5 318.5 q0 191 -128.5 321t-318.5 130q-130 0 -240.5 -69.5t-162.5 -178.5v-403z" />
<glyph unicode="c" horiz-adv-x="1075" d="M117 483q0 136 62.5 251.5t181 187t268.5 71.5q166 0 293 -75v-68q-134 84 -289 84q-191 0 -321 -129.5t-130 -321.5q0 -190 130 -319t321 -129q180 0 309 94v-66q-133 -88 -315 -88q-149 0 -267 71t-180.5 186.5t-62.5 250.5z" />
<glyph unicode="d" horiz-adv-x="1288" d="M117 483q0 135 61.5 250.5t178.5 187.5t266 72q131 0 237 -57t172 -152v650h64v-1434h-64v184q-66 -95 -172 -152t-237 -57q-148 0 -265.5 72.5t-179 187.5t-61.5 248zM182 483q0 -189 129.5 -318.5t319.5 -129.5q129 0 240 69.5t161 178.5v403q-50 109 -161 178.5 t-240 69.5q-190 0 -319.5 -130t-129.5 -321z" />
<glyph unicode="e" horiz-adv-x="1159" d="M117 483q0 220 135.5 365t347.5 145q100 0 179.5 -34t127.5 -85.5t80.5 -119t44.5 -128t12 -118.5v-21h-862q3 -199 134 -325.5t337 -126.5q186 0 314 90v-64q-51 -36 -137.5 -61t-182.5 -25q-149 0 -270 65.5t-190.5 182t-69.5 260.5zM184 541h797q-2 49 -14 99 t-40.5 104t-70 95t-108.5 68t-150 27q-94 0 -172.5 -35t-128.5 -92.5t-79 -126t-34 -139.5z" />
<glyph unicode="f" horiz-adv-x="749" d="M59 909v60h207v213q0 124 63.5 194t180.5 70q100 0 178 -41v-62q-84 43 -170 43q-92 0 -140 -57t-48 -162v-198h358v-60h-358v-909h-64v909h-207z" />
<glyph unicode="g" horiz-adv-x="1286" d="M117 487q0 133 61.5 248t179 186.5t265.5 71.5q132 0 238 -55.5t171 -151.5v183h64v-934q0 -219 -139 -335t-365 -116q-97 0 -200.5 26.5t-174.5 65.5v66q76 -46 175 -72t194 -26q203 0 324.5 99t121.5 292v147q-66 -95 -171.5 -151t-237.5 -56q-149 0 -266 72.5 t-178.5 188.5t-61.5 251zM182 487q0 -191 129.5 -321.5t319.5 -130.5q129 0 240 69t161 177v407q-50 108 -161 177t-240 69q-190 0 -319.5 -129t-129.5 -318z" />
<glyph unicode="h" horiz-adv-x="1228" d="M190 0v1434h64v-646q66 83 178.5 144t245.5 61q189 0 284 -105.5t95 -299.5v-588h-64v575q0 89 -21.5 156t-54 105t-79 61t-87 30t-87.5 7q-119 0 -236 -70.5t-174 -163.5v-700h-64z" />
<glyph unicode="i" horiz-adv-x="499" d="M188 1321q0 26 18 43.5t44 17.5t43.5 -17.5t17.5 -43.5t-17.5 -43.5t-43.5 -17.5t-44 17.5t-18 43.5zM217 0v969h64v-969h-64z" />
<glyph unicode="j" horiz-adv-x="499" d="M-109 -317v-66q68 -33 146 -33q38 0 71 7t65.5 25.5t55.5 47.5t37.5 76t14.5 108v1121h-64v-1106q0 -219 -188 -219q-72 0 -138 39zM188 1321q0 26 18 43.5t44 17.5t43.5 -17.5t17.5 -43.5t-17.5 -43.5t-43.5 -17.5t-44 17.5t-18 43.5z" />
<glyph unicode="k" horiz-adv-x="1034" d="M190 0v1434h64v-1434h-64zM324 504v51l501 414h97l-537 -439l610 -530h-96z" />
<glyph unicode="l" horiz-adv-x="557" d="M190 195v1239h64v-1231q0 -168 152 -168q54 0 108 33v-64q-51 -29 -123 -29q-38 0 -71 10t-63.5 33.5t-48.5 68.5t-18 108z" />
<glyph unicode="m" horiz-adv-x="1863" d="M190 0v969h64v-170q57 83 154.5 138.5t224.5 55.5q124 0 204 -56.5t113 -162.5q61 94 163 156.5t237 62.5q167 0 254.5 -100.5t87.5 -288.5v-604h-64v594q0 87 -21 151.5t-51 99.5t-72.5 56t-76 27t-70.5 6q-114 0 -214.5 -67.5t-151.5 -170.5q4 -35 4 -106v-590h-64v594 q0 87 -21 152t-51.5 100t-73 56t-76.5 26.5t-71 5.5q-107 0 -208 -63.5t-156 -161.5v-709h-64z" />
<glyph unicode="n" horiz-adv-x="1228" d="M190 0v969h64v-181q66 83 178.5 144t245.5 61q189 0 284 -105.5t95 -299.5v-588h-64v575q0 89 -21.5 156t-54 105t-79 61t-87 30t-87.5 7q-119 0 -236 -70.5t-174 -163.5v-700h-64z" />
<glyph unicode="o" horiz-adv-x="1255" d="M117 483q0 135 62 250.5t180.5 187.5t269.5 72t269 -72t179.5 -187.5t61.5 -250.5q0 -134 -61.5 -249t-180 -187t-268.5 -72t-269 72t-181 187t-62 249zM182 483q0 -189 128.5 -318.5t318.5 -129.5q189 0 316.5 129.5t127.5 318.5q0 191 -127.5 321t-316.5 130 q-190 0 -318.5 -130t-128.5 -321z" />
<glyph unicode="p" horiz-adv-x="1286" d="M190 -410v1379h64v-185q68 95 174.5 152t237.5 57q149 0 265.5 -72t177 -187.5t60.5 -250.5q0 -133 -60.5 -248t-177.5 -187.5t-265 -72.5q-131 0 -237.5 57t-174.5 152v-594h-64zM254 283q52 -109 162.5 -178.5t240.5 -69.5q190 0 318.5 129.5t128.5 318.5 q0 191 -128.5 321t-318.5 130q-131 0 -241 -69t-162 -179v-403z" />
<glyph unicode="q" horiz-adv-x="1288" d="M117 483q0 135 61.5 250.5t178.5 187.5t266 72q131 0 237 -57t172 -152v185h64v-1379h-64v594q-66 -95 -172 -152t-237 -57q-148 0 -265.5 72.5t-179 187.5t-61.5 248zM184 483q0 -189 128.5 -318.5t318.5 -129.5q129 0 240 69.5t161 178.5v403q-50 110 -160.5 179 t-240.5 69q-190 0 -318.5 -130t-128.5 -321z" />
<glyph unicode="r" horiz-adv-x="681" d="M190 0v969h64v-211q47 89 153 162t242 73v-63q-133 0 -240 -80t-155 -186v-664h-64z" />
<glyph unicode="s" horiz-adv-x="1017" d="M94 84v70q65 -46 171.5 -82.5t228.5 -36.5q152 0 243.5 58t91.5 153q0 39 -19.5 70.5t-42 50.5t-75 39t-81 28t-97.5 25q-26 7 -39 10q-46 12 -74.5 20t-69.5 22.5t-66 27.5t-54 34t-44.5 44t-26.5 55t-11 69q0 114 96 183t273 69q93 0 189 -24.5t157 -65.5v-67 q-68 43 -159 70.5t-183 27.5q-153 0 -231 -55t-78 -140q0 -33 10.5 -60t34 -47.5t46 -35t64 -28.5t69 -22t77.5 -21q1 0 2 -0.5t2 -0.5q17 -4 56 -14t57.5 -15t54 -15.5t53.5 -18t46.5 -21t43.5 -26t33.5 -31t28 -38t16 -45t6.5 -54.5q0 -127 -115 -199t-284 -72 q-120 0 -231 33.5t-169 75.5z" />
<glyph unicode="t" horiz-adv-x="858" d="M59 909v60h256v321h64v-321h377v-60h-377v-659q0 -114 47.5 -164.5t142.5 -50.5q82 0 172 49v-61q-27 -19 -78 -33.5t-104 -14.5q-115 0 -179.5 66.5t-64.5 191.5v676h-256z" />
<glyph unicode="u" horiz-adv-x="1234" d="M176 381v588h64v-576q0 -358 329 -358q121 0 238 70t172 163v701h63v-969h-63v180q-66 -83 -178 -144t-246 -61q-189 0 -284 106t-95 300z" />
<glyph unicode="v" horiz-adv-x="1122" d="M72 969h71l420 -891l420 891h70l-461 -977h-60z" />
<glyph unicode="w" horiz-adv-x="1656" d="M96 969h68l321 -877l316 881h55l315 -881l322 877h66l-359 -977h-55l-318 882l-313 -882h-57z" />
<glyph unicode="x" horiz-adv-x="1091" d="M80 0l432 518l-373 451h82l332 -400l334 400h78l-373 -449l432 -520h-80l-393 473l-393 -473h-78z" />
<glyph unicode="y" horiz-adv-x="1093" d="M59 969h72l414 -877l401 877h70l-498 -1082q-34 -74 -65 -125t-70 -93.5t-86 -63.5t-102 -21q-84 0 -132 31v61q59 -32 125 -32q43 0 80.5 17.5t66 44.5t60 78.5t55.5 101t60 130.5z" />
<glyph unicode="z" horiz-adv-x="993" d="M80 0v43l711 866h-660v60h750v-43l-707 -867h739v-59h-833z" />
<glyph unicode="{" horiz-adv-x="688" d="M115 481v60q32 3 57.5 16.5t42 30.5t28 46.5t17 52.5t8.5 61t3.5 60t0.5 60v328q0 120 64.5 185t179.5 65h90v-57h-82q-96 0 -143 -52t-47 -147v-330q0 -50 -2 -88t-10 -83t-21 -76.5t-37.5 -59t-58.5 -41.5q42 -18 69 -48t39.5 -74t16.5 -85.5t4 -103.5v-367 q0 -199 190 -199h82v-57h-90q-115 0 -179.5 65t-64.5 185v362q0 37 -0.5 57.5t-3.5 54.5t-8.5 54t-17 45t-28 39.5t-41.5 26t-58 14.5z" />
<glyph unicode="|" horiz-adv-x="573" d="M256 -227v1783h61v-1783h-61z" />
<glyph unicode="}" horiz-adv-x="688" d="M82 -365h82q190 0 190 199v367q0 62 4 103.5t16.5 85.5t39.5 74t69 48q-34 14 -58.5 41.5t-37.5 59t-21 76.5t-10 83t-2 88v330q0 95 -47 147t-143 52h-82v57h90q115 0 179.5 -65t64.5 -185v-328q0 -38 0.5 -60t3.5 -60t8.5 -61t17 -52.5t28 -46.5t42 -30.5t57.5 -16.5 v-60q-33 -3 -58 -14.5t-41.5 -26t-28 -39.5t-17 -45t-8.5 -54t-3.5 -54.5t-0.5 -57.5v-362q0 -120 -64.5 -185t-179.5 -65h-90v57z" />
<glyph unicode="~" horiz-adv-x="1134" d="M143 461v65q25 35 80.5 56.5t120.5 21.5q79 0 223.5 -49t223.5 -49q125 0 200 84v-66q-26 -34 -81.5 -54.5t-118.5 -20.5q-79 0 -223.5 50t-223.5 50q-128 0 -201 -88z" />
<glyph unicode="&#xa1;" horiz-adv-x="518" d="M197 915q0 28 16.5 45t44.5 17t46 -17t18 -45t-18 -45.5t-46 -17.5t-44.5 17.5t-16.5 45.5zM221 -410l8 973h62l4 -973h-74z" />
<glyph unicode="&#xa2;" horiz-adv-x="1073" d="M117 483q0 131 58.5 244.5t170.5 186t254 79.5v215h57v-215q147 -6 265 -75v-68q-134 84 -291 84q-191 0 -320 -129.5t-129 -321.5q0 -190 129 -319t320 -129q180 0 309 94v-66q-125 -82 -283 -88v-213h-57v213q-142 7 -254 79t-170.5 185t-58.5 244z" />
<glyph unicode="&#xa3;" horiz-adv-x="1177" d="M143 0v59h52q43 0 63.5 38.5t20.5 95.5v442h-136v59h136v320q0 213 116 328.5t324 115.5q201 0 336 -98v-70q-60 52 -150 80.5t-184 28.5q-182 0 -280.5 -101t-98.5 -292v-312h625v-59h-625v-469q0 -70 -43 -107h758v-59h-914z" />
<glyph unicode="&#xa4;" horiz-adv-x="1134" d="M133 326l131 131q-94 115 -94 262q0 145 94 260l-131 131l41 41l131 -131q111 96 262 96q153 0 260 -96l131 131l43 -41l-135 -131q95 -112 95 -260q0 -147 -91 -262l131 -131l-43 -39l-131 129q-109 -94 -260 -94t-262 96l-131 -131zM231 719q0 -143 97 -241.5 t239 -98.5q141 0 238.5 98.5t97.5 241.5t-97.5 241.5t-238.5 98.5q-142 0 -239 -98.5t-97 -241.5z" />
<glyph unicode="&#xa5;" horiz-adv-x="1224" d="M59 1434h74l479 -705l480 705h75l-495 -732h420v-59h-447v-256h447v-59h-447v-328h-63v328h-449v59h449v256h-449v59h422z" />
<glyph unicode="&#xa6;" horiz-adv-x="573" d="M256 -227v723h61v-723h-61zM256 834v722h61v-722h-61z" />
<glyph unicode="&#xa7;" horiz-adv-x="1310" d="M156 635q0 105 68.5 180.5t185.5 112.5q-94 46 -142.5 104t-48.5 142q0 122 111 203t319 81q232 0 438 -117v-69q-210 127 -442 127q-164 0 -263 -62.5t-99 -165.5q0 -23 5 -44t18 -40t25 -34.5t36.5 -31t41.5 -27t51 -25.5t54.5 -22.5t62 -22t63 -20.5t67.5 -21 q108 -34 185 -68.5t139 -78.5t93 -99.5t31 -122.5q0 -106 -68 -181.5t-186 -111.5q94 -46 143.5 -104.5t49.5 -141.5q0 -121 -112 -202.5t-320 -81.5q-231 0 -439 116v68q213 -125 445 -125q163 0 261.5 62t98.5 165q0 45 -25 83.5t-54.5 63t-97 54t-108.5 43.5t-133 43 q-4 1 -6 2q-109 35 -185.5 68.5t-138.5 77.5t-93 99.5t-31 123.5zM217 637q0 -50 21.5 -92t61.5 -74t86.5 -58t108.5 -48.5t114.5 -39.5t117 -37t104.5 -36q120 27 191.5 95.5t71.5 164.5q0 49 -21.5 91t-61.5 74t-86.5 58t-108.5 49t-115 39.5t-117.5 37t-104.5 36.5 q-118 -27 -190 -96t-72 -164z" />
<glyph unicode="&#xa8;" horiz-adv-x="1067" d="M285 1317q0 25 17.5 42t43.5 17q25 0 42.5 -17t17.5 -42q0 -26 -17.5 -44t-42.5 -18q-26 0 -43.5 18t-17.5 44zM664 1317q0 25 17 42t44 17q25 0 42 -17t17 -42q0 -26 -17 -44t-42 -18q-27 0 -44 17.5t-17 44.5z" />
<glyph unicode="&#xa9;" horiz-adv-x="1804" d="M160 719q0 150 58.5 287t157.5 236t236.5 157.5t288.5 58.5q152 0 289 -58.5t236 -158t157.5 -237t58.5 -289.5q0 -150 -58.5 -287t-157.5 -236.5t-236.5 -158t-288.5 -58.5t-288.5 59t-236.5 158.5t-157.5 237t-58.5 289.5zM203 715q0 -190 93 -351t254 -254.5 t351 -93.5q191 0 352.5 93.5t255 254.5t93.5 351q0 143 -55.5 273t-149 224t-223.5 149.5t-273 55.5t-272 -55.5t-222.5 -149.5t-148.5 -224t-55 -273zM565 717q0 167 108.5 278t268.5 111q117 0 207 -55v-64q-88 60 -207 60q-135 0 -225 -92.5t-90 -237.5t90.5 -237.5 t226.5 -92.5q137 0 230 78v-64q-91 -73 -232 -73q-160 0 -268.5 111t-108.5 278z" />
<glyph unicode="&#xaa;" horiz-adv-x="1069" d="M143 897q0 112 89.5 179t222.5 67q157 0 299 -86v106q0 111 -70.5 166t-202.5 55q-76 0 -144 -24t-112 -55v63q40 30 111 52t156 22q145 0 234 -67t89 -206v-340q0 -52 22 -80t62 -28q25 0 41 8v-51q-17 -12 -55 -12q-51 0 -87.5 34t-39.5 99q-129 -148 -326 -148 q-117 0 -203 65.5t-86 180.5zM205 897q0 -94 72 -141t174 -47q95 0 176.5 46t126.5 109v131q-52 35 -128 62.5t-157 27.5q-121 0 -192.5 -51.5t-71.5 -136.5z" />
<glyph unicode="&#xab;" horiz-adv-x="1077" d="M113 465v39l325 379h78l-340 -400l340 -397h-78zM561 465v39l326 379h78l-340 -400l340 -397h-78z" />
<glyph unicode="&#xac;" horiz-adv-x="1120" d="M143 692v60h834v-424h-62v364h-772z" />
<glyph unicode="&#xad;" horiz-adv-x="960" d="M219 518v60h522v-60h-522z" />
<glyph unicode="&#xae;" horiz-adv-x="1804" d="M160 719q0 150 58.5 287t157.5 236t236.5 157.5t288.5 58.5q152 0 289 -58.5t236 -158t157.5 -237t58.5 -289.5q0 -150 -58.5 -287t-157.5 -236.5t-236.5 -158t-288.5 -58.5t-288.5 59t-236.5 158.5t-157.5 237t-58.5 289.5zM203 715q0 -190 93 -351t254 -254.5 t351 -93.5q191 0 352.5 93.5t255 254.5t93.5 351q0 143 -55.5 273t-149 224t-223.5 149.5t-273 55.5t-272 -55.5t-222.5 -149.5t-148.5 -224t-55 -273zM645 344v752h340q110 0 171 -55.5t61 -145.5q0 -80 -47.5 -132.5t-135.5 -64.5l250 -354h-70l-247 350h-262v-350h-60z M705 745h278q83 0 128.5 39t45.5 111q0 70 -45.5 108.5t-128.5 38.5h-278v-297z" />
<glyph unicode="&#xaf;" horiz-adv-x="1064" d="M309 1288v58h449v-58h-449z" />
<glyph unicode="&#xb0;" horiz-adv-x="911" d="M156 1159q0 123 88 211t211 88t212 -88t89 -211t-89 -211t-212 -88t-211 88t-88 211zM213 1159q0 -101 70.5 -172.5t171.5 -71.5t172 71.5t71 172.5q0 102 -71 174t-172 72t-171.5 -72t-70.5 -174z" />
<glyph unicode="&#xb1;" horiz-adv-x="1228" d="M143 154v59h942v-59h-942zM143 735v60h443v354h59v-354h440v-60h-440v-356h-59v356h-443z" />
<glyph unicode="&#xb2;" horiz-adv-x="727" d="M94 659v48l275 260q82 79 119.5 135.5t37.5 122.5q0 70 -50 114.5t-134 44.5q-126 0 -233 -100v68q41 37 102.5 63.5t134.5 26.5q105 0 173.5 -60t68.5 -153q0 -77 -41.5 -143.5t-130.5 -153.5l-226 -217h426v-56h-522z" />
<glyph unicode="&#xb3;" horiz-adv-x="653" d="M53 709v61q100 -63 223 -63q93 0 161.5 53.5t68.5 140.5q0 85 -59.5 135.5t-163.5 50.5q-42 0 -80 -12v47l252 256h-367v56h455v-43l-248 -252q112 -2 192 -62t80 -176q0 -109 -82 -179.5t-206 -70.5q-137 0 -226 58z" />
<glyph unicode="&#xb4;" horiz-adv-x="1054" d="M410 1176l198 258h86l-211 -258h-73z" />
<glyph unicode="&#xb5;" horiz-adv-x="1249" d="M190 -410v1379h66v-578q0 -356 330 -356q121 0 237 70t170 163v701h64v-969h-64v180q-66 -83 -178 -144t-246 -61q-227 0 -313 162v-547h-66z" />
<glyph unicode="&#xb6;" horiz-adv-x="1009" d="M111 1057q0 172 113.5 274.5t318.5 102.5h241v-1434h-63v682h-178q-205 0 -318.5 102t-113.5 273z" />
<glyph unicode="&#xb7;" horiz-adv-x="440" d="M158 766q0 27 18 45t45 18t44.5 -17.5t17.5 -45.5q0 -26 -18 -43.5t-44 -17.5t-44.5 17.5t-18.5 43.5z" />
<glyph unicode="&#xb8;" horiz-adv-x="950" d="M315 -254l174 262h60l-154 -262h-80z" />
<glyph unicode="&#xb9;" horiz-adv-x="507" d="M51 1231v65l221 138h58v-775h-62v705z" />
<glyph unicode="&#xba;" horiz-adv-x="968" d="M84 1044q0 105 49 195.5t142.5 146.5t211.5 56q177 0 287.5 -117.5t110.5 -280.5q0 -106 -48 -195t-140 -143.5t-210 -54.5q-178 0 -290.5 115t-112.5 278zM150 1044q0 -143 96.5 -239t240.5 -96q141 0 237.5 96.5t96.5 238.5q0 144 -96.5 242t-237.5 98 q-144 0 -240.5 -97.5t-96.5 -242.5z" />
<glyph unicode="&#xbb;" horiz-adv-x="1077" d="M113 86l340 397l-340 400h77l326 -379v-39l-326 -379h-77zM561 86l340 397l-340 400h78l326 -379v-39l-326 -379h-78z" />
<glyph unicode="&#xbc;" horiz-adv-x="1474" d="M51 1231v65l221 138h58v-775h-62v705zM246 0l827 1434h70l-826 -1434h-71zM813 217v47l426 510h55v-502h129v-55h-129v-217h-61v217h-420zM891 272h342v408z" />
<glyph unicode="&#xbd;" horiz-adv-x="1624" d="M51 1231v65l221 138h58v-775h-62v705zM246 0l827 1434h70l-826 -1434h-71zM991 0v47l275 260q82 79 119.5 135.5t37.5 122.5q0 70 -50.5 115t-133.5 45q-126 0 -233 -100v67q41 37 102.5 63.5t134.5 26.5q105 0 173.5 -60t68.5 -153q0 -77 -41.5 -143.5t-130.5 -153.5 l-226 -217h426v-55h-522z" />
<glyph unicode="&#xbe;" horiz-adv-x="1587" d="M53 709v61q100 -63 223 -63q93 0 161.5 53.5t68.5 140.5q0 85 -59.5 135.5t-163.5 50.5q-42 0 -80 -12v47l252 256h-367v56h455v-43l-248 -252q112 -2 192 -62t80 -176q0 -109 -82 -179.5t-206 -70.5q-137 0 -226 58zM358 0l828 1434h69l-825 -1434h-72zM926 217v47 l426 510h55v-502h129v-55h-129v-217h-61v217h-420zM1004 272h342v408z" />
<glyph unicode="&#xbf;" horiz-adv-x="946" d="M115 -49q0 75 31.5 141.5t86.5 116t121.5 85.5t143.5 60v209h61v-252q-68 -15 -132.5 -44.5t-121 -73.5t-91 -107t-34.5 -135q0 -136 100.5 -222.5t254.5 -86.5q198 0 346 120v-65q-64 -51 -157 -83t-196 -32q-174 0 -293.5 102.5t-119.5 266.5zM465 915q0 26 18 44 t43 18q28 0 46 -18t18 -44q0 -28 -18 -45.5t-46 -17.5q-25 0 -43 18t-18 45z" />
<glyph unicode="&#xc0;" horiz-adv-x="1513" d="M74 0l653 1444h59l654 -1444h-68l-198 436h-836l-199 -436h-65zM362 494h789l-395 862zM506 1825h86l199 -258h-74z" />
<glyph unicode="&#xc1;" horiz-adv-x="1513" d="M74 0l653 1444h59l654 -1444h-68l-198 436h-836l-199 -436h-65zM362 494h789l-395 862zM711 1567l198 258h86l-209 -258h-75z" />
<glyph unicode="&#xc2;" horiz-adv-x="1513" d="M74 0l653 1444h59l654 -1444h-68l-198 436h-836l-199 -436h-65zM362 494h789l-395 862zM510 1567l211 258h74l213 -258h-78l-172 211l-172 -211h-76z" />
<glyph unicode="&#xc3;" horiz-adv-x="1513" d="M74 0l653 1444h59l654 -1444h-68l-198 436h-836l-199 -436h-65zM362 494h789l-395 862zM467 1608q3 86 40 133t99 47q37 0 80.5 -21t76.5 -45.5t72 -45.5t68 -21q78 0 90 123h54q-3 -85 -41 -133t-101 -48q-37 0 -79.5 21t-75 46t-71.5 46t-69 21q-83 0 -90 -123h-53z " />
<glyph unicode="&#xc4;" horiz-adv-x="1513" d="M74 0l653 1444h59l654 -1444h-68l-198 436h-836l-199 -436h-65zM362 494h789l-395 862zM506 1686q0 26 17.5 43.5t43.5 17.5t43 -17.5t17 -43.5q0 -25 -17 -42.5t-43 -17.5t-43.5 17.5t-17.5 42.5zM885 1686q0 26 17.5 43.5t43.5 17.5t44 -17.5t18 -43.5q0 -25 -18 -42.5 t-44 -17.5t-43.5 17.5t-17.5 42.5z" />
<glyph unicode="&#xc5;" horiz-adv-x="1513" d="M74 0l653 1444h59l654 -1444h-68l-198 436h-836l-199 -436h-65zM362 494h789l-395 862zM573 1696q0 75 55.5 129.5t131.5 54.5q75 0 128.5 -54.5t53.5 -129.5t-53.5 -130t-128.5 -55q-76 0 -131.5 55t-55.5 130zM623 1696q0 -58 39 -96.5t98 -38.5q57 0 96 38.5t39 96.5 t-39 97.5t-96 39.5q-58 0 -97.5 -39.5t-39.5 -97.5z" />
<glyph unicode="&#xc6;" horiz-adv-x="2076" d="M16 0l924 1434h999v-60h-872v-573h723v-60h-723v-682h909v-59h-972v436h-633l-283 -436h-72zM406 494h598v890h-25z" />
<glyph unicode="&#xc7;" horiz-adv-x="1421" d="M160 717q0 158 55 296t149.5 235.5t226 153.5t279.5 56q240 0 414 -117v-69q-190 127 -412 127q-134 0 -253 -52t-205.5 -142t-136.5 -217t-50 -271t50 -271t136 -217t206 -142t255 -52q256 0 445 153v-73q-168 -131 -420 -140l-133 -229h-80l152 231q-191 8 -345.5 104 t-243.5 263t-89 373z" />
<glyph unicode="&#xc8;" horiz-adv-x="1300" d="M223 0v1434h942v-60h-878v-573h729v-60h-729v-682h913v-59h-977zM461 1825h86l198 -258h-73z" />
<glyph unicode="&#xc9;" horiz-adv-x="1300" d="M223 0v1434h942v-60h-878v-573h729v-60h-729v-682h913v-59h-977zM606 1567l199 258h86l-209 -258h-76z" />
<glyph unicode="&#xca;" horiz-adv-x="1300" d="M223 0v1434h942v-60h-878v-573h729v-60h-729v-682h913v-59h-977zM465 1567l211 258h74l213 -258h-78l-172 211l-172 -211h-76z" />
<glyph unicode="&#xcb;" horiz-adv-x="1300" d="M223 0v1434h942v-60h-878v-573h729v-60h-729v-682h913v-59h-977zM461 1686q0 26 17.5 43.5t43.5 17.5t43 -17.5t17 -43.5q0 -25 -17 -42.5t-43 -17.5t-43.5 17.5t-17.5 42.5zM840 1686q0 26 17.5 43.5t43.5 17.5t44 -17.5t18 -43.5q0 -25 -18 -42.5t-44 -17.5t-43.5 17.5 t-17.5 42.5z" />
<glyph unicode="&#xcc;" horiz-adv-x="536" d="M14 1825h86l199 -258h-74zM236 0v1434h65v-1434h-65z" />
<glyph unicode="&#xcd;" horiz-adv-x="536" d="M223 1567l199 258h86l-209 -258h-76zM236 0v1434h65v-1434h-65z" />
<glyph unicode="&#xce;" horiz-adv-x="536" d="M23 1567l210 258h74l213 -258h-78l-172 211l-172 -211h-75zM236 0v1434h65v-1434h-65z" />
<glyph unicode="&#xcf;" horiz-adv-x="534" d="M16 1686q0 26 18 43.5t44 17.5t42.5 -17.5t16.5 -43.5q0 -25 -16.5 -42.5t-42.5 -17.5t-44 17.5t-18 42.5zM233 0v1434h66v-1434h-66zM395 1686q0 26 18 43.5t44 17.5t43.5 -17.5t17.5 -43.5q0 -25 -17.5 -42.5t-43.5 -17.5t-44 17.5t-18 42.5z" />
<glyph unicode="&#xd0;" horiz-adv-x="1673" d="M63 692v60h248v682h430q228 0 403 -89.5t271 -252.5t96 -375t-96 -375t-271 -252.5t-403 -89.5h-430v692h-248zM377 59h348q331 0 526 181t195 477t-195 476.5t-526 180.5h-348v-622h358v-60h-358v-633z" />
<glyph unicode="&#xd1;" horiz-adv-x="1585" d="M223 0v1434h60l1015 -1321v1321h64v-1434h-59l-1016 1323v-1323h-64zM504 1608q3 86 40 133t99 47q37 0 80.5 -21t76.5 -45.5t72 -45.5t68 -21q78 0 90 123h53q-3 -85 -40.5 -133t-100.5 -48q-37 0 -79.5 21t-75 46t-71.5 46t-69 21q-83 0 -90 -123h-53z" />
<glyph unicode="&#xd2;" d="M160 717q0 157 54.5 295t148.5 235.5t225.5 154t279.5 56.5t278.5 -56.5t224 -154t148 -235.5t54.5 -295q0 -210 -92.5 -380.5t-254 -266t-358.5 -95.5q-198 0 -360 95.5t-255 265.5t-93 381zM225 717q0 -144 50 -271t136 -217t205 -142t252 -52q132 0 250.5 52 t203.5 142t135 217t50 271q0 143 -50 270t-135 217t-203.5 142.5t-250.5 52.5q-133 0 -252 -52.5t-205 -142.5t-136 -217t-50 -270zM618 1825h87l198 -258h-74z" />
<glyph unicode="&#xd3;" d="M160 717q0 157 54.5 295t148.5 235.5t225.5 154t279.5 56.5t278.5 -56.5t224 -154t148 -235.5t54.5 -295q0 -210 -92.5 -380.5t-254 -266t-358.5 -95.5q-198 0 -360 95.5t-255 265.5t-93 381zM225 717q0 -144 50 -271t136 -217t205 -142t252 -52q132 0 250.5 52 t203.5 142t135 217t50 271q0 143 -50 270t-135 217t-203.5 142.5t-250.5 52.5q-133 0 -252 -52.5t-205 -142.5t-136 -217t-50 -270zM801 1567l198 258h86l-208 -258h-76z" />
<glyph unicode="&#xd4;" d="M160 717q0 157 54.5 295t148.5 235.5t225.5 154t279.5 56.5t278.5 -56.5t224 -154t148 -235.5t54.5 -295q0 -210 -92.5 -380.5t-254 -266t-358.5 -95.5q-198 0 -360 95.5t-255 265.5t-93 381zM225 717q0 -144 50 -271t136 -217t205 -142t252 -52q132 0 250.5 52 t203.5 142t135 217t50 271q0 143 -50 270t-135 217t-203.5 142.5t-250.5 52.5q-133 0 -252 -52.5t-205 -142.5t-136 -217t-50 -270zM621 1567l210 258h74l213 -258h-78l-172 211l-172 -211h-75z" />
<glyph unicode="&#xd5;" d="M160 717q0 157 54.5 295t148.5 235.5t225.5 154t279.5 56.5t278.5 -56.5t224 -154t148 -235.5t54.5 -295q0 -210 -92.5 -380.5t-254 -266t-358.5 -95.5q-198 0 -360 95.5t-255 265.5t-93 381zM225 717q0 -144 50 -271t136 -217t205 -142t252 -52q132 0 250.5 52 t203.5 142t135 217t50 271q0 143 -50 270t-135 217t-203.5 142.5t-250.5 52.5q-133 0 -252 -52.5t-205 -142.5t-136 -217t-50 -270zM580 1608q3 86 40 133t99 47q37 0 80.5 -21t76.5 -45.5t72 -45.5t68 -21q78 0 90 123h53q-3 -85 -40.5 -133t-100.5 -48q-37 0 -79.5 21 t-75 46t-71.5 46t-69 21q-83 0 -90 -123h-53z" />
<glyph unicode="&#xd6;" d="M160 717q0 157 54.5 295t148.5 235.5t225.5 154t279.5 56.5t278.5 -56.5t224 -154t148 -235.5t54.5 -295q0 -210 -92.5 -380.5t-254 -266t-358.5 -95.5q-198 0 -360 95.5t-255 265.5t-93 381zM225 717q0 -144 50 -271t136 -217t205 -142t252 -52q132 0 250.5 52 t203.5 142t135 217t50 271q0 143 -50 270t-135 217t-203.5 142.5t-250.5 52.5q-133 0 -252 -52.5t-205 -142.5t-136 -217t-50 -270zM618 1686q0 26 18 43.5t44 17.5t42.5 -17.5t16.5 -43.5q0 -25 -16.5 -42.5t-42.5 -17.5t-44 17.5t-18 42.5zM997 1686q0 26 18 43.5t44 17.5 t43.5 -17.5t17.5 -43.5q0 -25 -17.5 -42.5t-43.5 -17.5t-44 17.5t-18 42.5z" />
<glyph unicode="&#xd7;" horiz-adv-x="1036" d="M143 326l334 333l-334 334l41 41l334 -334l334 334l41 -41l-334 -334l332 -331l-39 -41l-332 329l-336 -329z" />
<glyph unicode="&#xd8;" d="M160 717q0 157 54.5 295t148.5 235.5t225.5 154t279.5 56.5q251 0 443 -158l110 134h76l-141 -172q102 -102 159.5 -242.5t57.5 -302.5q0 -210 -92.5 -380.5t-254 -266t-358.5 -95.5q-255 0 -448 156l-109 -131h-75l141 170q-103 102 -160 242.5t-57 304.5zM225 717 q0 -148 51.5 -276t143.5 -220l852 1030q-179 148 -404 148q-133 0 -252 -52.5t-205 -142.5t-136 -217t-50 -270zM461 182q174 -147 407 -147q132 0 250.5 52t204.5 142t136 217t50 271q0 146 -51 273t-143 222z" />
<glyph unicode="&#xd9;" horiz-adv-x="1527" d="M201 612v822h63v-822q0 -272 133.5 -424.5t366.5 -152.5t367.5 152.5t134.5 424.5v822h63v-822q0 -153 -41.5 -274.5t-116.5 -200.5t-178.5 -120.5t-228.5 -41.5q-256 0 -409.5 166t-153.5 471zM545 1825h86l198 -258h-73z" />
<glyph unicode="&#xda;" horiz-adv-x="1527" d="M201 612v822h63v-822q0 -272 133.5 -424.5t366.5 -152.5t367.5 152.5t134.5 424.5v822h63v-822q0 -153 -41.5 -274.5t-116.5 -200.5t-178.5 -120.5t-228.5 -41.5q-256 0 -409.5 166t-153.5 471zM713 1567l198 258h86l-209 -258h-75z" />
<glyph unicode="&#xdb;" horiz-adv-x="1527" d="M201 612v822h63v-822q0 -272 133.5 -424.5t366.5 -152.5t367.5 152.5t134.5 424.5v822h63v-822q0 -153 -41.5 -274.5t-116.5 -200.5t-178.5 -120.5t-228.5 -41.5q-256 0 -409.5 166t-153.5 471zM518 1567l211 258h74l213 -258h-78l-172 211l-172 -211h-76z" />
<glyph unicode="&#xdc;" horiz-adv-x="1527" d="M201 612v822h63v-822q0 -272 133.5 -424.5t366.5 -152.5t367.5 152.5t134.5 424.5v822h63v-822q0 -153 -41.5 -274.5t-116.5 -200.5t-178.5 -120.5t-228.5 -41.5q-256 0 -409.5 166t-153.5 471zM514 1686q0 26 17.5 43.5t43.5 17.5t43 -17.5t17 -43.5q0 -25 -17 -42.5 t-43 -17.5t-43.5 17.5t-17.5 42.5zM893 1686q0 26 17.5 43.5t43.5 17.5t44 -17.5t18 -43.5q0 -25 -18 -42.5t-44 -17.5t-43.5 17.5t-17.5 42.5z" />
<glyph unicode="&#xdd;" horiz-adv-x="1300" d="M59 1434h78l514 -703l514 703h78l-559 -766v-668h-66v668zM588 1567l198 258h86l-208 -258h-76z" />
<glyph unicode="&#xde;" horiz-adv-x="1359" d="M223 0v1434h64v-340h526q206 0 320 -103t114 -274t-114 -275t-320 -104h-526v-338h-64zM287 397h522q178 0 275.5 84.5t97.5 235.5q0 152 -97.5 234.5t-275.5 82.5h-522v-637z" />
<glyph unicode="&#xdf;" horiz-adv-x="1245" d="M190 0v1026q0 188 113 304t299 116q172 0 281.5 -97.5t109.5 -242.5q0 -121 -61 -195.5t-174 -101.5q160 -30 265 -140t105 -288q0 -184 -126 -295t-320 -111q-115 0 -195 35v66q84 -41 189 -41q169 0 278 96t109 256q0 171 -123.5 279t-331.5 108h-47v60h47 q151 0 237.5 69t86.5 199q0 123 -92 203.5t-238 80.5q-154 0 -251 -98.5t-97 -261.5v-1026h-64z" />
<glyph unicode="&#xe0;" horiz-adv-x="1200" d="M106 291q0 139 115 226t291 87q206 0 397 -112v151q0 143 -94 217t-268 74q-98 0 -186 -32t-146 -73v68q55 38 144.5 67t197.5 29q88 0 162 -20t131.5 -61t90 -109.5t32.5 -159.5v-446q0 -69 29.5 -108.5t80.5 -39.5q32 0 56 12v-55q-19 -12 -66 -12q-65 0 -111.5 44.5 t-50.5 131.5q-72 -86 -180.5 -140.5t-247.5 -54.5q-98 0 -181.5 34t-139.5 107.5t-56 174.5zM172 291q0 -67 28.5 -118t76.5 -80t104.5 -43.5t120.5 -14.5q128 0 235.5 62t171.5 147v182q-186 123 -381 123q-164 0 -260 -70.5t-96 -187.5zM401 1434h86l199 -258h-74z" />
<glyph unicode="&#xe1;" horiz-adv-x="1200" d="M106 291q0 139 115 226t291 87q206 0 397 -112v151q0 143 -94 217t-268 74q-98 0 -186 -32t-146 -73v68q55 38 144.5 67t197.5 29q88 0 162 -20t131.5 -61t90 -109.5t32.5 -159.5v-446q0 -69 29.5 -108.5t80.5 -39.5q32 0 56 12v-55q-19 -12 -66 -12q-65 0 -111.5 44.5 t-50.5 131.5q-72 -86 -180.5 -140.5t-247.5 -54.5q-98 0 -181.5 34t-139.5 107.5t-56 174.5zM172 291q0 -67 28.5 -118t76.5 -80t104.5 -43.5t120.5 -14.5q128 0 235.5 62t171.5 147v182q-186 123 -381 123q-164 0 -260 -70.5t-96 -187.5zM498 1176l198 258h86l-211 -258 h-73z" />
<glyph unicode="&#xe2;" horiz-adv-x="1200" d="M106 291q0 139 115 226t291 87q206 0 397 -112v151q0 143 -94 217t-268 74q-98 0 -186 -32t-146 -73v68q55 38 144.5 67t197.5 29q88 0 162 -20t131.5 -61t90 -109.5t32.5 -159.5v-446q0 -69 29.5 -108.5t80.5 -39.5q32 0 56 12v-55q-19 -12 -66 -12q-65 0 -111.5 44.5 t-50.5 131.5q-72 -86 -180.5 -140.5t-247.5 -54.5q-98 0 -181.5 34t-139.5 107.5t-56 174.5zM172 291q0 -67 28.5 -118t76.5 -80t104.5 -43.5t120.5 -14.5q128 0 235.5 62t171.5 147v182q-186 123 -381 123q-164 0 -260 -70.5t-96 -187.5zM319 1176l211 258h74l213 -258h-78 l-172 210l-172 -210h-76z" />
<glyph unicode="&#xe3;" horiz-adv-x="1200" d="M106 291q0 139 115 226t291 87q206 0 397 -112v151q0 143 -94 217t-268 74q-98 0 -186 -32t-146 -73v68q55 38 144.5 67t197.5 29q88 0 162 -20t131.5 -61t90 -109.5t32.5 -159.5v-446q0 -69 29.5 -108.5t80.5 -39.5q32 0 56 12v-55q-19 -12 -66 -12q-65 0 -111.5 44.5 t-50.5 131.5q-72 -86 -180.5 -140.5t-247.5 -54.5q-98 0 -181.5 34t-139.5 107.5t-56 174.5zM172 291q0 -67 28.5 -118t76.5 -80t104.5 -43.5t120.5 -14.5q128 0 235.5 62t171.5 147v182q-186 123 -381 123q-164 0 -260 -70.5t-96 -187.5zM285 1233q3 84 41 132t100 48 q37 0 80.5 -21t76.5 -46.5t71.5 -46.5t66.5 -21q82 0 90 125h53q-3 -85 -40 -133.5t-99 -48.5q-37 0 -80 21t-76 46.5t-72 46.5t-69 21q-82 0 -90 -123h-53z" />
<glyph unicode="&#xe4;" horiz-adv-x="1200" d="M106 291q0 139 115 226t291 87q206 0 397 -112v151q0 143 -94 217t-268 74q-98 0 -186 -32t-146 -73v68q55 38 144.5 67t197.5 29q88 0 162 -20t131.5 -61t90 -109.5t32.5 -159.5v-446q0 -69 29.5 -108.5t80.5 -39.5q32 0 56 12v-55q-19 -12 -66 -12q-65 0 -111.5 44.5 t-50.5 131.5q-72 -86 -180.5 -140.5t-247.5 -54.5q-98 0 -181.5 34t-139.5 107.5t-56 174.5zM172 291q0 -67 28.5 -118t76.5 -80t104.5 -43.5t120.5 -14.5q128 0 235.5 62t171.5 147v182q-186 123 -381 123q-164 0 -260 -70.5t-96 -187.5zM324 1317q0 25 17.5 42t43.5 17 q25 0 42 -17t17 -42q0 -26 -17 -44t-42 -18q-26 0 -43.5 18t-17.5 44zM702 1317q0 25 17.5 42t44.5 17q25 0 42 -17t17 -42q0 -26 -17 -44t-42 -18q-27 0 -44.5 17.5t-17.5 44.5z" />
<glyph unicode="&#xe5;" horiz-adv-x="1200" d="M106 291q0 139 115 226t291 87q206 0 397 -112v151q0 143 -94 217t-268 74q-98 0 -186 -32t-146 -73v68q55 38 144.5 67t197.5 29q88 0 162 -20t131.5 -61t90 -109.5t32.5 -159.5v-446q0 -69 29.5 -108.5t80.5 -39.5q32 0 56 12v-55q-19 -12 -66 -12q-65 0 -111.5 44.5 t-50.5 131.5q-72 -86 -180.5 -140.5t-247.5 -54.5q-98 0 -181.5 34t-139.5 107.5t-56 174.5zM172 291q0 -67 28.5 -118t76.5 -80t104.5 -43.5t120.5 -14.5q128 0 235.5 62t171.5 147v182q-186 123 -381 123q-164 0 -260 -70.5t-96 -187.5zM399 1317q0 75 56 129.5t131 54.5 t129.5 -54.5t54.5 -129.5q0 -76 -54.5 -131.5t-129.5 -55.5t-131 55.5t-56 131.5zM453 1317q0 -57 38.5 -95t94.5 -38q57 0 96 38t39 95t-39 96t-96 39q-56 0 -94.5 -39t-38.5 -96z" />
<glyph unicode="&#xe6;" horiz-adv-x="1949" d="M106 289q0 141 115 228t291 87q204 0 399 -112v149q0 144 -95 218.5t-269 74.5q-98 0 -186 -32t-146 -73v68q145 96 346 96q104 0 186.5 -28.5t140 -94t70.5 -163.5q53 131 168 208.5t265 77.5q100 0 179.5 -34t127.5 -85.5t80.5 -119t44.5 -128t12 -118.5v-21h-862 q3 -198 134 -325t337 -127q185 0 313 90v-64q-51 -36 -137 -61t-182 -25q-153 0 -276.5 70.5t-188.5 190.5q-35 -50 -80 -93.5t-105 -82.5t-137 -62t-162 -23q-100 0 -185 33.5t-141.5 106.5t-56.5 174zM172 291q0 -87 49 -146.5t121 -84.5t160 -25q144 0 258.5 71.5 t187.5 182.5q-26 58 -37 137q-73 48 -173 85.5t-210 37.5q-164 0 -260 -70.5t-96 -187.5zM975 541h794q0 48 -11.5 98.5t-39.5 104.5t-70 95.5t-109 68t-150 26.5q-94 0 -172.5 -35t-128.5 -92.5t-79 -126t-34 -139.5z" />
<glyph unicode="&#xe7;" horiz-adv-x="1075" d="M117 483q0 136 62.5 251.5t181 187t268.5 71.5q166 0 293 -75v-68q-134 84 -289 84q-191 0 -320 -129.5t-129 -321.5q0 -190 129 -319t320 -129q180 0 309 94v-66q-103 -70 -258 -83l-133 -238h-105l156 233q-214 9 -349.5 156.5t-135.5 351.5z" />
<glyph unicode="&#xe8;" horiz-adv-x="1159" d="M117 483q0 220 135.5 365t347.5 145q100 0 179.5 -34t127.5 -85.5t80.5 -119t44.5 -128t12 -118.5v-21h-862q3 -199 134 -325.5t337 -126.5q186 0 314 90v-64q-51 -36 -137.5 -61t-182.5 -25q-149 0 -270 65.5t-190.5 182t-69.5 260.5zM184 541h797q-2 49 -14 99 t-40.5 104t-70 95t-108.5 68t-150 27q-94 0 -172.5 -35t-128.5 -92.5t-79 -126t-34 -139.5zM410 1434h86l198 -258h-73z" />
<glyph unicode="&#xe9;" horiz-adv-x="1159" d="M117 483q0 220 135.5 365t347.5 145q100 0 179.5 -34t127.5 -85.5t80.5 -119t44.5 -128t12 -118.5v-21h-862q3 -199 134 -325.5t337 -126.5q186 0 314 90v-64q-51 -36 -137.5 -61t-182.5 -25q-149 0 -270 65.5t-190.5 182t-69.5 260.5zM184 541h797q-2 49 -14 99 t-40.5 104t-70 95t-108.5 68t-150 27q-94 0 -172.5 -35t-128.5 -92.5t-79 -126t-34 -139.5zM526 1176l199 258h86l-211 -258h-74z" />
<glyph unicode="&#xea;" horiz-adv-x="1159" d="M117 483q0 220 135.5 365t347.5 145q100 0 179.5 -34t127.5 -85.5t80.5 -119t44.5 -128t12 -118.5v-21h-862q3 -199 134 -325.5t337 -126.5q186 0 314 90v-64q-51 -36 -137.5 -61t-182.5 -25q-149 0 -270 65.5t-190.5 182t-69.5 260.5zM184 541h797q-2 49 -14 99 t-40.5 104t-70 95t-108.5 68t-150 27q-94 0 -172.5 -35t-128.5 -92.5t-79 -126t-34 -139.5zM344 1176l211 258h74l213 -258h-78l-172 210l-172 -210h-76z" />
<glyph unicode="&#xeb;" horiz-adv-x="1159" d="M117 483q0 220 135.5 365t347.5 145q100 0 179.5 -34t127.5 -85.5t80.5 -119t44.5 -128t12 -118.5v-21h-862q3 -199 134 -325.5t337 -126.5q186 0 314 90v-64q-51 -36 -137.5 -61t-182.5 -25q-149 0 -270 65.5t-190.5 182t-69.5 260.5zM184 541h797q-2 49 -14 99 t-40.5 104t-70 95t-108.5 68t-150 27q-94 0 -172.5 -35t-128.5 -92.5t-79 -126t-34 -139.5zM342 1317q0 25 17.5 42t43.5 17q25 0 42.5 -17t17.5 -42q0 -26 -17.5 -44t-42.5 -18q-26 0 -43.5 18t-17.5 44zM721 1317q0 25 17 42t44 17q25 0 42.5 -17t17.5 -42 q0 -26 -17.5 -44t-42.5 -18q-27 0 -44 17.5t-17 44.5z" />
<glyph unicode="&#xec;" horiz-adv-x="489" d="M8 1434h86l199 -258h-74zM215 0v969h64v-969h-64z" />
<glyph unicode="&#xed;" horiz-adv-x="489" d="M203 1176l198 258h86l-211 -258h-73zM215 0v969h64v-969h-64z" />
<glyph unicode="&#xee;" horiz-adv-x="489" d="M-6 1176l211 258h74l213 -258h-78l-172 210l-172 -210h-76zM215 0v969h64v-969h-64z" />
<glyph unicode="&#xef;" horiz-adv-x="491" d="M-4 1317q0 25 17.5 42t43.5 17q25 0 42.5 -17t17.5 -42q0 -26 -17.5 -44t-42.5 -18q-26 0 -43.5 18t-17.5 44zM215 0v969h64v-969h-64zM375 1317q0 25 17 42t44 17q25 0 42.5 -17t17.5 -42q0 -26 -17.5 -44t-42.5 -18q-27 0 -44 17.5t-17 44.5z" />
<glyph unicode="&#xf0;" horiz-adv-x="1210" d="M117 461q0 128 58.5 237t169.5 176.5t251 67.5q144 0 258 -65l-256 372l-285 -119l-30 46l282 118l-96 140h74l80 -115l258 108l30 -47l-256 -108l306 -451q31 -46 48.5 -74.5t40.5 -76t33.5 -98.5t10.5 -109q0 -129 -59 -239.5t-172 -179.5t-257 -69q-108 0 -201 40 t-155.5 107.5t-97.5 155.5t-35 183zM182 461q0 -182 121.5 -304t302.5 -122q182 0 304 122.5t122 303.5q0 179 -122.5 300.5t-303.5 121.5t-302.5 -121.5t-121.5 -300.5z" />
<glyph unicode="&#xf1;" horiz-adv-x="1228" d="M190 0v969h64v-181q66 83 178.5 144t245.5 61q189 0 284 -105.5t95 -299.5v-588h-64v575q0 89 -21.5 156t-54 105t-79 61t-87 30t-87.5 7q-119 0 -236 -70.5t-174 -163.5v-700h-64zM336 1233q3 84 41 132t100 48q37 0 80.5 -21t76.5 -46.5t71.5 -46.5t66.5 -21 q82 0 90 125h53q-3 -85 -40 -133.5t-99 -48.5q-37 0 -80 21t-76 46.5t-72 46.5t-69 21q-82 0 -90 -123h-53z" />
<glyph unicode="&#xf2;" horiz-adv-x="1255" d="M117 483q0 135 62 250.5t180.5 187.5t269.5 72t269 -72t179.5 -187.5t61.5 -250.5q0 -134 -61.5 -249t-180 -187t-268.5 -72t-269 72t-181 187t-62 249zM182 483q0 -189 128.5 -318.5t318.5 -129.5q189 0 316.5 129.5t127.5 318.5q0 191 -127.5 321t-316.5 130 q-190 0 -318.5 -130t-128.5 -321zM422 1434h86l199 -258h-74z" />
<glyph unicode="&#xf3;" horiz-adv-x="1255" d="M117 483q0 135 62 250.5t180.5 187.5t269.5 72t269 -72t179.5 -187.5t61.5 -250.5q0 -134 -61.5 -249t-180 -187t-268.5 -72t-269 72t-181 187t-62 249zM182 483q0 -189 128.5 -318.5t318.5 -129.5q189 0 316.5 129.5t127.5 318.5q0 191 -127.5 321t-316.5 130 q-190 0 -318.5 -130t-128.5 -321zM571 1176l199 258h86l-211 -258h-74z" />
<glyph unicode="&#xf4;" horiz-adv-x="1255" d="M117 483q0 135 62 250.5t180.5 187.5t269.5 72t269 -72t179.5 -187.5t61.5 -250.5q0 -134 -61.5 -249t-180 -187t-268.5 -72t-269 72t-181 187t-62 249zM182 483q0 -189 128.5 -318.5t318.5 -129.5q189 0 316.5 129.5t127.5 318.5q0 191 -127.5 321t-316.5 130 q-190 0 -318.5 -130t-128.5 -321zM377 1176l211 258h74l212 -258h-77l-172 210l-172 -210h-76z" />
<glyph unicode="&#xf5;" horiz-adv-x="1255" d="M117 483q0 135 62 250.5t180.5 187.5t269.5 72t269 -72t179.5 -187.5t61.5 -250.5q0 -134 -61.5 -249t-180 -187t-268.5 -72t-269 72t-181 187t-62 249zM182 483q0 -189 128.5 -318.5t318.5 -129.5q189 0 316.5 129.5t127.5 318.5q0 191 -127.5 321t-316.5 130 q-190 0 -318.5 -130t-128.5 -321zM340 1233q3 84 41 132t100 48q37 0 80.5 -21t76.5 -46.5t71.5 -46.5t66.5 -21q82 0 90 125h54q-3 -85 -40.5 -133.5t-99.5 -48.5q-37 0 -80 21t-76 46.5t-72 46.5t-69 21q-82 0 -90 -123h-53z" />
<glyph unicode="&#xf6;" horiz-adv-x="1255" d="M117 483q0 135 62 250.5t180.5 187.5t269.5 72t269 -72t179.5 -187.5t61.5 -250.5q0 -134 -61.5 -249t-180 -187t-268.5 -72t-269 72t-181 187t-62 249zM182 483q0 -189 128.5 -318.5t318.5 -129.5q189 0 316.5 129.5t127.5 318.5q0 191 -127.5 321t-316.5 130 q-190 0 -318.5 -130t-128.5 -321zM377 1317q0 25 17.5 42t43.5 17q25 0 42.5 -17t17.5 -42q0 -26 -17.5 -44t-42.5 -18q-26 0 -43.5 18t-17.5 44zM756 1317q0 25 17 42t44 17q25 0 42.5 -17t17.5 -42q0 -26 -17.5 -44t-42.5 -18q-27 0 -44 17.5t-17 44.5z" />
<glyph unicode="&#xf7;" horiz-adv-x="1163" d="M143 631v59h877v-59h-877zM510 270q0 32 20.5 53t51.5 21q32 0 52.5 -21t20.5 -53q0 -31 -20.5 -51t-52.5 -20q-31 0 -51.5 20t-20.5 51zM510 1049q0 32 20.5 52.5t51.5 20.5q32 0 52.5 -20.5t20.5 -52.5q0 -30 -20.5 -50t-52.5 -20q-31 0 -51.5 20.5t-20.5 49.5z" />
<glyph unicode="&#xf8;" horiz-adv-x="1255" d="M117 483q0 135 62 250.5t180.5 187.5t269.5 72q172 0 305 -96l57 70h74l-88 -105q77 -72 119.5 -171.5t42.5 -207.5q0 -134 -61.5 -249t-180 -187t-268.5 -72q-177 0 -307 97l-60 -72h-74l88 106q-76 72 -117.5 170.5t-41.5 206.5zM182 483q0 -195 135 -327l576 694 q-117 84 -264 84q-190 0 -318.5 -130t-128.5 -321zM360 119q117 -84 269 -84q189 0 317.5 129.5t128.5 318.5q0 197 -139 330z" />
<glyph unicode="&#xf9;" horiz-adv-x="1234" d="M176 381v588h64v-576q0 -358 329 -358q121 0 238 70t172 163v701h63v-969h-63v180q-66 -83 -178 -144t-246 -61q-189 0 -284 106t-95 300zM408 1434h86l198 -258h-74z" />
<glyph unicode="&#xfa;" horiz-adv-x="1234" d="M176 381v588h64v-576q0 -358 329 -358q121 0 238 70t172 163v701h63v-969h-63v180q-66 -83 -178 -144t-246 -61q-189 0 -284 106t-95 300zM532 1176l199 258h86l-211 -258h-74z" />
<glyph unicode="&#xfb;" horiz-adv-x="1234" d="M176 381v588h64v-576q0 -358 329 -358q121 0 238 70t172 163v701h63v-969h-63v180q-66 -83 -178 -144t-246 -61q-189 0 -284 106t-95 300zM358 1176l211 258h74l213 -258h-78l-172 210l-172 -210h-76z" />
<glyph unicode="&#xfc;" horiz-adv-x="1234" d="M176 381v588h64v-576q0 -358 329 -358q121 0 238 70t172 163v701h63v-969h-63v180q-66 -83 -178 -144t-246 -61q-189 0 -284 106t-95 300zM360 1317q0 25 18 42t44 17q25 0 42 -17t17 -42q0 -26 -17 -44t-42 -18q-26 0 -44 18t-18 44zM739 1317q0 25 17.5 42t44.5 17 q25 0 42 -17t17 -42q0 -26 -17 -44t-42 -18q-27 0 -44.5 17.5t-17.5 44.5z" />
<glyph unicode="&#xfd;" horiz-adv-x="1093" d="M59 969h72l414 -877l401 877h70l-498 -1082q-34 -74 -65 -125t-70 -93.5t-86 -63.5t-102 -21q-84 0 -132 31v61q59 -32 125 -32q43 0 80.5 17.5t66 44.5t60 78.5t55.5 101t60 130.5zM477 1176l199 258h86l-211 -258h-74z" />
<glyph unicode="&#xfe;" horiz-adv-x="1284" d="M190 -410v1844h64v-654q63 87 170.5 150t241.5 63q149 0 265 -72t176 -187.5t60 -250.5q0 -133 -60 -248t-176.5 -187.5t-264.5 -72.5q-134 0 -241.5 63t-170.5 150v-598h-64zM254 281q60 -108 170.5 -177t232.5 -69q190 0 318.5 129.5t128.5 318.5q0 191 -128.5 321 t-318.5 130q-123 0 -233.5 -68.5t-169.5 -177.5v-407z" />
<glyph unicode="&#xff;" horiz-adv-x="1093" d="M59 969h72l414 -877l401 877h70l-498 -1082q-34 -74 -65 -125t-70 -93.5t-86 -63.5t-102 -21q-84 0 -132 31v61q59 -32 125 -32q43 0 80.5 17.5t66 44.5t60 78.5t55.5 101t60 130.5zM289 1317q0 25 17.5 42t43.5 17q25 0 42.5 -17t17.5 -42q0 -26 -17.5 -44t-42.5 -18 q-26 0 -43.5 18t-17.5 44zM668 1317q0 25 17 42t44 17q25 0 42 -17t17 -42q0 -26 -17 -44t-42 -18q-27 0 -44 17.5t-17 44.5z" />
<glyph unicode="&#x152;" horiz-adv-x="2359" d="M160 717q0 212 97 375t272.5 252.5t402.5 89.5h1292v-60h-874v-573h725v-60h-725v-682h909v-59h-1327q-227 0 -402.5 89.5t-272.5 252.5t-97 375zM227 717q0 -146 49 -267.5t140.5 -208t227.5 -134.5t304 -48h338v1315h-338q-336 0 -528.5 -180.5t-192.5 -476.5z" />
<glyph unicode="&#x153;" horiz-adv-x="2115" d="M117 483q0 96 34.5 186.5t98 163t163 116.5t218.5 44q178 0 301 -93.5t174 -237.5q45 149 165 240t283 91q100 0 180.5 -34t129 -86t80.5 -119t44.5 -128t12.5 -118v-21h-862q3 -198 133.5 -325t337.5 -127q185 0 313 90v-64q-51 -36 -138 -61t-183 -25q-175 0 -307.5 91 t-184.5 241q-47 -143 -173.5 -237.5t-305.5 -94.5q-119 0 -218.5 44t-163 116.5t-98 162.5t-34.5 185zM182 483q0 -190 127.5 -319t321.5 -129q191 0 317.5 129t126.5 319t-126.5 320.5t-317.5 130.5q-193 0 -321 -130t-128 -321zM1141 541h796q-1 48 -12.5 98.5 t-40.5 104.5t-71 95.5t-110 68t-151 26.5q-94 0 -172 -35t-128 -92.5t-78.5 -126t-32.5 -139.5z" />
<glyph unicode="&#x178;" horiz-adv-x="1300" d="M59 1434h78l514 -703l514 703h78l-559 -766v-668h-66v668zM401 1686q0 26 18 43.5t44 17.5t42.5 -17.5t16.5 -43.5q0 -25 -16.5 -42.5t-42.5 -17.5t-44 17.5t-18 42.5zM780 1686q0 26 18 43.5t44 17.5t43.5 -17.5t17.5 -43.5q0 -25 -17.5 -42.5t-43.5 -17.5t-44 17.5 t-18 42.5z" />
<glyph unicode="&#x2c6;" horiz-adv-x="1071" d="M285 1176l211 258h73l213 -258h-77l-173 210l-172 -210h-75z" />
<glyph unicode="&#x2dc;" horiz-adv-x="1064" d="M244 1233q3 84 41 132t100 48q37 0 80.5 -21t76.5 -46.5t71.5 -46.5t66.5 -21q82 0 90 125h53q-3 -85 -40 -133.5t-99 -48.5q-37 0 -80 21t-76 46.5t-72 46.5t-69 21q-82 0 -90 -123h-53z" />
<glyph unicode="&#x2000;" horiz-adv-x="940" />
<glyph unicode="&#x2001;" horiz-adv-x="1880" />
<glyph unicode="&#x2002;" horiz-adv-x="940" />
<glyph unicode="&#x2003;" horiz-adv-x="1880" />
<glyph unicode="&#x2004;" horiz-adv-x="626" />
<glyph unicode="&#x2005;" horiz-adv-x="470" />
<glyph unicode="&#x2006;" horiz-adv-x="313" />
<glyph unicode="&#x2007;" horiz-adv-x="313" />
<glyph unicode="&#x2008;" horiz-adv-x="235" />
<glyph unicode="&#x2009;" horiz-adv-x="376" />
<glyph unicode="&#x200a;" horiz-adv-x="104" />
<glyph unicode="&#x2010;" horiz-adv-x="978" d="M219 520v60h541v-60h-541z" />
<glyph unicode="&#x2011;" horiz-adv-x="978" d="M219 520v60h541v-60h-541z" />
<glyph unicode="&#x2012;" horiz-adv-x="978" d="M219 520v60h541v-60h-541z" />
<glyph unicode="&#x2013;" horiz-adv-x="1462" d="M219 520v60h1024v-60h-1024z" />
<glyph unicode="&#x2014;" horiz-adv-x="1859" d="M219 520v60h1421v-60h-1421z" />
<glyph unicode="&#x2018;" horiz-adv-x="395" d="M80 967l174 467h59l-153 -467h-80z" />
<glyph unicode="&#x2019;" horiz-adv-x="395" d="M80 969l153 467h80l-174 -467h-59z" />
<glyph unicode="&#x201a;" horiz-adv-x="425" d="M59 -311l154 467h80l-174 -467h-60z" />
<glyph unicode="&#x201c;" horiz-adv-x="628" d="M80 967l174 467h59l-153 -467h-80zM313 967l174 467h60l-154 -467h-80z" />
<glyph unicode="&#x201d;" horiz-adv-x="626" d="M80 969l153 467h80l-174 -467h-59zM311 969l154 467h80l-174 -467h-60z" />
<glyph unicode="&#x201e;" horiz-adv-x="657" d="M59 -311l154 467h80l-174 -467h-60zM291 -311l153 467h80l-174 -467h-59z" />
<glyph unicode="&#x2022;" horiz-adv-x="823" d="M223 733q0 77 55.5 132t131.5 55q78 0 133 -55t55 -132t-55 -131.5t-133 -54.5q-77 0 -132 55t-55 131z" />
<glyph unicode="&#x2026;" horiz-adv-x="1245" d="M158 57q0 28 17.5 46t45.5 18q26 0 44 -18t18 -46q0 -26 -18 -43.5t-44 -17.5q-28 0 -45.5 17.5t-17.5 43.5zM561 57q0 28 17 46t45 18t45.5 -18t17.5 -46q0 -26 -17.5 -43.5t-45.5 -17.5q-27 0 -44.5 17t-17.5 44zM963 57q0 27 18.5 45.5t44.5 18.5t43.5 -18t17.5 -46 q0 -26 -17.5 -43.5t-43.5 -17.5t-44.5 17.5t-18.5 43.5z" />
<glyph unicode="&#x202f;" horiz-adv-x="376" />
<glyph unicode="&#x2039;" horiz-adv-x="628" d="M113 465v39l325 379h78l-340 -400l340 -397h-78z" />
<glyph unicode="&#x203a;" horiz-adv-x="628" d="M113 86l340 397l-340 400h77l326 -379v-39l-326 -379h-77z" />
<glyph unicode="&#x205f;" horiz-adv-x="470" />
<glyph unicode="&#x20ac;" horiz-adv-x="1425" d="M100 559v59h185q-6 52 -6 111q0 67 10 145h-189v60h201q51 237 214.5 380.5t404.5 143.5q214 0 370 -115v-67q-167 123 -368 123q-212 0 -359.5 -127.5t-195.5 -337.5h594v-60h-607q-10 -78 -10 -145q0 -58 6 -111h611v-59h-603q40 -240 189.5 -382t374.5 -142 q112 0 217 39t184 112v-71q-169 -140 -403 -140q-256 0 -421.5 157.5t-207.5 426.5h-191z" />
<glyph unicode="&#x2122;" horiz-adv-x="1402" d="M51 1382v52h494v-52h-221v-579h-58v579h-215zM674 803v631h51l248 -306l246 306h49v-631h-56v536l-227 -272h-29l-225 272v-536h-57z" />
<glyph unicode="&#x25fc;" horiz-adv-x="972" d="M0 0v973h973v-973h-973z" />
</font>
</defs>
</svg>
